G75*
G70*
%OFA0B0*%
%FSLAX24Y24*%
%IPPOS*%
%LPD*%
%AMOC8*
5,1,8,0,0,1.08239X$1,22.5*
%
%ADD10C,0.0080*%
%ADD11R,0.0320X0.1030*%
%ADD12R,0.1030X0.0320*%
%ADD13R,0.0250X0.0300*%
%ADD14R,0.1100X0.0500*%
%ADD15C,0.0100*%
%ADD16C,0.0160*%
%ADD17C,0.0060*%
%ADD18C,0.0070*%
%ADD19C,0.0050*%
D10*
X018168Y026349D02*
X018308Y026349D01*
X018378Y026419D01*
X018378Y026559D01*
X018238Y026559D01*
X018098Y026419D02*
X018168Y026349D01*
X018098Y026419D02*
X018098Y026700D01*
X018168Y026770D01*
X018308Y026770D01*
X018378Y026700D01*
X018558Y026770D02*
X018838Y026349D01*
X018838Y026770D01*
X019019Y026770D02*
X019229Y026770D01*
X019299Y026700D01*
X019299Y026419D01*
X019229Y026349D01*
X019019Y026349D01*
X019019Y026770D01*
X019253Y027059D02*
X018753Y027059D01*
X018503Y027309D01*
X018503Y027809D01*
X018753Y028059D01*
X019253Y028059D01*
X019503Y027809D01*
X019503Y027309D01*
X019253Y027059D01*
X019503Y027309D02*
X019753Y027059D01*
X020253Y027059D01*
X020503Y027309D01*
X020503Y027809D01*
X020753Y028059D01*
X021253Y028059D01*
X021503Y027809D01*
X021503Y027309D01*
X021253Y027059D01*
X020753Y027059D01*
X020503Y027309D01*
X020503Y027809D02*
X020253Y028059D01*
X019753Y028059D01*
X019503Y027809D01*
X019939Y026770D02*
X019939Y026559D01*
X020079Y026630D01*
X020149Y026630D01*
X020219Y026559D01*
X020219Y026419D01*
X020149Y026349D01*
X020009Y026349D01*
X019939Y026419D01*
X019939Y026770D02*
X020219Y026770D01*
X020400Y026770D02*
X020400Y026489D01*
X020540Y026349D01*
X020680Y026489D01*
X020680Y026770D01*
X021320Y026700D02*
X021320Y026630D01*
X021390Y026559D01*
X021530Y026559D01*
X021601Y026489D01*
X021601Y026419D01*
X021530Y026349D01*
X021390Y026349D01*
X021320Y026419D01*
X021320Y026489D01*
X021390Y026559D01*
X021530Y026559D02*
X021601Y026630D01*
X021601Y026700D01*
X021530Y026770D01*
X021390Y026770D01*
X021320Y026700D01*
X021753Y027059D02*
X021503Y027309D01*
X021753Y027059D02*
X022253Y027059D01*
X022503Y027309D01*
X022503Y027809D01*
X022753Y028059D01*
X023253Y028059D01*
X023503Y027809D01*
X023503Y027309D01*
X023253Y027059D01*
X022753Y027059D01*
X022503Y027309D01*
X022503Y027809D02*
X022253Y028059D01*
X021753Y028059D01*
X021503Y027809D01*
X022241Y026770D02*
X022521Y026770D01*
X022521Y026700D01*
X022241Y026419D01*
X022241Y026349D01*
X023162Y026419D02*
X023232Y026349D01*
X023372Y026349D01*
X023442Y026419D01*
X023442Y026489D01*
X023372Y026559D01*
X023162Y026559D01*
X023162Y026419D01*
X023162Y026559D02*
X023302Y026700D01*
X023442Y026770D01*
X023753Y027059D02*
X023503Y027309D01*
X023753Y027059D02*
X024253Y027059D01*
X024503Y027309D01*
X024503Y027809D01*
X024253Y028059D01*
X023753Y028059D01*
X023503Y027809D01*
X024082Y026770D02*
X024082Y026559D01*
X024223Y026630D01*
X024293Y026630D01*
X024363Y026559D01*
X024363Y026419D01*
X024293Y026349D01*
X024152Y026349D01*
X024082Y026419D01*
X024082Y026770D02*
X024363Y026770D01*
X029853Y027009D02*
X032153Y027009D01*
X032153Y030009D01*
X031403Y030009D01*
X031401Y029970D01*
X031395Y029931D01*
X031386Y029893D01*
X031373Y029856D01*
X031356Y029820D01*
X031336Y029787D01*
X031312Y029755D01*
X031286Y029726D01*
X031257Y029700D01*
X031225Y029676D01*
X031192Y029656D01*
X031156Y029639D01*
X031119Y029626D01*
X031081Y029617D01*
X031042Y029611D01*
X031003Y029609D01*
X030964Y029611D01*
X030925Y029617D01*
X030887Y029626D01*
X030850Y029639D01*
X030814Y029656D01*
X030781Y029676D01*
X030749Y029700D01*
X030720Y029726D01*
X030694Y029755D01*
X030670Y029787D01*
X030650Y029820D01*
X030633Y029856D01*
X030620Y029893D01*
X030611Y029931D01*
X030605Y029970D01*
X030603Y030009D01*
X029853Y030009D01*
X029853Y027009D01*
X033793Y029719D02*
X033863Y029649D01*
X034143Y029649D01*
X034213Y029719D01*
X034213Y029859D01*
X034143Y029930D01*
X034003Y030110D02*
X034003Y030390D01*
X033793Y030320D02*
X034003Y030110D01*
X033863Y029930D02*
X033793Y029859D01*
X033793Y029719D01*
X033793Y030320D02*
X034213Y030320D01*
X034403Y029609D02*
X034403Y033409D01*
X034405Y033426D01*
X034409Y033443D01*
X034416Y033459D01*
X034426Y033473D01*
X034439Y033486D01*
X034453Y033496D01*
X034469Y033503D01*
X034486Y033507D01*
X034503Y033509D01*
X035503Y033509D01*
X035520Y033507D01*
X035537Y033503D01*
X035553Y033496D01*
X035567Y033486D01*
X035580Y033473D01*
X035590Y033459D01*
X035597Y033443D01*
X035601Y033426D01*
X035603Y033409D01*
X035603Y029609D01*
X035601Y029592D01*
X035597Y029575D01*
X035590Y029559D01*
X035580Y029545D01*
X035567Y029532D01*
X035553Y029522D01*
X035537Y029515D01*
X035520Y029511D01*
X035503Y029509D01*
X034503Y029509D01*
X034486Y029511D01*
X034469Y029515D01*
X034453Y029522D01*
X034439Y029532D01*
X034426Y029545D01*
X034416Y029559D01*
X034409Y029575D01*
X034405Y029592D01*
X034403Y029609D01*
X035003Y030509D02*
X035003Y031309D01*
X035353Y031309D01*
X035003Y031309D02*
X034653Y031309D01*
X034653Y031709D02*
X035003Y031709D01*
X035353Y031709D01*
X035003Y031709D02*
X035003Y032509D01*
X036593Y032650D02*
X036663Y032510D01*
X036803Y032370D01*
X036803Y032580D01*
X036873Y032650D01*
X036943Y032650D01*
X037013Y032580D01*
X037013Y032440D01*
X036943Y032370D01*
X036803Y032370D01*
X037013Y032190D02*
X037013Y031910D01*
X037013Y032050D02*
X036593Y032050D01*
X036733Y031910D01*
X036663Y031730D02*
X036803Y031730D01*
X036873Y031659D01*
X036873Y031449D01*
X037013Y031449D02*
X036593Y031449D01*
X036593Y031659D01*
X036663Y031730D01*
X036873Y031589D02*
X037013Y031730D01*
X036603Y030509D02*
X036605Y030568D01*
X036611Y030628D01*
X036621Y030686D01*
X036634Y030744D01*
X036652Y030801D01*
X036673Y030857D01*
X036698Y030911D01*
X036726Y030963D01*
X036758Y031014D01*
X036793Y031062D01*
X036831Y031108D01*
X036872Y031151D01*
X036916Y031191D01*
X036962Y031228D01*
X037011Y031262D01*
X037062Y031293D01*
X037114Y031321D01*
X037169Y031345D01*
X037225Y031365D01*
X037282Y031381D01*
X037340Y031394D01*
X037399Y031403D01*
X037458Y031408D01*
X037518Y031409D01*
X037577Y031406D01*
X037636Y031399D01*
X037695Y031388D01*
X037753Y031374D01*
X037809Y031355D01*
X037865Y031333D01*
X037918Y031308D01*
X037970Y031278D01*
X038020Y031246D01*
X038067Y031210D01*
X038113Y031171D01*
X038155Y031129D01*
X038195Y031085D01*
X038231Y031038D01*
X038264Y030989D01*
X038295Y030937D01*
X038321Y030884D01*
X038344Y030829D01*
X038363Y030773D01*
X038379Y030715D01*
X038391Y030657D01*
X038399Y030598D01*
X038403Y030539D01*
X038403Y030479D01*
X038399Y030420D01*
X038391Y030361D01*
X038379Y030303D01*
X038363Y030245D01*
X038344Y030189D01*
X038321Y030134D01*
X038295Y030081D01*
X038264Y030029D01*
X038231Y029980D01*
X038195Y029933D01*
X038155Y029889D01*
X038113Y029847D01*
X038067Y029808D01*
X038020Y029772D01*
X037970Y029740D01*
X037918Y029710D01*
X037865Y029685D01*
X037809Y029663D01*
X037753Y029644D01*
X037695Y029630D01*
X037636Y029619D01*
X037577Y029612D01*
X037518Y029609D01*
X037458Y029610D01*
X037399Y029615D01*
X037340Y029624D01*
X037282Y029637D01*
X037225Y029653D01*
X037169Y029673D01*
X037114Y029697D01*
X037062Y029725D01*
X037011Y029756D01*
X036962Y029790D01*
X036916Y029827D01*
X036872Y029867D01*
X036831Y029910D01*
X036793Y029956D01*
X036758Y030004D01*
X036726Y030055D01*
X036698Y030107D01*
X036673Y030161D01*
X036652Y030217D01*
X036634Y030274D01*
X036621Y030332D01*
X036611Y030390D01*
X036605Y030450D01*
X036603Y030509D01*
X036653Y028420D02*
X036724Y028350D01*
X036724Y028209D01*
X036653Y028139D01*
X036443Y028139D01*
X036443Y027999D02*
X036443Y028420D01*
X036653Y028420D01*
X036904Y028280D02*
X037044Y028420D01*
X037044Y027999D01*
X036904Y027999D02*
X037184Y027999D01*
X037364Y027999D02*
X037364Y028069D01*
X037644Y028350D01*
X037644Y028420D01*
X037364Y028420D01*
X036724Y027999D02*
X036583Y028139D01*
X034603Y027509D02*
X034605Y027568D01*
X034611Y027628D01*
X034621Y027686D01*
X034634Y027744D01*
X034652Y027801D01*
X034673Y027857D01*
X034698Y027911D01*
X034726Y027963D01*
X034758Y028014D01*
X034793Y028062D01*
X034831Y028108D01*
X034872Y028151D01*
X034916Y028191D01*
X034962Y028228D01*
X035011Y028262D01*
X035062Y028293D01*
X035114Y028321D01*
X035169Y028345D01*
X035225Y028365D01*
X035282Y028381D01*
X035340Y028394D01*
X035399Y028403D01*
X035458Y028408D01*
X035518Y028409D01*
X035577Y028406D01*
X035636Y028399D01*
X035695Y028388D01*
X035753Y028374D01*
X035809Y028355D01*
X035865Y028333D01*
X035918Y028308D01*
X035970Y028278D01*
X036020Y028246D01*
X036067Y028210D01*
X036113Y028171D01*
X036155Y028129D01*
X036195Y028085D01*
X036231Y028038D01*
X036264Y027989D01*
X036295Y027937D01*
X036321Y027884D01*
X036344Y027829D01*
X036363Y027773D01*
X036379Y027715D01*
X036391Y027657D01*
X036399Y027598D01*
X036403Y027539D01*
X036403Y027479D01*
X036399Y027420D01*
X036391Y027361D01*
X036379Y027303D01*
X036363Y027245D01*
X036344Y027189D01*
X036321Y027134D01*
X036295Y027081D01*
X036264Y027029D01*
X036231Y026980D01*
X036195Y026933D01*
X036155Y026889D01*
X036113Y026847D01*
X036067Y026808D01*
X036020Y026772D01*
X035970Y026740D01*
X035918Y026710D01*
X035865Y026685D01*
X035809Y026663D01*
X035753Y026644D01*
X035695Y026630D01*
X035636Y026619D01*
X035577Y026612D01*
X035518Y026609D01*
X035458Y026610D01*
X035399Y026615D01*
X035340Y026624D01*
X035282Y026637D01*
X035225Y026653D01*
X035169Y026673D01*
X035114Y026697D01*
X035062Y026725D01*
X035011Y026756D01*
X034962Y026790D01*
X034916Y026827D01*
X034872Y026867D01*
X034831Y026910D01*
X034793Y026956D01*
X034758Y027004D01*
X034726Y027055D01*
X034698Y027107D01*
X034673Y027161D01*
X034652Y027217D01*
X034634Y027274D01*
X034621Y027332D01*
X034611Y027390D01*
X034605Y027450D01*
X034603Y027509D01*
X031024Y030149D02*
X031024Y030570D01*
X030814Y030359D01*
X031094Y030359D01*
X030634Y030149D02*
X030424Y030359D01*
X030354Y030289D02*
X030634Y030570D01*
X030354Y030570D02*
X030354Y030149D01*
X030174Y030219D02*
X030174Y030500D01*
X030103Y030570D01*
X029963Y030570D01*
X029893Y030500D01*
X029893Y030219D01*
X029963Y030149D01*
X030103Y030149D01*
X030174Y030219D01*
X029574Y031999D02*
X029434Y031999D01*
X029364Y032069D01*
X029644Y032350D01*
X029644Y032069D01*
X029574Y031999D01*
X029364Y032069D02*
X029364Y032350D01*
X029434Y032420D01*
X029574Y032420D01*
X029644Y032350D01*
X029184Y032350D02*
X029184Y032280D01*
X028904Y031999D01*
X029184Y031999D01*
X029184Y032350D02*
X029114Y032420D01*
X028974Y032420D01*
X028904Y032350D01*
X028724Y032350D02*
X028724Y032209D01*
X028653Y032139D01*
X028443Y032139D01*
X028443Y031999D02*
X028443Y032420D01*
X028653Y032420D01*
X028724Y032350D01*
X028583Y032139D02*
X028724Y031999D01*
X026603Y031509D02*
X026605Y031568D01*
X026611Y031628D01*
X026621Y031686D01*
X026634Y031744D01*
X026652Y031801D01*
X026673Y031857D01*
X026698Y031911D01*
X026726Y031963D01*
X026758Y032014D01*
X026793Y032062D01*
X026831Y032108D01*
X026872Y032151D01*
X026916Y032191D01*
X026962Y032228D01*
X027011Y032262D01*
X027062Y032293D01*
X027114Y032321D01*
X027169Y032345D01*
X027225Y032365D01*
X027282Y032381D01*
X027340Y032394D01*
X027399Y032403D01*
X027458Y032408D01*
X027518Y032409D01*
X027577Y032406D01*
X027636Y032399D01*
X027695Y032388D01*
X027753Y032374D01*
X027809Y032355D01*
X027865Y032333D01*
X027918Y032308D01*
X027970Y032278D01*
X028020Y032246D01*
X028067Y032210D01*
X028113Y032171D01*
X028155Y032129D01*
X028195Y032085D01*
X028231Y032038D01*
X028264Y031989D01*
X028295Y031937D01*
X028321Y031884D01*
X028344Y031829D01*
X028363Y031773D01*
X028379Y031715D01*
X028391Y031657D01*
X028399Y031598D01*
X028403Y031539D01*
X028403Y031479D01*
X028399Y031420D01*
X028391Y031361D01*
X028379Y031303D01*
X028363Y031245D01*
X028344Y031189D01*
X028321Y031134D01*
X028295Y031081D01*
X028264Y031029D01*
X028231Y030980D01*
X028195Y030933D01*
X028155Y030889D01*
X028113Y030847D01*
X028067Y030808D01*
X028020Y030772D01*
X027970Y030740D01*
X027918Y030710D01*
X027865Y030685D01*
X027809Y030663D01*
X027753Y030644D01*
X027695Y030630D01*
X027636Y030619D01*
X027577Y030612D01*
X027518Y030609D01*
X027458Y030610D01*
X027399Y030615D01*
X027340Y030624D01*
X027282Y030637D01*
X027225Y030653D01*
X027169Y030673D01*
X027114Y030697D01*
X027062Y030725D01*
X027011Y030756D01*
X026962Y030790D01*
X026916Y030827D01*
X026872Y030867D01*
X026831Y030910D01*
X026793Y030956D01*
X026758Y031004D01*
X026726Y031055D01*
X026698Y031107D01*
X026673Y031161D01*
X026652Y031217D01*
X026634Y031274D01*
X026621Y031332D01*
X026611Y031390D01*
X026605Y031450D01*
X026603Y031509D01*
X026603Y033509D02*
X026605Y033568D01*
X026611Y033628D01*
X026621Y033686D01*
X026634Y033744D01*
X026652Y033801D01*
X026673Y033857D01*
X026698Y033911D01*
X026726Y033963D01*
X026758Y034014D01*
X026793Y034062D01*
X026831Y034108D01*
X026872Y034151D01*
X026916Y034191D01*
X026962Y034228D01*
X027011Y034262D01*
X027062Y034293D01*
X027114Y034321D01*
X027169Y034345D01*
X027225Y034365D01*
X027282Y034381D01*
X027340Y034394D01*
X027399Y034403D01*
X027458Y034408D01*
X027518Y034409D01*
X027577Y034406D01*
X027636Y034399D01*
X027695Y034388D01*
X027753Y034374D01*
X027809Y034355D01*
X027865Y034333D01*
X027918Y034308D01*
X027970Y034278D01*
X028020Y034246D01*
X028067Y034210D01*
X028113Y034171D01*
X028155Y034129D01*
X028195Y034085D01*
X028231Y034038D01*
X028264Y033989D01*
X028295Y033937D01*
X028321Y033884D01*
X028344Y033829D01*
X028363Y033773D01*
X028379Y033715D01*
X028391Y033657D01*
X028399Y033598D01*
X028403Y033539D01*
X028403Y033479D01*
X028399Y033420D01*
X028391Y033361D01*
X028379Y033303D01*
X028363Y033245D01*
X028344Y033189D01*
X028321Y033134D01*
X028295Y033081D01*
X028264Y033029D01*
X028231Y032980D01*
X028195Y032933D01*
X028155Y032889D01*
X028113Y032847D01*
X028067Y032808D01*
X028020Y032772D01*
X027970Y032740D01*
X027918Y032710D01*
X027865Y032685D01*
X027809Y032663D01*
X027753Y032644D01*
X027695Y032630D01*
X027636Y032619D01*
X027577Y032612D01*
X027518Y032609D01*
X027458Y032610D01*
X027399Y032615D01*
X027340Y032624D01*
X027282Y032637D01*
X027225Y032653D01*
X027169Y032673D01*
X027114Y032697D01*
X027062Y032725D01*
X027011Y032756D01*
X026962Y032790D01*
X026916Y032827D01*
X026872Y032867D01*
X026831Y032910D01*
X026793Y032956D01*
X026758Y033004D01*
X026726Y033055D01*
X026698Y033107D01*
X026673Y033161D01*
X026652Y033217D01*
X026634Y033274D01*
X026621Y033332D01*
X026611Y033390D01*
X026605Y033450D01*
X026603Y033509D01*
X028443Y033999D02*
X028443Y034420D01*
X028653Y034420D01*
X028724Y034350D01*
X028724Y034209D01*
X028653Y034139D01*
X028443Y034139D01*
X028583Y034139D02*
X028724Y033999D01*
X028904Y033999D02*
X029184Y034280D01*
X029184Y034350D01*
X029114Y034420D01*
X028974Y034420D01*
X028904Y034350D01*
X028904Y033999D02*
X029184Y033999D01*
X029364Y033999D02*
X029644Y033999D01*
X029504Y033999D02*
X029504Y034420D01*
X029364Y034280D01*
X029853Y035009D02*
X032153Y035009D01*
X032153Y038009D01*
X031403Y038009D01*
X031094Y038219D02*
X031024Y038149D01*
X030884Y038149D01*
X030814Y038219D01*
X030634Y038149D02*
X030424Y038359D01*
X030354Y038289D02*
X030634Y038570D01*
X030814Y038500D02*
X030884Y038570D01*
X031024Y038570D01*
X031094Y038500D01*
X031094Y038430D01*
X031024Y038359D01*
X031094Y038289D01*
X031094Y038219D01*
X031024Y038359D02*
X030954Y038359D01*
X030603Y038009D02*
X030605Y037970D01*
X030611Y037931D01*
X030620Y037893D01*
X030633Y037856D01*
X030650Y037820D01*
X030670Y037787D01*
X030694Y037755D01*
X030720Y037726D01*
X030749Y037700D01*
X030781Y037676D01*
X030814Y037656D01*
X030850Y037639D01*
X030887Y037626D01*
X030925Y037617D01*
X030964Y037611D01*
X031003Y037609D01*
X031042Y037611D01*
X031081Y037617D01*
X031119Y037626D01*
X031156Y037639D01*
X031192Y037656D01*
X031225Y037676D01*
X031257Y037700D01*
X031286Y037726D01*
X031312Y037755D01*
X031336Y037787D01*
X031356Y037820D01*
X031373Y037856D01*
X031386Y037893D01*
X031395Y037931D01*
X031401Y037970D01*
X031403Y038009D01*
X030603Y038009D02*
X029853Y038009D01*
X029853Y035009D01*
X032403Y033119D02*
X032403Y032839D01*
X032193Y033049D01*
X032613Y033049D01*
X032543Y032659D02*
X032263Y032659D01*
X032193Y032589D01*
X032193Y032378D01*
X032613Y032378D01*
X032613Y032589D01*
X032543Y032659D01*
X032613Y032198D02*
X032613Y031918D01*
X032193Y031918D01*
X032193Y032198D01*
X032403Y032058D02*
X032403Y031918D01*
X032613Y031738D02*
X032613Y031458D01*
X032193Y031458D01*
X030635Y032483D02*
X030600Y032453D01*
X030567Y032422D01*
X030537Y032387D01*
X030510Y032351D01*
X030486Y032313D01*
X030464Y032273D01*
X030446Y032231D01*
X030430Y032188D01*
X030418Y032144D01*
X030410Y032100D01*
X030405Y032054D01*
X030403Y032009D01*
X030405Y031964D01*
X030410Y031918D01*
X030418Y031874D01*
X030430Y031830D01*
X030446Y031787D01*
X030464Y031745D01*
X030486Y031705D01*
X030510Y031667D01*
X030537Y031631D01*
X030567Y031596D01*
X030600Y031565D01*
X030635Y031535D01*
X031603Y032009D02*
X031601Y032055D01*
X031596Y032101D01*
X031587Y032147D01*
X031575Y032192D01*
X031559Y032235D01*
X031540Y032277D01*
X031517Y032318D01*
X031492Y032357D01*
X031464Y032393D01*
X031433Y032428D01*
X031399Y032460D01*
X031363Y032489D01*
X031603Y032009D02*
X031601Y031962D01*
X031595Y031914D01*
X031586Y031868D01*
X031573Y031822D01*
X031557Y031778D01*
X031537Y031734D01*
X031513Y031693D01*
X031487Y031654D01*
X031457Y031617D01*
X031424Y031582D01*
X031389Y031550D01*
X031352Y031521D01*
X034603Y035509D02*
X034605Y035568D01*
X034611Y035628D01*
X034621Y035686D01*
X034634Y035744D01*
X034652Y035801D01*
X034673Y035857D01*
X034698Y035911D01*
X034726Y035963D01*
X034758Y036014D01*
X034793Y036062D01*
X034831Y036108D01*
X034872Y036151D01*
X034916Y036191D01*
X034962Y036228D01*
X035011Y036262D01*
X035062Y036293D01*
X035114Y036321D01*
X035169Y036345D01*
X035225Y036365D01*
X035282Y036381D01*
X035340Y036394D01*
X035399Y036403D01*
X035458Y036408D01*
X035518Y036409D01*
X035577Y036406D01*
X035636Y036399D01*
X035695Y036388D01*
X035753Y036374D01*
X035809Y036355D01*
X035865Y036333D01*
X035918Y036308D01*
X035970Y036278D01*
X036020Y036246D01*
X036067Y036210D01*
X036113Y036171D01*
X036155Y036129D01*
X036195Y036085D01*
X036231Y036038D01*
X036264Y035989D01*
X036295Y035937D01*
X036321Y035884D01*
X036344Y035829D01*
X036363Y035773D01*
X036379Y035715D01*
X036391Y035657D01*
X036399Y035598D01*
X036403Y035539D01*
X036403Y035479D01*
X036399Y035420D01*
X036391Y035361D01*
X036379Y035303D01*
X036363Y035245D01*
X036344Y035189D01*
X036321Y035134D01*
X036295Y035081D01*
X036264Y035029D01*
X036231Y034980D01*
X036195Y034933D01*
X036155Y034889D01*
X036113Y034847D01*
X036067Y034808D01*
X036020Y034772D01*
X035970Y034740D01*
X035918Y034710D01*
X035865Y034685D01*
X035809Y034663D01*
X035753Y034644D01*
X035695Y034630D01*
X035636Y034619D01*
X035577Y034612D01*
X035518Y034609D01*
X035458Y034610D01*
X035399Y034615D01*
X035340Y034624D01*
X035282Y034637D01*
X035225Y034653D01*
X035169Y034673D01*
X035114Y034697D01*
X035062Y034725D01*
X035011Y034756D01*
X034962Y034790D01*
X034916Y034827D01*
X034872Y034867D01*
X034831Y034910D01*
X034793Y034956D01*
X034758Y035004D01*
X034726Y035055D01*
X034698Y035107D01*
X034673Y035161D01*
X034652Y035217D01*
X034634Y035274D01*
X034621Y035332D01*
X034611Y035390D01*
X034605Y035450D01*
X034603Y035509D01*
X036443Y035999D02*
X036443Y036420D01*
X036653Y036420D01*
X036724Y036350D01*
X036724Y036209D01*
X036653Y036139D01*
X036443Y036139D01*
X036583Y036139D02*
X036724Y035999D01*
X036904Y035999D02*
X037184Y035999D01*
X037044Y035999D02*
X037044Y036420D01*
X036904Y036280D01*
X037364Y036350D02*
X037434Y036420D01*
X037574Y036420D01*
X037644Y036350D01*
X037644Y036280D01*
X037364Y035999D01*
X037644Y035999D01*
X038603Y035509D02*
X038605Y035568D01*
X038611Y035628D01*
X038621Y035686D01*
X038634Y035744D01*
X038652Y035801D01*
X038673Y035857D01*
X038698Y035911D01*
X038726Y035963D01*
X038758Y036014D01*
X038793Y036062D01*
X038831Y036108D01*
X038872Y036151D01*
X038916Y036191D01*
X038962Y036228D01*
X039011Y036262D01*
X039062Y036293D01*
X039114Y036321D01*
X039169Y036345D01*
X039225Y036365D01*
X039282Y036381D01*
X039340Y036394D01*
X039399Y036403D01*
X039458Y036408D01*
X039518Y036409D01*
X039577Y036406D01*
X039636Y036399D01*
X039695Y036388D01*
X039753Y036374D01*
X039809Y036355D01*
X039865Y036333D01*
X039918Y036308D01*
X039970Y036278D01*
X040020Y036246D01*
X040067Y036210D01*
X040113Y036171D01*
X040155Y036129D01*
X040195Y036085D01*
X040231Y036038D01*
X040264Y035989D01*
X040295Y035937D01*
X040321Y035884D01*
X040344Y035829D01*
X040363Y035773D01*
X040379Y035715D01*
X040391Y035657D01*
X040399Y035598D01*
X040403Y035539D01*
X040403Y035479D01*
X040399Y035420D01*
X040391Y035361D01*
X040379Y035303D01*
X040363Y035245D01*
X040344Y035189D01*
X040321Y035134D01*
X040295Y035081D01*
X040264Y035029D01*
X040231Y034980D01*
X040195Y034933D01*
X040155Y034889D01*
X040113Y034847D01*
X040067Y034808D01*
X040020Y034772D01*
X039970Y034740D01*
X039918Y034710D01*
X039865Y034685D01*
X039809Y034663D01*
X039753Y034644D01*
X039695Y034630D01*
X039636Y034619D01*
X039577Y034612D01*
X039518Y034609D01*
X039458Y034610D01*
X039399Y034615D01*
X039340Y034624D01*
X039282Y034637D01*
X039225Y034653D01*
X039169Y034673D01*
X039114Y034697D01*
X039062Y034725D01*
X039011Y034756D01*
X038962Y034790D01*
X038916Y034827D01*
X038872Y034867D01*
X038831Y034910D01*
X038793Y034956D01*
X038758Y035004D01*
X038726Y035055D01*
X038698Y035107D01*
X038673Y035161D01*
X038652Y035217D01*
X038634Y035274D01*
X038621Y035332D01*
X038611Y035390D01*
X038605Y035450D01*
X038603Y035509D01*
X040443Y035999D02*
X040443Y036420D01*
X040653Y036420D01*
X040724Y036350D01*
X040724Y036209D01*
X040653Y036139D01*
X040443Y036139D01*
X040583Y036139D02*
X040724Y035999D01*
X040904Y035999D02*
X041184Y035999D01*
X041044Y035999D02*
X041044Y036420D01*
X040904Y036280D01*
X041364Y036350D02*
X041434Y036420D01*
X041574Y036420D01*
X041644Y036350D01*
X041644Y036280D01*
X041574Y036209D01*
X041644Y036139D01*
X041644Y036069D01*
X041574Y035999D01*
X041434Y035999D01*
X041364Y036069D01*
X041504Y036209D02*
X041574Y036209D01*
X042503Y036959D02*
X047403Y036959D01*
X047403Y037309D01*
X048003Y037309D01*
X048003Y036959D01*
X048753Y036959D01*
X048753Y041059D01*
X048003Y041059D01*
X048003Y040709D01*
X047403Y040709D01*
X047403Y041059D01*
X042503Y041059D01*
X042503Y036959D01*
X044254Y033920D02*
X044668Y033920D01*
X044461Y033920D02*
X044461Y033299D01*
X044899Y033610D02*
X045312Y033610D01*
X045209Y033920D02*
X044899Y033610D01*
X045209Y033920D02*
X045209Y033299D01*
X047403Y033059D02*
X042503Y033059D01*
X042503Y028959D01*
X047403Y028959D01*
X047403Y029309D01*
X048003Y029309D01*
X048003Y028959D01*
X048753Y028959D01*
X048753Y033059D01*
X048003Y033059D01*
X048003Y032709D01*
X047403Y032709D01*
X047403Y033059D01*
X049253Y033009D02*
X049653Y033859D01*
X051353Y033859D01*
X051753Y033009D01*
X051753Y028009D01*
X051353Y027159D01*
X049653Y027159D01*
X049253Y028009D01*
X049253Y033009D01*
X049653Y033459D02*
X049653Y027559D01*
X050003Y028009D02*
X051003Y028009D01*
X050753Y028259D02*
X050003Y028259D01*
X050003Y028509D02*
X050503Y028509D01*
X051353Y027609D02*
X051353Y033459D01*
X051003Y033009D02*
X050003Y033009D01*
X050253Y032759D02*
X051003Y032759D01*
X051003Y032509D02*
X050503Y032509D01*
X049088Y034668D02*
X048668Y034668D01*
X048668Y034878D01*
X048738Y034948D01*
X048878Y034948D01*
X048948Y034878D01*
X048948Y034668D01*
X048948Y034808D02*
X049088Y034948D01*
X049088Y035129D02*
X049088Y035409D01*
X049088Y035269D02*
X048668Y035269D01*
X048808Y035129D01*
X048878Y035589D02*
X048878Y035869D01*
X048668Y035799D02*
X048878Y035589D01*
X049088Y035799D02*
X048668Y035799D01*
X049253Y036009D02*
X049653Y035159D01*
X051353Y035159D01*
X051753Y036009D01*
X051753Y041009D01*
X051353Y041859D01*
X049653Y041859D01*
X049253Y041009D01*
X049253Y036009D01*
X049653Y035559D02*
X049653Y041459D01*
X050003Y041009D02*
X051003Y041009D01*
X051003Y040759D02*
X050253Y040759D01*
X050503Y040509D02*
X051003Y040509D01*
X051353Y041459D02*
X051353Y035609D01*
X051003Y036009D02*
X050003Y036009D01*
X050003Y036259D02*
X050753Y036259D01*
X050503Y036509D02*
X050003Y036509D01*
X053918Y036407D02*
X053988Y036337D01*
X054128Y036337D01*
X054199Y036407D01*
X054379Y036407D02*
X054449Y036337D01*
X054589Y036337D01*
X054659Y036407D01*
X054659Y036687D01*
X054589Y036757D01*
X054449Y036757D01*
X054379Y036687D01*
X054379Y036407D01*
X054199Y036687D02*
X054128Y036757D01*
X053988Y036757D01*
X053918Y036687D01*
X053918Y036407D01*
X054839Y036337D02*
X054839Y036757D01*
X054979Y036617D01*
X055119Y036757D01*
X055119Y036337D01*
X053608Y037797D02*
X053610Y037856D01*
X053616Y037915D01*
X053626Y037973D01*
X053639Y038031D01*
X053656Y038088D01*
X053678Y038143D01*
X053702Y038197D01*
X053730Y038249D01*
X053762Y038299D01*
X053797Y038347D01*
X053835Y038392D01*
X053875Y038435D01*
X053919Y038475D01*
X053965Y038512D01*
X054013Y038546D01*
X054064Y038577D01*
X054117Y038604D01*
X054171Y038628D01*
X054226Y038648D01*
X054283Y038665D01*
X054341Y038677D01*
X054400Y038686D01*
X054459Y038691D01*
X054518Y038692D01*
X054577Y038689D01*
X054636Y038682D01*
X054694Y038671D01*
X054751Y038657D01*
X054808Y038639D01*
X054863Y038617D01*
X054916Y038591D01*
X054967Y038562D01*
X055017Y038530D01*
X055064Y038494D01*
X055109Y038455D01*
X055151Y038414D01*
X055191Y038370D01*
X055227Y038323D01*
X055260Y038274D01*
X055290Y038223D01*
X055317Y038170D01*
X055339Y038115D01*
X055359Y038059D01*
X055374Y038002D01*
X055386Y037944D01*
X055394Y037886D01*
X055398Y037827D01*
X055398Y037767D01*
X055394Y037708D01*
X055386Y037650D01*
X055374Y037592D01*
X055359Y037535D01*
X055339Y037479D01*
X055317Y037424D01*
X055290Y037371D01*
X055260Y037320D01*
X055227Y037271D01*
X055191Y037224D01*
X055151Y037180D01*
X055109Y037139D01*
X055064Y037100D01*
X055017Y037064D01*
X054967Y037032D01*
X054916Y037003D01*
X054863Y036977D01*
X054808Y036955D01*
X054751Y036937D01*
X054694Y036923D01*
X054636Y036912D01*
X054577Y036905D01*
X054518Y036902D01*
X054459Y036903D01*
X054400Y036908D01*
X054341Y036917D01*
X054283Y036929D01*
X054226Y036946D01*
X054171Y036966D01*
X054117Y036990D01*
X054064Y037017D01*
X054013Y037048D01*
X053965Y037082D01*
X053919Y037119D01*
X053875Y037159D01*
X053835Y037202D01*
X053797Y037247D01*
X053762Y037295D01*
X053730Y037345D01*
X053702Y037397D01*
X053678Y037451D01*
X053656Y037506D01*
X053639Y037563D01*
X053626Y037621D01*
X053616Y037679D01*
X053610Y037738D01*
X053608Y037797D01*
X053738Y039337D02*
X053878Y039337D01*
X053949Y039407D01*
X053949Y039687D01*
X053878Y039757D01*
X053738Y039757D01*
X053668Y039687D01*
X053668Y039407D01*
X053738Y039337D01*
X054129Y039407D02*
X054129Y039757D01*
X054409Y039757D02*
X054409Y039407D01*
X054339Y039337D01*
X054199Y039337D01*
X054129Y039407D01*
X054589Y039757D02*
X054869Y039757D01*
X054729Y039757D02*
X054729Y039337D01*
X055049Y039407D02*
X055119Y039337D01*
X055260Y039337D01*
X055330Y039407D01*
X055330Y039477D01*
X055260Y039547D01*
X055189Y039547D01*
X055260Y039547D02*
X055330Y039617D01*
X055330Y039687D01*
X055260Y039757D01*
X055119Y039757D01*
X055049Y039687D01*
X053608Y040797D02*
X053610Y040856D01*
X053616Y040915D01*
X053626Y040973D01*
X053639Y041031D01*
X053656Y041088D01*
X053678Y041143D01*
X053702Y041197D01*
X053730Y041249D01*
X053762Y041299D01*
X053797Y041347D01*
X053835Y041392D01*
X053875Y041435D01*
X053919Y041475D01*
X053965Y041512D01*
X054013Y041546D01*
X054064Y041577D01*
X054117Y041604D01*
X054171Y041628D01*
X054226Y041648D01*
X054283Y041665D01*
X054341Y041677D01*
X054400Y041686D01*
X054459Y041691D01*
X054518Y041692D01*
X054577Y041689D01*
X054636Y041682D01*
X054694Y041671D01*
X054751Y041657D01*
X054808Y041639D01*
X054863Y041617D01*
X054916Y041591D01*
X054967Y041562D01*
X055017Y041530D01*
X055064Y041494D01*
X055109Y041455D01*
X055151Y041414D01*
X055191Y041370D01*
X055227Y041323D01*
X055260Y041274D01*
X055290Y041223D01*
X055317Y041170D01*
X055339Y041115D01*
X055359Y041059D01*
X055374Y041002D01*
X055386Y040944D01*
X055394Y040886D01*
X055398Y040827D01*
X055398Y040767D01*
X055394Y040708D01*
X055386Y040650D01*
X055374Y040592D01*
X055359Y040535D01*
X055339Y040479D01*
X055317Y040424D01*
X055290Y040371D01*
X055260Y040320D01*
X055227Y040271D01*
X055191Y040224D01*
X055151Y040180D01*
X055109Y040139D01*
X055064Y040100D01*
X055017Y040064D01*
X054967Y040032D01*
X054916Y040003D01*
X054863Y039977D01*
X054808Y039955D01*
X054751Y039937D01*
X054694Y039923D01*
X054636Y039912D01*
X054577Y039905D01*
X054518Y039902D01*
X054459Y039903D01*
X054400Y039908D01*
X054341Y039917D01*
X054283Y039929D01*
X054226Y039946D01*
X054171Y039966D01*
X054117Y039990D01*
X054064Y040017D01*
X054013Y040048D01*
X053965Y040082D01*
X053919Y040119D01*
X053875Y040159D01*
X053835Y040202D01*
X053797Y040247D01*
X053762Y040295D01*
X053730Y040345D01*
X053702Y040397D01*
X053678Y040451D01*
X053656Y040506D01*
X053639Y040563D01*
X053626Y040621D01*
X053616Y040679D01*
X053610Y040738D01*
X053608Y040797D01*
X053988Y042762D02*
X054128Y042762D01*
X054199Y042832D01*
X054379Y042832D02*
X054449Y042762D01*
X054589Y042762D01*
X054659Y042832D01*
X054659Y043112D01*
X054589Y043182D01*
X054449Y043182D01*
X054379Y043112D01*
X054379Y042832D01*
X054199Y043112D02*
X054128Y043182D01*
X053988Y043182D01*
X053918Y043112D01*
X053918Y042832D01*
X053988Y042762D01*
X054839Y042762D02*
X054839Y043182D01*
X054979Y043042D01*
X055119Y043182D01*
X055119Y042762D01*
X053608Y044222D02*
X053610Y044281D01*
X053616Y044340D01*
X053626Y044398D01*
X053639Y044456D01*
X053656Y044513D01*
X053678Y044568D01*
X053702Y044622D01*
X053730Y044674D01*
X053762Y044724D01*
X053797Y044772D01*
X053835Y044817D01*
X053875Y044860D01*
X053919Y044900D01*
X053965Y044937D01*
X054013Y044971D01*
X054064Y045002D01*
X054117Y045029D01*
X054171Y045053D01*
X054226Y045073D01*
X054283Y045090D01*
X054341Y045102D01*
X054400Y045111D01*
X054459Y045116D01*
X054518Y045117D01*
X054577Y045114D01*
X054636Y045107D01*
X054694Y045096D01*
X054751Y045082D01*
X054808Y045064D01*
X054863Y045042D01*
X054916Y045016D01*
X054967Y044987D01*
X055017Y044955D01*
X055064Y044919D01*
X055109Y044880D01*
X055151Y044839D01*
X055191Y044795D01*
X055227Y044748D01*
X055260Y044699D01*
X055290Y044648D01*
X055317Y044595D01*
X055339Y044540D01*
X055359Y044484D01*
X055374Y044427D01*
X055386Y044369D01*
X055394Y044311D01*
X055398Y044252D01*
X055398Y044192D01*
X055394Y044133D01*
X055386Y044075D01*
X055374Y044017D01*
X055359Y043960D01*
X055339Y043904D01*
X055317Y043849D01*
X055290Y043796D01*
X055260Y043745D01*
X055227Y043696D01*
X055191Y043649D01*
X055151Y043605D01*
X055109Y043564D01*
X055064Y043525D01*
X055017Y043489D01*
X054967Y043457D01*
X054916Y043428D01*
X054863Y043402D01*
X054808Y043380D01*
X054751Y043362D01*
X054694Y043348D01*
X054636Y043337D01*
X054577Y043330D01*
X054518Y043327D01*
X054459Y043328D01*
X054400Y043333D01*
X054341Y043342D01*
X054283Y043354D01*
X054226Y043371D01*
X054171Y043391D01*
X054117Y043415D01*
X054064Y043442D01*
X054013Y043473D01*
X053965Y043507D01*
X053919Y043544D01*
X053875Y043584D01*
X053835Y043627D01*
X053797Y043672D01*
X053762Y043720D01*
X053730Y043770D01*
X053702Y043822D01*
X053678Y043876D01*
X053656Y043931D01*
X053639Y043988D01*
X053626Y044046D01*
X053616Y044104D01*
X053610Y044163D01*
X053608Y044222D01*
X053738Y045762D02*
X053878Y045762D01*
X053949Y045832D01*
X053949Y046112D01*
X053878Y046182D01*
X053738Y046182D01*
X053668Y046112D01*
X053668Y045832D01*
X053738Y045762D01*
X054129Y045832D02*
X054129Y046182D01*
X054409Y046182D02*
X054409Y045832D01*
X054339Y045762D01*
X054199Y045762D01*
X054129Y045832D01*
X054589Y046182D02*
X054869Y046182D01*
X054729Y046182D02*
X054729Y045762D01*
X055049Y045762D02*
X055330Y046042D01*
X055330Y046112D01*
X055260Y046182D01*
X055119Y046182D01*
X055049Y046112D01*
X055049Y045762D02*
X055330Y045762D01*
X053608Y047222D02*
X053610Y047281D01*
X053616Y047340D01*
X053626Y047398D01*
X053639Y047456D01*
X053656Y047513D01*
X053678Y047568D01*
X053702Y047622D01*
X053730Y047674D01*
X053762Y047724D01*
X053797Y047772D01*
X053835Y047817D01*
X053875Y047860D01*
X053919Y047900D01*
X053965Y047937D01*
X054013Y047971D01*
X054064Y048002D01*
X054117Y048029D01*
X054171Y048053D01*
X054226Y048073D01*
X054283Y048090D01*
X054341Y048102D01*
X054400Y048111D01*
X054459Y048116D01*
X054518Y048117D01*
X054577Y048114D01*
X054636Y048107D01*
X054694Y048096D01*
X054751Y048082D01*
X054808Y048064D01*
X054863Y048042D01*
X054916Y048016D01*
X054967Y047987D01*
X055017Y047955D01*
X055064Y047919D01*
X055109Y047880D01*
X055151Y047839D01*
X055191Y047795D01*
X055227Y047748D01*
X055260Y047699D01*
X055290Y047648D01*
X055317Y047595D01*
X055339Y047540D01*
X055359Y047484D01*
X055374Y047427D01*
X055386Y047369D01*
X055394Y047311D01*
X055398Y047252D01*
X055398Y047192D01*
X055394Y047133D01*
X055386Y047075D01*
X055374Y047017D01*
X055359Y046960D01*
X055339Y046904D01*
X055317Y046849D01*
X055290Y046796D01*
X055260Y046745D01*
X055227Y046696D01*
X055191Y046649D01*
X055151Y046605D01*
X055109Y046564D01*
X055064Y046525D01*
X055017Y046489D01*
X054967Y046457D01*
X054916Y046428D01*
X054863Y046402D01*
X054808Y046380D01*
X054751Y046362D01*
X054694Y046348D01*
X054636Y046337D01*
X054577Y046330D01*
X054518Y046327D01*
X054459Y046328D01*
X054400Y046333D01*
X054341Y046342D01*
X054283Y046354D01*
X054226Y046371D01*
X054171Y046391D01*
X054117Y046415D01*
X054064Y046442D01*
X054013Y046473D01*
X053965Y046507D01*
X053919Y046544D01*
X053875Y046584D01*
X053835Y046627D01*
X053797Y046672D01*
X053762Y046720D01*
X053730Y046770D01*
X053702Y046822D01*
X053678Y046876D01*
X053656Y046931D01*
X053639Y046988D01*
X053626Y047046D01*
X053616Y047104D01*
X053610Y047163D01*
X053608Y047222D01*
X051753Y049009D02*
X051353Y049859D01*
X049653Y049859D01*
X049253Y049009D01*
X049253Y044009D01*
X049653Y043159D01*
X051353Y043159D01*
X051753Y044009D01*
X051753Y049009D01*
X051353Y049459D02*
X051353Y043609D01*
X051003Y044009D02*
X050003Y044009D01*
X050003Y044259D02*
X050753Y044259D01*
X050503Y044509D02*
X050003Y044509D01*
X049088Y043549D02*
X049018Y043619D01*
X048738Y043619D01*
X048668Y043549D01*
X048668Y043409D01*
X048738Y043339D01*
X048808Y043339D01*
X048878Y043409D01*
X048878Y043619D01*
X049088Y043549D02*
X049088Y043409D01*
X049018Y043339D01*
X049088Y043159D02*
X048948Y043019D01*
X048948Y043089D02*
X048948Y042879D01*
X049088Y042879D02*
X048668Y042879D01*
X048668Y043089D01*
X048738Y043159D01*
X048878Y043159D01*
X048948Y043089D01*
X049653Y043559D02*
X049653Y049459D01*
X050003Y049009D02*
X051003Y049009D01*
X051003Y048759D02*
X050253Y048759D01*
X050503Y048509D02*
X051003Y048509D01*
X048753Y049059D02*
X048003Y049059D01*
X048003Y048709D01*
X047403Y048709D01*
X047403Y049059D01*
X042503Y049059D01*
X042503Y044959D01*
X047403Y044959D01*
X047403Y045309D01*
X048003Y045309D01*
X048003Y044959D01*
X048753Y044959D01*
X048753Y049059D01*
X048668Y051004D02*
X048668Y051214D01*
X048738Y051284D01*
X048878Y051284D01*
X048948Y051214D01*
X048948Y051004D01*
X048948Y051144D02*
X049088Y051284D01*
X048878Y051464D02*
X048878Y051744D01*
X048668Y051674D02*
X048878Y051464D01*
X049088Y051674D02*
X048668Y051674D01*
X048668Y051004D02*
X049088Y051004D01*
X049653Y051159D02*
X049253Y052009D01*
X049253Y057009D01*
X049653Y057859D01*
X051353Y057859D01*
X051753Y057009D01*
X051753Y052009D01*
X051353Y051159D01*
X049653Y051159D01*
X049653Y051559D02*
X049653Y057459D01*
X050003Y057009D02*
X051003Y057009D01*
X051003Y056759D02*
X050253Y056759D01*
X050503Y056509D02*
X051003Y056509D01*
X051353Y057459D02*
X051353Y051609D01*
X051003Y052009D02*
X050003Y052009D01*
X050003Y052259D02*
X050753Y052259D01*
X050503Y052509D02*
X050003Y052509D01*
X048753Y052959D02*
X048003Y052959D01*
X048003Y053309D01*
X047403Y053309D01*
X047403Y052959D01*
X042503Y052959D01*
X042503Y057059D01*
X047403Y057059D01*
X047403Y056709D01*
X048003Y056709D01*
X048003Y057059D01*
X048753Y057059D01*
X048753Y052959D01*
X045312Y049816D02*
X045209Y049920D01*
X045002Y049920D01*
X044899Y049816D01*
X044668Y049920D02*
X044254Y049920D01*
X044461Y049920D02*
X044461Y049299D01*
X044899Y049299D02*
X045312Y049713D01*
X045312Y049816D01*
X045312Y049299D02*
X044899Y049299D01*
X041184Y052069D02*
X041114Y051999D01*
X040974Y051999D01*
X040904Y052069D01*
X040724Y051999D02*
X040583Y052139D01*
X040653Y052139D02*
X040443Y052139D01*
X040443Y051999D02*
X040443Y052420D01*
X040653Y052420D01*
X040724Y052350D01*
X040724Y052209D01*
X040653Y052139D01*
X040904Y052350D02*
X040974Y052420D01*
X041114Y052420D01*
X041184Y052350D01*
X041184Y052280D01*
X041114Y052209D01*
X041184Y052139D01*
X041184Y052069D01*
X041114Y052209D02*
X041044Y052209D01*
X038603Y051509D02*
X038605Y051568D01*
X038611Y051628D01*
X038621Y051686D01*
X038634Y051744D01*
X038652Y051801D01*
X038673Y051857D01*
X038698Y051911D01*
X038726Y051963D01*
X038758Y052014D01*
X038793Y052062D01*
X038831Y052108D01*
X038872Y052151D01*
X038916Y052191D01*
X038962Y052228D01*
X039011Y052262D01*
X039062Y052293D01*
X039114Y052321D01*
X039169Y052345D01*
X039225Y052365D01*
X039282Y052381D01*
X039340Y052394D01*
X039399Y052403D01*
X039458Y052408D01*
X039518Y052409D01*
X039577Y052406D01*
X039636Y052399D01*
X039695Y052388D01*
X039753Y052374D01*
X039809Y052355D01*
X039865Y052333D01*
X039918Y052308D01*
X039970Y052278D01*
X040020Y052246D01*
X040067Y052210D01*
X040113Y052171D01*
X040155Y052129D01*
X040195Y052085D01*
X040231Y052038D01*
X040264Y051989D01*
X040295Y051937D01*
X040321Y051884D01*
X040344Y051829D01*
X040363Y051773D01*
X040379Y051715D01*
X040391Y051657D01*
X040399Y051598D01*
X040403Y051539D01*
X040403Y051479D01*
X040399Y051420D01*
X040391Y051361D01*
X040379Y051303D01*
X040363Y051245D01*
X040344Y051189D01*
X040321Y051134D01*
X040295Y051081D01*
X040264Y051029D01*
X040231Y050980D01*
X040195Y050933D01*
X040155Y050889D01*
X040113Y050847D01*
X040067Y050808D01*
X040020Y050772D01*
X039970Y050740D01*
X039918Y050710D01*
X039865Y050685D01*
X039809Y050663D01*
X039753Y050644D01*
X039695Y050630D01*
X039636Y050619D01*
X039577Y050612D01*
X039518Y050609D01*
X039458Y050610D01*
X039399Y050615D01*
X039340Y050624D01*
X039282Y050637D01*
X039225Y050653D01*
X039169Y050673D01*
X039114Y050697D01*
X039062Y050725D01*
X039011Y050756D01*
X038962Y050790D01*
X038916Y050827D01*
X038872Y050867D01*
X038831Y050910D01*
X038793Y050956D01*
X038758Y051004D01*
X038726Y051055D01*
X038698Y051107D01*
X038673Y051161D01*
X038652Y051217D01*
X038634Y051274D01*
X038621Y051332D01*
X038611Y051390D01*
X038605Y051450D01*
X038603Y051509D01*
X037184Y051999D02*
X036904Y051999D01*
X037184Y052280D01*
X037184Y052350D01*
X037114Y052420D01*
X036974Y052420D01*
X036904Y052350D01*
X036724Y052350D02*
X036724Y052209D01*
X036653Y052139D01*
X036443Y052139D01*
X036443Y051999D02*
X036443Y052420D01*
X036653Y052420D01*
X036724Y052350D01*
X036583Y052139D02*
X036724Y051999D01*
X034603Y051509D02*
X034605Y051568D01*
X034611Y051628D01*
X034621Y051686D01*
X034634Y051744D01*
X034652Y051801D01*
X034673Y051857D01*
X034698Y051911D01*
X034726Y051963D01*
X034758Y052014D01*
X034793Y052062D01*
X034831Y052108D01*
X034872Y052151D01*
X034916Y052191D01*
X034962Y052228D01*
X035011Y052262D01*
X035062Y052293D01*
X035114Y052321D01*
X035169Y052345D01*
X035225Y052365D01*
X035282Y052381D01*
X035340Y052394D01*
X035399Y052403D01*
X035458Y052408D01*
X035518Y052409D01*
X035577Y052406D01*
X035636Y052399D01*
X035695Y052388D01*
X035753Y052374D01*
X035809Y052355D01*
X035865Y052333D01*
X035918Y052308D01*
X035970Y052278D01*
X036020Y052246D01*
X036067Y052210D01*
X036113Y052171D01*
X036155Y052129D01*
X036195Y052085D01*
X036231Y052038D01*
X036264Y051989D01*
X036295Y051937D01*
X036321Y051884D01*
X036344Y051829D01*
X036363Y051773D01*
X036379Y051715D01*
X036391Y051657D01*
X036399Y051598D01*
X036403Y051539D01*
X036403Y051479D01*
X036399Y051420D01*
X036391Y051361D01*
X036379Y051303D01*
X036363Y051245D01*
X036344Y051189D01*
X036321Y051134D01*
X036295Y051081D01*
X036264Y051029D01*
X036231Y050980D01*
X036195Y050933D01*
X036155Y050889D01*
X036113Y050847D01*
X036067Y050808D01*
X036020Y050772D01*
X035970Y050740D01*
X035918Y050710D01*
X035865Y050685D01*
X035809Y050663D01*
X035753Y050644D01*
X035695Y050630D01*
X035636Y050619D01*
X035577Y050612D01*
X035518Y050609D01*
X035458Y050610D01*
X035399Y050615D01*
X035340Y050624D01*
X035282Y050637D01*
X035225Y050653D01*
X035169Y050673D01*
X035114Y050697D01*
X035062Y050725D01*
X035011Y050756D01*
X034962Y050790D01*
X034916Y050827D01*
X034872Y050867D01*
X034831Y050910D01*
X034793Y050956D01*
X034758Y051004D01*
X034726Y051055D01*
X034698Y051107D01*
X034673Y051161D01*
X034652Y051217D01*
X034634Y051274D01*
X034621Y051332D01*
X034611Y051390D01*
X034605Y051450D01*
X034603Y051509D01*
X034503Y049509D02*
X035503Y049509D01*
X035520Y049507D01*
X035537Y049503D01*
X035553Y049496D01*
X035567Y049486D01*
X035580Y049473D01*
X035590Y049459D01*
X035597Y049443D01*
X035601Y049426D01*
X035603Y049409D01*
X035603Y045609D01*
X035601Y045592D01*
X035597Y045575D01*
X035590Y045559D01*
X035580Y045545D01*
X035567Y045532D01*
X035553Y045522D01*
X035537Y045515D01*
X035520Y045511D01*
X035503Y045509D01*
X034503Y045509D01*
X034486Y045511D01*
X034469Y045515D01*
X034453Y045522D01*
X034439Y045532D01*
X034426Y045545D01*
X034416Y045559D01*
X034409Y045575D01*
X034405Y045592D01*
X034403Y045609D01*
X034403Y049409D01*
X034405Y049426D01*
X034409Y049443D01*
X034416Y049459D01*
X034426Y049473D01*
X034439Y049486D01*
X034453Y049496D01*
X034469Y049503D01*
X034486Y049507D01*
X034503Y049509D01*
X035003Y048509D02*
X035003Y047709D01*
X035353Y047709D01*
X035003Y047709D02*
X034653Y047709D01*
X034653Y047309D02*
X035003Y047309D01*
X035353Y047309D01*
X035003Y047309D02*
X035003Y046509D01*
X034213Y046390D02*
X034213Y046110D01*
X033933Y046390D01*
X033863Y046390D01*
X033793Y046320D01*
X033793Y046180D01*
X033863Y046110D01*
X033863Y045930D02*
X033793Y045859D01*
X033793Y045719D01*
X033863Y045649D01*
X034143Y045649D01*
X034213Y045719D01*
X034213Y045859D01*
X034143Y045930D01*
X032153Y046009D02*
X031403Y046009D01*
X031094Y046149D02*
X030814Y046149D01*
X030954Y046149D02*
X030954Y046570D01*
X030814Y046430D01*
X030634Y046570D02*
X030354Y046289D01*
X030424Y046359D02*
X030634Y046149D01*
X030603Y046009D02*
X029853Y046009D01*
X029853Y043009D01*
X032153Y043009D01*
X032153Y046009D01*
X031403Y046009D02*
X031401Y045970D01*
X031395Y045931D01*
X031386Y045893D01*
X031373Y045856D01*
X031356Y045820D01*
X031336Y045787D01*
X031312Y045755D01*
X031286Y045726D01*
X031257Y045700D01*
X031225Y045676D01*
X031192Y045656D01*
X031156Y045639D01*
X031119Y045626D01*
X031081Y045617D01*
X031042Y045611D01*
X031003Y045609D01*
X030964Y045611D01*
X030925Y045617D01*
X030887Y045626D01*
X030850Y045639D01*
X030814Y045656D01*
X030781Y045676D01*
X030749Y045700D01*
X030720Y045726D01*
X030694Y045755D01*
X030670Y045787D01*
X030650Y045820D01*
X030633Y045856D01*
X030620Y045893D01*
X030611Y045931D01*
X030605Y045970D01*
X030603Y046009D01*
X030354Y046149D02*
X030354Y046570D01*
X030174Y046500D02*
X030103Y046570D01*
X029963Y046570D01*
X029893Y046500D01*
X029893Y046219D01*
X029963Y046149D01*
X030103Y046149D01*
X030174Y046219D01*
X030174Y046500D01*
X029574Y047999D02*
X029434Y047999D01*
X029364Y048069D01*
X029644Y048350D01*
X029644Y048069D01*
X029574Y047999D01*
X029364Y048069D02*
X029364Y048350D01*
X029434Y048420D01*
X029574Y048420D01*
X029644Y048350D01*
X029184Y047999D02*
X028904Y047999D01*
X029044Y047999D02*
X029044Y048420D01*
X028904Y048280D01*
X028724Y048350D02*
X028724Y048209D01*
X028653Y048139D01*
X028443Y048139D01*
X028443Y047999D02*
X028443Y048420D01*
X028653Y048420D01*
X028724Y048350D01*
X028583Y048139D02*
X028724Y047999D01*
X026603Y047509D02*
X026605Y047568D01*
X026611Y047628D01*
X026621Y047686D01*
X026634Y047744D01*
X026652Y047801D01*
X026673Y047857D01*
X026698Y047911D01*
X026726Y047963D01*
X026758Y048014D01*
X026793Y048062D01*
X026831Y048108D01*
X026872Y048151D01*
X026916Y048191D01*
X026962Y048228D01*
X027011Y048262D01*
X027062Y048293D01*
X027114Y048321D01*
X027169Y048345D01*
X027225Y048365D01*
X027282Y048381D01*
X027340Y048394D01*
X027399Y048403D01*
X027458Y048408D01*
X027518Y048409D01*
X027577Y048406D01*
X027636Y048399D01*
X027695Y048388D01*
X027753Y048374D01*
X027809Y048355D01*
X027865Y048333D01*
X027918Y048308D01*
X027970Y048278D01*
X028020Y048246D01*
X028067Y048210D01*
X028113Y048171D01*
X028155Y048129D01*
X028195Y048085D01*
X028231Y048038D01*
X028264Y047989D01*
X028295Y047937D01*
X028321Y047884D01*
X028344Y047829D01*
X028363Y047773D01*
X028379Y047715D01*
X028391Y047657D01*
X028399Y047598D01*
X028403Y047539D01*
X028403Y047479D01*
X028399Y047420D01*
X028391Y047361D01*
X028379Y047303D01*
X028363Y047245D01*
X028344Y047189D01*
X028321Y047134D01*
X028295Y047081D01*
X028264Y047029D01*
X028231Y046980D01*
X028195Y046933D01*
X028155Y046889D01*
X028113Y046847D01*
X028067Y046808D01*
X028020Y046772D01*
X027970Y046740D01*
X027918Y046710D01*
X027865Y046685D01*
X027809Y046663D01*
X027753Y046644D01*
X027695Y046630D01*
X027636Y046619D01*
X027577Y046612D01*
X027518Y046609D01*
X027458Y046610D01*
X027399Y046615D01*
X027340Y046624D01*
X027282Y046637D01*
X027225Y046653D01*
X027169Y046673D01*
X027114Y046697D01*
X027062Y046725D01*
X027011Y046756D01*
X026962Y046790D01*
X026916Y046827D01*
X026872Y046867D01*
X026831Y046910D01*
X026793Y046956D01*
X026758Y047004D01*
X026726Y047055D01*
X026698Y047107D01*
X026673Y047161D01*
X026652Y047217D01*
X026634Y047274D01*
X026621Y047332D01*
X026611Y047390D01*
X026605Y047450D01*
X026603Y047509D01*
X026003Y046509D02*
X026003Y037509D01*
X014003Y037509D01*
X014003Y046509D01*
X026003Y046509D01*
X022424Y048619D02*
X022354Y048689D01*
X022214Y048689D01*
X022144Y048759D01*
X022214Y048830D01*
X022424Y048830D01*
X022424Y048619D02*
X022354Y048549D01*
X022144Y048549D01*
X021977Y048549D02*
X021837Y048549D01*
X021907Y048549D02*
X021907Y048970D01*
X021837Y048970D01*
X021657Y048759D02*
X021657Y048689D01*
X021377Y048689D01*
X021377Y048619D02*
X021377Y048759D01*
X021447Y048830D01*
X021587Y048830D01*
X021657Y048759D01*
X021587Y048549D02*
X021447Y048549D01*
X021377Y048619D01*
X021197Y048549D02*
X021197Y048759D01*
X021127Y048830D01*
X020917Y048830D01*
X020917Y048549D01*
X020737Y048549D02*
X020737Y048759D01*
X020666Y048830D01*
X020456Y048830D01*
X020456Y048549D01*
X020276Y048549D02*
X020066Y048549D01*
X019996Y048619D01*
X020066Y048689D01*
X020276Y048689D01*
X020276Y048759D02*
X020276Y048549D01*
X020276Y048759D02*
X020206Y048830D01*
X020066Y048830D01*
X019816Y048759D02*
X019816Y048549D01*
X019816Y048759D02*
X019746Y048830D01*
X019606Y048830D01*
X019536Y048759D01*
X019355Y048830D02*
X019145Y048830D01*
X019075Y048759D01*
X019075Y048619D01*
X019145Y048549D01*
X019355Y048549D01*
X019536Y048549D02*
X019536Y048970D01*
X019612Y049549D02*
X019612Y049970D01*
X019682Y049830D02*
X019822Y049830D01*
X019893Y049759D01*
X019893Y049549D01*
X020073Y049619D02*
X020143Y049689D01*
X020353Y049689D01*
X020353Y049759D02*
X020353Y049549D01*
X020143Y049549D01*
X020073Y049619D01*
X020143Y049830D02*
X020283Y049830D01*
X020353Y049759D01*
X020533Y049830D02*
X020603Y049830D01*
X020603Y049549D01*
X020533Y049549D02*
X020673Y049549D01*
X020840Y049549D02*
X020840Y049830D01*
X021050Y049830D01*
X021120Y049759D01*
X021120Y049549D01*
X021761Y049549D02*
X022041Y049830D01*
X022041Y049900D01*
X021971Y049970D01*
X021831Y049970D01*
X021761Y049900D01*
X021761Y049549D02*
X022041Y049549D01*
X022681Y049549D02*
X022891Y049549D01*
X022962Y049619D01*
X022962Y049759D01*
X022891Y049830D01*
X022681Y049830D01*
X022681Y049970D02*
X022681Y049549D01*
X023142Y049619D02*
X023212Y049549D01*
X023352Y049549D01*
X023422Y049619D01*
X023422Y049759D01*
X023352Y049830D01*
X023212Y049830D01*
X023142Y049759D01*
X023142Y049619D01*
X023602Y049619D02*
X023672Y049689D01*
X023882Y049689D01*
X023882Y049759D02*
X023882Y049549D01*
X023672Y049549D01*
X023602Y049619D01*
X023672Y049830D02*
X023812Y049830D01*
X023882Y049759D01*
X024062Y049689D02*
X024203Y049830D01*
X024273Y049830D01*
X024446Y049759D02*
X024516Y049830D01*
X024726Y049830D01*
X024726Y049970D02*
X024726Y049549D01*
X024516Y049549D01*
X024446Y049619D01*
X024446Y049759D01*
X024062Y049830D02*
X024062Y049549D01*
X024906Y049549D02*
X025117Y049549D01*
X025187Y049619D01*
X025117Y049689D01*
X024976Y049689D01*
X024906Y049759D01*
X024976Y049830D01*
X025187Y049830D01*
X023832Y051549D02*
X023832Y051830D01*
X023972Y051830D02*
X024042Y051830D01*
X023972Y051830D02*
X023832Y051689D01*
X023652Y051689D02*
X023372Y051689D01*
X023372Y051619D02*
X023372Y051759D01*
X023442Y051830D01*
X023582Y051830D01*
X023652Y051759D01*
X023652Y051689D01*
X023582Y051549D02*
X023442Y051549D01*
X023372Y051619D01*
X023205Y051549D02*
X023065Y051549D01*
X023135Y051549D02*
X023135Y051970D01*
X023065Y051970D01*
X022828Y051970D02*
X022828Y051549D01*
X022758Y051549D02*
X022898Y051549D01*
X022578Y051619D02*
X022578Y051759D01*
X022508Y051830D01*
X022368Y051830D01*
X022298Y051759D01*
X022298Y051619D01*
X022368Y051549D01*
X022508Y051549D01*
X022578Y051619D01*
X022758Y051970D02*
X022828Y051970D01*
X022835Y052549D02*
X023045Y052549D01*
X023115Y052619D01*
X023115Y052689D01*
X023045Y052759D01*
X022835Y052759D01*
X022655Y052689D02*
X022655Y052619D01*
X022585Y052549D01*
X022444Y052549D01*
X022374Y052619D01*
X022444Y052759D02*
X022585Y052759D01*
X022655Y052689D01*
X022655Y052900D02*
X022585Y052970D01*
X022444Y052970D01*
X022374Y052900D01*
X022374Y052830D01*
X022444Y052759D01*
X022194Y052619D02*
X022194Y052970D01*
X021914Y052970D02*
X021914Y052619D01*
X021984Y052549D01*
X022124Y052549D01*
X022194Y052619D01*
X022835Y052549D02*
X022835Y052970D01*
X023045Y052970D01*
X023115Y052900D01*
X023115Y052830D01*
X023045Y052759D01*
X022124Y051830D02*
X022054Y051830D01*
X021914Y051689D01*
X021914Y051549D02*
X021914Y051830D01*
X021747Y051830D02*
X021607Y051830D01*
X021677Y051900D02*
X021677Y051619D01*
X021747Y051549D01*
X021427Y051549D02*
X021427Y051759D01*
X021357Y051830D01*
X021147Y051830D01*
X021147Y051549D01*
X020967Y051619D02*
X020967Y051759D01*
X020897Y051830D01*
X020756Y051830D01*
X020686Y051759D01*
X020686Y051619D01*
X020756Y051549D01*
X020897Y051549D01*
X020967Y051619D01*
X020506Y051619D02*
X020436Y051549D01*
X020296Y051549D01*
X020226Y051619D01*
X020226Y051900D01*
X020296Y051970D01*
X020436Y051970D01*
X020506Y051900D01*
X020506Y052549D02*
X020506Y052759D01*
X020436Y052830D01*
X020226Y052830D01*
X020226Y052549D01*
X020046Y052549D02*
X020046Y052759D01*
X019976Y052830D01*
X019766Y052830D01*
X019766Y052549D01*
X019586Y052549D02*
X019375Y052549D01*
X019305Y052619D01*
X019375Y052689D01*
X019586Y052689D01*
X019586Y052759D02*
X019586Y052549D01*
X019586Y052759D02*
X019516Y052830D01*
X019375Y052830D01*
X019125Y052759D02*
X019125Y052549D01*
X019125Y052759D02*
X019055Y052830D01*
X018915Y052830D01*
X018845Y052759D01*
X018845Y052549D02*
X018845Y052970D01*
X018665Y052900D02*
X018595Y052970D01*
X018455Y052970D01*
X018385Y052900D01*
X018385Y052619D01*
X018455Y052549D01*
X018595Y052549D01*
X018665Y052619D01*
X018608Y052040D02*
X018608Y051970D01*
X018608Y051830D02*
X018608Y051549D01*
X018538Y051549D02*
X018678Y051549D01*
X018845Y051549D02*
X018845Y051830D01*
X019055Y051830D01*
X019125Y051759D01*
X019125Y051549D01*
X019305Y051619D02*
X019375Y051549D01*
X019586Y051549D01*
X019586Y051479D02*
X019586Y051830D01*
X019375Y051830D01*
X019305Y051759D01*
X019305Y051619D01*
X019446Y051409D02*
X019516Y051409D01*
X019586Y051479D01*
X018608Y051830D02*
X018538Y051830D01*
X018371Y051830D02*
X018231Y051830D01*
X018301Y051900D02*
X018301Y051619D01*
X018371Y051549D01*
X018051Y051549D02*
X018051Y051759D01*
X017981Y051830D01*
X017841Y051830D01*
X017771Y051759D01*
X017591Y051830D02*
X017381Y051830D01*
X017311Y051759D01*
X017311Y051619D01*
X017381Y051549D01*
X017591Y051549D01*
X017591Y051479D02*
X017591Y051830D01*
X017771Y051970D02*
X017771Y051549D01*
X017591Y051479D02*
X017521Y051409D01*
X017451Y051409D01*
X017144Y051549D02*
X017004Y051549D01*
X017074Y051549D02*
X017074Y051830D01*
X017004Y051830D01*
X017074Y051970D02*
X017074Y052040D01*
X017004Y052549D02*
X017284Y052970D01*
X017464Y052900D02*
X017464Y052830D01*
X017534Y052759D01*
X017674Y052759D01*
X017744Y052689D01*
X017744Y052619D01*
X017674Y052549D01*
X017534Y052549D01*
X017464Y052619D01*
X017464Y052689D01*
X017534Y052759D01*
X017674Y052759D02*
X017744Y052830D01*
X017744Y052900D01*
X017674Y052970D01*
X017534Y052970D01*
X017464Y052900D01*
X016824Y052759D02*
X016543Y052759D01*
X016753Y052970D01*
X016753Y052549D01*
X016543Y051970D02*
X016543Y051549D01*
X016824Y051549D01*
X016753Y049970D02*
X016543Y049970D01*
X016543Y049549D01*
X016753Y049549D01*
X016824Y049619D01*
X016824Y049900D01*
X016753Y049970D01*
X017074Y049830D02*
X017214Y049830D01*
X017284Y049759D01*
X017284Y049549D01*
X017074Y049549D01*
X017004Y049619D01*
X017074Y049689D01*
X017284Y049689D01*
X017464Y049549D02*
X017604Y049549D01*
X017534Y049549D02*
X017534Y049830D01*
X017464Y049830D01*
X017534Y049970D02*
X017534Y050040D01*
X017771Y049759D02*
X017841Y049830D01*
X018051Y049830D01*
X017981Y049689D02*
X017841Y049689D01*
X017771Y049759D01*
X017771Y049549D02*
X017981Y049549D01*
X018051Y049619D01*
X017981Y049689D01*
X018231Y049619D02*
X018301Y049549D01*
X018511Y049549D01*
X018511Y049479D02*
X018441Y049409D01*
X018371Y049409D01*
X018511Y049479D02*
X018511Y049830D01*
X018692Y049759D02*
X018972Y049759D01*
X019152Y049759D02*
X019152Y049619D01*
X019222Y049549D01*
X019432Y049549D01*
X019612Y049759D02*
X019682Y049830D01*
X019432Y049830D02*
X019222Y049830D01*
X019152Y049759D01*
X018231Y049830D02*
X018231Y049619D01*
X018225Y048970D02*
X018365Y048970D01*
X018435Y048900D01*
X018435Y048830D01*
X018365Y048759D01*
X018225Y048759D01*
X018155Y048830D01*
X018155Y048900D01*
X018225Y048970D01*
X018225Y048759D02*
X018155Y048689D01*
X018155Y048619D01*
X018225Y048549D01*
X018365Y048549D01*
X018435Y048619D01*
X018435Y048689D01*
X018365Y048759D01*
X017521Y048830D02*
X017451Y048830D01*
X017311Y048689D01*
X017311Y048549D02*
X017311Y048830D01*
X017130Y048759D02*
X017060Y048830D01*
X016920Y048830D01*
X016850Y048759D01*
X016850Y048619D01*
X016920Y048549D01*
X017060Y048549D01*
X017130Y048619D01*
X017130Y048759D01*
X016683Y048759D02*
X016543Y048759D01*
X016613Y048900D02*
X016683Y048970D01*
X016613Y048900D02*
X016613Y048549D01*
X020603Y049970D02*
X020603Y050040D01*
X020757Y052549D02*
X020686Y052619D01*
X020686Y052759D01*
X020757Y052830D01*
X020897Y052830D01*
X020967Y052759D01*
X020967Y052689D01*
X020686Y052689D01*
X020757Y052549D02*
X020897Y052549D01*
X021147Y052549D02*
X021287Y052549D01*
X021217Y052549D02*
X021217Y052970D01*
X021147Y052970D01*
X021253Y056559D02*
X020753Y056559D01*
X020503Y056809D01*
X020503Y057309D01*
X020753Y057559D01*
X021253Y057559D01*
X021503Y057309D01*
X021503Y056809D01*
X021253Y056559D01*
X021503Y056809D02*
X021753Y056559D01*
X022253Y056559D01*
X022503Y056809D01*
X022503Y057309D01*
X022753Y057559D01*
X023253Y057559D01*
X023503Y057309D01*
X023503Y056809D01*
X023253Y056559D01*
X022753Y056559D01*
X022503Y056809D01*
X022503Y057309D02*
X022253Y057559D01*
X021753Y057559D01*
X021503Y057309D01*
X021530Y057849D02*
X021530Y058270D01*
X021320Y058059D01*
X021601Y058059D01*
X022241Y057919D02*
X022311Y057849D01*
X022451Y057849D01*
X022521Y057919D01*
X022521Y057989D01*
X022451Y058059D01*
X022381Y058059D01*
X022451Y058059D02*
X022521Y058130D01*
X022521Y058200D01*
X022451Y058270D01*
X022311Y058270D01*
X022241Y058200D01*
X023162Y058200D02*
X023232Y058270D01*
X023372Y058270D01*
X023442Y058200D01*
X023442Y058130D01*
X023162Y057849D01*
X023442Y057849D01*
X023753Y057559D02*
X024253Y057559D01*
X024503Y057309D01*
X024503Y056809D01*
X024253Y056559D01*
X023753Y056559D01*
X023503Y056809D01*
X023503Y057309D02*
X023753Y057559D01*
X024082Y057849D02*
X024363Y057849D01*
X024223Y057849D02*
X024223Y058270D01*
X024082Y058130D01*
X020680Y057989D02*
X020680Y058270D01*
X020400Y058270D02*
X020400Y057989D01*
X020540Y057849D01*
X020680Y057989D01*
X020219Y057919D02*
X020149Y057849D01*
X020009Y057849D01*
X019939Y057919D01*
X019939Y058059D02*
X020079Y058130D01*
X020149Y058130D01*
X020219Y058059D01*
X020219Y057919D01*
X019939Y058059D02*
X019939Y058270D01*
X020219Y058270D01*
X020253Y057559D02*
X019753Y057559D01*
X019503Y057309D01*
X019503Y056809D01*
X019253Y056559D01*
X018753Y056559D01*
X018503Y056809D01*
X018503Y057309D01*
X018753Y057559D01*
X019253Y057559D01*
X019503Y057309D01*
X019503Y056809D02*
X019753Y056559D01*
X020253Y056559D01*
X020503Y056809D01*
X020503Y057309D02*
X020253Y057559D01*
X019299Y057919D02*
X019299Y058200D01*
X019229Y058270D01*
X019019Y058270D01*
X019019Y057849D01*
X019229Y057849D01*
X019299Y057919D01*
X018838Y057849D02*
X018838Y058270D01*
X018558Y058270D02*
X018838Y057849D01*
X018558Y057849D02*
X018558Y058270D01*
X018378Y058200D02*
X018308Y058270D01*
X018168Y058270D01*
X018098Y058200D01*
X018098Y057919D01*
X018168Y057849D01*
X018308Y057849D01*
X018378Y057919D01*
X018378Y058059D01*
X018238Y058059D01*
X026603Y057509D02*
X026605Y057568D01*
X026611Y057628D01*
X026621Y057686D01*
X026634Y057744D01*
X026652Y057801D01*
X026673Y057857D01*
X026698Y057911D01*
X026726Y057963D01*
X026758Y058014D01*
X026793Y058062D01*
X026831Y058108D01*
X026872Y058151D01*
X026916Y058191D01*
X026962Y058228D01*
X027011Y058262D01*
X027062Y058293D01*
X027114Y058321D01*
X027169Y058345D01*
X027225Y058365D01*
X027282Y058381D01*
X027340Y058394D01*
X027399Y058403D01*
X027458Y058408D01*
X027518Y058409D01*
X027577Y058406D01*
X027636Y058399D01*
X027695Y058388D01*
X027753Y058374D01*
X027809Y058355D01*
X027865Y058333D01*
X027918Y058308D01*
X027970Y058278D01*
X028020Y058246D01*
X028067Y058210D01*
X028113Y058171D01*
X028155Y058129D01*
X028195Y058085D01*
X028231Y058038D01*
X028264Y057989D01*
X028295Y057937D01*
X028321Y057884D01*
X028344Y057829D01*
X028363Y057773D01*
X028379Y057715D01*
X028391Y057657D01*
X028399Y057598D01*
X028403Y057539D01*
X028403Y057479D01*
X028399Y057420D01*
X028391Y057361D01*
X028379Y057303D01*
X028363Y057245D01*
X028344Y057189D01*
X028321Y057134D01*
X028295Y057081D01*
X028264Y057029D01*
X028231Y056980D01*
X028195Y056933D01*
X028155Y056889D01*
X028113Y056847D01*
X028067Y056808D01*
X028020Y056772D01*
X027970Y056740D01*
X027918Y056710D01*
X027865Y056685D01*
X027809Y056663D01*
X027753Y056644D01*
X027695Y056630D01*
X027636Y056619D01*
X027577Y056612D01*
X027518Y056609D01*
X027458Y056610D01*
X027399Y056615D01*
X027340Y056624D01*
X027282Y056637D01*
X027225Y056653D01*
X027169Y056673D01*
X027114Y056697D01*
X027062Y056725D01*
X027011Y056756D01*
X026962Y056790D01*
X026916Y056827D01*
X026872Y056867D01*
X026831Y056910D01*
X026793Y056956D01*
X026758Y057004D01*
X026726Y057055D01*
X026698Y057107D01*
X026673Y057161D01*
X026652Y057217D01*
X026634Y057274D01*
X026621Y057332D01*
X026611Y057390D01*
X026605Y057450D01*
X026603Y057509D01*
X028443Y057999D02*
X028443Y058420D01*
X028653Y058420D01*
X028724Y058350D01*
X028724Y058209D01*
X028653Y058139D01*
X028443Y058139D01*
X028583Y058139D02*
X028724Y057999D01*
X028904Y057999D02*
X029184Y058280D01*
X029184Y058350D01*
X029114Y058420D01*
X028974Y058420D01*
X028904Y058350D01*
X028904Y057999D02*
X029184Y057999D01*
X029364Y058209D02*
X029644Y058209D01*
X029574Y057999D02*
X029574Y058420D01*
X029364Y058209D01*
X029184Y056420D02*
X028904Y056420D01*
X028904Y056209D01*
X029044Y056280D01*
X029114Y056280D01*
X029184Y056209D01*
X029184Y056069D01*
X029114Y055999D01*
X028974Y055999D01*
X028904Y056069D01*
X028724Y055999D02*
X028583Y056139D01*
X028653Y056139D02*
X028443Y056139D01*
X028443Y055999D02*
X028443Y056420D01*
X028653Y056420D01*
X028724Y056350D01*
X028724Y056209D01*
X028653Y056139D01*
X026603Y055509D02*
X026605Y055568D01*
X026611Y055628D01*
X026621Y055686D01*
X026634Y055744D01*
X026652Y055801D01*
X026673Y055857D01*
X026698Y055911D01*
X026726Y055963D01*
X026758Y056014D01*
X026793Y056062D01*
X026831Y056108D01*
X026872Y056151D01*
X026916Y056191D01*
X026962Y056228D01*
X027011Y056262D01*
X027062Y056293D01*
X027114Y056321D01*
X027169Y056345D01*
X027225Y056365D01*
X027282Y056381D01*
X027340Y056394D01*
X027399Y056403D01*
X027458Y056408D01*
X027518Y056409D01*
X027577Y056406D01*
X027636Y056399D01*
X027695Y056388D01*
X027753Y056374D01*
X027809Y056355D01*
X027865Y056333D01*
X027918Y056308D01*
X027970Y056278D01*
X028020Y056246D01*
X028067Y056210D01*
X028113Y056171D01*
X028155Y056129D01*
X028195Y056085D01*
X028231Y056038D01*
X028264Y055989D01*
X028295Y055937D01*
X028321Y055884D01*
X028344Y055829D01*
X028363Y055773D01*
X028379Y055715D01*
X028391Y055657D01*
X028399Y055598D01*
X028403Y055539D01*
X028403Y055479D01*
X028399Y055420D01*
X028391Y055361D01*
X028379Y055303D01*
X028363Y055245D01*
X028344Y055189D01*
X028321Y055134D01*
X028295Y055081D01*
X028264Y055029D01*
X028231Y054980D01*
X028195Y054933D01*
X028155Y054889D01*
X028113Y054847D01*
X028067Y054808D01*
X028020Y054772D01*
X027970Y054740D01*
X027918Y054710D01*
X027865Y054685D01*
X027809Y054663D01*
X027753Y054644D01*
X027695Y054630D01*
X027636Y054619D01*
X027577Y054612D01*
X027518Y054609D01*
X027458Y054610D01*
X027399Y054615D01*
X027340Y054624D01*
X027282Y054637D01*
X027225Y054653D01*
X027169Y054673D01*
X027114Y054697D01*
X027062Y054725D01*
X027011Y054756D01*
X026962Y054790D01*
X026916Y054827D01*
X026872Y054867D01*
X026831Y054910D01*
X026793Y054956D01*
X026758Y055004D01*
X026726Y055055D01*
X026698Y055107D01*
X026673Y055161D01*
X026652Y055217D01*
X026634Y055274D01*
X026621Y055332D01*
X026611Y055390D01*
X026605Y055450D01*
X026603Y055509D01*
X029893Y054500D02*
X029893Y054219D01*
X029963Y054149D01*
X030103Y054149D01*
X030174Y054219D01*
X030174Y054500D01*
X030103Y054570D01*
X029963Y054570D01*
X029893Y054500D01*
X030354Y054570D02*
X030354Y054149D01*
X030354Y054289D02*
X030634Y054570D01*
X030814Y054500D02*
X030884Y054570D01*
X031024Y054570D01*
X031094Y054500D01*
X031094Y054430D01*
X030814Y054149D01*
X031094Y054149D01*
X031403Y054009D02*
X031401Y053970D01*
X031395Y053931D01*
X031386Y053893D01*
X031373Y053856D01*
X031356Y053820D01*
X031336Y053787D01*
X031312Y053755D01*
X031286Y053726D01*
X031257Y053700D01*
X031225Y053676D01*
X031192Y053656D01*
X031156Y053639D01*
X031119Y053626D01*
X031081Y053617D01*
X031042Y053611D01*
X031003Y053609D01*
X030964Y053611D01*
X030925Y053617D01*
X030887Y053626D01*
X030850Y053639D01*
X030814Y053656D01*
X030781Y053676D01*
X030749Y053700D01*
X030720Y053726D01*
X030694Y053755D01*
X030670Y053787D01*
X030650Y053820D01*
X030633Y053856D01*
X030620Y053893D01*
X030611Y053931D01*
X030605Y053970D01*
X030603Y054009D01*
X029853Y054009D01*
X029853Y051009D01*
X032153Y051009D01*
X032153Y054009D01*
X031403Y054009D01*
X030634Y054149D02*
X030424Y054359D01*
X030403Y056009D02*
X030405Y056054D01*
X030410Y056100D01*
X030418Y056144D01*
X030430Y056188D01*
X030446Y056231D01*
X030464Y056273D01*
X030486Y056313D01*
X030510Y056351D01*
X030537Y056387D01*
X030567Y056422D01*
X030600Y056453D01*
X030635Y056483D01*
X030403Y056009D02*
X030405Y055964D01*
X030410Y055918D01*
X030418Y055874D01*
X030430Y055830D01*
X030446Y055787D01*
X030464Y055745D01*
X030486Y055705D01*
X030510Y055667D01*
X030537Y055631D01*
X030567Y055596D01*
X030600Y055565D01*
X030635Y055535D01*
X031603Y056009D02*
X031601Y056055D01*
X031596Y056101D01*
X031587Y056147D01*
X031575Y056192D01*
X031559Y056235D01*
X031540Y056277D01*
X031517Y056318D01*
X031492Y056357D01*
X031464Y056393D01*
X031433Y056428D01*
X031399Y056460D01*
X031363Y056489D01*
X031603Y056009D02*
X031601Y055962D01*
X031595Y055914D01*
X031586Y055868D01*
X031573Y055822D01*
X031557Y055778D01*
X031537Y055734D01*
X031513Y055693D01*
X031487Y055654D01*
X031457Y055617D01*
X031424Y055582D01*
X031389Y055550D01*
X031352Y055521D01*
X032193Y055458D02*
X032613Y055458D01*
X032613Y055738D01*
X032613Y055918D02*
X032613Y056198D01*
X032613Y056378D02*
X032613Y056589D01*
X032543Y056659D01*
X032263Y056659D01*
X032193Y056589D01*
X032193Y056378D01*
X032613Y056378D01*
X032403Y056058D02*
X032403Y055918D01*
X032193Y055918D02*
X032613Y055918D01*
X032193Y055918D02*
X032193Y056198D01*
X032333Y056839D02*
X032193Y056979D01*
X032613Y056979D01*
X032613Y056839D02*
X032613Y057119D01*
X034403Y057409D02*
X034403Y053609D01*
X034405Y053592D01*
X034409Y053575D01*
X034416Y053559D01*
X034426Y053545D01*
X034439Y053532D01*
X034453Y053522D01*
X034469Y053515D01*
X034486Y053511D01*
X034503Y053509D01*
X035503Y053509D01*
X035520Y053511D01*
X035537Y053515D01*
X035553Y053522D01*
X035567Y053532D01*
X035580Y053545D01*
X035590Y053559D01*
X035597Y053575D01*
X035601Y053592D01*
X035603Y053609D01*
X035603Y057409D01*
X035601Y057426D01*
X035597Y057443D01*
X035590Y057459D01*
X035580Y057473D01*
X035567Y057486D01*
X035553Y057496D01*
X035537Y057503D01*
X035520Y057507D01*
X035503Y057509D01*
X034503Y057509D01*
X034486Y057507D01*
X034469Y057503D01*
X034453Y057496D01*
X034439Y057486D01*
X034426Y057473D01*
X034416Y057459D01*
X034409Y057443D01*
X034405Y057426D01*
X034403Y057409D01*
X035003Y056509D02*
X035003Y055709D01*
X035353Y055709D01*
X035003Y055709D02*
X034653Y055709D01*
X034653Y055309D02*
X035003Y055309D01*
X035353Y055309D01*
X035003Y055309D02*
X035003Y054509D01*
X034213Y054390D02*
X034213Y054110D01*
X034213Y054250D02*
X033793Y054250D01*
X033933Y054110D01*
X033863Y053930D02*
X033793Y053859D01*
X033793Y053719D01*
X033863Y053649D01*
X034143Y053649D01*
X034213Y053719D01*
X034213Y053859D01*
X034143Y053930D01*
X036593Y055449D02*
X036593Y055659D01*
X036663Y055730D01*
X036803Y055730D01*
X036873Y055659D01*
X036873Y055449D01*
X037013Y055449D02*
X036593Y055449D01*
X036873Y055589D02*
X037013Y055730D01*
X037013Y055910D02*
X037013Y056190D01*
X037013Y056050D02*
X036593Y056050D01*
X036733Y055910D01*
X036603Y054509D02*
X036605Y054568D01*
X036611Y054628D01*
X036621Y054686D01*
X036634Y054744D01*
X036652Y054801D01*
X036673Y054857D01*
X036698Y054911D01*
X036726Y054963D01*
X036758Y055014D01*
X036793Y055062D01*
X036831Y055108D01*
X036872Y055151D01*
X036916Y055191D01*
X036962Y055228D01*
X037011Y055262D01*
X037062Y055293D01*
X037114Y055321D01*
X037169Y055345D01*
X037225Y055365D01*
X037282Y055381D01*
X037340Y055394D01*
X037399Y055403D01*
X037458Y055408D01*
X037518Y055409D01*
X037577Y055406D01*
X037636Y055399D01*
X037695Y055388D01*
X037753Y055374D01*
X037809Y055355D01*
X037865Y055333D01*
X037918Y055308D01*
X037970Y055278D01*
X038020Y055246D01*
X038067Y055210D01*
X038113Y055171D01*
X038155Y055129D01*
X038195Y055085D01*
X038231Y055038D01*
X038264Y054989D01*
X038295Y054937D01*
X038321Y054884D01*
X038344Y054829D01*
X038363Y054773D01*
X038379Y054715D01*
X038391Y054657D01*
X038399Y054598D01*
X038403Y054539D01*
X038403Y054479D01*
X038399Y054420D01*
X038391Y054361D01*
X038379Y054303D01*
X038363Y054245D01*
X038344Y054189D01*
X038321Y054134D01*
X038295Y054081D01*
X038264Y054029D01*
X038231Y053980D01*
X038195Y053933D01*
X038155Y053889D01*
X038113Y053847D01*
X038067Y053808D01*
X038020Y053772D01*
X037970Y053740D01*
X037918Y053710D01*
X037865Y053685D01*
X037809Y053663D01*
X037753Y053644D01*
X037695Y053630D01*
X037636Y053619D01*
X037577Y053612D01*
X037518Y053609D01*
X037458Y053610D01*
X037399Y053615D01*
X037340Y053624D01*
X037282Y053637D01*
X037225Y053653D01*
X037169Y053673D01*
X037114Y053697D01*
X037062Y053725D01*
X037011Y053756D01*
X036962Y053790D01*
X036916Y053827D01*
X036872Y053867D01*
X036831Y053910D01*
X036793Y053956D01*
X036758Y054004D01*
X036726Y054055D01*
X036698Y054107D01*
X036673Y054161D01*
X036652Y054217D01*
X036634Y054274D01*
X036621Y054332D01*
X036611Y054390D01*
X036605Y054450D01*
X036603Y054509D01*
X029644Y050350D02*
X029644Y050280D01*
X029574Y050209D01*
X029644Y050139D01*
X029644Y050069D01*
X029574Y049999D01*
X029434Y049999D01*
X029364Y050069D01*
X029184Y049999D02*
X028904Y049999D01*
X029184Y050280D01*
X029184Y050350D01*
X029114Y050420D01*
X028974Y050420D01*
X028904Y050350D01*
X028724Y050350D02*
X028724Y050209D01*
X028653Y050139D01*
X028443Y050139D01*
X028443Y049999D02*
X028443Y050420D01*
X028653Y050420D01*
X028724Y050350D01*
X028583Y050139D02*
X028724Y049999D01*
X029364Y050350D02*
X029434Y050420D01*
X029574Y050420D01*
X029644Y050350D01*
X029574Y050209D02*
X029504Y050209D01*
X026603Y049509D02*
X026605Y049568D01*
X026611Y049628D01*
X026621Y049686D01*
X026634Y049744D01*
X026652Y049801D01*
X026673Y049857D01*
X026698Y049911D01*
X026726Y049963D01*
X026758Y050014D01*
X026793Y050062D01*
X026831Y050108D01*
X026872Y050151D01*
X026916Y050191D01*
X026962Y050228D01*
X027011Y050262D01*
X027062Y050293D01*
X027114Y050321D01*
X027169Y050345D01*
X027225Y050365D01*
X027282Y050381D01*
X027340Y050394D01*
X027399Y050403D01*
X027458Y050408D01*
X027518Y050409D01*
X027577Y050406D01*
X027636Y050399D01*
X027695Y050388D01*
X027753Y050374D01*
X027809Y050355D01*
X027865Y050333D01*
X027918Y050308D01*
X027970Y050278D01*
X028020Y050246D01*
X028067Y050210D01*
X028113Y050171D01*
X028155Y050129D01*
X028195Y050085D01*
X028231Y050038D01*
X028264Y049989D01*
X028295Y049937D01*
X028321Y049884D01*
X028344Y049829D01*
X028363Y049773D01*
X028379Y049715D01*
X028391Y049657D01*
X028399Y049598D01*
X028403Y049539D01*
X028403Y049479D01*
X028399Y049420D01*
X028391Y049361D01*
X028379Y049303D01*
X028363Y049245D01*
X028344Y049189D01*
X028321Y049134D01*
X028295Y049081D01*
X028264Y049029D01*
X028231Y048980D01*
X028195Y048933D01*
X028155Y048889D01*
X028113Y048847D01*
X028067Y048808D01*
X028020Y048772D01*
X027970Y048740D01*
X027918Y048710D01*
X027865Y048685D01*
X027809Y048663D01*
X027753Y048644D01*
X027695Y048630D01*
X027636Y048619D01*
X027577Y048612D01*
X027518Y048609D01*
X027458Y048610D01*
X027399Y048615D01*
X027340Y048624D01*
X027282Y048637D01*
X027225Y048653D01*
X027169Y048673D01*
X027114Y048697D01*
X027062Y048725D01*
X027011Y048756D01*
X026962Y048790D01*
X026916Y048827D01*
X026872Y048867D01*
X026831Y048910D01*
X026793Y048956D01*
X026758Y049004D01*
X026726Y049055D01*
X026698Y049107D01*
X026673Y049161D01*
X026652Y049217D01*
X026634Y049274D01*
X026621Y049332D01*
X026611Y049390D01*
X026605Y049450D01*
X026603Y049509D01*
X030403Y048009D02*
X030405Y048054D01*
X030410Y048100D01*
X030418Y048144D01*
X030430Y048188D01*
X030446Y048231D01*
X030464Y048273D01*
X030486Y048313D01*
X030510Y048351D01*
X030537Y048387D01*
X030567Y048422D01*
X030600Y048453D01*
X030635Y048483D01*
X030403Y048009D02*
X030405Y047964D01*
X030410Y047918D01*
X030418Y047874D01*
X030430Y047830D01*
X030446Y047787D01*
X030464Y047745D01*
X030486Y047705D01*
X030510Y047667D01*
X030537Y047631D01*
X030567Y047596D01*
X030600Y047565D01*
X030635Y047535D01*
X031603Y048009D02*
X031601Y048055D01*
X031596Y048101D01*
X031587Y048147D01*
X031575Y048192D01*
X031559Y048235D01*
X031540Y048277D01*
X031517Y048318D01*
X031492Y048357D01*
X031464Y048393D01*
X031433Y048428D01*
X031399Y048460D01*
X031363Y048489D01*
X031603Y048009D02*
X031601Y047962D01*
X031595Y047914D01*
X031586Y047868D01*
X031573Y047822D01*
X031557Y047778D01*
X031537Y047734D01*
X031513Y047693D01*
X031487Y047654D01*
X031457Y047617D01*
X031424Y047582D01*
X031389Y047550D01*
X031352Y047521D01*
X032193Y047458D02*
X032613Y047458D01*
X032613Y047738D01*
X032613Y047918D02*
X032613Y048198D01*
X032613Y048378D02*
X032613Y048589D01*
X032543Y048659D01*
X032263Y048659D01*
X032193Y048589D01*
X032193Y048378D01*
X032613Y048378D01*
X032403Y048058D02*
X032403Y047918D01*
X032193Y047918D02*
X032613Y047918D01*
X032193Y047918D02*
X032193Y048198D01*
X032263Y048839D02*
X032193Y048909D01*
X032193Y049049D01*
X032263Y049119D01*
X032333Y049119D01*
X032613Y048839D01*
X032613Y049119D01*
X036593Y048190D02*
X036663Y048050D01*
X036803Y047910D01*
X036803Y048120D01*
X036873Y048190D01*
X036943Y048190D01*
X037013Y048120D01*
X037013Y047980D01*
X036943Y047910D01*
X036803Y047910D01*
X036803Y047730D02*
X036873Y047659D01*
X036873Y047449D01*
X037013Y047449D02*
X036593Y047449D01*
X036593Y047659D01*
X036663Y047730D01*
X036803Y047730D01*
X036873Y047589D02*
X037013Y047730D01*
X036603Y046509D02*
X036605Y046568D01*
X036611Y046628D01*
X036621Y046686D01*
X036634Y046744D01*
X036652Y046801D01*
X036673Y046857D01*
X036698Y046911D01*
X036726Y046963D01*
X036758Y047014D01*
X036793Y047062D01*
X036831Y047108D01*
X036872Y047151D01*
X036916Y047191D01*
X036962Y047228D01*
X037011Y047262D01*
X037062Y047293D01*
X037114Y047321D01*
X037169Y047345D01*
X037225Y047365D01*
X037282Y047381D01*
X037340Y047394D01*
X037399Y047403D01*
X037458Y047408D01*
X037518Y047409D01*
X037577Y047406D01*
X037636Y047399D01*
X037695Y047388D01*
X037753Y047374D01*
X037809Y047355D01*
X037865Y047333D01*
X037918Y047308D01*
X037970Y047278D01*
X038020Y047246D01*
X038067Y047210D01*
X038113Y047171D01*
X038155Y047129D01*
X038195Y047085D01*
X038231Y047038D01*
X038264Y046989D01*
X038295Y046937D01*
X038321Y046884D01*
X038344Y046829D01*
X038363Y046773D01*
X038379Y046715D01*
X038391Y046657D01*
X038399Y046598D01*
X038403Y046539D01*
X038403Y046479D01*
X038399Y046420D01*
X038391Y046361D01*
X038379Y046303D01*
X038363Y046245D01*
X038344Y046189D01*
X038321Y046134D01*
X038295Y046081D01*
X038264Y046029D01*
X038231Y045980D01*
X038195Y045933D01*
X038155Y045889D01*
X038113Y045847D01*
X038067Y045808D01*
X038020Y045772D01*
X037970Y045740D01*
X037918Y045710D01*
X037865Y045685D01*
X037809Y045663D01*
X037753Y045644D01*
X037695Y045630D01*
X037636Y045619D01*
X037577Y045612D01*
X037518Y045609D01*
X037458Y045610D01*
X037399Y045615D01*
X037340Y045624D01*
X037282Y045637D01*
X037225Y045653D01*
X037169Y045673D01*
X037114Y045697D01*
X037062Y045725D01*
X037011Y045756D01*
X036962Y045790D01*
X036916Y045827D01*
X036872Y045867D01*
X036831Y045910D01*
X036793Y045956D01*
X036758Y046004D01*
X036726Y046055D01*
X036698Y046107D01*
X036673Y046161D01*
X036652Y046217D01*
X036634Y046274D01*
X036621Y046332D01*
X036611Y046390D01*
X036605Y046450D01*
X036603Y046509D01*
X036653Y044420D02*
X036724Y044350D01*
X036724Y044209D01*
X036653Y044139D01*
X036443Y044139D01*
X036443Y043999D02*
X036443Y044420D01*
X036653Y044420D01*
X036904Y044420D02*
X037184Y044420D01*
X037184Y044350D01*
X036904Y044069D01*
X036904Y043999D01*
X036724Y043999D02*
X036583Y044139D01*
X034603Y043509D02*
X034605Y043568D01*
X034611Y043628D01*
X034621Y043686D01*
X034634Y043744D01*
X034652Y043801D01*
X034673Y043857D01*
X034698Y043911D01*
X034726Y043963D01*
X034758Y044014D01*
X034793Y044062D01*
X034831Y044108D01*
X034872Y044151D01*
X034916Y044191D01*
X034962Y044228D01*
X035011Y044262D01*
X035062Y044293D01*
X035114Y044321D01*
X035169Y044345D01*
X035225Y044365D01*
X035282Y044381D01*
X035340Y044394D01*
X035399Y044403D01*
X035458Y044408D01*
X035518Y044409D01*
X035577Y044406D01*
X035636Y044399D01*
X035695Y044388D01*
X035753Y044374D01*
X035809Y044355D01*
X035865Y044333D01*
X035918Y044308D01*
X035970Y044278D01*
X036020Y044246D01*
X036067Y044210D01*
X036113Y044171D01*
X036155Y044129D01*
X036195Y044085D01*
X036231Y044038D01*
X036264Y043989D01*
X036295Y043937D01*
X036321Y043884D01*
X036344Y043829D01*
X036363Y043773D01*
X036379Y043715D01*
X036391Y043657D01*
X036399Y043598D01*
X036403Y043539D01*
X036403Y043479D01*
X036399Y043420D01*
X036391Y043361D01*
X036379Y043303D01*
X036363Y043245D01*
X036344Y043189D01*
X036321Y043134D01*
X036295Y043081D01*
X036264Y043029D01*
X036231Y042980D01*
X036195Y042933D01*
X036155Y042889D01*
X036113Y042847D01*
X036067Y042808D01*
X036020Y042772D01*
X035970Y042740D01*
X035918Y042710D01*
X035865Y042685D01*
X035809Y042663D01*
X035753Y042644D01*
X035695Y042630D01*
X035636Y042619D01*
X035577Y042612D01*
X035518Y042609D01*
X035458Y042610D01*
X035399Y042615D01*
X035340Y042624D01*
X035282Y042637D01*
X035225Y042653D01*
X035169Y042673D01*
X035114Y042697D01*
X035062Y042725D01*
X035011Y042756D01*
X034962Y042790D01*
X034916Y042827D01*
X034872Y042867D01*
X034831Y042910D01*
X034793Y042956D01*
X034758Y043004D01*
X034726Y043055D01*
X034698Y043107D01*
X034673Y043161D01*
X034652Y043217D01*
X034634Y043274D01*
X034621Y043332D01*
X034611Y043390D01*
X034605Y043450D01*
X034603Y043509D01*
X034503Y041509D02*
X035503Y041509D01*
X035520Y041507D01*
X035537Y041503D01*
X035553Y041496D01*
X035567Y041486D01*
X035580Y041473D01*
X035590Y041459D01*
X035597Y041443D01*
X035601Y041426D01*
X035603Y041409D01*
X035603Y037609D01*
X035601Y037592D01*
X035597Y037575D01*
X035590Y037559D01*
X035580Y037545D01*
X035567Y037532D01*
X035553Y037522D01*
X035537Y037515D01*
X035520Y037511D01*
X035503Y037509D01*
X034503Y037509D01*
X034486Y037511D01*
X034469Y037515D01*
X034453Y037522D01*
X034439Y037532D01*
X034426Y037545D01*
X034416Y037559D01*
X034409Y037575D01*
X034405Y037592D01*
X034403Y037609D01*
X034403Y041409D01*
X034405Y041426D01*
X034409Y041443D01*
X034416Y041459D01*
X034426Y041473D01*
X034439Y041486D01*
X034453Y041496D01*
X034469Y041503D01*
X034486Y041507D01*
X034503Y041509D01*
X035003Y040509D02*
X035003Y039709D01*
X035353Y039709D01*
X035003Y039709D02*
X034653Y039709D01*
X034653Y039309D02*
X035003Y039309D01*
X035353Y039309D01*
X035003Y039309D02*
X035003Y038509D01*
X034213Y038320D02*
X034213Y038180D01*
X034143Y038110D01*
X034143Y037930D02*
X034213Y037859D01*
X034213Y037719D01*
X034143Y037649D01*
X033863Y037649D01*
X033793Y037719D01*
X033793Y037859D01*
X033863Y037930D01*
X033863Y038110D02*
X033793Y038180D01*
X033793Y038320D01*
X033863Y038390D01*
X033933Y038390D01*
X034003Y038320D01*
X034073Y038390D01*
X034143Y038390D01*
X034213Y038320D01*
X034003Y038320D02*
X034003Y038250D01*
X032613Y039458D02*
X032613Y039738D01*
X032613Y039918D02*
X032613Y040198D01*
X032613Y040378D02*
X032613Y040589D01*
X032543Y040659D01*
X032263Y040659D01*
X032193Y040589D01*
X032193Y040378D01*
X032613Y040378D01*
X032403Y040058D02*
X032403Y039918D01*
X032193Y039918D02*
X032613Y039918D01*
X032193Y039918D02*
X032193Y040198D01*
X032263Y040839D02*
X032193Y040909D01*
X032193Y041049D01*
X032263Y041119D01*
X032333Y041119D01*
X032403Y041049D01*
X032473Y041119D01*
X032543Y041119D01*
X032613Y041049D01*
X032613Y040909D01*
X032543Y040839D01*
X032403Y040979D02*
X032403Y041049D01*
X030635Y040483D02*
X030600Y040453D01*
X030567Y040422D01*
X030537Y040387D01*
X030510Y040351D01*
X030486Y040313D01*
X030464Y040273D01*
X030446Y040231D01*
X030430Y040188D01*
X030418Y040144D01*
X030410Y040100D01*
X030405Y040054D01*
X030403Y040009D01*
X030405Y039964D01*
X030410Y039918D01*
X030418Y039874D01*
X030430Y039830D01*
X030446Y039787D01*
X030464Y039745D01*
X030486Y039705D01*
X030510Y039667D01*
X030537Y039631D01*
X030567Y039596D01*
X030600Y039565D01*
X030635Y039535D01*
X031603Y040009D02*
X031601Y040055D01*
X031596Y040101D01*
X031587Y040147D01*
X031575Y040192D01*
X031559Y040235D01*
X031540Y040277D01*
X031517Y040318D01*
X031492Y040357D01*
X031464Y040393D01*
X031433Y040428D01*
X031399Y040460D01*
X031363Y040489D01*
X031603Y040009D02*
X031601Y039962D01*
X031595Y039914D01*
X031586Y039868D01*
X031573Y039822D01*
X031557Y039778D01*
X031537Y039734D01*
X031513Y039693D01*
X031487Y039654D01*
X031457Y039617D01*
X031424Y039582D01*
X031389Y039550D01*
X031352Y039521D01*
X032193Y039458D02*
X032613Y039458D01*
X030354Y038570D02*
X030354Y038149D01*
X030174Y038219D02*
X030174Y038500D01*
X030103Y038570D01*
X029963Y038570D01*
X029893Y038500D01*
X029893Y038219D01*
X029963Y038149D01*
X030103Y038149D01*
X030174Y038219D01*
X029574Y039999D02*
X029434Y039999D01*
X029364Y040069D01*
X029364Y040209D02*
X029504Y040280D01*
X029574Y040280D01*
X029644Y040209D01*
X029644Y040069D01*
X029574Y039999D01*
X029364Y040209D02*
X029364Y040420D01*
X029644Y040420D01*
X029044Y040420D02*
X029044Y039999D01*
X028904Y039999D02*
X029184Y039999D01*
X028904Y040280D02*
X029044Y040420D01*
X028724Y040350D02*
X028653Y040420D01*
X028443Y040420D01*
X028443Y039999D01*
X028443Y040139D02*
X028653Y040139D01*
X028724Y040209D01*
X028724Y040350D01*
X028583Y040139D02*
X028724Y039999D01*
X026603Y039509D02*
X026605Y039568D01*
X026611Y039628D01*
X026621Y039686D01*
X026634Y039744D01*
X026652Y039801D01*
X026673Y039857D01*
X026698Y039911D01*
X026726Y039963D01*
X026758Y040014D01*
X026793Y040062D01*
X026831Y040108D01*
X026872Y040151D01*
X026916Y040191D01*
X026962Y040228D01*
X027011Y040262D01*
X027062Y040293D01*
X027114Y040321D01*
X027169Y040345D01*
X027225Y040365D01*
X027282Y040381D01*
X027340Y040394D01*
X027399Y040403D01*
X027458Y040408D01*
X027518Y040409D01*
X027577Y040406D01*
X027636Y040399D01*
X027695Y040388D01*
X027753Y040374D01*
X027809Y040355D01*
X027865Y040333D01*
X027918Y040308D01*
X027970Y040278D01*
X028020Y040246D01*
X028067Y040210D01*
X028113Y040171D01*
X028155Y040129D01*
X028195Y040085D01*
X028231Y040038D01*
X028264Y039989D01*
X028295Y039937D01*
X028321Y039884D01*
X028344Y039829D01*
X028363Y039773D01*
X028379Y039715D01*
X028391Y039657D01*
X028399Y039598D01*
X028403Y039539D01*
X028403Y039479D01*
X028399Y039420D01*
X028391Y039361D01*
X028379Y039303D01*
X028363Y039245D01*
X028344Y039189D01*
X028321Y039134D01*
X028295Y039081D01*
X028264Y039029D01*
X028231Y038980D01*
X028195Y038933D01*
X028155Y038889D01*
X028113Y038847D01*
X028067Y038808D01*
X028020Y038772D01*
X027970Y038740D01*
X027918Y038710D01*
X027865Y038685D01*
X027809Y038663D01*
X027753Y038644D01*
X027695Y038630D01*
X027636Y038619D01*
X027577Y038612D01*
X027518Y038609D01*
X027458Y038610D01*
X027399Y038615D01*
X027340Y038624D01*
X027282Y038637D01*
X027225Y038653D01*
X027169Y038673D01*
X027114Y038697D01*
X027062Y038725D01*
X027011Y038756D01*
X026962Y038790D01*
X026916Y038827D01*
X026872Y038867D01*
X026831Y038910D01*
X026793Y038956D01*
X026758Y039004D01*
X026726Y039055D01*
X026698Y039107D01*
X026673Y039161D01*
X026652Y039217D01*
X026634Y039274D01*
X026621Y039332D01*
X026611Y039390D01*
X026605Y039450D01*
X026603Y039509D01*
X026603Y041509D02*
X026605Y041568D01*
X026611Y041628D01*
X026621Y041686D01*
X026634Y041744D01*
X026652Y041801D01*
X026673Y041857D01*
X026698Y041911D01*
X026726Y041963D01*
X026758Y042014D01*
X026793Y042062D01*
X026831Y042108D01*
X026872Y042151D01*
X026916Y042191D01*
X026962Y042228D01*
X027011Y042262D01*
X027062Y042293D01*
X027114Y042321D01*
X027169Y042345D01*
X027225Y042365D01*
X027282Y042381D01*
X027340Y042394D01*
X027399Y042403D01*
X027458Y042408D01*
X027518Y042409D01*
X027577Y042406D01*
X027636Y042399D01*
X027695Y042388D01*
X027753Y042374D01*
X027809Y042355D01*
X027865Y042333D01*
X027918Y042308D01*
X027970Y042278D01*
X028020Y042246D01*
X028067Y042210D01*
X028113Y042171D01*
X028155Y042129D01*
X028195Y042085D01*
X028231Y042038D01*
X028264Y041989D01*
X028295Y041937D01*
X028321Y041884D01*
X028344Y041829D01*
X028363Y041773D01*
X028379Y041715D01*
X028391Y041657D01*
X028399Y041598D01*
X028403Y041539D01*
X028403Y041479D01*
X028399Y041420D01*
X028391Y041361D01*
X028379Y041303D01*
X028363Y041245D01*
X028344Y041189D01*
X028321Y041134D01*
X028295Y041081D01*
X028264Y041029D01*
X028231Y040980D01*
X028195Y040933D01*
X028155Y040889D01*
X028113Y040847D01*
X028067Y040808D01*
X028020Y040772D01*
X027970Y040740D01*
X027918Y040710D01*
X027865Y040685D01*
X027809Y040663D01*
X027753Y040644D01*
X027695Y040630D01*
X027636Y040619D01*
X027577Y040612D01*
X027518Y040609D01*
X027458Y040610D01*
X027399Y040615D01*
X027340Y040624D01*
X027282Y040637D01*
X027225Y040653D01*
X027169Y040673D01*
X027114Y040697D01*
X027062Y040725D01*
X027011Y040756D01*
X026962Y040790D01*
X026916Y040827D01*
X026872Y040867D01*
X026831Y040910D01*
X026793Y040956D01*
X026758Y041004D01*
X026726Y041055D01*
X026698Y041107D01*
X026673Y041161D01*
X026652Y041217D01*
X026634Y041274D01*
X026621Y041332D01*
X026611Y041390D01*
X026605Y041450D01*
X026603Y041509D01*
X025963Y041699D02*
X025963Y041839D01*
X025893Y041909D01*
X025893Y042089D02*
X025963Y042089D01*
X025893Y042089D02*
X025613Y042369D01*
X025543Y042369D01*
X025543Y042089D01*
X025613Y041909D02*
X025543Y041839D01*
X025543Y041699D01*
X025613Y041629D01*
X025893Y041629D01*
X025963Y041699D01*
X025378Y041509D02*
X025378Y042509D01*
X024628Y042509D02*
X024628Y041509D01*
X024051Y040858D02*
X024051Y043161D01*
X019956Y043161D01*
X019956Y040858D01*
X024051Y040858D01*
X022534Y039750D02*
X022534Y039680D01*
X022464Y039609D01*
X022324Y039609D01*
X022254Y039680D01*
X022254Y039750D01*
X022324Y039820D01*
X022464Y039820D01*
X022534Y039750D01*
X022464Y039609D02*
X022534Y039539D01*
X022534Y039469D01*
X022464Y039399D01*
X022324Y039399D01*
X022254Y039469D01*
X022254Y039539D01*
X022324Y039609D01*
X022074Y039469D02*
X022003Y039399D01*
X021863Y039399D01*
X021793Y039469D01*
X021793Y039750D01*
X021863Y039820D01*
X022003Y039820D01*
X022074Y039750D01*
X021633Y039779D02*
X020373Y039779D01*
X020373Y039239D01*
X021633Y039239D01*
X021633Y039779D01*
X019238Y041269D02*
X019168Y041199D01*
X019028Y041199D01*
X018958Y041269D01*
X018958Y041409D02*
X019098Y041480D01*
X019168Y041480D01*
X019238Y041409D01*
X019238Y041269D01*
X018958Y041409D02*
X018958Y041620D01*
X019238Y041620D01*
X019508Y041739D02*
X018248Y041739D01*
X018248Y042279D01*
X019508Y042279D01*
X019508Y041739D01*
X018778Y041550D02*
X018708Y041620D01*
X018568Y041620D01*
X018498Y041550D01*
X018498Y041269D01*
X018568Y041199D01*
X018708Y041199D01*
X018778Y041269D01*
X017303Y041143D02*
X017303Y040789D01*
X016318Y040513D02*
X015491Y040513D01*
X017303Y042875D02*
X017303Y043230D01*
X016318Y043505D02*
X015491Y043505D01*
X018248Y043739D02*
X019508Y043739D01*
X019508Y044279D01*
X018248Y044279D01*
X018248Y043739D01*
X018485Y043255D02*
X019272Y043255D01*
X019351Y043009D02*
X018366Y043009D01*
X018485Y042763D02*
X019272Y042763D01*
X019089Y044399D02*
X018949Y044399D01*
X018879Y044469D01*
X018879Y044609D01*
X019089Y044609D01*
X019159Y044539D01*
X019159Y044469D01*
X019089Y044399D01*
X018879Y044609D02*
X019019Y044750D01*
X019159Y044820D01*
X018699Y044750D02*
X018628Y044820D01*
X018488Y044820D01*
X018418Y044750D01*
X018418Y044469D01*
X018488Y044399D01*
X018628Y044399D01*
X018699Y044469D01*
X023486Y042777D02*
X023488Y042803D01*
X023494Y042829D01*
X023503Y042854D01*
X023516Y042877D01*
X023532Y042898D01*
X023551Y042916D01*
X023573Y042932D01*
X023596Y042944D01*
X023621Y042952D01*
X023647Y042957D01*
X023674Y042958D01*
X023700Y042955D01*
X023725Y042948D01*
X023750Y042938D01*
X023772Y042924D01*
X023793Y042907D01*
X023810Y042888D01*
X023825Y042866D01*
X023836Y042842D01*
X023844Y042816D01*
X023848Y042790D01*
X023848Y042764D01*
X023844Y042738D01*
X023836Y042712D01*
X023825Y042688D01*
X023810Y042666D01*
X023793Y042647D01*
X023772Y042630D01*
X023750Y042616D01*
X023725Y042606D01*
X023700Y042599D01*
X023674Y042596D01*
X023647Y042597D01*
X023621Y042602D01*
X023596Y042610D01*
X023573Y042622D01*
X023551Y042638D01*
X023532Y042656D01*
X023516Y042677D01*
X023503Y042700D01*
X023494Y042725D01*
X023488Y042751D01*
X023486Y042777D01*
X028443Y042420D02*
X028653Y042420D01*
X028724Y042350D01*
X028724Y042209D01*
X028653Y042139D01*
X028443Y042139D01*
X028443Y041999D02*
X028443Y042420D01*
X028583Y042139D02*
X028724Y041999D01*
X028904Y041999D02*
X029184Y042280D01*
X029184Y042350D01*
X029114Y042420D01*
X028974Y042420D01*
X028904Y042350D01*
X028904Y041999D02*
X029184Y041999D01*
X029364Y041999D02*
X029644Y042280D01*
X029644Y042350D01*
X029574Y042420D01*
X029434Y042420D01*
X029364Y042350D01*
X029364Y041999D02*
X029644Y041999D01*
X036593Y040510D02*
X036733Y040370D01*
X036593Y040510D02*
X037013Y040510D01*
X037013Y040370D02*
X037013Y040650D01*
X037013Y040190D02*
X037013Y039910D01*
X037013Y040050D02*
X036593Y040050D01*
X036733Y039910D01*
X036663Y039730D02*
X036803Y039730D01*
X036873Y039659D01*
X036873Y039449D01*
X037013Y039449D02*
X036593Y039449D01*
X036593Y039659D01*
X036663Y039730D01*
X036873Y039589D02*
X037013Y039730D01*
X036603Y038509D02*
X036605Y038568D01*
X036611Y038628D01*
X036621Y038686D01*
X036634Y038744D01*
X036652Y038801D01*
X036673Y038857D01*
X036698Y038911D01*
X036726Y038963D01*
X036758Y039014D01*
X036793Y039062D01*
X036831Y039108D01*
X036872Y039151D01*
X036916Y039191D01*
X036962Y039228D01*
X037011Y039262D01*
X037062Y039293D01*
X037114Y039321D01*
X037169Y039345D01*
X037225Y039365D01*
X037282Y039381D01*
X037340Y039394D01*
X037399Y039403D01*
X037458Y039408D01*
X037518Y039409D01*
X037577Y039406D01*
X037636Y039399D01*
X037695Y039388D01*
X037753Y039374D01*
X037809Y039355D01*
X037865Y039333D01*
X037918Y039308D01*
X037970Y039278D01*
X038020Y039246D01*
X038067Y039210D01*
X038113Y039171D01*
X038155Y039129D01*
X038195Y039085D01*
X038231Y039038D01*
X038264Y038989D01*
X038295Y038937D01*
X038321Y038884D01*
X038344Y038829D01*
X038363Y038773D01*
X038379Y038715D01*
X038391Y038657D01*
X038399Y038598D01*
X038403Y038539D01*
X038403Y038479D01*
X038399Y038420D01*
X038391Y038361D01*
X038379Y038303D01*
X038363Y038245D01*
X038344Y038189D01*
X038321Y038134D01*
X038295Y038081D01*
X038264Y038029D01*
X038231Y037980D01*
X038195Y037933D01*
X038155Y037889D01*
X038113Y037847D01*
X038067Y037808D01*
X038020Y037772D01*
X037970Y037740D01*
X037918Y037710D01*
X037865Y037685D01*
X037809Y037663D01*
X037753Y037644D01*
X037695Y037630D01*
X037636Y037619D01*
X037577Y037612D01*
X037518Y037609D01*
X037458Y037610D01*
X037399Y037615D01*
X037340Y037624D01*
X037282Y037637D01*
X037225Y037653D01*
X037169Y037673D01*
X037114Y037697D01*
X037062Y037725D01*
X037011Y037756D01*
X036962Y037790D01*
X036916Y037827D01*
X036872Y037867D01*
X036831Y037910D01*
X036793Y037956D01*
X036758Y038004D01*
X036726Y038055D01*
X036698Y038107D01*
X036673Y038161D01*
X036652Y038217D01*
X036634Y038274D01*
X036621Y038332D01*
X036611Y038390D01*
X036605Y038450D01*
X036603Y038509D01*
X038603Y043509D02*
X038605Y043568D01*
X038611Y043628D01*
X038621Y043686D01*
X038634Y043744D01*
X038652Y043801D01*
X038673Y043857D01*
X038698Y043911D01*
X038726Y043963D01*
X038758Y044014D01*
X038793Y044062D01*
X038831Y044108D01*
X038872Y044151D01*
X038916Y044191D01*
X038962Y044228D01*
X039011Y044262D01*
X039062Y044293D01*
X039114Y044321D01*
X039169Y044345D01*
X039225Y044365D01*
X039282Y044381D01*
X039340Y044394D01*
X039399Y044403D01*
X039458Y044408D01*
X039518Y044409D01*
X039577Y044406D01*
X039636Y044399D01*
X039695Y044388D01*
X039753Y044374D01*
X039809Y044355D01*
X039865Y044333D01*
X039918Y044308D01*
X039970Y044278D01*
X040020Y044246D01*
X040067Y044210D01*
X040113Y044171D01*
X040155Y044129D01*
X040195Y044085D01*
X040231Y044038D01*
X040264Y043989D01*
X040295Y043937D01*
X040321Y043884D01*
X040344Y043829D01*
X040363Y043773D01*
X040379Y043715D01*
X040391Y043657D01*
X040399Y043598D01*
X040403Y043539D01*
X040403Y043479D01*
X040399Y043420D01*
X040391Y043361D01*
X040379Y043303D01*
X040363Y043245D01*
X040344Y043189D01*
X040321Y043134D01*
X040295Y043081D01*
X040264Y043029D01*
X040231Y042980D01*
X040195Y042933D01*
X040155Y042889D01*
X040113Y042847D01*
X040067Y042808D01*
X040020Y042772D01*
X039970Y042740D01*
X039918Y042710D01*
X039865Y042685D01*
X039809Y042663D01*
X039753Y042644D01*
X039695Y042630D01*
X039636Y042619D01*
X039577Y042612D01*
X039518Y042609D01*
X039458Y042610D01*
X039399Y042615D01*
X039340Y042624D01*
X039282Y042637D01*
X039225Y042653D01*
X039169Y042673D01*
X039114Y042697D01*
X039062Y042725D01*
X039011Y042756D01*
X038962Y042790D01*
X038916Y042827D01*
X038872Y042867D01*
X038831Y042910D01*
X038793Y042956D01*
X038758Y043004D01*
X038726Y043055D01*
X038698Y043107D01*
X038673Y043161D01*
X038652Y043217D01*
X038634Y043274D01*
X038621Y043332D01*
X038611Y043390D01*
X038605Y043450D01*
X038603Y043509D01*
X040443Y043999D02*
X040443Y044420D01*
X040653Y044420D01*
X040724Y044350D01*
X040724Y044209D01*
X040653Y044139D01*
X040443Y044139D01*
X040583Y044139D02*
X040724Y043999D01*
X040904Y044069D02*
X040904Y044139D01*
X040974Y044209D01*
X041114Y044209D01*
X041184Y044139D01*
X041184Y044069D01*
X041114Y043999D01*
X040974Y043999D01*
X040904Y044069D01*
X040974Y044209D02*
X040904Y044280D01*
X040904Y044350D01*
X040974Y044420D01*
X041114Y044420D01*
X041184Y044350D01*
X041184Y044280D01*
X041114Y044209D01*
X044254Y041920D02*
X044668Y041920D01*
X044461Y041920D02*
X044461Y041299D01*
X044899Y041403D02*
X045002Y041299D01*
X045209Y041299D01*
X045312Y041403D01*
X045312Y041506D01*
X045209Y041610D01*
X045106Y041610D01*
X045209Y041610D02*
X045312Y041713D01*
X045312Y041816D01*
X045209Y041920D01*
X045002Y041920D01*
X044899Y041816D01*
X053918Y050045D02*
X053988Y049974D01*
X054128Y049974D01*
X054199Y050045D01*
X054379Y050045D02*
X054449Y049974D01*
X054589Y049974D01*
X054659Y050045D01*
X054659Y050325D01*
X054589Y050395D01*
X054449Y050395D01*
X054379Y050325D01*
X054379Y050045D01*
X054199Y050325D02*
X054128Y050395D01*
X053988Y050395D01*
X053918Y050325D01*
X053918Y050045D01*
X054839Y049974D02*
X054839Y050395D01*
X054979Y050255D01*
X055119Y050395D01*
X055119Y049974D01*
X053608Y051434D02*
X053610Y051493D01*
X053616Y051552D01*
X053626Y051610D01*
X053639Y051668D01*
X053656Y051725D01*
X053678Y051780D01*
X053702Y051834D01*
X053730Y051886D01*
X053762Y051936D01*
X053797Y051984D01*
X053835Y052029D01*
X053875Y052072D01*
X053919Y052112D01*
X053965Y052149D01*
X054013Y052183D01*
X054064Y052214D01*
X054117Y052241D01*
X054171Y052265D01*
X054226Y052285D01*
X054283Y052302D01*
X054341Y052314D01*
X054400Y052323D01*
X054459Y052328D01*
X054518Y052329D01*
X054577Y052326D01*
X054636Y052319D01*
X054694Y052308D01*
X054751Y052294D01*
X054808Y052276D01*
X054863Y052254D01*
X054916Y052228D01*
X054967Y052199D01*
X055017Y052167D01*
X055064Y052131D01*
X055109Y052092D01*
X055151Y052051D01*
X055191Y052007D01*
X055227Y051960D01*
X055260Y051911D01*
X055290Y051860D01*
X055317Y051807D01*
X055339Y051752D01*
X055359Y051696D01*
X055374Y051639D01*
X055386Y051581D01*
X055394Y051523D01*
X055398Y051464D01*
X055398Y051404D01*
X055394Y051345D01*
X055386Y051287D01*
X055374Y051229D01*
X055359Y051172D01*
X055339Y051116D01*
X055317Y051061D01*
X055290Y051008D01*
X055260Y050957D01*
X055227Y050908D01*
X055191Y050861D01*
X055151Y050817D01*
X055109Y050776D01*
X055064Y050737D01*
X055017Y050701D01*
X054967Y050669D01*
X054916Y050640D01*
X054863Y050614D01*
X054808Y050592D01*
X054751Y050574D01*
X054694Y050560D01*
X054636Y050549D01*
X054577Y050542D01*
X054518Y050539D01*
X054459Y050540D01*
X054400Y050545D01*
X054341Y050554D01*
X054283Y050566D01*
X054226Y050583D01*
X054171Y050603D01*
X054117Y050627D01*
X054064Y050654D01*
X054013Y050685D01*
X053965Y050719D01*
X053919Y050756D01*
X053875Y050796D01*
X053835Y050839D01*
X053797Y050884D01*
X053762Y050932D01*
X053730Y050982D01*
X053702Y051034D01*
X053678Y051088D01*
X053656Y051143D01*
X053639Y051200D01*
X053626Y051258D01*
X053616Y051316D01*
X053610Y051375D01*
X053608Y051434D01*
X053738Y052974D02*
X053878Y052974D01*
X053949Y053045D01*
X053949Y053325D01*
X053878Y053395D01*
X053738Y053395D01*
X053668Y053325D01*
X053668Y053045D01*
X053738Y052974D01*
X054129Y053045D02*
X054129Y053395D01*
X054409Y053395D02*
X054409Y053045D01*
X054339Y052974D01*
X054199Y052974D01*
X054129Y053045D01*
X054589Y053395D02*
X054869Y053395D01*
X054729Y053395D02*
X054729Y052974D01*
X055049Y052974D02*
X055330Y052974D01*
X055189Y052974D02*
X055189Y053395D01*
X055049Y053255D01*
X053608Y054434D02*
X053610Y054493D01*
X053616Y054552D01*
X053626Y054610D01*
X053639Y054668D01*
X053656Y054725D01*
X053678Y054780D01*
X053702Y054834D01*
X053730Y054886D01*
X053762Y054936D01*
X053797Y054984D01*
X053835Y055029D01*
X053875Y055072D01*
X053919Y055112D01*
X053965Y055149D01*
X054013Y055183D01*
X054064Y055214D01*
X054117Y055241D01*
X054171Y055265D01*
X054226Y055285D01*
X054283Y055302D01*
X054341Y055314D01*
X054400Y055323D01*
X054459Y055328D01*
X054518Y055329D01*
X054577Y055326D01*
X054636Y055319D01*
X054694Y055308D01*
X054751Y055294D01*
X054808Y055276D01*
X054863Y055254D01*
X054916Y055228D01*
X054967Y055199D01*
X055017Y055167D01*
X055064Y055131D01*
X055109Y055092D01*
X055151Y055051D01*
X055191Y055007D01*
X055227Y054960D01*
X055260Y054911D01*
X055290Y054860D01*
X055317Y054807D01*
X055339Y054752D01*
X055359Y054696D01*
X055374Y054639D01*
X055386Y054581D01*
X055394Y054523D01*
X055398Y054464D01*
X055398Y054404D01*
X055394Y054345D01*
X055386Y054287D01*
X055374Y054229D01*
X055359Y054172D01*
X055339Y054116D01*
X055317Y054061D01*
X055290Y054008D01*
X055260Y053957D01*
X055227Y053908D01*
X055191Y053861D01*
X055151Y053817D01*
X055109Y053776D01*
X055064Y053737D01*
X055017Y053701D01*
X054967Y053669D01*
X054916Y053640D01*
X054863Y053614D01*
X054808Y053592D01*
X054751Y053574D01*
X054694Y053560D01*
X054636Y053549D01*
X054577Y053542D01*
X054518Y053539D01*
X054459Y053540D01*
X054400Y053545D01*
X054341Y053554D01*
X054283Y053566D01*
X054226Y053583D01*
X054171Y053603D01*
X054117Y053627D01*
X054064Y053654D01*
X054013Y053685D01*
X053965Y053719D01*
X053919Y053756D01*
X053875Y053796D01*
X053835Y053839D01*
X053797Y053884D01*
X053762Y053932D01*
X053730Y053982D01*
X053702Y054034D01*
X053678Y054088D01*
X053656Y054143D01*
X053639Y054200D01*
X053626Y054258D01*
X053616Y054316D01*
X053610Y054375D01*
X053608Y054434D01*
X045312Y057299D02*
X044899Y057299D01*
X045106Y057299D02*
X045106Y057920D01*
X044899Y057713D01*
X044668Y057920D02*
X044254Y057920D01*
X044461Y057920D02*
X044461Y057299D01*
X053608Y033584D02*
X053610Y033643D01*
X053616Y033702D01*
X053626Y033760D01*
X053639Y033818D01*
X053656Y033875D01*
X053678Y033930D01*
X053702Y033984D01*
X053730Y034036D01*
X053762Y034086D01*
X053797Y034134D01*
X053835Y034179D01*
X053875Y034222D01*
X053919Y034262D01*
X053965Y034299D01*
X054013Y034333D01*
X054064Y034364D01*
X054117Y034391D01*
X054171Y034415D01*
X054226Y034435D01*
X054283Y034452D01*
X054341Y034464D01*
X054400Y034473D01*
X054459Y034478D01*
X054518Y034479D01*
X054577Y034476D01*
X054636Y034469D01*
X054694Y034458D01*
X054751Y034444D01*
X054808Y034426D01*
X054863Y034404D01*
X054916Y034378D01*
X054967Y034349D01*
X055017Y034317D01*
X055064Y034281D01*
X055109Y034242D01*
X055151Y034201D01*
X055191Y034157D01*
X055227Y034110D01*
X055260Y034061D01*
X055290Y034010D01*
X055317Y033957D01*
X055339Y033902D01*
X055359Y033846D01*
X055374Y033789D01*
X055386Y033731D01*
X055394Y033673D01*
X055398Y033614D01*
X055398Y033554D01*
X055394Y033495D01*
X055386Y033437D01*
X055374Y033379D01*
X055359Y033322D01*
X055339Y033266D01*
X055317Y033211D01*
X055290Y033158D01*
X055260Y033107D01*
X055227Y033058D01*
X055191Y033011D01*
X055151Y032967D01*
X055109Y032926D01*
X055064Y032887D01*
X055017Y032851D01*
X054967Y032819D01*
X054916Y032790D01*
X054863Y032764D01*
X054808Y032742D01*
X054751Y032724D01*
X054694Y032710D01*
X054636Y032699D01*
X054577Y032692D01*
X054518Y032689D01*
X054459Y032690D01*
X054400Y032695D01*
X054341Y032704D01*
X054283Y032716D01*
X054226Y032733D01*
X054171Y032753D01*
X054117Y032777D01*
X054064Y032804D01*
X054013Y032835D01*
X053965Y032869D01*
X053919Y032906D01*
X053875Y032946D01*
X053835Y032989D01*
X053797Y033034D01*
X053762Y033082D01*
X053730Y033132D01*
X053702Y033184D01*
X053678Y033238D01*
X053656Y033293D01*
X053639Y033350D01*
X053626Y033408D01*
X053616Y033466D01*
X053610Y033525D01*
X053608Y033584D01*
X053738Y032544D02*
X053668Y032474D01*
X053668Y032194D01*
X053738Y032124D01*
X053878Y032124D01*
X053949Y032194D01*
X053949Y032474D01*
X053878Y032544D01*
X053738Y032544D01*
X054129Y032544D02*
X054129Y032194D01*
X054199Y032124D01*
X054339Y032124D01*
X054409Y032194D01*
X054409Y032544D01*
X054589Y032544D02*
X054869Y032544D01*
X054729Y032544D02*
X054729Y032124D01*
X055049Y032334D02*
X055330Y032334D01*
X055260Y032124D02*
X055260Y032544D01*
X055049Y032334D01*
X053608Y030584D02*
X053610Y030643D01*
X053616Y030702D01*
X053626Y030760D01*
X053639Y030818D01*
X053656Y030875D01*
X053678Y030930D01*
X053702Y030984D01*
X053730Y031036D01*
X053762Y031086D01*
X053797Y031134D01*
X053835Y031179D01*
X053875Y031222D01*
X053919Y031262D01*
X053965Y031299D01*
X054013Y031333D01*
X054064Y031364D01*
X054117Y031391D01*
X054171Y031415D01*
X054226Y031435D01*
X054283Y031452D01*
X054341Y031464D01*
X054400Y031473D01*
X054459Y031478D01*
X054518Y031479D01*
X054577Y031476D01*
X054636Y031469D01*
X054694Y031458D01*
X054751Y031444D01*
X054808Y031426D01*
X054863Y031404D01*
X054916Y031378D01*
X054967Y031349D01*
X055017Y031317D01*
X055064Y031281D01*
X055109Y031242D01*
X055151Y031201D01*
X055191Y031157D01*
X055227Y031110D01*
X055260Y031061D01*
X055290Y031010D01*
X055317Y030957D01*
X055339Y030902D01*
X055359Y030846D01*
X055374Y030789D01*
X055386Y030731D01*
X055394Y030673D01*
X055398Y030614D01*
X055398Y030554D01*
X055394Y030495D01*
X055386Y030437D01*
X055374Y030379D01*
X055359Y030322D01*
X055339Y030266D01*
X055317Y030211D01*
X055290Y030158D01*
X055260Y030107D01*
X055227Y030058D01*
X055191Y030011D01*
X055151Y029967D01*
X055109Y029926D01*
X055064Y029887D01*
X055017Y029851D01*
X054967Y029819D01*
X054916Y029790D01*
X054863Y029764D01*
X054808Y029742D01*
X054751Y029724D01*
X054694Y029710D01*
X054636Y029699D01*
X054577Y029692D01*
X054518Y029689D01*
X054459Y029690D01*
X054400Y029695D01*
X054341Y029704D01*
X054283Y029716D01*
X054226Y029733D01*
X054171Y029753D01*
X054117Y029777D01*
X054064Y029804D01*
X054013Y029835D01*
X053965Y029869D01*
X053919Y029906D01*
X053875Y029946D01*
X053835Y029989D01*
X053797Y030034D01*
X053762Y030082D01*
X053730Y030132D01*
X053702Y030184D01*
X053678Y030238D01*
X053656Y030293D01*
X053639Y030350D01*
X053626Y030408D01*
X053616Y030466D01*
X053610Y030525D01*
X053608Y030584D01*
X053988Y029294D02*
X053918Y029224D01*
X053918Y028944D01*
X053988Y028874D01*
X054128Y028874D01*
X054199Y028944D01*
X054379Y028944D02*
X054449Y028874D01*
X054589Y028874D01*
X054659Y028944D01*
X054659Y029224D01*
X054589Y029294D01*
X054449Y029294D01*
X054379Y029224D01*
X054379Y028944D01*
X054199Y029224D02*
X054128Y029294D01*
X053988Y029294D01*
X054839Y029294D02*
X054979Y029154D01*
X055119Y029294D01*
X055119Y028874D01*
X054839Y028874D02*
X054839Y029294D01*
X049088Y027799D02*
X049018Y027869D01*
X048738Y027869D01*
X048668Y027799D01*
X048668Y027659D01*
X048738Y027589D01*
X048808Y027589D01*
X048878Y027659D01*
X048878Y027869D01*
X049088Y027799D02*
X049088Y027659D01*
X049018Y027589D01*
X049088Y027409D02*
X049088Y027129D01*
X049088Y027269D02*
X048668Y027269D01*
X048808Y027129D01*
X048738Y026948D02*
X048878Y026948D01*
X048948Y026878D01*
X048948Y026668D01*
X048948Y026808D02*
X049088Y026948D01*
X049088Y026668D02*
X048668Y026668D01*
X048668Y026878D01*
X048738Y026948D01*
X041644Y028069D02*
X041574Y027999D01*
X041434Y027999D01*
X041364Y028069D01*
X041364Y028139D01*
X041434Y028209D01*
X041574Y028209D01*
X041644Y028139D01*
X041644Y028069D01*
X041574Y028209D02*
X041644Y028280D01*
X041644Y028350D01*
X041574Y028420D01*
X041434Y028420D01*
X041364Y028350D01*
X041364Y028280D01*
X041434Y028209D01*
X041184Y027999D02*
X040904Y027999D01*
X041044Y027999D02*
X041044Y028420D01*
X040904Y028280D01*
X040724Y028350D02*
X040724Y028209D01*
X040653Y028139D01*
X040443Y028139D01*
X040443Y027999D02*
X040443Y028420D01*
X040653Y028420D01*
X040724Y028350D01*
X040583Y028139D02*
X040724Y027999D01*
X038603Y027509D02*
X038605Y027568D01*
X038611Y027628D01*
X038621Y027686D01*
X038634Y027744D01*
X038652Y027801D01*
X038673Y027857D01*
X038698Y027911D01*
X038726Y027963D01*
X038758Y028014D01*
X038793Y028062D01*
X038831Y028108D01*
X038872Y028151D01*
X038916Y028191D01*
X038962Y028228D01*
X039011Y028262D01*
X039062Y028293D01*
X039114Y028321D01*
X039169Y028345D01*
X039225Y028365D01*
X039282Y028381D01*
X039340Y028394D01*
X039399Y028403D01*
X039458Y028408D01*
X039518Y028409D01*
X039577Y028406D01*
X039636Y028399D01*
X039695Y028388D01*
X039753Y028374D01*
X039809Y028355D01*
X039865Y028333D01*
X039918Y028308D01*
X039970Y028278D01*
X040020Y028246D01*
X040067Y028210D01*
X040113Y028171D01*
X040155Y028129D01*
X040195Y028085D01*
X040231Y028038D01*
X040264Y027989D01*
X040295Y027937D01*
X040321Y027884D01*
X040344Y027829D01*
X040363Y027773D01*
X040379Y027715D01*
X040391Y027657D01*
X040399Y027598D01*
X040403Y027539D01*
X040403Y027479D01*
X040399Y027420D01*
X040391Y027361D01*
X040379Y027303D01*
X040363Y027245D01*
X040344Y027189D01*
X040321Y027134D01*
X040295Y027081D01*
X040264Y027029D01*
X040231Y026980D01*
X040195Y026933D01*
X040155Y026889D01*
X040113Y026847D01*
X040067Y026808D01*
X040020Y026772D01*
X039970Y026740D01*
X039918Y026710D01*
X039865Y026685D01*
X039809Y026663D01*
X039753Y026644D01*
X039695Y026630D01*
X039636Y026619D01*
X039577Y026612D01*
X039518Y026609D01*
X039458Y026610D01*
X039399Y026615D01*
X039340Y026624D01*
X039282Y026637D01*
X039225Y026653D01*
X039169Y026673D01*
X039114Y026697D01*
X039062Y026725D01*
X039011Y026756D01*
X038962Y026790D01*
X038916Y026827D01*
X038872Y026867D01*
X038831Y026910D01*
X038793Y026956D01*
X038758Y027004D01*
X038726Y027055D01*
X038698Y027107D01*
X038673Y027161D01*
X038652Y027217D01*
X038634Y027274D01*
X038621Y027332D01*
X038611Y027390D01*
X038605Y027450D01*
X038603Y027509D01*
X018558Y026770D02*
X018558Y026349D01*
D11*
X037503Y031514D03*
X037503Y039514D03*
X037503Y047514D03*
X037503Y055514D03*
D12*
X036508Y051509D03*
X040508Y051509D03*
X040508Y043509D03*
X036508Y043509D03*
X028508Y041509D03*
X028508Y039509D03*
X028508Y033509D03*
X028508Y031509D03*
X036508Y027509D03*
X040508Y027509D03*
X040508Y035509D03*
X036508Y035509D03*
X028508Y047509D03*
X028508Y049509D03*
X028508Y055509D03*
X028508Y057509D03*
D13*
X041278Y056009D03*
X041278Y055009D03*
X041278Y054009D03*
X041278Y048009D03*
X041278Y047009D03*
X041278Y046009D03*
X041278Y040009D03*
X041278Y039009D03*
X041278Y038009D03*
X041278Y032009D03*
X041278Y031009D03*
X041278Y030009D03*
D14*
X041953Y030009D03*
X041953Y031009D03*
X041953Y032009D03*
X041953Y038009D03*
X041953Y039009D03*
X041953Y040009D03*
X041953Y046009D03*
X041953Y047009D03*
X041953Y048009D03*
X041953Y054009D03*
X041953Y055009D03*
X041953Y056009D03*
D15*
X031503Y055384D02*
X031253Y055384D01*
X030753Y055384D02*
X030503Y055384D01*
X031803Y056009D02*
X031801Y056063D01*
X031796Y056117D01*
X031787Y056170D01*
X031774Y056223D01*
X031758Y056274D01*
X031738Y056324D01*
X031715Y056373D01*
X031689Y056421D01*
X031660Y056466D01*
X031627Y056509D01*
X031592Y056550D01*
X031554Y056589D01*
X031514Y056625D01*
X031471Y056658D01*
X031426Y056688D01*
X031379Y056715D01*
X030606Y056704D02*
X030558Y056674D01*
X030513Y056641D01*
X030470Y056605D01*
X030429Y056567D01*
X030392Y056525D01*
X030357Y056481D01*
X030326Y056435D01*
X030297Y056386D01*
X030273Y056336D01*
X030252Y056284D01*
X030234Y056230D01*
X030221Y056176D01*
X030211Y056121D01*
X030205Y056065D01*
X030203Y056009D01*
X030205Y055956D01*
X030210Y055902D01*
X030219Y055850D01*
X030231Y055798D01*
X030247Y055747D01*
X030266Y055697D01*
X030289Y055648D01*
X030315Y055601D01*
X030343Y055556D01*
X030375Y055513D01*
X030409Y055473D01*
X030447Y055434D01*
X030486Y055398D01*
X031515Y055394D02*
X031555Y055430D01*
X031593Y055469D01*
X031628Y055510D01*
X031660Y055553D01*
X031690Y055598D01*
X031716Y055645D01*
X031738Y055694D01*
X031758Y055745D01*
X031774Y055796D01*
X031787Y055848D01*
X031796Y055902D01*
X031801Y055955D01*
X031803Y056009D01*
X030606Y048704D02*
X030558Y048674D01*
X030513Y048641D01*
X030470Y048605D01*
X030429Y048567D01*
X030392Y048525D01*
X030357Y048481D01*
X030326Y048435D01*
X030297Y048386D01*
X030273Y048336D01*
X030252Y048284D01*
X030234Y048230D01*
X030221Y048176D01*
X030211Y048121D01*
X030205Y048065D01*
X030203Y048009D01*
X030503Y047384D02*
X030753Y047384D01*
X031253Y047384D02*
X031503Y047384D01*
X031803Y048009D02*
X031801Y048063D01*
X031796Y048117D01*
X031787Y048170D01*
X031774Y048223D01*
X031758Y048274D01*
X031738Y048324D01*
X031715Y048373D01*
X031689Y048421D01*
X031660Y048466D01*
X031627Y048509D01*
X031592Y048550D01*
X031554Y048589D01*
X031514Y048625D01*
X031471Y048658D01*
X031426Y048688D01*
X031379Y048715D01*
X030203Y048009D02*
X030205Y047956D01*
X030210Y047902D01*
X030219Y047850D01*
X030231Y047798D01*
X030247Y047747D01*
X030266Y047697D01*
X030289Y047648D01*
X030315Y047601D01*
X030343Y047556D01*
X030375Y047513D01*
X030409Y047473D01*
X030447Y047434D01*
X030486Y047398D01*
X031515Y047394D02*
X031555Y047430D01*
X031593Y047469D01*
X031628Y047510D01*
X031660Y047553D01*
X031690Y047598D01*
X031716Y047645D01*
X031738Y047694D01*
X031758Y047745D01*
X031774Y047796D01*
X031787Y047848D01*
X031796Y047902D01*
X031801Y047955D01*
X031803Y048009D01*
X030606Y040704D02*
X030558Y040674D01*
X030513Y040641D01*
X030470Y040605D01*
X030429Y040567D01*
X030392Y040525D01*
X030357Y040481D01*
X030326Y040435D01*
X030297Y040386D01*
X030273Y040336D01*
X030252Y040284D01*
X030234Y040230D01*
X030221Y040176D01*
X030211Y040121D01*
X030205Y040065D01*
X030203Y040009D01*
X030503Y039384D02*
X030753Y039384D01*
X031253Y039384D02*
X031503Y039384D01*
X031803Y040009D02*
X031801Y040063D01*
X031796Y040117D01*
X031787Y040170D01*
X031774Y040223D01*
X031758Y040274D01*
X031738Y040324D01*
X031715Y040373D01*
X031689Y040421D01*
X031660Y040466D01*
X031627Y040509D01*
X031592Y040550D01*
X031554Y040589D01*
X031514Y040625D01*
X031471Y040658D01*
X031426Y040688D01*
X031379Y040715D01*
X030203Y040009D02*
X030205Y039956D01*
X030210Y039902D01*
X030219Y039850D01*
X030231Y039798D01*
X030247Y039747D01*
X030266Y039697D01*
X030289Y039648D01*
X030315Y039601D01*
X030343Y039556D01*
X030375Y039513D01*
X030409Y039473D01*
X030447Y039434D01*
X030486Y039398D01*
X031515Y039394D02*
X031555Y039430D01*
X031593Y039469D01*
X031628Y039510D01*
X031660Y039553D01*
X031690Y039598D01*
X031716Y039645D01*
X031738Y039694D01*
X031758Y039745D01*
X031774Y039796D01*
X031787Y039848D01*
X031796Y039902D01*
X031801Y039955D01*
X031803Y040009D01*
X030606Y032704D02*
X030558Y032674D01*
X030513Y032641D01*
X030470Y032605D01*
X030429Y032567D01*
X030392Y032525D01*
X030357Y032481D01*
X030326Y032435D01*
X030297Y032386D01*
X030273Y032336D01*
X030252Y032284D01*
X030234Y032230D01*
X030221Y032176D01*
X030211Y032121D01*
X030205Y032065D01*
X030203Y032009D01*
X030503Y031384D02*
X030753Y031384D01*
X031253Y031384D02*
X031503Y031384D01*
X031803Y032009D02*
X031801Y032063D01*
X031796Y032117D01*
X031787Y032170D01*
X031774Y032223D01*
X031758Y032274D01*
X031738Y032324D01*
X031715Y032373D01*
X031689Y032421D01*
X031660Y032466D01*
X031627Y032509D01*
X031592Y032550D01*
X031554Y032589D01*
X031514Y032625D01*
X031471Y032658D01*
X031426Y032688D01*
X031379Y032715D01*
X030203Y032009D02*
X030205Y031956D01*
X030210Y031902D01*
X030219Y031850D01*
X030231Y031798D01*
X030247Y031747D01*
X030266Y031697D01*
X030289Y031648D01*
X030315Y031601D01*
X030343Y031556D01*
X030375Y031513D01*
X030409Y031473D01*
X030447Y031434D01*
X030486Y031398D01*
X031515Y031394D02*
X031555Y031430D01*
X031593Y031469D01*
X031628Y031510D01*
X031660Y031553D01*
X031690Y031598D01*
X031716Y031645D01*
X031738Y031694D01*
X031758Y031745D01*
X031774Y031796D01*
X031787Y031848D01*
X031796Y031902D01*
X031801Y031955D01*
X031803Y032009D01*
D16*
X052208Y031866D02*
X053048Y031866D01*
X052208Y031306D01*
X053048Y031306D01*
X053048Y030946D02*
X052488Y030946D01*
X052208Y030665D01*
X052488Y030385D01*
X053048Y030385D01*
X052908Y030025D02*
X052348Y030025D01*
X052208Y029885D01*
X052208Y029464D01*
X053048Y029464D01*
X053048Y029885D01*
X052908Y030025D01*
X052628Y030385D02*
X052628Y030946D01*
X052348Y032227D02*
X052908Y032227D01*
X053048Y032367D01*
X053048Y032647D01*
X052908Y032787D01*
X052628Y032787D01*
X052628Y032507D01*
X052348Y032787D02*
X052208Y032647D01*
X052208Y032367D01*
X052348Y032227D01*
X052208Y033147D02*
X053048Y033147D01*
X053048Y033708D01*
X053048Y034068D02*
X052208Y034068D01*
X052208Y034488D01*
X052348Y034629D01*
X052628Y034629D01*
X052768Y034488D01*
X052768Y034068D01*
X052768Y034348D02*
X053048Y034629D01*
X053048Y034989D02*
X052908Y034989D01*
X052628Y034989D02*
X052067Y034989D01*
X052208Y033708D02*
X052208Y033147D01*
X052628Y033147D02*
X052628Y033428D01*
X052208Y037137D02*
X053048Y037137D01*
X053048Y037698D01*
X053048Y038058D02*
X053048Y038338D01*
X053048Y038198D02*
X052208Y038198D01*
X052208Y038058D02*
X052208Y038338D01*
X052208Y038672D02*
X053048Y039232D01*
X052208Y039232D01*
X052208Y039592D02*
X053048Y039592D01*
X053048Y040153D01*
X052628Y039873D02*
X052628Y039592D01*
X052208Y039592D02*
X052208Y040153D01*
X052208Y041434D02*
X052768Y041434D01*
X053048Y041714D01*
X052768Y041994D01*
X052208Y041994D01*
X052348Y042355D02*
X052908Y042355D01*
X053048Y042495D01*
X053048Y042775D01*
X052908Y042915D01*
X052348Y042915D01*
X052208Y042775D01*
X052208Y042495D01*
X052348Y042355D01*
X052208Y043275D02*
X053048Y043275D01*
X053048Y043836D01*
X053048Y044476D02*
X052208Y044476D01*
X052208Y044196D02*
X052208Y044757D01*
X052488Y045117D02*
X052208Y045397D01*
X052488Y045677D01*
X053048Y045677D01*
X052908Y046038D02*
X052348Y046038D01*
X052208Y046178D01*
X052208Y046458D01*
X052348Y046598D01*
X052628Y046598D02*
X052628Y046318D01*
X052628Y046598D02*
X052908Y046598D01*
X053048Y046458D01*
X053048Y046178D01*
X052908Y046038D01*
X052628Y045677D02*
X052628Y045117D01*
X052488Y045117D02*
X053048Y045117D01*
X053048Y046958D02*
X052208Y046958D01*
X052208Y047519D01*
X052628Y047239D02*
X052628Y046958D01*
X053048Y046958D02*
X053048Y047519D01*
X053048Y049721D02*
X052208Y049721D01*
X052208Y050141D01*
X052348Y050281D01*
X052908Y050281D01*
X053048Y050141D01*
X053048Y049721D01*
X053048Y050641D02*
X052488Y050641D01*
X052208Y050922D01*
X052488Y051202D01*
X053048Y051202D01*
X053048Y051562D02*
X052208Y051562D01*
X053048Y052123D01*
X052208Y052123D01*
X052348Y052483D02*
X052908Y052483D01*
X053048Y052623D01*
X053048Y052903D01*
X052908Y053043D01*
X052628Y053043D01*
X052628Y052763D01*
X052348Y052483D02*
X052208Y052623D01*
X052208Y052903D01*
X052348Y053043D01*
X052208Y053404D02*
X053048Y053404D01*
X053048Y053964D01*
X053048Y054324D02*
X052208Y054324D01*
X052208Y054745D01*
X052348Y054885D01*
X052628Y054885D01*
X052768Y054745D01*
X052768Y054324D01*
X052768Y054605D02*
X053048Y054885D01*
X053048Y055245D02*
X052908Y055245D01*
X052628Y055245D02*
X052067Y055245D01*
X052208Y053964D02*
X052208Y053404D01*
X052628Y053404D02*
X052628Y053684D01*
X052628Y051202D02*
X052628Y050641D01*
X053048Y038672D02*
X052208Y038672D01*
D17*
X027373Y036833D02*
X027153Y036833D01*
X027079Y036759D01*
X027153Y036686D01*
X027299Y036686D01*
X027373Y036613D01*
X027299Y036539D01*
X027079Y036539D01*
X026919Y036539D02*
X026846Y036613D01*
X026846Y036906D01*
X026772Y036833D02*
X026919Y036833D01*
X026606Y036759D02*
X026606Y036539D01*
X026606Y036759D02*
X026532Y036833D01*
X026312Y036833D01*
X026312Y036539D01*
X026145Y036686D02*
X025852Y036686D01*
X025852Y036613D02*
X025852Y036759D01*
X025925Y036833D01*
X026072Y036833D01*
X026145Y036759D01*
X026145Y036686D01*
X026072Y036539D02*
X025925Y036539D01*
X025852Y036613D01*
X025685Y036539D02*
X025685Y036759D01*
X025611Y036833D01*
X025391Y036833D01*
X025391Y036539D01*
X025224Y036613D02*
X025224Y036759D01*
X025151Y036833D01*
X025004Y036833D01*
X024931Y036759D01*
X024931Y036613D01*
X025004Y036539D01*
X025151Y036539D01*
X025224Y036613D01*
X024764Y036613D02*
X024691Y036539D01*
X024471Y036539D01*
X024471Y036393D02*
X024471Y036833D01*
X024691Y036833D01*
X024764Y036759D01*
X024764Y036613D01*
X024304Y036539D02*
X024304Y036759D01*
X024230Y036833D01*
X024157Y036759D01*
X024157Y036539D01*
X024010Y036539D02*
X024010Y036833D01*
X024084Y036833D01*
X024157Y036759D01*
X023843Y036759D02*
X023770Y036833D01*
X023623Y036833D01*
X023550Y036759D01*
X023550Y036613D01*
X023623Y036539D01*
X023770Y036539D01*
X023843Y036613D01*
X023843Y036759D01*
X023383Y036833D02*
X023163Y036833D01*
X023089Y036759D01*
X023089Y036613D01*
X023163Y036539D01*
X023383Y036539D01*
X023230Y035980D02*
X023230Y035539D01*
X023009Y035539D01*
X022936Y035613D01*
X022936Y035759D01*
X023009Y035833D01*
X023230Y035833D01*
X023396Y035833D02*
X023396Y035613D01*
X023470Y035539D01*
X023690Y035539D01*
X023690Y035833D01*
X023857Y035980D02*
X023930Y035980D01*
X023930Y035539D01*
X023857Y035539D02*
X024004Y035539D01*
X024164Y035613D02*
X024164Y035759D01*
X024237Y035833D01*
X024384Y035833D01*
X024457Y035759D01*
X024457Y035686D01*
X024164Y035686D01*
X024164Y035613D02*
X024237Y035539D01*
X024384Y035539D01*
X022769Y035613D02*
X022769Y035759D01*
X022696Y035833D01*
X022549Y035833D01*
X022476Y035759D01*
X022476Y035613D01*
X022549Y035539D01*
X022696Y035539D01*
X022769Y035613D01*
X022309Y035539D02*
X022309Y035759D01*
X022235Y035833D01*
X022162Y035759D01*
X022162Y035539D01*
X022015Y035539D02*
X022015Y035833D01*
X022089Y035833D01*
X022162Y035759D01*
X021388Y035759D02*
X021388Y035539D01*
X021388Y035759D02*
X021315Y035833D01*
X021095Y035833D01*
X021095Y035539D01*
X020934Y035539D02*
X020788Y035539D01*
X020861Y035539D02*
X020861Y035833D01*
X020788Y035833D01*
X020861Y035980D02*
X020861Y036053D01*
X020621Y035759D02*
X020327Y035759D01*
X020161Y035833D02*
X019940Y035833D01*
X019867Y035759D01*
X019867Y035613D01*
X019940Y035539D01*
X020161Y035539D01*
X020161Y035466D02*
X020161Y035833D01*
X020161Y035466D02*
X020087Y035393D01*
X020014Y035393D01*
X019700Y035539D02*
X019700Y035833D01*
X019407Y035833D02*
X019407Y035613D01*
X019480Y035539D01*
X019700Y035539D01*
X019247Y035539D02*
X019100Y035539D01*
X019173Y035539D02*
X019173Y035980D01*
X019100Y035980D01*
X018933Y035759D02*
X018933Y035613D01*
X018860Y035539D01*
X018639Y035539D01*
X018639Y035393D02*
X018639Y035833D01*
X018860Y035833D01*
X018933Y035759D01*
X018866Y036539D02*
X019086Y036539D01*
X019086Y036833D01*
X019253Y036980D02*
X019327Y036980D01*
X019327Y036539D01*
X019400Y036539D02*
X019253Y036539D01*
X019560Y036613D02*
X019633Y036686D01*
X019854Y036686D01*
X019854Y036759D02*
X019854Y036539D01*
X019633Y036539D01*
X019560Y036613D01*
X019633Y036833D02*
X019780Y036833D01*
X019854Y036759D01*
X020020Y036833D02*
X020167Y036833D01*
X020094Y036906D02*
X020094Y036613D01*
X020167Y036539D01*
X020327Y036613D02*
X020327Y036759D01*
X020401Y036833D01*
X020547Y036833D01*
X020621Y036759D01*
X020621Y036686D01*
X020327Y036686D01*
X020327Y036613D02*
X020401Y036539D01*
X020547Y036539D01*
X021248Y036613D02*
X021321Y036539D01*
X021468Y036539D01*
X021542Y036613D01*
X021542Y036686D01*
X021468Y036759D01*
X021321Y036759D01*
X021248Y036833D01*
X021248Y036906D01*
X021321Y036980D01*
X021468Y036980D01*
X021542Y036906D01*
X021708Y036980D02*
X021855Y036833D01*
X022002Y036980D01*
X022002Y036539D01*
X022169Y036539D02*
X022389Y036539D01*
X022462Y036613D01*
X022462Y036906D01*
X022389Y036980D01*
X022169Y036980D01*
X022169Y036539D01*
X021708Y036539D02*
X021708Y036980D01*
X018866Y036539D02*
X018793Y036613D01*
X018793Y036833D01*
X018626Y036759D02*
X018626Y036613D01*
X018553Y036539D01*
X018332Y036539D01*
X018332Y036393D02*
X018332Y036833D01*
X018553Y036833D01*
X018626Y036759D01*
X018166Y036759D02*
X018092Y036833D01*
X017946Y036833D01*
X017872Y036759D01*
X017872Y036613D01*
X017946Y036539D01*
X018092Y036539D01*
X018166Y036613D01*
X018166Y036759D01*
X017705Y036759D02*
X017705Y036613D01*
X017632Y036539D01*
X017412Y036539D01*
X017412Y036393D02*
X017412Y036833D01*
X017632Y036833D01*
X017705Y036759D01*
X017719Y035980D02*
X017939Y035980D01*
X018012Y035906D01*
X018012Y035759D01*
X017939Y035686D01*
X017719Y035686D01*
X017865Y035686D02*
X018012Y035539D01*
X017719Y035539D02*
X017719Y035980D01*
X017552Y035906D02*
X017479Y035980D01*
X017332Y035980D01*
X017258Y035906D01*
X017258Y035613D01*
X017332Y035539D01*
X017479Y035539D01*
X017552Y035613D01*
X017552Y035906D01*
X016631Y035759D02*
X016631Y035686D01*
X016338Y035686D01*
X016338Y035613D02*
X016338Y035759D01*
X016411Y035833D01*
X016558Y035833D01*
X016631Y035759D01*
X016558Y035539D02*
X016411Y035539D01*
X016338Y035613D01*
X016174Y035833D02*
X016101Y035833D01*
X015954Y035686D01*
X015954Y035539D02*
X015954Y035833D01*
X015787Y035759D02*
X015787Y035686D01*
X015494Y035686D01*
X015494Y035613D02*
X015494Y035759D01*
X015567Y035833D01*
X015714Y035833D01*
X015787Y035759D01*
X015714Y035539D02*
X015567Y035539D01*
X015494Y035613D01*
X015327Y035539D02*
X015327Y035759D01*
X015253Y035833D01*
X015107Y035833D01*
X015033Y035759D01*
X015033Y035539D02*
X015033Y035980D01*
X015033Y036539D02*
X015033Y036980D01*
X015327Y036539D01*
X015327Y036980D01*
X015494Y036759D02*
X015494Y036613D01*
X015567Y036539D01*
X015714Y036539D01*
X015787Y036613D01*
X015787Y036759D01*
X015714Y036833D01*
X015567Y036833D01*
X015494Y036759D01*
X015954Y036833D02*
X016101Y036833D01*
X016027Y036906D02*
X016027Y036613D01*
X016101Y036539D01*
X016261Y036613D02*
X016261Y036759D01*
X016334Y036833D01*
X016481Y036833D01*
X016554Y036759D01*
X016554Y036686D01*
X016261Y036686D01*
X016261Y036613D02*
X016334Y036539D01*
X016481Y036539D01*
X016721Y036539D02*
X016721Y036613D01*
X016795Y036613D01*
X016795Y036539D01*
X016721Y036539D01*
X016721Y036759D02*
X016721Y036833D01*
X016795Y036833D01*
X016795Y036759D01*
X016721Y036759D01*
X016680Y032833D02*
X016753Y032833D01*
X016680Y032833D02*
X016533Y032686D01*
X016533Y032539D02*
X016533Y032833D01*
X016917Y032759D02*
X016990Y032833D01*
X017137Y032833D01*
X017211Y032759D01*
X017211Y032686D01*
X016917Y032686D01*
X016917Y032613D02*
X016917Y032759D01*
X016917Y032613D02*
X016990Y032539D01*
X017137Y032539D01*
X017377Y032833D02*
X017524Y032539D01*
X017671Y032833D01*
X017838Y032613D02*
X017911Y032613D01*
X017911Y032539D01*
X017838Y032539D01*
X017838Y032613D01*
X017914Y031980D02*
X017988Y031980D01*
X017988Y031539D01*
X018061Y031539D02*
X017914Y031539D01*
X017748Y031539D02*
X017748Y031833D01*
X017748Y031539D02*
X017527Y031539D01*
X017454Y031613D01*
X017454Y031833D01*
X017287Y031759D02*
X017287Y031539D01*
X017067Y031539D01*
X016994Y031613D01*
X017067Y031686D01*
X017287Y031686D01*
X017287Y031759D02*
X017214Y031833D01*
X017067Y031833D01*
X016827Y031906D02*
X016827Y031759D01*
X016753Y031686D01*
X016533Y031686D01*
X016533Y031539D02*
X016533Y031980D01*
X016753Y031980D01*
X016827Y031906D01*
X018528Y032539D02*
X018822Y032833D01*
X018822Y032906D01*
X018748Y032980D01*
X018602Y032980D01*
X018528Y032906D01*
X018528Y032539D02*
X018822Y032539D01*
X018828Y031980D02*
X018975Y031833D01*
X018975Y031539D01*
X019142Y031539D02*
X019362Y031539D01*
X019436Y031613D01*
X019436Y031759D01*
X019362Y031833D01*
X019142Y031833D01*
X019142Y031980D02*
X019142Y031539D01*
X018975Y031759D02*
X018682Y031759D01*
X018682Y031833D02*
X018828Y031980D01*
X018682Y031833D02*
X018682Y031539D01*
X019602Y031539D02*
X019822Y031539D01*
X019896Y031613D01*
X019896Y031759D01*
X019822Y031833D01*
X019602Y031833D01*
X019602Y031980D02*
X019602Y031539D01*
X020063Y031613D02*
X020136Y031539D01*
X020283Y031539D01*
X020356Y031613D01*
X020356Y031759D01*
X020283Y031833D01*
X020136Y031833D01*
X020063Y031759D01*
X020063Y031613D01*
X020523Y031833D02*
X020670Y031833D01*
X020596Y031906D02*
X020596Y031613D01*
X020670Y031539D01*
X020903Y031613D02*
X020977Y031539D01*
X020903Y031613D02*
X020903Y031906D01*
X020830Y031833D02*
X020977Y031833D01*
X015674Y044539D02*
X015454Y044539D01*
X015454Y044980D01*
X015674Y044980D01*
X015748Y044906D01*
X015748Y044833D01*
X015674Y044759D01*
X015454Y044759D01*
X015287Y044686D02*
X015287Y044613D01*
X015214Y044539D01*
X015067Y044539D01*
X014994Y044613D01*
X015067Y044759D02*
X015214Y044759D01*
X015287Y044686D01*
X015287Y044906D02*
X015214Y044980D01*
X015067Y044980D01*
X014994Y044906D01*
X014994Y044833D01*
X015067Y044759D01*
X014827Y044613D02*
X014827Y044980D01*
X014533Y044980D02*
X014533Y044613D01*
X014607Y044539D01*
X014753Y044539D01*
X014827Y044613D01*
X015674Y044539D02*
X015748Y044613D01*
X015748Y044686D01*
X015674Y044759D01*
D18*
X016538Y031035D02*
X016538Y030544D01*
X016538Y030789D02*
X016620Y030871D01*
X016784Y030871D01*
X016865Y030789D01*
X016865Y030544D01*
X017054Y030626D02*
X017136Y030708D01*
X017381Y030708D01*
X017381Y030789D02*
X017381Y030544D01*
X017136Y030544D01*
X017054Y030626D01*
X017136Y030871D02*
X017299Y030871D01*
X017381Y030789D01*
X017570Y030708D02*
X017733Y030871D01*
X017815Y030871D01*
X017999Y030789D02*
X017999Y030626D01*
X018081Y030544D01*
X018326Y030544D01*
X018326Y031035D01*
X018326Y030871D02*
X018081Y030871D01*
X017999Y030789D01*
X017570Y030871D02*
X017570Y030544D01*
X018515Y030626D02*
X018515Y030871D01*
X018515Y030626D02*
X018597Y030544D01*
X018678Y030626D01*
X018760Y030544D01*
X018842Y030626D01*
X018842Y030871D01*
X019112Y030871D02*
X019276Y030871D01*
X019357Y030789D01*
X019357Y030544D01*
X019112Y030544D01*
X019031Y030626D01*
X019112Y030708D01*
X019357Y030708D01*
X019546Y030708D02*
X019710Y030871D01*
X019791Y030871D01*
X019976Y030789D02*
X020058Y030871D01*
X020221Y030871D01*
X020303Y030789D01*
X020303Y030708D01*
X019976Y030708D01*
X019976Y030789D02*
X019976Y030626D01*
X020058Y030544D01*
X020221Y030544D01*
X020491Y030544D02*
X020573Y030544D01*
X020573Y030626D01*
X020491Y030626D01*
X020491Y030544D01*
X020749Y030626D02*
X020831Y030544D01*
X021076Y030544D01*
X021076Y030463D02*
X021076Y030871D01*
X020831Y030871D01*
X020749Y030789D01*
X020749Y030626D01*
X020913Y030381D02*
X020994Y030381D01*
X021076Y030463D01*
X021347Y030626D02*
X021347Y030953D01*
X021265Y030871D02*
X021428Y030871D01*
X021609Y030789D02*
X021936Y030789D01*
X022124Y030871D02*
X022206Y030871D01*
X022206Y030544D01*
X022124Y030544D02*
X022288Y030544D01*
X022468Y030626D02*
X022468Y030789D01*
X022550Y030871D01*
X022713Y030871D01*
X022795Y030789D01*
X022795Y030708D01*
X022468Y030708D01*
X022468Y030626D02*
X022550Y030544D01*
X022713Y030544D01*
X022984Y030626D02*
X022984Y030789D01*
X023065Y030871D01*
X023229Y030871D01*
X023311Y030789D01*
X023311Y030708D01*
X022984Y030708D01*
X022984Y030626D02*
X023065Y030544D01*
X023229Y030544D01*
X023499Y030626D02*
X023499Y030789D01*
X023581Y030871D01*
X023744Y030871D01*
X023826Y030789D01*
X023826Y030708D01*
X023499Y030708D01*
X023499Y030626D02*
X023581Y030544D01*
X023744Y030544D01*
X024015Y030544D02*
X024097Y030544D01*
X024097Y030626D01*
X024015Y030626D01*
X024015Y030544D01*
X024273Y030626D02*
X024354Y030544D01*
X024518Y030544D01*
X024600Y030626D01*
X024600Y030789D01*
X024518Y030871D01*
X024354Y030871D01*
X024273Y030789D01*
X024273Y030626D01*
X024788Y030708D02*
X024952Y030871D01*
X025034Y030871D01*
X025218Y030789D02*
X025218Y030626D01*
X025300Y030544D01*
X025545Y030544D01*
X025545Y030463D02*
X025545Y030871D01*
X025300Y030871D01*
X025218Y030789D01*
X024788Y030871D02*
X024788Y030544D01*
X025381Y030381D02*
X025463Y030381D01*
X025545Y030463D01*
X022206Y031035D02*
X022206Y031116D01*
X021428Y030544D02*
X021347Y030626D01*
X019546Y030544D02*
X019546Y030871D01*
D19*
X020306Y041034D02*
X020306Y041485D01*
X020606Y041485D01*
X020766Y041485D02*
X021066Y041485D01*
X020916Y041485D02*
X020916Y041034D01*
X021226Y041034D02*
X021527Y041335D01*
X021527Y041410D01*
X021451Y041485D01*
X021301Y041485D01*
X021226Y041410D01*
X021226Y041034D02*
X021527Y041034D01*
X021687Y041259D02*
X021987Y041259D01*
X022147Y041259D02*
X022297Y041335D01*
X022372Y041335D01*
X022447Y041259D01*
X022447Y041109D01*
X022372Y041034D01*
X022222Y041034D01*
X022147Y041109D01*
X022147Y041259D02*
X022147Y041485D01*
X022447Y041485D01*
X022607Y041485D02*
X022833Y041485D01*
X022908Y041410D01*
X022908Y041259D01*
X022833Y041184D01*
X022607Y041184D01*
X022607Y041034D02*
X022607Y041485D01*
X022757Y041184D02*
X022908Y041034D01*
X023068Y041034D02*
X023368Y041034D01*
X023068Y041034D02*
X023068Y041485D01*
X021912Y041485D02*
X021912Y041034D01*
X021687Y041259D02*
X021912Y041485D01*
X020456Y041259D02*
X020306Y041259D01*
X018103Y042659D02*
X018103Y042960D01*
X018103Y043120D02*
X018103Y043420D01*
X018103Y043270D02*
X017653Y043270D01*
X017803Y043120D01*
X017653Y042659D02*
X018103Y042659D01*
M02*
