G75*
G70*
%OFA0B0*%
%FSLAX24Y24*%
%IPPOS*%
%LPD*%
%AMOC8*
5,1,8,0,0,1.08239X$1,22.5*
%
%ADD10C,0.0520*%
%ADD11C,0.0660*%
%ADD12C,0.1700*%
%ADD13OC8,0.0600*%
%ADD14OC8,0.0560*%
%ADD15C,0.0600*%
%ADD16C,0.0515*%
%ADD17C,0.0600*%
%ADD18C,0.1500*%
%ADD19OC8,0.0520*%
%ADD20C,0.0320*%
%ADD21C,0.0160*%
%ADD22R,0.0396X0.0396*%
%ADD23C,0.0120*%
%ADD24C,0.0396*%
%ADD25C,0.0240*%
%ADD26C,0.0100*%
%ADD27C,0.0310*%
D10*
X028983Y027509D02*
X029503Y027509D01*
X029503Y028509D02*
X028983Y028509D01*
X028983Y029509D02*
X029503Y029509D01*
X032503Y029509D02*
X033023Y029509D01*
X033023Y028509D02*
X032503Y028509D01*
X032503Y027509D02*
X033023Y027509D01*
X033023Y035509D02*
X032503Y035509D01*
X032503Y036509D02*
X033023Y036509D01*
X033023Y037509D02*
X032503Y037509D01*
X029503Y037509D02*
X028983Y037509D01*
X028983Y036509D02*
X029503Y036509D01*
X029503Y035509D02*
X028983Y035509D01*
X028983Y043509D02*
X029503Y043509D01*
X029503Y044509D02*
X028983Y044509D01*
X028983Y045509D02*
X029503Y045509D01*
X032503Y045509D02*
X033023Y045509D01*
X033023Y044509D02*
X032503Y044509D01*
X032503Y043509D02*
X033023Y043509D01*
X033023Y051509D02*
X032503Y051509D01*
X032503Y052509D02*
X033023Y052509D01*
X033023Y053509D02*
X032503Y053509D01*
X029503Y053509D02*
X028983Y053509D01*
X028983Y052509D02*
X029503Y052509D01*
X029503Y051509D02*
X028983Y051509D01*
D11*
X040173Y054009D02*
X040833Y054009D01*
X040833Y055009D02*
X040173Y055009D01*
X040173Y056009D02*
X040833Y056009D01*
X040833Y048009D02*
X040173Y048009D01*
X040173Y047009D02*
X040833Y047009D01*
X040833Y046009D02*
X040173Y046009D01*
X040173Y040009D02*
X040833Y040009D01*
X040833Y039009D02*
X040173Y039009D01*
X040173Y038009D02*
X040833Y038009D01*
X040833Y032009D02*
X040173Y032009D01*
X040173Y031009D02*
X040833Y031009D01*
X040833Y030009D02*
X040173Y030009D01*
D12*
X047403Y031009D03*
X047403Y039009D03*
X047403Y047009D03*
X047403Y055009D03*
D13*
X041503Y051509D03*
X039503Y051509D03*
X037503Y051509D03*
X035503Y051509D03*
X037503Y048509D03*
X037503Y046509D03*
X037503Y043509D03*
X035503Y043509D03*
X037503Y040509D03*
X037503Y038509D03*
X037503Y035509D03*
X035503Y035509D03*
X037503Y032509D03*
X037503Y030509D03*
X037503Y027509D03*
X035503Y027509D03*
X039503Y027509D03*
X041503Y027509D03*
X041503Y035509D03*
X039503Y035509D03*
X039503Y043509D03*
X041503Y043509D03*
X029503Y041509D03*
X027503Y041509D03*
X027503Y039509D03*
X029503Y039509D03*
X029503Y033509D03*
X027503Y033509D03*
X027503Y031509D03*
X029503Y031509D03*
X029503Y047509D03*
X027503Y047509D03*
X027503Y049509D03*
X029503Y049509D03*
X029503Y055509D03*
X027503Y055509D03*
X027503Y057509D03*
X029503Y057509D03*
X037503Y056509D03*
X037503Y054509D03*
D14*
X035003Y054009D03*
X035003Y057009D03*
X035003Y049009D03*
X035003Y046009D03*
X035003Y041009D03*
X035003Y038009D03*
X035003Y033009D03*
X035003Y030009D03*
D15*
X050203Y029009D02*
X050803Y029009D01*
X050803Y032009D02*
X050203Y032009D01*
X050203Y037009D02*
X050803Y037009D01*
X050803Y040009D02*
X050203Y040009D01*
X050203Y045009D02*
X050803Y045009D01*
X050803Y048009D02*
X050203Y048009D01*
X050203Y053009D02*
X050803Y053009D01*
X050803Y056009D02*
X050203Y056009D01*
D16*
X023503Y045509D03*
X022503Y045509D03*
X021503Y045509D03*
X020503Y045509D03*
X019503Y045509D03*
X018503Y045509D03*
X017503Y045509D03*
X016503Y045509D03*
X016503Y038509D03*
X017503Y038509D03*
X018503Y038509D03*
X019503Y038509D03*
X020503Y038509D03*
X021503Y038509D03*
X022503Y038509D03*
X023503Y038509D03*
D17*
X023003Y027609D03*
X022003Y027509D03*
X021003Y027609D03*
X020003Y027509D03*
X019003Y027609D03*
X024003Y027509D03*
X024003Y057009D03*
X023003Y057109D03*
X022003Y057009D03*
X021003Y057109D03*
X020003Y057009D03*
X019003Y057109D03*
D18*
X054503Y054434D03*
X054503Y051434D03*
X054503Y047222D03*
X054503Y044222D03*
X054503Y040797D03*
X054503Y037797D03*
X054503Y033584D03*
X054503Y030584D03*
D19*
X031003Y031509D03*
X031003Y032509D03*
X031003Y039509D03*
X031003Y040509D03*
X031003Y047509D03*
X031003Y048509D03*
X031003Y055509D03*
X031003Y056509D03*
D20*
X040503Y056009D02*
X041003Y056209D01*
X042003Y057109D01*
X049303Y057109D01*
X049403Y057009D01*
X050403Y056209D01*
X050503Y056009D01*
X049303Y049109D02*
X041603Y049109D01*
X040503Y048009D01*
X049303Y049109D02*
X050203Y048209D01*
X050303Y048209D01*
X050503Y048009D01*
X049403Y041109D02*
X041703Y041109D01*
X040703Y040109D01*
X041103Y040109D01*
X040503Y040009D01*
X041703Y033109D02*
X049303Y033109D01*
X050203Y032209D01*
X050303Y032209D01*
X050503Y032009D01*
X041703Y033109D02*
X040703Y032109D01*
X041103Y032109D01*
X040503Y032009D01*
X049403Y041109D02*
X050503Y040009D01*
D21*
X050562Y040629D02*
X049675Y041516D01*
X049499Y041589D01*
X049308Y041589D01*
X041608Y041589D01*
X041431Y041516D01*
X041296Y041381D01*
X040574Y040659D01*
X040044Y040659D01*
X039805Y040560D01*
X039622Y040377D01*
X039523Y040139D01*
X039523Y039880D01*
X039622Y039641D01*
X039805Y039458D01*
X039881Y039427D01*
X039841Y039398D01*
X039784Y039341D01*
X039737Y039277D01*
X039701Y039205D01*
X039676Y039129D01*
X039663Y039049D01*
X039663Y039039D01*
X040473Y039039D01*
X040473Y038979D01*
X039663Y038979D01*
X039663Y038969D01*
X039676Y038890D01*
X039701Y038814D01*
X039737Y038742D01*
X039784Y038677D01*
X039841Y038620D01*
X039881Y038592D01*
X039805Y038560D01*
X039622Y038377D01*
X039523Y038139D01*
X039523Y037880D01*
X039622Y037641D01*
X039805Y037458D01*
X040044Y037359D01*
X040963Y037359D01*
X041201Y037458D01*
X041384Y037641D01*
X041483Y037880D01*
X041483Y038139D01*
X041384Y038377D01*
X041201Y038560D01*
X041126Y038592D01*
X041166Y038620D01*
X041222Y038677D01*
X041269Y038742D01*
X041306Y038814D01*
X041331Y038890D01*
X041343Y038969D01*
X041343Y038979D01*
X040534Y038979D01*
X040534Y039039D01*
X041343Y039039D01*
X041343Y039049D01*
X041331Y039129D01*
X041306Y039205D01*
X041269Y039277D01*
X041222Y039341D01*
X041166Y039398D01*
X041126Y039427D01*
X041201Y039458D01*
X041384Y039641D01*
X041428Y039746D01*
X041438Y039753D01*
X041471Y039798D01*
X041510Y039837D01*
X041526Y039875D01*
X041549Y039908D01*
X041562Y039962D01*
X041583Y040014D01*
X041583Y040054D01*
X041592Y040094D01*
X041583Y040149D01*
X041583Y040205D01*
X041568Y040242D01*
X041561Y040282D01*
X041559Y040286D01*
X041902Y040629D01*
X049204Y040629D01*
X049618Y040216D01*
X049583Y040133D01*
X049583Y039886D01*
X049678Y039658D01*
X049852Y039484D01*
X050080Y039389D01*
X050927Y039389D01*
X051154Y039484D01*
X051329Y039658D01*
X051423Y039886D01*
X051423Y040133D01*
X051329Y040360D01*
X051154Y040535D01*
X050927Y040629D01*
X050562Y040629D01*
X050462Y040729D02*
X053433Y040729D01*
X053433Y040656D02*
X053506Y040384D01*
X053647Y040140D01*
X053846Y039940D01*
X054090Y039800D01*
X054362Y039727D01*
X054644Y039727D01*
X054916Y039800D01*
X055160Y039940D01*
X055359Y040140D01*
X055500Y040384D01*
X055503Y040395D01*
X055503Y033986D01*
X055500Y033997D01*
X055359Y034241D01*
X055160Y034440D01*
X054916Y034581D01*
X054644Y034654D01*
X054362Y034654D01*
X054090Y034581D01*
X053846Y034440D01*
X053647Y034241D01*
X053506Y033997D01*
X053433Y033725D01*
X053433Y033443D01*
X053506Y033171D01*
X053647Y032927D01*
X053846Y032728D01*
X054090Y032587D01*
X054362Y032514D01*
X054644Y032514D01*
X054916Y032587D01*
X055160Y032728D01*
X055359Y032927D01*
X055500Y033171D01*
X055503Y033182D01*
X055503Y029509D01*
X053503Y028509D01*
X053003Y026509D01*
X033503Y026509D01*
X033503Y027169D01*
X033515Y027181D01*
X033527Y027209D01*
X034024Y027209D01*
X034183Y027209D01*
X034330Y027270D01*
X036751Y029692D01*
X037114Y029909D01*
X037224Y029909D01*
X037226Y029909D01*
X037246Y029889D01*
X037760Y029889D01*
X038123Y030252D01*
X038123Y030766D01*
X037760Y031129D01*
X037246Y031129D01*
X036883Y030766D01*
X036883Y030696D01*
X036866Y030693D01*
X036823Y030667D01*
X036777Y030648D01*
X036755Y030627D01*
X036323Y030367D01*
X036277Y030348D01*
X036255Y030327D01*
X036229Y030311D01*
X036199Y030271D01*
X033938Y028009D01*
X033503Y028009D01*
X033503Y028169D01*
X033515Y028181D01*
X033603Y028394D01*
X033603Y028625D01*
X033515Y028838D01*
X033503Y028849D01*
X033503Y029169D01*
X033515Y029181D01*
X033603Y029394D01*
X033603Y029625D01*
X033515Y029838D01*
X033503Y029849D01*
X033503Y035169D01*
X033515Y035181D01*
X033527Y035209D01*
X034024Y035209D01*
X034183Y035209D01*
X034330Y035270D01*
X036751Y037692D01*
X037114Y037909D01*
X037224Y037909D01*
X037226Y037909D01*
X037246Y037889D01*
X037760Y037889D01*
X038123Y038252D01*
X038123Y038766D01*
X037760Y039129D01*
X037246Y039129D01*
X036883Y038766D01*
X036883Y038696D01*
X036866Y038693D01*
X036823Y038667D01*
X036777Y038648D01*
X036755Y038627D01*
X036323Y038367D01*
X036277Y038348D01*
X036255Y038327D01*
X036229Y038311D01*
X036199Y038271D01*
X033938Y036009D01*
X033503Y036009D01*
X033503Y036169D01*
X033515Y036181D01*
X033603Y036394D01*
X033603Y036625D01*
X033515Y036838D01*
X033503Y036849D01*
X033503Y037169D01*
X033515Y037181D01*
X033603Y037394D01*
X033603Y037625D01*
X033515Y037838D01*
X033503Y037849D01*
X033503Y043169D01*
X033515Y043181D01*
X033527Y043209D01*
X034024Y043209D01*
X034183Y043209D01*
X034330Y043270D01*
X036751Y045692D01*
X037114Y045909D01*
X037224Y045909D01*
X037226Y045909D01*
X037246Y045889D01*
X037760Y045889D01*
X038123Y046252D01*
X038123Y046766D01*
X037760Y047129D01*
X037246Y047129D01*
X036883Y046766D01*
X036883Y046696D01*
X036866Y046693D01*
X036823Y046667D01*
X036777Y046648D01*
X036755Y046627D01*
X036323Y046367D01*
X036277Y046348D01*
X036255Y046327D01*
X036229Y046311D01*
X036199Y046271D01*
X033938Y044009D01*
X033503Y044009D01*
X033503Y044169D01*
X033515Y044181D01*
X033603Y044394D01*
X033603Y044625D01*
X033515Y044838D01*
X033503Y044849D01*
X033503Y045169D01*
X033515Y045181D01*
X033603Y045394D01*
X033603Y045625D01*
X033515Y045838D01*
X033503Y045849D01*
X033503Y051169D01*
X033515Y051181D01*
X033527Y051209D01*
X034183Y051209D01*
X034330Y051270D01*
X034442Y051383D01*
X036751Y053692D01*
X037114Y053909D01*
X037224Y053909D01*
X037226Y053909D01*
X037246Y053889D01*
X037760Y053889D01*
X038123Y054252D01*
X038123Y054766D01*
X037760Y055129D01*
X037246Y055129D01*
X036883Y054766D01*
X036883Y054696D01*
X036866Y054693D01*
X036823Y054667D01*
X036777Y054648D01*
X036755Y054627D01*
X036323Y054367D01*
X036277Y054348D01*
X036255Y054327D01*
X036229Y054311D01*
X036199Y054271D01*
X033938Y052009D01*
X033503Y052009D01*
X033503Y052169D01*
X033515Y052181D01*
X033603Y052394D01*
X033603Y052625D01*
X033515Y052838D01*
X033503Y052849D01*
X033503Y053169D01*
X033515Y053181D01*
X033603Y053394D01*
X033603Y053625D01*
X033515Y053838D01*
X033503Y053849D01*
X033503Y058509D01*
X053003Y058509D01*
X053503Y056509D01*
X055503Y056009D01*
X055503Y054836D01*
X055500Y054847D01*
X055359Y055091D01*
X055160Y055291D01*
X054916Y055432D01*
X054644Y055504D01*
X054362Y055504D01*
X054090Y055432D01*
X053846Y055291D01*
X053647Y055091D01*
X053506Y054847D01*
X053433Y054575D01*
X053433Y054294D01*
X053506Y054021D01*
X053647Y053777D01*
X053846Y053578D01*
X054090Y053437D01*
X054362Y053364D01*
X054644Y053364D01*
X054916Y053437D01*
X055160Y053578D01*
X055359Y053777D01*
X055500Y054021D01*
X055503Y054032D01*
X055503Y047624D01*
X055500Y047635D01*
X055359Y047879D01*
X055160Y048078D01*
X054916Y048219D01*
X054644Y048292D01*
X054362Y048292D01*
X054090Y048219D01*
X053846Y048078D01*
X053647Y047879D01*
X053506Y047635D01*
X053433Y047363D01*
X053433Y047081D01*
X053506Y046809D01*
X053647Y046565D01*
X053846Y046366D01*
X054090Y046225D01*
X054362Y046152D01*
X054644Y046152D01*
X054916Y046225D01*
X055160Y046366D01*
X055359Y046565D01*
X055500Y046809D01*
X055503Y046820D01*
X055503Y041199D01*
X055500Y041210D01*
X055359Y041454D01*
X055160Y041653D01*
X054916Y041794D01*
X054644Y041867D01*
X054362Y041867D01*
X054090Y041794D01*
X053846Y041653D01*
X053647Y041454D01*
X053506Y041210D01*
X053433Y040938D01*
X053433Y040656D01*
X053456Y040571D02*
X051068Y040571D01*
X051277Y040412D02*
X053499Y040412D01*
X053581Y040254D02*
X051373Y040254D01*
X051423Y040095D02*
X053691Y040095D01*
X053853Y039937D02*
X051423Y039937D01*
X051379Y039778D02*
X054170Y039778D01*
X054836Y039778D02*
X055503Y039778D01*
X055503Y039620D02*
X051290Y039620D01*
X051100Y039461D02*
X055503Y039461D01*
X055503Y039303D02*
X041251Y039303D01*
X041204Y039461D02*
X049907Y039461D01*
X049716Y039620D02*
X041363Y039620D01*
X041457Y039778D02*
X049628Y039778D01*
X049583Y039937D02*
X041556Y039937D01*
X041592Y040095D02*
X049583Y040095D01*
X049580Y040254D02*
X041566Y040254D01*
X041685Y040412D02*
X049421Y040412D01*
X049263Y040571D02*
X041844Y040571D01*
X041120Y041205D02*
X035603Y041205D01*
X035603Y041258D02*
X035252Y041609D01*
X034755Y041609D01*
X034403Y041258D01*
X034403Y040761D01*
X034755Y040409D01*
X035252Y040409D01*
X035603Y040761D01*
X035603Y041258D01*
X035497Y041364D02*
X041279Y041364D01*
X041446Y041522D02*
X035339Y041522D01*
X035603Y041047D02*
X037164Y041047D01*
X037246Y041129D02*
X036883Y040766D01*
X036883Y040252D01*
X037246Y039889D01*
X037760Y039889D01*
X038123Y040252D01*
X038123Y040766D01*
X037760Y041129D01*
X037246Y041129D01*
X037005Y040888D02*
X035603Y040888D01*
X035572Y040729D02*
X036883Y040729D01*
X036883Y040571D02*
X035413Y040571D01*
X035255Y040412D02*
X036883Y040412D01*
X036883Y040254D02*
X033503Y040254D01*
X033503Y040412D02*
X034752Y040412D01*
X034593Y040571D02*
X033503Y040571D01*
X033503Y040729D02*
X034435Y040729D01*
X034403Y040888D02*
X033503Y040888D01*
X033503Y041047D02*
X034403Y041047D01*
X034403Y041205D02*
X033503Y041205D01*
X033503Y041364D02*
X034509Y041364D01*
X034668Y041522D02*
X033503Y041522D01*
X033503Y041681D02*
X053895Y041681D01*
X053716Y041522D02*
X049661Y041522D01*
X049828Y041364D02*
X053595Y041364D01*
X053505Y041205D02*
X049986Y041205D01*
X050145Y041047D02*
X053463Y041047D01*
X053433Y040888D02*
X050303Y040888D01*
X053744Y038336D02*
X053688Y038247D01*
X053643Y038153D01*
X053608Y038055D01*
X053585Y037953D01*
X053576Y037877D01*
X054423Y037877D01*
X054423Y038724D01*
X054347Y038715D01*
X054245Y038692D01*
X054147Y038657D01*
X054053Y038612D01*
X053964Y038556D01*
X053883Y038491D01*
X053809Y038417D01*
X053744Y038336D01*
X053756Y038351D02*
X041395Y038351D01*
X041461Y038193D02*
X053662Y038193D01*
X053604Y038034D02*
X041483Y038034D01*
X041481Y037876D02*
X054423Y037876D01*
X054423Y037877D02*
X054423Y037717D01*
X041416Y037717D01*
X041302Y037559D02*
X053604Y037559D01*
X053608Y037539D02*
X053643Y037440D01*
X053688Y037346D01*
X053744Y037258D01*
X053809Y037176D01*
X053883Y037102D01*
X053964Y037037D01*
X054053Y036981D01*
X054147Y036936D01*
X054245Y036902D01*
X054347Y036878D01*
X054423Y036870D01*
X054423Y037716D01*
X054583Y037716D01*
X054583Y036870D01*
X054659Y036878D01*
X054761Y036902D01*
X054860Y036936D01*
X054954Y036981D01*
X055042Y037037D01*
X055124Y037102D01*
X055198Y037176D01*
X055263Y037258D01*
X055319Y037346D01*
X055364Y037440D01*
X055398Y037539D01*
X055422Y037641D01*
X055430Y037717D01*
X054583Y037717D01*
X055503Y037717D01*
X055503Y037559D02*
X055403Y037559D01*
X055344Y037400D02*
X055503Y037400D01*
X055503Y037241D02*
X055250Y037241D01*
X055100Y037083D02*
X055503Y037083D01*
X055503Y036924D02*
X054826Y036924D01*
X054583Y036924D02*
X054423Y036924D01*
X054423Y037083D02*
X054583Y037083D01*
X054583Y037241D02*
X054423Y037241D01*
X054423Y037400D02*
X054583Y037400D01*
X054583Y037559D02*
X054423Y037559D01*
X054423Y037717D02*
X053576Y037717D01*
X053585Y037641D01*
X053608Y037539D01*
X053662Y037400D02*
X051082Y037400D01*
X051055Y037420D02*
X050988Y037454D01*
X050916Y037477D01*
X050841Y037489D01*
X050523Y037489D01*
X050523Y037030D01*
X050483Y037030D01*
X050483Y037489D01*
X050166Y037489D01*
X050091Y037477D01*
X050019Y037454D01*
X049952Y037420D01*
X049891Y037375D01*
X049837Y037322D01*
X049793Y037261D01*
X049758Y037194D01*
X049735Y037122D01*
X049723Y037047D01*
X049723Y037029D01*
X050483Y037029D01*
X050483Y036989D01*
X049723Y036989D01*
X049723Y036971D01*
X049735Y036897D01*
X049758Y036825D01*
X049793Y036758D01*
X049837Y036697D01*
X049891Y036643D01*
X049952Y036599D01*
X050019Y036564D01*
X050091Y036541D01*
X050166Y036529D01*
X050483Y036529D01*
X050483Y036989D01*
X050523Y036989D01*
X050523Y036529D01*
X050841Y036529D01*
X050916Y036541D01*
X050988Y036564D01*
X051055Y036599D01*
X051116Y036643D01*
X051169Y036697D01*
X051214Y036758D01*
X051248Y036825D01*
X051271Y036897D01*
X051283Y036971D01*
X051283Y036989D01*
X050524Y036989D01*
X050524Y037029D01*
X051283Y037029D01*
X051283Y037047D01*
X051271Y037122D01*
X051248Y037194D01*
X051214Y037261D01*
X051169Y037322D01*
X051116Y037375D01*
X051055Y037420D01*
X051224Y037241D02*
X053756Y037241D01*
X053907Y037083D02*
X051278Y037083D01*
X051276Y036924D02*
X054180Y036924D01*
X054583Y037717D02*
X054583Y037877D01*
X054423Y037877D01*
X054423Y038034D02*
X054583Y038034D01*
X054583Y037877D02*
X054583Y038724D01*
X054659Y038715D01*
X054761Y038692D01*
X054860Y038657D01*
X054954Y038612D01*
X055042Y038556D01*
X055124Y038491D01*
X055198Y038417D01*
X055263Y038336D01*
X055319Y038247D01*
X055364Y038153D01*
X055398Y038055D01*
X055422Y037953D01*
X055430Y037877D01*
X054583Y037877D01*
X054583Y037876D02*
X055503Y037876D01*
X055503Y038034D02*
X055403Y038034D01*
X055345Y038193D02*
X055503Y038193D01*
X055503Y038351D02*
X055251Y038351D01*
X055101Y038510D02*
X055503Y038510D01*
X055503Y038668D02*
X054828Y038668D01*
X054583Y038668D02*
X054423Y038668D01*
X054423Y038510D02*
X054583Y038510D01*
X054583Y038351D02*
X054423Y038351D01*
X054423Y038193D02*
X054583Y038193D01*
X054179Y038668D02*
X041214Y038668D01*
X041252Y038510D02*
X053906Y038510D01*
X055503Y038827D02*
X041310Y038827D01*
X041326Y039144D02*
X055503Y039144D01*
X055503Y038985D02*
X040534Y038985D01*
X040473Y038985D02*
X037904Y038985D01*
X038062Y038827D02*
X039696Y038827D01*
X039793Y038668D02*
X038123Y038668D01*
X038123Y038510D02*
X039755Y038510D01*
X039611Y038351D02*
X038123Y038351D01*
X038064Y038193D02*
X039546Y038193D01*
X039523Y038034D02*
X037905Y038034D01*
X037503Y038509D02*
X037303Y038309D01*
X037003Y038309D01*
X036503Y038009D01*
X034103Y035609D01*
X033203Y035609D01*
X032503Y035509D01*
X033515Y035180D02*
X034955Y035180D01*
X034883Y035252D02*
X035246Y034889D01*
X035760Y034889D01*
X036123Y035252D01*
X036123Y035766D01*
X035760Y036129D01*
X035246Y036129D01*
X034883Y035766D01*
X034883Y035252D01*
X034883Y035339D02*
X034399Y035339D01*
X034557Y035498D02*
X034883Y035498D01*
X034883Y035656D02*
X034716Y035656D01*
X034874Y035815D02*
X034932Y035815D01*
X035033Y035973D02*
X035090Y035973D01*
X035191Y036132D02*
X055503Y036132D01*
X055503Y036290D02*
X035350Y036290D01*
X035508Y036449D02*
X055503Y036449D01*
X055503Y036607D02*
X051067Y036607D01*
X051218Y036766D02*
X055503Y036766D01*
X055503Y035973D02*
X041718Y035973D01*
X041702Y035989D02*
X041523Y035989D01*
X041523Y035530D01*
X041483Y035530D01*
X041483Y035989D01*
X041304Y035989D01*
X041023Y035708D01*
X041023Y035529D01*
X041483Y035529D01*
X041483Y035489D01*
X041023Y035489D01*
X041023Y035310D01*
X041304Y035029D01*
X041483Y035029D01*
X041483Y035489D01*
X041523Y035489D01*
X041523Y035029D01*
X041702Y035029D01*
X041983Y035310D01*
X041983Y035489D01*
X041524Y035489D01*
X041524Y035529D01*
X041983Y035529D01*
X041983Y035708D01*
X041702Y035989D01*
X041523Y035973D02*
X041483Y035973D01*
X041483Y035815D02*
X041523Y035815D01*
X041523Y035656D02*
X041483Y035656D01*
X041483Y035498D02*
X040123Y035498D01*
X040123Y035656D02*
X041023Y035656D01*
X041130Y035815D02*
X040075Y035815D01*
X040123Y035766D02*
X039760Y036129D01*
X039246Y036129D01*
X038883Y035766D01*
X038883Y035252D01*
X039246Y034889D01*
X039760Y034889D01*
X040123Y035252D01*
X040123Y035766D01*
X039916Y035973D02*
X041288Y035973D01*
X041524Y035498D02*
X055503Y035498D01*
X055503Y035656D02*
X041983Y035656D01*
X041877Y035815D02*
X055503Y035815D01*
X055503Y035339D02*
X041983Y035339D01*
X041853Y035180D02*
X055503Y035180D01*
X055503Y035022D02*
X039893Y035022D01*
X040051Y035180D02*
X041153Y035180D01*
X041023Y035339D02*
X040123Y035339D01*
X039114Y035022D02*
X037893Y035022D01*
X037760Y034889D02*
X038123Y035252D01*
X038123Y035766D01*
X037760Y036129D01*
X037246Y036129D01*
X036883Y035766D01*
X036883Y035252D01*
X037246Y034889D01*
X037760Y034889D01*
X038051Y035180D02*
X038955Y035180D01*
X038883Y035339D02*
X038123Y035339D01*
X038123Y035498D02*
X038883Y035498D01*
X038883Y035656D02*
X038123Y035656D01*
X038075Y035815D02*
X038932Y035815D01*
X039090Y035973D02*
X037916Y035973D01*
X037090Y035973D02*
X035916Y035973D01*
X036075Y035815D02*
X036932Y035815D01*
X036883Y035656D02*
X036123Y035656D01*
X036123Y035498D02*
X036883Y035498D01*
X036883Y035339D02*
X036123Y035339D01*
X036051Y035180D02*
X036955Y035180D01*
X037114Y035022D02*
X035893Y035022D01*
X035114Y035022D02*
X033503Y035022D01*
X033503Y034863D02*
X055503Y034863D01*
X055503Y034705D02*
X033503Y034705D01*
X033503Y034546D02*
X054030Y034546D01*
X053794Y034388D02*
X033503Y034388D01*
X033503Y034229D02*
X053640Y034229D01*
X053549Y034071D02*
X033503Y034071D01*
X033503Y033912D02*
X053483Y033912D01*
X053441Y033754D02*
X033503Y033754D01*
X033503Y033595D02*
X034741Y033595D01*
X034755Y033609D02*
X034403Y033258D01*
X034403Y032761D01*
X034755Y032409D01*
X035252Y032409D01*
X035603Y032761D01*
X035603Y033258D01*
X035252Y033609D01*
X034755Y033609D01*
X034582Y033436D02*
X033503Y033436D01*
X033503Y033278D02*
X034423Y033278D01*
X034403Y033119D02*
X033503Y033119D01*
X033503Y032961D02*
X034403Y032961D01*
X034403Y032802D02*
X033503Y032802D01*
X033503Y032644D02*
X034520Y032644D01*
X034679Y032485D02*
X033503Y032485D01*
X033503Y032327D02*
X036883Y032327D01*
X036883Y032252D02*
X036883Y032766D01*
X037246Y033129D01*
X037760Y033129D01*
X038123Y032766D01*
X038123Y032252D01*
X037760Y031889D01*
X037246Y031889D01*
X036883Y032252D01*
X036968Y032168D02*
X033503Y032168D01*
X033503Y032010D02*
X037126Y032010D01*
X036883Y032485D02*
X035328Y032485D01*
X035486Y032644D02*
X036883Y032644D01*
X036920Y032802D02*
X035603Y032802D01*
X035603Y032961D02*
X037078Y032961D01*
X037237Y033119D02*
X035603Y033119D01*
X035583Y033278D02*
X041193Y033278D01*
X041296Y033381D02*
X040574Y032659D01*
X040044Y032659D01*
X039805Y032560D01*
X039622Y032377D01*
X039523Y032139D01*
X039523Y031880D01*
X039622Y031641D01*
X039805Y031458D01*
X039881Y031427D01*
X039841Y031398D01*
X039784Y031341D01*
X039737Y031277D01*
X039701Y031205D01*
X039676Y031129D01*
X039663Y031049D01*
X039663Y031039D01*
X040473Y031039D01*
X040473Y030979D01*
X039663Y030979D01*
X039663Y030969D01*
X039676Y030890D01*
X039701Y030814D01*
X039737Y030742D01*
X039784Y030677D01*
X039841Y030620D01*
X039881Y030592D01*
X039805Y030560D01*
X039622Y030377D01*
X039523Y030139D01*
X039523Y029880D01*
X039622Y029641D01*
X039805Y029458D01*
X040044Y029359D01*
X040963Y029359D01*
X041201Y029458D01*
X041384Y029641D01*
X041483Y029880D01*
X041483Y030139D01*
X041384Y030377D01*
X041201Y030560D01*
X041126Y030592D01*
X041166Y030620D01*
X041222Y030677D01*
X041269Y030742D01*
X041306Y030814D01*
X041331Y030890D01*
X041343Y030969D01*
X041343Y030979D01*
X040534Y030979D01*
X040534Y031039D01*
X041343Y031039D01*
X041343Y031049D01*
X041331Y031129D01*
X041306Y031205D01*
X041269Y031277D01*
X041222Y031341D01*
X041166Y031398D01*
X041126Y031427D01*
X041201Y031458D01*
X041384Y031641D01*
X041428Y031746D01*
X041438Y031753D01*
X041471Y031798D01*
X041510Y031837D01*
X041526Y031875D01*
X041549Y031908D01*
X041562Y031962D01*
X041583Y032014D01*
X041583Y032054D01*
X041592Y032094D01*
X041583Y032149D01*
X041583Y032205D01*
X041568Y032242D01*
X041561Y032282D01*
X041559Y032286D01*
X041902Y032629D01*
X049104Y032629D01*
X049589Y032145D01*
X049583Y032133D01*
X049583Y031886D01*
X049678Y031658D01*
X049852Y031484D01*
X050080Y031389D01*
X050927Y031389D01*
X051154Y031484D01*
X051329Y031658D01*
X051423Y031886D01*
X051423Y032133D01*
X051329Y032360D01*
X051154Y032535D01*
X050927Y032629D01*
X050544Y032629D01*
X050404Y032687D01*
X049575Y033516D01*
X049399Y033589D01*
X049208Y033589D01*
X041608Y033589D01*
X041431Y033516D01*
X041296Y033381D01*
X041352Y033436D02*
X035425Y033436D01*
X035266Y033595D02*
X053433Y033595D01*
X053435Y033436D02*
X049655Y033436D01*
X049813Y033278D02*
X053478Y033278D01*
X053536Y033119D02*
X049972Y033119D01*
X050131Y032961D02*
X053628Y032961D01*
X053772Y032802D02*
X050289Y032802D01*
X050509Y032644D02*
X053992Y032644D01*
X055015Y032644D02*
X055503Y032644D01*
X055503Y032802D02*
X055235Y032802D01*
X055379Y032961D02*
X055503Y032961D01*
X055503Y033119D02*
X055470Y033119D01*
X055503Y032485D02*
X051204Y032485D01*
X051343Y032327D02*
X055503Y032327D01*
X055503Y032168D02*
X051409Y032168D01*
X051423Y032010D02*
X055503Y032010D01*
X055503Y031851D02*
X051409Y031851D01*
X051343Y031692D02*
X055503Y031692D01*
X055503Y031534D02*
X051205Y031534D01*
X049802Y031534D02*
X041277Y031534D01*
X041188Y031375D02*
X054015Y031375D01*
X054053Y031399D02*
X053964Y031344D01*
X053883Y031279D01*
X053809Y031205D01*
X053744Y031123D01*
X053688Y031035D01*
X053643Y030941D01*
X053608Y030842D01*
X053585Y030740D01*
X053576Y030664D01*
X054423Y030664D01*
X054423Y030504D01*
X053576Y030504D01*
X053585Y030428D01*
X053608Y030326D01*
X053643Y030228D01*
X053688Y030134D01*
X053744Y030045D01*
X053809Y029963D01*
X053883Y029890D01*
X053964Y029824D01*
X054053Y029769D01*
X054147Y029724D01*
X054245Y029689D01*
X054347Y029666D01*
X054423Y029657D01*
X054423Y030504D01*
X054583Y030504D01*
X054583Y029657D01*
X054659Y029666D01*
X054761Y029689D01*
X054860Y029724D01*
X054954Y029769D01*
X055042Y029824D01*
X055124Y029890D01*
X055198Y029963D01*
X055263Y030045D01*
X055319Y030134D01*
X055364Y030228D01*
X055398Y030326D01*
X055422Y030428D01*
X055430Y030504D01*
X054583Y030504D01*
X054583Y030664D01*
X054423Y030664D01*
X054423Y031511D01*
X054347Y031502D01*
X054245Y031479D01*
X054147Y031445D01*
X054053Y031399D01*
X053821Y031217D02*
X041300Y031217D01*
X041342Y031058D02*
X053703Y031058D01*
X053629Y030900D02*
X041332Y030900D01*
X041269Y030741D02*
X053585Y030741D01*
X053586Y030424D02*
X041338Y030424D01*
X041431Y030266D02*
X053629Y030266D01*
X053705Y030107D02*
X041483Y030107D01*
X041483Y029949D02*
X053824Y029949D01*
X054019Y029790D02*
X041446Y029790D01*
X041375Y029631D02*
X055503Y029631D01*
X055503Y029790D02*
X054987Y029790D01*
X055183Y029949D02*
X055503Y029949D01*
X055503Y030107D02*
X055302Y030107D01*
X055377Y030266D02*
X055503Y030266D01*
X055503Y030424D02*
X055421Y030424D01*
X055503Y030583D02*
X054583Y030583D01*
X054583Y030664D02*
X055430Y030664D01*
X055422Y030740D01*
X055398Y030842D01*
X055364Y030941D01*
X055319Y031035D01*
X055263Y031123D01*
X055198Y031205D01*
X055124Y031279D01*
X055042Y031344D01*
X054954Y031399D01*
X054860Y031445D01*
X054761Y031479D01*
X054659Y031502D01*
X054583Y031511D01*
X054583Y030664D01*
X054583Y030741D02*
X054423Y030741D01*
X054423Y030583D02*
X041147Y030583D01*
X041216Y029473D02*
X050077Y029473D01*
X050091Y029477D02*
X050019Y029454D01*
X049952Y029420D01*
X049891Y029375D01*
X049837Y029322D01*
X049793Y029261D01*
X049758Y029194D01*
X049735Y029122D01*
X049723Y029047D01*
X049723Y029029D01*
X050483Y029029D01*
X050483Y028989D01*
X049723Y028989D01*
X049723Y028971D01*
X049735Y028897D01*
X049758Y028825D01*
X049793Y028758D01*
X049837Y028697D01*
X049891Y028643D01*
X049952Y028599D01*
X050019Y028564D01*
X050091Y028541D01*
X050166Y028529D01*
X050483Y028529D01*
X050483Y028989D01*
X050523Y028989D01*
X050523Y028529D01*
X050841Y028529D01*
X050916Y028541D01*
X050988Y028564D01*
X051055Y028599D01*
X051116Y028643D01*
X051169Y028697D01*
X051214Y028758D01*
X051248Y028825D01*
X051271Y028897D01*
X051283Y028971D01*
X051283Y028989D01*
X050524Y028989D01*
X050524Y029029D01*
X051283Y029029D01*
X051283Y029047D01*
X051271Y029122D01*
X051248Y029194D01*
X051214Y029261D01*
X051169Y029322D01*
X051116Y029375D01*
X051055Y029420D01*
X050988Y029454D01*
X050916Y029477D01*
X050841Y029489D01*
X050523Y029489D01*
X050523Y029030D01*
X050483Y029030D01*
X050483Y029489D01*
X050166Y029489D01*
X050091Y029477D01*
X049832Y029314D02*
X036374Y029314D01*
X036215Y029156D02*
X049746Y029156D01*
X049754Y028839D02*
X035898Y028839D01*
X035740Y028680D02*
X049854Y028680D01*
X050483Y028680D02*
X050523Y028680D01*
X050523Y028839D02*
X050483Y028839D01*
X050483Y028997D02*
X036057Y028997D01*
X035581Y028522D02*
X053528Y028522D01*
X053467Y028363D02*
X035423Y028363D01*
X035264Y028205D02*
X053427Y028205D01*
X053387Y028046D02*
X039843Y028046D01*
X039760Y028129D02*
X039246Y028129D01*
X038883Y027766D01*
X038883Y027252D01*
X039246Y026889D01*
X039760Y026889D01*
X040123Y027252D01*
X040123Y027766D01*
X039760Y028129D01*
X040002Y027887D02*
X041203Y027887D01*
X041304Y027989D02*
X041023Y027708D01*
X041023Y027529D01*
X041483Y027529D01*
X041483Y027489D01*
X041023Y027489D01*
X041023Y027310D01*
X041304Y027029D01*
X041483Y027029D01*
X041483Y027489D01*
X041523Y027489D01*
X041523Y027029D01*
X041702Y027029D01*
X041983Y027310D01*
X041983Y027489D01*
X041524Y027489D01*
X041524Y027529D01*
X041983Y027529D01*
X041983Y027708D01*
X041702Y027989D01*
X041523Y027989D01*
X041523Y027530D01*
X041483Y027530D01*
X041483Y027989D01*
X041304Y027989D01*
X041483Y027887D02*
X041523Y027887D01*
X041523Y027729D02*
X041483Y027729D01*
X041483Y027570D02*
X041523Y027570D01*
X041523Y027412D02*
X041483Y027412D01*
X041483Y027253D02*
X041523Y027253D01*
X041523Y027095D02*
X041483Y027095D01*
X041239Y027095D02*
X039966Y027095D01*
X040123Y027253D02*
X041081Y027253D01*
X041023Y027412D02*
X040123Y027412D01*
X040123Y027570D02*
X041023Y027570D01*
X041044Y027729D02*
X040123Y027729D01*
X039807Y026936D02*
X053110Y026936D01*
X053070Y026778D02*
X033503Y026778D01*
X033503Y026936D02*
X035200Y026936D01*
X035246Y026889D02*
X035760Y026889D01*
X036123Y027252D01*
X036123Y027766D01*
X035760Y028129D01*
X035246Y028129D01*
X034883Y027766D01*
X034883Y027252D01*
X035246Y026889D01*
X035041Y027095D02*
X033503Y027095D01*
X033503Y026619D02*
X053031Y026619D01*
X053150Y027095D02*
X041768Y027095D01*
X041926Y027253D02*
X053189Y027253D01*
X053229Y027412D02*
X041983Y027412D01*
X041983Y027570D02*
X053269Y027570D01*
X053308Y027729D02*
X041962Y027729D01*
X041804Y027887D02*
X053348Y027887D01*
X053845Y028680D02*
X051153Y028680D01*
X051253Y028839D02*
X054162Y028839D01*
X054479Y028997D02*
X050524Y028997D01*
X050523Y029156D02*
X050483Y029156D01*
X050483Y029314D02*
X050523Y029314D01*
X050523Y029473D02*
X050483Y029473D01*
X050930Y029473D02*
X055430Y029473D01*
X055113Y029314D02*
X051175Y029314D01*
X051260Y029156D02*
X054796Y029156D01*
X054583Y029790D02*
X054423Y029790D01*
X054423Y029949D02*
X054583Y029949D01*
X054583Y030107D02*
X054423Y030107D01*
X054423Y030266D02*
X054583Y030266D01*
X054583Y030424D02*
X054423Y030424D01*
X054423Y030900D02*
X054583Y030900D01*
X054583Y031058D02*
X054423Y031058D01*
X054423Y031217D02*
X054583Y031217D01*
X054583Y031375D02*
X054423Y031375D01*
X054992Y031375D02*
X055503Y031375D01*
X055503Y031217D02*
X055186Y031217D01*
X055304Y031058D02*
X055503Y031058D01*
X055503Y030900D02*
X055378Y030900D01*
X055421Y030741D02*
X055503Y030741D01*
X055458Y034071D02*
X055503Y034071D01*
X055503Y034229D02*
X055366Y034229D01*
X055503Y034388D02*
X055213Y034388D01*
X054977Y034546D02*
X055503Y034546D01*
X050523Y036607D02*
X050483Y036607D01*
X050483Y036766D02*
X050523Y036766D01*
X050523Y036924D02*
X050483Y036924D01*
X050483Y037083D02*
X050523Y037083D01*
X050523Y037241D02*
X050483Y037241D01*
X050483Y037400D02*
X050523Y037400D01*
X049925Y037400D02*
X041061Y037400D01*
X039946Y037400D02*
X036460Y037400D01*
X036618Y037559D02*
X039705Y037559D01*
X039591Y037717D02*
X036794Y037717D01*
X037058Y037876D02*
X039525Y037876D01*
X039681Y039144D02*
X033503Y039144D01*
X033503Y039303D02*
X039756Y039303D01*
X039802Y039461D02*
X033503Y039461D01*
X033503Y039620D02*
X039644Y039620D01*
X039565Y039778D02*
X033503Y039778D01*
X033503Y039937D02*
X037199Y039937D01*
X037041Y040095D02*
X033503Y040095D01*
X033503Y038985D02*
X037103Y038985D01*
X036944Y038827D02*
X033503Y038827D01*
X033503Y038668D02*
X036824Y038668D01*
X036560Y038510D02*
X035351Y038510D01*
X035252Y038609D02*
X034755Y038609D01*
X034403Y038258D01*
X034403Y037761D01*
X034755Y037409D01*
X035252Y037409D01*
X035603Y037761D01*
X035603Y038258D01*
X035252Y038609D01*
X035510Y038351D02*
X036284Y038351D01*
X036121Y038193D02*
X035603Y038193D01*
X035603Y038034D02*
X035963Y038034D01*
X035804Y037876D02*
X035603Y037876D01*
X035560Y037717D02*
X035646Y037717D01*
X035487Y037559D02*
X035401Y037559D01*
X035328Y037400D02*
X033603Y037400D01*
X033603Y037559D02*
X034605Y037559D01*
X034447Y037717D02*
X033565Y037717D01*
X033503Y037876D02*
X034403Y037876D01*
X034403Y038034D02*
X033503Y038034D01*
X033503Y038193D02*
X034403Y038193D01*
X034497Y038351D02*
X033503Y038351D01*
X033503Y038510D02*
X034655Y038510D01*
X035170Y037241D02*
X033540Y037241D01*
X033503Y037083D02*
X035011Y037083D01*
X034853Y036924D02*
X033503Y036924D01*
X033545Y036766D02*
X034694Y036766D01*
X034536Y036607D02*
X033603Y036607D01*
X033603Y036449D02*
X034377Y036449D01*
X034219Y036290D02*
X033560Y036290D01*
X033503Y036132D02*
X034060Y036132D01*
X035667Y036607D02*
X049940Y036607D01*
X049789Y036766D02*
X035826Y036766D01*
X035984Y036924D02*
X049731Y036924D01*
X049729Y037083D02*
X036143Y037083D01*
X036301Y037241D02*
X049783Y037241D01*
X055154Y039937D02*
X055503Y039937D01*
X055503Y040095D02*
X055315Y040095D01*
X055425Y040254D02*
X055503Y040254D01*
X055502Y041205D02*
X055503Y041205D01*
X055503Y041364D02*
X055411Y041364D01*
X055503Y041522D02*
X055291Y041522D01*
X055112Y041681D02*
X055503Y041681D01*
X055503Y041839D02*
X054746Y041839D01*
X054260Y041839D02*
X033503Y041839D01*
X033503Y041998D02*
X055503Y041998D01*
X055503Y042156D02*
X033503Y042156D01*
X033503Y042315D02*
X055503Y042315D01*
X055503Y042473D02*
X033503Y042473D01*
X033503Y042632D02*
X055503Y042632D01*
X055503Y042791D02*
X033503Y042791D01*
X033503Y042949D02*
X035187Y042949D01*
X035246Y042889D02*
X035760Y042889D01*
X036123Y043252D01*
X036123Y043766D01*
X035760Y044129D01*
X035246Y044129D01*
X034883Y043766D01*
X034883Y043252D01*
X035246Y042889D01*
X035028Y043108D02*
X033503Y043108D01*
X033203Y043609D02*
X032503Y043509D01*
X033203Y043609D02*
X034103Y043609D01*
X036503Y046009D01*
X037003Y046309D01*
X037303Y046309D01*
X037503Y046509D01*
X037030Y046913D02*
X033503Y046913D01*
X033503Y047071D02*
X037188Y047071D01*
X036883Y046754D02*
X033503Y046754D01*
X033503Y046596D02*
X034741Y046596D01*
X034755Y046609D02*
X034403Y046258D01*
X034403Y045761D01*
X034755Y045409D01*
X035252Y045409D01*
X035603Y045761D01*
X035603Y046258D01*
X035252Y046609D01*
X034755Y046609D01*
X034583Y046437D02*
X033503Y046437D01*
X033503Y046278D02*
X034424Y046278D01*
X034403Y046120D02*
X033503Y046120D01*
X033503Y045961D02*
X034403Y045961D01*
X034403Y045803D02*
X033529Y045803D01*
X033595Y045644D02*
X034520Y045644D01*
X034678Y045486D02*
X033603Y045486D01*
X033576Y045327D02*
X035256Y045327D01*
X035328Y045486D02*
X035414Y045486D01*
X035487Y045644D02*
X035573Y045644D01*
X035603Y045803D02*
X035731Y045803D01*
X035603Y045961D02*
X035890Y045961D01*
X036048Y046120D02*
X035603Y046120D01*
X035583Y046278D02*
X036205Y046278D01*
X036439Y046437D02*
X035424Y046437D01*
X035266Y046596D02*
X036703Y046596D01*
X036937Y045803D02*
X039555Y045803D01*
X039523Y045880D02*
X039622Y045641D01*
X039805Y045458D01*
X040044Y045359D01*
X040963Y045359D01*
X041201Y045458D01*
X041384Y045641D01*
X041483Y045880D01*
X041483Y046139D01*
X041384Y046377D01*
X041201Y046560D01*
X041126Y046592D01*
X041166Y046620D01*
X041222Y046677D01*
X041269Y046742D01*
X041306Y046814D01*
X041331Y046890D01*
X041343Y046969D01*
X041343Y046979D01*
X040534Y046979D01*
X040534Y047039D01*
X041343Y047039D01*
X041343Y047049D01*
X041331Y047129D01*
X041306Y047205D01*
X041269Y047277D01*
X041222Y047341D01*
X041166Y047398D01*
X041126Y047427D01*
X041201Y047458D01*
X041384Y047641D01*
X041483Y047880D01*
X041483Y048139D01*
X041433Y048260D01*
X041802Y048629D01*
X049104Y048629D01*
X049589Y048145D01*
X049583Y048133D01*
X049583Y047886D01*
X049678Y047658D01*
X049852Y047484D01*
X050080Y047389D01*
X050927Y047389D01*
X051154Y047484D01*
X051329Y047658D01*
X051423Y047886D01*
X051423Y048133D01*
X051329Y048360D01*
X051154Y048535D01*
X050927Y048629D01*
X050544Y048629D01*
X050404Y048687D01*
X049575Y049516D01*
X049399Y049589D01*
X049208Y049589D01*
X041699Y049589D01*
X041508Y049589D01*
X041331Y049516D01*
X040474Y048659D01*
X040044Y048659D01*
X039805Y048560D01*
X039622Y048377D01*
X039523Y048139D01*
X039523Y047880D01*
X039622Y047641D01*
X039805Y047458D01*
X039881Y047427D01*
X039841Y047398D01*
X039784Y047341D01*
X039737Y047277D01*
X039701Y047205D01*
X039676Y047129D01*
X039663Y047049D01*
X039663Y047039D01*
X040473Y047039D01*
X040473Y046979D01*
X039663Y046979D01*
X039663Y046969D01*
X039676Y046890D01*
X039701Y046814D01*
X039737Y046742D01*
X039784Y046677D01*
X039841Y046620D01*
X039881Y046592D01*
X039805Y046560D01*
X039622Y046377D01*
X039523Y046139D01*
X039523Y045880D01*
X039523Y045961D02*
X037832Y045961D01*
X037991Y046120D02*
X039523Y046120D01*
X039581Y046278D02*
X038123Y046278D01*
X038123Y046437D02*
X039682Y046437D01*
X039875Y046596D02*
X038123Y046596D01*
X038123Y046754D02*
X039731Y046754D01*
X039672Y046913D02*
X037977Y046913D01*
X037818Y047071D02*
X039667Y047071D01*
X039713Y047230D02*
X033503Y047230D01*
X033503Y047388D02*
X039831Y047388D01*
X039716Y047547D02*
X033503Y047547D01*
X033503Y047705D02*
X039596Y047705D01*
X039530Y047864D02*
X033503Y047864D01*
X033503Y048022D02*
X037113Y048022D01*
X037246Y047889D02*
X037760Y047889D01*
X038123Y048252D01*
X038123Y048766D01*
X037760Y049129D01*
X037246Y049129D01*
X036883Y048766D01*
X036883Y048252D01*
X037246Y047889D01*
X036955Y048181D02*
X033503Y048181D01*
X033503Y048340D02*
X036883Y048340D01*
X036883Y048498D02*
X035341Y048498D01*
X035252Y048409D02*
X035603Y048761D01*
X035603Y049258D01*
X035252Y049609D01*
X034755Y049609D01*
X034403Y049258D01*
X034403Y048761D01*
X034755Y048409D01*
X035252Y048409D01*
X035499Y048657D02*
X036883Y048657D01*
X036932Y048815D02*
X035603Y048815D01*
X035603Y048974D02*
X037091Y048974D01*
X037916Y048974D02*
X040789Y048974D01*
X040947Y049132D02*
X035603Y049132D01*
X035570Y049291D02*
X041106Y049291D01*
X041265Y049449D02*
X035412Y049449D01*
X035253Y049608D02*
X055503Y049608D01*
X055503Y049766D02*
X033503Y049766D01*
X033503Y049608D02*
X034753Y049608D01*
X034595Y049449D02*
X033503Y049449D01*
X033503Y049291D02*
X034436Y049291D01*
X034403Y049132D02*
X033503Y049132D01*
X033503Y048974D02*
X034403Y048974D01*
X034403Y048815D02*
X033503Y048815D01*
X033503Y048657D02*
X034507Y048657D01*
X034666Y048498D02*
X033503Y048498D01*
X033503Y049925D02*
X055503Y049925D01*
X055503Y050084D02*
X033503Y050084D01*
X033503Y050242D02*
X055503Y050242D01*
X055503Y050401D02*
X033503Y050401D01*
X033503Y050559D02*
X054189Y050559D01*
X054147Y050574D02*
X054245Y050539D01*
X054347Y050516D01*
X054423Y050508D01*
X054423Y051354D01*
X054583Y051354D01*
X054583Y050508D01*
X054659Y050516D01*
X054761Y050539D01*
X054860Y050574D01*
X054954Y050619D01*
X055042Y050675D01*
X055124Y050740D01*
X055198Y050814D01*
X055263Y050895D01*
X055319Y050984D01*
X055364Y051078D01*
X055398Y051177D01*
X055422Y051278D01*
X055430Y051354D01*
X054583Y051354D01*
X054583Y051514D01*
X055430Y051514D01*
X055422Y051591D01*
X055398Y051692D01*
X055364Y051791D01*
X055319Y051885D01*
X055263Y051973D01*
X055198Y052055D01*
X055124Y052129D01*
X055042Y052194D01*
X054954Y052250D01*
X054860Y052295D01*
X054761Y052330D01*
X054659Y052353D01*
X054583Y052361D01*
X054583Y051515D01*
X054423Y051515D01*
X054423Y052361D01*
X054347Y052353D01*
X054245Y052330D01*
X054147Y052295D01*
X054053Y052250D01*
X053964Y052194D01*
X053883Y052129D01*
X053809Y052055D01*
X053744Y051973D01*
X053688Y051885D01*
X053643Y051791D01*
X053608Y051692D01*
X053585Y051591D01*
X053576Y051514D01*
X054423Y051514D01*
X054423Y051354D01*
X053576Y051354D01*
X053585Y051278D01*
X053608Y051177D01*
X053643Y051078D01*
X053688Y050984D01*
X053744Y050895D01*
X053809Y050814D01*
X053883Y050740D01*
X053964Y050675D01*
X054053Y050619D01*
X054147Y050574D01*
X054423Y050559D02*
X054583Y050559D01*
X054583Y050718D02*
X054423Y050718D01*
X054423Y050876D02*
X054583Y050876D01*
X054583Y051035D02*
X054423Y051035D01*
X054423Y051193D02*
X054583Y051193D01*
X054583Y051352D02*
X054423Y051352D01*
X054423Y051510D02*
X041524Y051510D01*
X041524Y051529D02*
X041983Y051529D01*
X041983Y051708D01*
X041702Y051989D01*
X041523Y051989D01*
X041523Y051530D01*
X041483Y051530D01*
X041483Y051989D01*
X041304Y051989D01*
X041023Y051708D01*
X041023Y051529D01*
X041483Y051529D01*
X041483Y051489D01*
X041023Y051489D01*
X041023Y051310D01*
X041304Y051029D01*
X041483Y051029D01*
X041483Y051489D01*
X041523Y051489D01*
X041523Y051029D01*
X041702Y051029D01*
X041983Y051310D01*
X041983Y051489D01*
X041524Y051489D01*
X041524Y051529D01*
X041483Y051510D02*
X040123Y051510D01*
X040123Y051352D02*
X041023Y051352D01*
X041140Y051193D02*
X040064Y051193D01*
X040123Y051252D02*
X039760Y050889D01*
X039246Y050889D01*
X038883Y051252D01*
X038883Y051766D01*
X039246Y052129D01*
X039760Y052129D01*
X040123Y051766D01*
X040123Y051252D01*
X039906Y051035D02*
X041299Y051035D01*
X041483Y051035D02*
X041523Y051035D01*
X041523Y051193D02*
X041483Y051193D01*
X041483Y051352D02*
X041523Y051352D01*
X041523Y051669D02*
X041483Y051669D01*
X041483Y051827D02*
X041523Y051827D01*
X041523Y051986D02*
X041483Y051986D01*
X041301Y051986D02*
X039903Y051986D01*
X040062Y051827D02*
X041143Y051827D01*
X041023Y051669D02*
X040123Y051669D01*
X039103Y051986D02*
X037903Y051986D01*
X037760Y052129D02*
X037246Y052129D01*
X036883Y051766D01*
X036883Y051252D01*
X037246Y050889D01*
X037760Y050889D01*
X038123Y051252D01*
X038123Y051766D01*
X037760Y052129D01*
X038062Y051827D02*
X038945Y051827D01*
X038883Y051669D02*
X038123Y051669D01*
X038123Y051510D02*
X038883Y051510D01*
X038883Y051352D02*
X038123Y051352D01*
X038064Y051193D02*
X038942Y051193D01*
X039101Y051035D02*
X037906Y051035D01*
X037101Y051035D02*
X035906Y051035D01*
X035760Y050889D02*
X036123Y051252D01*
X036123Y051766D01*
X035760Y052129D01*
X035246Y052129D01*
X034883Y051766D01*
X034883Y051252D01*
X035246Y050889D01*
X035760Y050889D01*
X036064Y051193D02*
X036942Y051193D01*
X036883Y051352D02*
X036123Y051352D01*
X036123Y051510D02*
X036883Y051510D01*
X036883Y051669D02*
X036123Y051669D01*
X036062Y051827D02*
X036945Y051827D01*
X037103Y051986D02*
X035903Y051986D01*
X035521Y052462D02*
X055503Y052462D01*
X055503Y052620D02*
X051084Y052620D01*
X051055Y052599D02*
X051116Y052643D01*
X051169Y052697D01*
X051214Y052758D01*
X051248Y052825D01*
X051271Y052897D01*
X051283Y052971D01*
X051283Y052989D01*
X050524Y052989D01*
X050524Y053029D01*
X051283Y053029D01*
X051283Y053047D01*
X051271Y053122D01*
X051248Y053194D01*
X051214Y053261D01*
X051169Y053322D01*
X051116Y053375D01*
X051055Y053420D01*
X050988Y053454D01*
X050916Y053477D01*
X050841Y053489D01*
X050523Y053489D01*
X050523Y053030D01*
X050483Y053030D01*
X050483Y053489D01*
X050166Y053489D01*
X050091Y053477D01*
X050019Y053454D01*
X049952Y053420D01*
X049891Y053375D01*
X049837Y053322D01*
X049793Y053261D01*
X049758Y053194D01*
X049735Y053122D01*
X049723Y053047D01*
X049723Y053029D01*
X050483Y053029D01*
X050483Y052989D01*
X049723Y052989D01*
X049723Y052971D01*
X049735Y052897D01*
X049758Y052825D01*
X049793Y052758D01*
X049837Y052697D01*
X049891Y052643D01*
X049952Y052599D01*
X050019Y052564D01*
X050091Y052541D01*
X050166Y052529D01*
X050483Y052529D01*
X050483Y052989D01*
X050523Y052989D01*
X050523Y052529D01*
X050841Y052529D01*
X050916Y052541D01*
X050988Y052564D01*
X051055Y052599D01*
X051225Y052779D02*
X055503Y052779D01*
X055503Y052937D02*
X051278Y052937D01*
X051276Y053096D02*
X055503Y053096D01*
X055503Y053254D02*
X051217Y053254D01*
X051064Y053413D02*
X054182Y053413D01*
X053858Y053571D02*
X041315Y053571D01*
X041384Y053641D02*
X041483Y053880D01*
X041483Y054139D01*
X041384Y054377D01*
X041201Y054560D01*
X041126Y054592D01*
X041166Y054620D01*
X041222Y054677D01*
X041269Y054742D01*
X041306Y054814D01*
X041331Y054890D01*
X041343Y054969D01*
X041343Y054979D01*
X040534Y054979D01*
X040534Y055039D01*
X041343Y055039D01*
X041343Y055049D01*
X041331Y055129D01*
X041306Y055205D01*
X041269Y055277D01*
X041222Y055341D01*
X041166Y055398D01*
X041126Y055427D01*
X041201Y055458D01*
X041384Y055641D01*
X041483Y055880D01*
X041483Y055995D01*
X042187Y056629D01*
X049104Y056629D01*
X049131Y056602D01*
X049157Y056592D01*
X049620Y056221D01*
X049583Y056133D01*
X049583Y055886D01*
X049678Y055658D01*
X049852Y055484D01*
X050080Y055389D01*
X050927Y055389D01*
X051154Y055484D01*
X051329Y055658D01*
X051423Y055886D01*
X051423Y056133D01*
X051329Y056360D01*
X051154Y056535D01*
X050927Y056629D01*
X050652Y056629D01*
X050646Y056634D01*
X050636Y056638D01*
X049724Y057367D01*
X049575Y057516D01*
X049399Y057589D01*
X049208Y057589D01*
X042016Y057589D01*
X041933Y057594D01*
X041921Y057589D01*
X041908Y057589D01*
X041831Y057558D01*
X041753Y057530D01*
X041743Y057521D01*
X041731Y057516D01*
X041673Y057458D01*
X040786Y056659D01*
X040044Y056659D01*
X039805Y056560D01*
X039622Y056377D01*
X039523Y056139D01*
X039523Y055880D01*
X039622Y055641D01*
X039805Y055458D01*
X039881Y055427D01*
X039841Y055398D01*
X039784Y055341D01*
X039737Y055277D01*
X039701Y055205D01*
X039676Y055129D01*
X039663Y055049D01*
X039663Y055039D01*
X040473Y055039D01*
X040473Y054979D01*
X039663Y054979D01*
X039663Y054969D01*
X039676Y054890D01*
X039701Y054814D01*
X039737Y054742D01*
X039784Y054677D01*
X039841Y054620D01*
X039881Y054592D01*
X039805Y054560D01*
X039622Y054377D01*
X039523Y054139D01*
X039523Y053880D01*
X039622Y053641D01*
X039805Y053458D01*
X040044Y053359D01*
X040963Y053359D01*
X041201Y053458D01*
X041384Y053641D01*
X041421Y053730D02*
X053695Y053730D01*
X053583Y053889D02*
X041483Y053889D01*
X041483Y054047D02*
X053499Y054047D01*
X053457Y054206D02*
X041456Y054206D01*
X041390Y054364D02*
X053433Y054364D01*
X053433Y054523D02*
X041239Y054523D01*
X041225Y054681D02*
X053462Y054681D01*
X053504Y054840D02*
X041314Y054840D01*
X041322Y055157D02*
X053713Y055157D01*
X053593Y054998D02*
X040534Y054998D01*
X040473Y054998D02*
X037891Y054998D01*
X038050Y054840D02*
X039692Y054840D01*
X039781Y054681D02*
X038123Y054681D01*
X038123Y054523D02*
X039767Y054523D01*
X039617Y054364D02*
X038123Y054364D01*
X038076Y054206D02*
X039551Y054206D01*
X039523Y054047D02*
X037918Y054047D01*
X037503Y054509D02*
X037303Y054309D01*
X037003Y054309D01*
X036503Y054009D01*
X034103Y051609D01*
X033203Y051609D01*
X032503Y051509D01*
X033520Y051193D02*
X034942Y051193D01*
X034883Y051352D02*
X034412Y051352D01*
X034442Y051383D02*
X034442Y051383D01*
X034570Y051510D02*
X034883Y051510D01*
X034883Y051669D02*
X034729Y051669D01*
X034887Y051827D02*
X034945Y051827D01*
X035046Y051986D02*
X035103Y051986D01*
X035204Y052145D02*
X053902Y052145D01*
X053754Y051986D02*
X041705Y051986D01*
X041864Y051827D02*
X053660Y051827D01*
X053603Y051669D02*
X041983Y051669D01*
X041983Y051352D02*
X053577Y051352D01*
X053604Y051193D02*
X041866Y051193D01*
X041708Y051035D02*
X053664Y051035D01*
X053759Y050876D02*
X033503Y050876D01*
X033503Y050718D02*
X053910Y050718D01*
X054817Y050559D02*
X055503Y050559D01*
X055503Y050718D02*
X055096Y050718D01*
X055248Y050876D02*
X055503Y050876D01*
X055503Y051035D02*
X055343Y051035D01*
X055402Y051193D02*
X055503Y051193D01*
X055503Y051352D02*
X055430Y051352D01*
X055503Y051510D02*
X054583Y051510D01*
X054583Y051669D02*
X054423Y051669D01*
X054423Y051827D02*
X054583Y051827D01*
X054583Y051986D02*
X054423Y051986D01*
X054423Y052145D02*
X054583Y052145D01*
X054583Y052303D02*
X054423Y052303D01*
X054170Y052303D02*
X035363Y052303D01*
X035680Y052620D02*
X049922Y052620D01*
X049782Y052779D02*
X035838Y052779D01*
X035997Y052937D02*
X049729Y052937D01*
X049731Y053096D02*
X036155Y053096D01*
X036314Y053254D02*
X049789Y053254D01*
X049942Y053413D02*
X041092Y053413D01*
X039914Y053413D02*
X036473Y053413D01*
X036631Y053571D02*
X039692Y053571D01*
X039585Y053730D02*
X036815Y053730D01*
X037079Y053889D02*
X039523Y053889D01*
X039685Y055157D02*
X033503Y055157D01*
X033503Y055315D02*
X039765Y055315D01*
X039789Y055474D02*
X033503Y055474D01*
X033503Y055633D02*
X039631Y055633D01*
X039560Y055791D02*
X033503Y055791D01*
X033503Y055950D02*
X037186Y055950D01*
X037246Y055889D02*
X037760Y055889D01*
X038123Y056252D01*
X038123Y056766D01*
X037760Y057129D01*
X037246Y057129D01*
X036883Y056766D01*
X036883Y056252D01*
X037246Y055889D01*
X037028Y056108D02*
X033503Y056108D01*
X033503Y056267D02*
X036883Y056267D01*
X036883Y056425D02*
X035268Y056425D01*
X035252Y056409D02*
X035603Y056761D01*
X035603Y057258D01*
X035252Y057609D01*
X034755Y057609D01*
X034403Y057258D01*
X034403Y056761D01*
X034755Y056409D01*
X035252Y056409D01*
X035426Y056584D02*
X036883Y056584D01*
X036883Y056742D02*
X035585Y056742D01*
X035603Y056901D02*
X037018Y056901D01*
X037177Y057059D02*
X035603Y057059D01*
X035603Y057218D02*
X041407Y057218D01*
X041583Y057376D02*
X035485Y057376D01*
X035326Y057535D02*
X041768Y057535D01*
X041230Y057059D02*
X037830Y057059D01*
X037988Y056901D02*
X041054Y056901D01*
X040878Y056742D02*
X038123Y056742D01*
X038123Y056584D02*
X039862Y056584D01*
X039670Y056425D02*
X038123Y056425D01*
X038123Y056267D02*
X039576Y056267D01*
X039523Y056108D02*
X037979Y056108D01*
X037820Y055950D02*
X039523Y055950D01*
X041217Y055474D02*
X049875Y055474D01*
X049703Y055633D02*
X041376Y055633D01*
X041446Y055791D02*
X049623Y055791D01*
X049583Y055950D02*
X041483Y055950D01*
X041608Y056108D02*
X049583Y056108D01*
X049563Y056267D02*
X041785Y056267D01*
X041961Y056425D02*
X049365Y056425D01*
X049167Y056584D02*
X042137Y056584D01*
X041241Y055315D02*
X053889Y055315D01*
X054249Y055474D02*
X051131Y055474D01*
X051303Y055633D02*
X055503Y055633D01*
X055503Y055791D02*
X051384Y055791D01*
X051423Y055950D02*
X055503Y055950D01*
X055108Y056108D02*
X051423Y056108D01*
X051368Y056267D02*
X054474Y056267D01*
X053840Y056425D02*
X051264Y056425D01*
X051036Y056584D02*
X053485Y056584D01*
X053445Y056742D02*
X050505Y056742D01*
X050307Y056901D02*
X053405Y056901D01*
X053366Y057059D02*
X050109Y057059D01*
X049911Y057218D02*
X053326Y057218D01*
X053286Y057376D02*
X049715Y057376D01*
X049530Y057535D02*
X053247Y057535D01*
X053207Y057694D02*
X033503Y057694D01*
X033503Y057852D02*
X053168Y057852D01*
X053128Y058011D02*
X033503Y058011D01*
X033503Y058169D02*
X053088Y058169D01*
X053049Y058328D02*
X033503Y058328D01*
X033503Y058486D02*
X053009Y058486D01*
X054758Y055474D02*
X055503Y055474D01*
X055503Y055315D02*
X055117Y055315D01*
X055294Y055157D02*
X055503Y055157D01*
X055503Y054998D02*
X055413Y054998D01*
X055502Y054840D02*
X055503Y054840D01*
X055503Y053889D02*
X055424Y053889D01*
X055503Y053730D02*
X055312Y053730D01*
X055148Y053571D02*
X055503Y053571D01*
X055503Y053413D02*
X054825Y053413D01*
X054837Y052303D02*
X055503Y052303D01*
X055503Y052145D02*
X055104Y052145D01*
X055253Y051986D02*
X055503Y051986D01*
X055503Y051827D02*
X055346Y051827D01*
X055404Y051669D02*
X055503Y051669D01*
X055503Y049449D02*
X049642Y049449D01*
X049801Y049291D02*
X055503Y049291D01*
X055503Y049132D02*
X049959Y049132D01*
X050118Y048974D02*
X055503Y048974D01*
X055503Y048815D02*
X050276Y048815D01*
X050478Y048657D02*
X055503Y048657D01*
X055503Y048498D02*
X051191Y048498D01*
X051338Y048340D02*
X055503Y048340D01*
X055503Y048181D02*
X054982Y048181D01*
X055216Y048022D02*
X055503Y048022D01*
X055503Y047864D02*
X055368Y047864D01*
X055460Y047705D02*
X055503Y047705D01*
X054025Y048181D02*
X051403Y048181D01*
X051423Y048022D02*
X053791Y048022D01*
X053638Y047864D02*
X051414Y047864D01*
X051348Y047705D02*
X053547Y047705D01*
X053483Y047547D02*
X051218Y047547D01*
X049789Y047547D02*
X041290Y047547D01*
X041176Y047388D02*
X053440Y047388D01*
X053433Y047230D02*
X041293Y047230D01*
X041340Y047071D02*
X053436Y047071D01*
X053478Y046913D02*
X041334Y046913D01*
X041276Y046754D02*
X053538Y046754D01*
X053629Y046596D02*
X041131Y046596D01*
X041325Y046437D02*
X053775Y046437D01*
X053997Y046278D02*
X041425Y046278D01*
X041483Y046120D02*
X055503Y046120D01*
X055503Y046278D02*
X055009Y046278D01*
X055232Y046437D02*
X055503Y046437D01*
X055503Y046596D02*
X055377Y046596D01*
X055469Y046754D02*
X055503Y046754D01*
X055503Y045961D02*
X041483Y045961D01*
X041451Y045803D02*
X055503Y045803D01*
X055503Y045644D02*
X041386Y045644D01*
X041229Y045486D02*
X050143Y045486D01*
X050166Y045489D02*
X050091Y045477D01*
X050019Y045454D01*
X049952Y045420D01*
X049891Y045375D01*
X049837Y045322D01*
X049793Y045261D01*
X049758Y045194D01*
X049735Y045122D01*
X049723Y045047D01*
X049723Y045029D01*
X050483Y045029D01*
X050483Y044989D01*
X049723Y044989D01*
X049723Y044971D01*
X049735Y044897D01*
X049758Y044825D01*
X049793Y044758D01*
X049837Y044697D01*
X049891Y044643D01*
X049952Y044599D01*
X050019Y044564D01*
X050091Y044541D01*
X050166Y044529D01*
X050483Y044529D01*
X050483Y044989D01*
X050523Y044989D01*
X050523Y044529D01*
X050841Y044529D01*
X050916Y044541D01*
X050988Y044564D01*
X051055Y044599D01*
X051116Y044643D01*
X051169Y044697D01*
X051214Y044758D01*
X051248Y044825D01*
X051271Y044897D01*
X051283Y044971D01*
X051283Y044989D01*
X050524Y044989D01*
X050524Y045029D01*
X051283Y045029D01*
X051283Y045047D01*
X051271Y045122D01*
X051248Y045194D01*
X051214Y045261D01*
X051169Y045322D01*
X051116Y045375D01*
X051055Y045420D01*
X050988Y045454D01*
X050916Y045477D01*
X050841Y045489D01*
X050523Y045489D01*
X050523Y045030D01*
X050483Y045030D01*
X050483Y045489D01*
X050166Y045489D01*
X050483Y045486D02*
X050523Y045486D01*
X050523Y045327D02*
X050483Y045327D01*
X050483Y045169D02*
X050523Y045169D01*
X050524Y045010D02*
X054010Y045010D01*
X054053Y045037D02*
X053964Y044982D01*
X053883Y044916D01*
X053809Y044843D01*
X053744Y044761D01*
X053688Y044672D01*
X053643Y044578D01*
X053608Y044480D01*
X053585Y044378D01*
X053576Y044302D01*
X054423Y044302D01*
X054423Y044142D01*
X053576Y044142D01*
X053585Y044066D01*
X053608Y043964D01*
X053643Y043865D01*
X053688Y043771D01*
X053744Y043683D01*
X053809Y043601D01*
X053883Y043527D01*
X053964Y043462D01*
X054053Y043407D01*
X054147Y043361D01*
X054245Y043327D01*
X054347Y043304D01*
X054423Y043295D01*
X054423Y044142D01*
X054583Y044142D01*
X054583Y043295D01*
X054659Y043304D01*
X054761Y043327D01*
X054860Y043361D01*
X054954Y043407D01*
X055042Y043462D01*
X055124Y043527D01*
X055198Y043601D01*
X055263Y043683D01*
X055319Y043771D01*
X055364Y043865D01*
X055398Y043964D01*
X055422Y044066D01*
X055430Y044142D01*
X054583Y044142D01*
X054583Y044302D01*
X054423Y044302D01*
X054423Y045149D01*
X054347Y045140D01*
X054245Y045117D01*
X054147Y045082D01*
X054053Y045037D01*
X053818Y044852D02*
X051257Y044852D01*
X051166Y044693D02*
X053701Y044693D01*
X053627Y044534D02*
X050874Y044534D01*
X050523Y044534D02*
X050483Y044534D01*
X050483Y044693D02*
X050523Y044693D01*
X050523Y044852D02*
X050483Y044852D01*
X050483Y045010D02*
X036070Y045010D01*
X036228Y045169D02*
X049750Y045169D01*
X049842Y045327D02*
X036387Y045327D01*
X036545Y045486D02*
X039778Y045486D01*
X039621Y045644D02*
X036704Y045644D01*
X035911Y044852D02*
X049750Y044852D01*
X049841Y044693D02*
X035753Y044693D01*
X035594Y044534D02*
X050133Y044534D01*
X050863Y045486D02*
X055503Y045486D01*
X055503Y045327D02*
X051164Y045327D01*
X051256Y045169D02*
X055503Y045169D01*
X055503Y045010D02*
X054997Y045010D01*
X054954Y045037D02*
X055042Y044982D01*
X055124Y044916D01*
X055198Y044843D01*
X055263Y044761D01*
X055319Y044672D01*
X055364Y044578D01*
X055398Y044480D01*
X055422Y044378D01*
X055430Y044302D01*
X054583Y044302D01*
X054583Y045149D01*
X054659Y045140D01*
X054761Y045117D01*
X054860Y045082D01*
X054954Y045037D01*
X055189Y044852D02*
X055503Y044852D01*
X055503Y044693D02*
X055306Y044693D01*
X055379Y044534D02*
X055503Y044534D01*
X055503Y044376D02*
X055422Y044376D01*
X055503Y044217D02*
X054583Y044217D01*
X054583Y044059D02*
X054423Y044059D01*
X054423Y044217D02*
X035277Y044217D01*
X035176Y044059D02*
X035119Y044059D01*
X035018Y043900D02*
X034960Y043900D01*
X034883Y043742D02*
X034801Y043742D01*
X034883Y043583D02*
X034643Y043583D01*
X034484Y043425D02*
X034883Y043425D01*
X034883Y043266D02*
X034320Y043266D01*
X033987Y044059D02*
X033503Y044059D01*
X033530Y044217D02*
X034146Y044217D01*
X034304Y044376D02*
X033596Y044376D01*
X033603Y044534D02*
X034463Y044534D01*
X034621Y044693D02*
X033575Y044693D01*
X033503Y044852D02*
X034780Y044852D01*
X034939Y045010D02*
X033503Y045010D01*
X033503Y045169D02*
X035097Y045169D01*
X035436Y044376D02*
X053585Y044376D01*
X053587Y044059D02*
X039830Y044059D01*
X039760Y044129D02*
X039246Y044129D01*
X038883Y043766D01*
X038883Y043252D01*
X039246Y042889D01*
X039760Y042889D01*
X040123Y043252D01*
X040123Y043766D01*
X039760Y044129D01*
X039989Y043900D02*
X041216Y043900D01*
X041304Y043989D02*
X041023Y043708D01*
X041023Y043529D01*
X041483Y043529D01*
X041483Y043489D01*
X041023Y043489D01*
X041023Y043310D01*
X041304Y043029D01*
X041483Y043029D01*
X041483Y043489D01*
X041523Y043489D01*
X041523Y043029D01*
X041702Y043029D01*
X041983Y043310D01*
X041983Y043489D01*
X041524Y043489D01*
X041524Y043529D01*
X041983Y043529D01*
X041983Y043708D01*
X041702Y043989D01*
X041523Y043989D01*
X041523Y043530D01*
X041483Y043530D01*
X041483Y043989D01*
X041304Y043989D01*
X041483Y043900D02*
X041523Y043900D01*
X041523Y043742D02*
X041483Y043742D01*
X041483Y043583D02*
X041523Y043583D01*
X041523Y043425D02*
X041483Y043425D01*
X041483Y043266D02*
X041523Y043266D01*
X041523Y043108D02*
X041483Y043108D01*
X041226Y043108D02*
X039978Y043108D01*
X040123Y043266D02*
X041068Y043266D01*
X041023Y043425D02*
X040123Y043425D01*
X040123Y043583D02*
X041023Y043583D01*
X041057Y043742D02*
X040123Y043742D01*
X039820Y042949D02*
X055503Y042949D01*
X055503Y043108D02*
X041780Y043108D01*
X041939Y043266D02*
X055503Y043266D01*
X055503Y043425D02*
X054983Y043425D01*
X055180Y043583D02*
X055503Y043583D01*
X055503Y043742D02*
X055300Y043742D01*
X055376Y043900D02*
X055503Y043900D01*
X055503Y044059D02*
X055420Y044059D01*
X054583Y043900D02*
X054423Y043900D01*
X054423Y043742D02*
X054583Y043742D01*
X054583Y043583D02*
X054423Y043583D01*
X054423Y043425D02*
X054583Y043425D01*
X054024Y043425D02*
X041983Y043425D01*
X041983Y043583D02*
X053827Y043583D01*
X053707Y043742D02*
X041950Y043742D01*
X041791Y043900D02*
X053631Y043900D01*
X054423Y044376D02*
X054583Y044376D01*
X054583Y044534D02*
X054423Y044534D01*
X054423Y044693D02*
X054583Y044693D01*
X054583Y044852D02*
X054423Y044852D01*
X054423Y045010D02*
X054583Y045010D01*
X049658Y047705D02*
X041411Y047705D01*
X041477Y047864D02*
X049592Y047864D01*
X049583Y048022D02*
X041483Y048022D01*
X041466Y048181D02*
X049553Y048181D01*
X049394Y048340D02*
X041512Y048340D01*
X041671Y048498D02*
X049236Y048498D01*
X050483Y052620D02*
X050523Y052620D01*
X050523Y052779D02*
X050483Y052779D01*
X050483Y052937D02*
X050523Y052937D01*
X050523Y053096D02*
X050483Y053096D01*
X050483Y053254D02*
X050523Y053254D01*
X050523Y053413D02*
X050483Y053413D01*
X040630Y048815D02*
X038074Y048815D01*
X038123Y048657D02*
X040038Y048657D01*
X039743Y048498D02*
X038123Y048498D01*
X038123Y048340D02*
X039607Y048340D01*
X039541Y048181D02*
X038052Y048181D01*
X037893Y048022D02*
X039523Y048022D01*
X035101Y051035D02*
X033503Y051035D01*
X033503Y052145D02*
X034073Y052145D01*
X034231Y052303D02*
X033566Y052303D01*
X033603Y052462D02*
X034390Y052462D01*
X034549Y052620D02*
X033603Y052620D01*
X033539Y052779D02*
X034707Y052779D01*
X034866Y052937D02*
X033503Y052937D01*
X033503Y053096D02*
X035024Y053096D01*
X035183Y053254D02*
X033545Y053254D01*
X033603Y053413D02*
X034751Y053413D01*
X034755Y053409D02*
X035252Y053409D01*
X035603Y053761D01*
X035603Y054258D01*
X035252Y054609D01*
X034755Y054609D01*
X034403Y054258D01*
X034403Y053761D01*
X034755Y053409D01*
X034593Y053571D02*
X033603Y053571D01*
X033560Y053730D02*
X034434Y053730D01*
X034403Y053889D02*
X033503Y053889D01*
X033503Y054047D02*
X034403Y054047D01*
X034403Y054206D02*
X033503Y054206D01*
X033503Y054364D02*
X034510Y054364D01*
X034668Y054523D02*
X033503Y054523D01*
X033503Y054681D02*
X036846Y054681D01*
X036957Y054840D02*
X033503Y054840D01*
X033503Y054998D02*
X037116Y054998D01*
X036582Y054523D02*
X035338Y054523D01*
X035497Y054364D02*
X036315Y054364D01*
X036134Y054206D02*
X035603Y054206D01*
X035603Y054047D02*
X035975Y054047D01*
X035817Y053889D02*
X035603Y053889D01*
X035573Y053730D02*
X035658Y053730D01*
X035500Y053571D02*
X035414Y053571D01*
X035341Y053413D02*
X035255Y053413D01*
X034739Y056425D02*
X033503Y056425D01*
X033503Y056584D02*
X034580Y056584D01*
X034422Y056742D02*
X033503Y056742D01*
X033503Y056901D02*
X034403Y056901D01*
X034403Y057059D02*
X033503Y057059D01*
X033503Y057218D02*
X034403Y057218D01*
X034522Y057376D02*
X033503Y057376D01*
X033503Y057535D02*
X034681Y057535D01*
X035830Y044059D02*
X037176Y044059D01*
X037246Y044129D02*
X036883Y043766D01*
X036883Y043252D01*
X037246Y042889D01*
X037760Y042889D01*
X038123Y043252D01*
X038123Y043766D01*
X037760Y044129D01*
X037246Y044129D01*
X037018Y043900D02*
X035989Y043900D01*
X036123Y043742D02*
X036883Y043742D01*
X036883Y043583D02*
X036123Y043583D01*
X036123Y043425D02*
X036883Y043425D01*
X036883Y043266D02*
X036123Y043266D01*
X035978Y043108D02*
X037028Y043108D01*
X037187Y042949D02*
X035820Y042949D01*
X037820Y042949D02*
X039187Y042949D01*
X039028Y043108D02*
X037978Y043108D01*
X038123Y043266D02*
X038883Y043266D01*
X038883Y043425D02*
X038123Y043425D01*
X038123Y043583D02*
X038883Y043583D01*
X038883Y043742D02*
X038123Y043742D01*
X037989Y043900D02*
X039018Y043900D01*
X039176Y044059D02*
X037830Y044059D01*
X037843Y041047D02*
X040962Y041047D01*
X040803Y040888D02*
X038001Y040888D01*
X038123Y040729D02*
X040645Y040729D01*
X039831Y040571D02*
X038123Y040571D01*
X038123Y040412D02*
X039657Y040412D01*
X039571Y040254D02*
X038123Y040254D01*
X037966Y040095D02*
X039523Y040095D01*
X039523Y039937D02*
X037808Y039937D01*
X041483Y035339D02*
X041523Y035339D01*
X041523Y035180D02*
X041483Y035180D01*
X041035Y033119D02*
X037770Y033119D01*
X037929Y032961D02*
X040876Y032961D01*
X040717Y032802D02*
X038087Y032802D01*
X038123Y032644D02*
X040007Y032644D01*
X039730Y032485D02*
X038123Y032485D01*
X038123Y032327D02*
X039601Y032327D01*
X039536Y032168D02*
X038039Y032168D01*
X037880Y032010D02*
X039523Y032010D01*
X039535Y031851D02*
X033503Y031851D01*
X033503Y031692D02*
X039601Y031692D01*
X039729Y031534D02*
X033503Y031534D01*
X033503Y031375D02*
X039818Y031375D01*
X039707Y031217D02*
X033503Y031217D01*
X033503Y031058D02*
X037176Y031058D01*
X037017Y030900D02*
X033503Y030900D01*
X033503Y030741D02*
X036883Y030741D01*
X036682Y030583D02*
X035278Y030583D01*
X035252Y030609D02*
X034755Y030609D01*
X034403Y030258D01*
X034403Y029761D01*
X034755Y029409D01*
X035252Y029409D01*
X035603Y029761D01*
X035603Y030258D01*
X035252Y030609D01*
X035437Y030424D02*
X036417Y030424D01*
X036194Y030266D02*
X035595Y030266D01*
X035603Y030107D02*
X036035Y030107D01*
X035877Y029949D02*
X035603Y029949D01*
X035603Y029790D02*
X035718Y029790D01*
X035560Y029631D02*
X035474Y029631D01*
X035401Y029473D02*
X035315Y029473D01*
X035243Y029314D02*
X033570Y029314D01*
X033603Y029473D02*
X034691Y029473D01*
X034533Y029631D02*
X033600Y029631D01*
X033535Y029790D02*
X034403Y029790D01*
X034403Y029949D02*
X033503Y029949D01*
X033503Y030107D02*
X034403Y030107D01*
X034411Y030266D02*
X033503Y030266D01*
X033503Y030424D02*
X034570Y030424D01*
X034728Y030583D02*
X033503Y030583D01*
X033503Y029156D02*
X035084Y029156D01*
X034926Y028997D02*
X033503Y028997D01*
X033514Y028839D02*
X034767Y028839D01*
X034609Y028680D02*
X033580Y028680D01*
X033603Y028522D02*
X034450Y028522D01*
X034291Y028363D02*
X033590Y028363D01*
X033525Y028205D02*
X034133Y028205D01*
X033974Y028046D02*
X033503Y028046D01*
X033203Y027609D02*
X032503Y027509D01*
X033203Y027609D02*
X034103Y027609D01*
X036503Y030009D01*
X037003Y030309D01*
X037303Y030309D01*
X037503Y030509D01*
X037978Y030107D02*
X039523Y030107D01*
X039523Y029949D02*
X037819Y029949D01*
X038123Y030266D02*
X039576Y030266D01*
X039669Y030424D02*
X038123Y030424D01*
X038123Y030583D02*
X039859Y030583D01*
X039738Y030741D02*
X038123Y030741D01*
X037990Y030900D02*
X039674Y030900D01*
X039665Y031058D02*
X037831Y031058D01*
X036915Y029790D02*
X039561Y029790D01*
X039632Y029631D02*
X036691Y029631D01*
X036533Y029473D02*
X039790Y029473D01*
X039163Y028046D02*
X037843Y028046D01*
X037760Y028129D02*
X037246Y028129D01*
X036883Y027766D01*
X036883Y027252D01*
X037246Y026889D01*
X037760Y026889D01*
X038123Y027252D01*
X038123Y027766D01*
X037760Y028129D01*
X038002Y027887D02*
X039005Y027887D01*
X038883Y027729D02*
X038123Y027729D01*
X038123Y027570D02*
X038883Y027570D01*
X038883Y027412D02*
X038123Y027412D01*
X038123Y027253D02*
X038883Y027253D01*
X039041Y027095D02*
X037966Y027095D01*
X037807Y026936D02*
X039200Y026936D01*
X037200Y026936D02*
X035807Y026936D01*
X035966Y027095D02*
X037041Y027095D01*
X036883Y027253D02*
X036123Y027253D01*
X036123Y027412D02*
X036883Y027412D01*
X036883Y027570D02*
X036123Y027570D01*
X036123Y027729D02*
X036883Y027729D01*
X037005Y027887D02*
X036002Y027887D01*
X035843Y028046D02*
X037163Y028046D01*
X035163Y028046D02*
X035106Y028046D01*
X035005Y027887D02*
X034947Y027887D01*
X034883Y027729D02*
X034789Y027729D01*
X034883Y027570D02*
X034630Y027570D01*
X034471Y027412D02*
X034883Y027412D01*
X034883Y027253D02*
X034289Y027253D01*
X041406Y031692D02*
X049663Y031692D01*
X049598Y031851D02*
X041516Y031851D01*
X041581Y032010D02*
X049583Y032010D01*
X049566Y032168D02*
X041583Y032168D01*
X041599Y032327D02*
X049407Y032327D01*
X049249Y032485D02*
X041758Y032485D01*
D22*
X043503Y031509D03*
X044503Y030509D03*
X043503Y029509D03*
X044503Y028509D03*
X043503Y027509D03*
X045503Y027509D03*
X045503Y029509D03*
X045503Y031509D03*
X044503Y034509D03*
X043503Y035509D03*
X044503Y036509D03*
X043503Y037509D03*
X044503Y038509D03*
X043503Y039509D03*
X045503Y039509D03*
X045503Y037509D03*
X045503Y035509D03*
X038503Y034509D03*
X036503Y034509D03*
X034503Y034509D03*
X034503Y026509D03*
X036503Y026509D03*
X038503Y026509D03*
X038503Y042509D03*
X036503Y042509D03*
X034503Y042509D03*
X043503Y043509D03*
X044503Y042509D03*
X045503Y043509D03*
X044503Y044509D03*
X043503Y045509D03*
X044503Y046509D03*
X043503Y047509D03*
X045503Y047509D03*
X045503Y045509D03*
X044503Y050509D03*
X043503Y051509D03*
X044503Y052509D03*
X043503Y053509D03*
X044503Y054509D03*
X043503Y055509D03*
X045503Y055509D03*
X045503Y053509D03*
X045503Y051509D03*
X038503Y050509D03*
X036503Y050509D03*
X034503Y050509D03*
X034503Y058509D03*
X036503Y058509D03*
X038503Y058509D03*
D23*
X024003Y057009D02*
X023003Y056009D01*
X023003Y046009D01*
X023503Y045509D01*
X022628Y045384D02*
X022503Y045509D01*
X022503Y056509D01*
X023003Y057109D01*
X022003Y057009D02*
X022003Y046009D01*
X021503Y045509D01*
X021503Y046509D02*
X020503Y045509D01*
X019628Y045384D02*
X019503Y045509D01*
X019628Y045384D02*
X019628Y043134D01*
X018878Y042509D01*
X018878Y039884D01*
X020003Y038759D01*
X020003Y036509D01*
X023003Y033509D01*
X023003Y029009D01*
X024003Y028009D01*
X024003Y027509D01*
X023003Y027609D02*
X023003Y028009D01*
X022503Y028509D01*
X022503Y033509D01*
X019003Y037009D01*
X019003Y039009D01*
X018503Y039509D01*
X018503Y045509D01*
X019003Y046009D02*
X019003Y044009D01*
X019253Y043759D01*
X019253Y043509D01*
X017753Y044259D02*
X016503Y045509D01*
X016003Y045009D02*
X016003Y046009D01*
X016503Y046509D01*
X019503Y046509D01*
X020503Y046509D01*
X021003Y047009D01*
X021003Y056009D01*
X020003Y057009D01*
X021003Y057009D02*
X021503Y056509D01*
X021503Y046509D01*
X019503Y046509D02*
X019003Y046009D01*
X018128Y044884D02*
X017503Y045509D01*
X018128Y044884D02*
X018128Y039009D01*
X018003Y038884D01*
X018003Y037509D01*
X022003Y033509D01*
X022003Y027509D01*
X021003Y027609D02*
X021003Y028009D01*
X021503Y028509D01*
X021503Y033509D01*
X017003Y038009D01*
X017003Y038759D01*
X017753Y039509D01*
X017753Y044259D01*
X017378Y043634D02*
X016003Y045009D01*
X017378Y043634D02*
X017378Y039634D01*
X016503Y038759D01*
X016503Y038509D01*
X016503Y038009D01*
X021003Y033509D01*
X021003Y029009D01*
X020003Y028009D01*
X020003Y027509D01*
X023503Y038509D02*
X025003Y038509D01*
X025003Y040884D01*
X022503Y044009D02*
X022128Y044009D01*
X021003Y057009D02*
X021003Y057109D01*
D24*
X022128Y044009D03*
X019253Y043509D03*
X019503Y040509D03*
D25*
X016709Y026589D02*
X016571Y026509D01*
X027878Y026509D01*
X027878Y031149D01*
X027719Y030989D01*
X027503Y030989D01*
X027503Y031509D01*
X026983Y031509D01*
X026983Y031294D01*
X027288Y030989D01*
X027503Y030989D01*
X027503Y031509D01*
X027503Y031509D01*
X027503Y031509D01*
X026983Y031509D01*
X026983Y031725D01*
X027288Y032029D01*
X027503Y032029D01*
X027503Y031510D01*
X027503Y031510D01*
X027503Y032029D01*
X027719Y032029D01*
X027878Y031870D01*
X027878Y033149D01*
X027719Y032989D01*
X027503Y032989D01*
X027503Y033509D01*
X026983Y033509D01*
X026983Y033294D01*
X027288Y032989D01*
X027503Y032989D01*
X027503Y033509D01*
X027503Y033509D01*
X027503Y033509D01*
X026983Y033509D01*
X026983Y033725D01*
X027288Y034029D01*
X027503Y034029D01*
X027503Y033510D01*
X027503Y033510D01*
X027503Y034029D01*
X027719Y034029D01*
X027878Y033870D01*
X027878Y039149D01*
X027719Y038989D01*
X027503Y038989D01*
X027503Y039509D01*
X026983Y039509D01*
X026983Y039294D01*
X027288Y038989D01*
X027503Y038989D01*
X027503Y039509D01*
X027503Y039509D01*
X027503Y039509D01*
X026983Y039509D01*
X026983Y039725D01*
X027288Y040029D01*
X027503Y040029D01*
X027503Y039510D01*
X027503Y039510D01*
X027503Y040029D01*
X027719Y040029D01*
X027878Y039870D01*
X027878Y041149D01*
X027719Y040989D01*
X027503Y040989D01*
X027503Y041509D01*
X026983Y041509D01*
X026983Y041294D01*
X027288Y040989D01*
X027503Y040989D01*
X027503Y041509D01*
X027503Y041509D01*
X027503Y041509D01*
X026983Y041509D01*
X026983Y041725D01*
X027288Y042029D01*
X027503Y042029D01*
X027503Y041510D01*
X027503Y041510D01*
X027503Y042029D01*
X027719Y042029D01*
X027878Y041870D01*
X027878Y047149D01*
X027719Y046989D01*
X027503Y046989D01*
X027503Y047509D01*
X026983Y047509D01*
X026983Y047294D01*
X027288Y046989D01*
X027503Y046989D01*
X027503Y047509D01*
X027503Y047509D01*
X027503Y047509D01*
X026983Y047509D01*
X026983Y047725D01*
X027288Y048029D01*
X027503Y048029D01*
X027503Y047510D01*
X027503Y047510D01*
X027503Y048029D01*
X027719Y048029D01*
X027878Y047870D01*
X027878Y049149D01*
X027719Y048989D01*
X027503Y048989D01*
X027503Y049509D01*
X026983Y049509D01*
X026983Y049294D01*
X027288Y048989D01*
X027503Y048989D01*
X027503Y049509D01*
X027503Y049509D01*
X027503Y049509D01*
X026983Y049509D01*
X026983Y049725D01*
X027288Y050029D01*
X027503Y050029D01*
X027503Y049510D01*
X027503Y049510D01*
X027503Y050029D01*
X027719Y050029D01*
X027878Y049870D01*
X027878Y055149D01*
X027719Y054989D01*
X027503Y054989D01*
X027503Y055509D01*
X026983Y055509D01*
X026983Y055294D01*
X027288Y054989D01*
X027503Y054989D01*
X027503Y055509D01*
X027503Y055509D01*
X027503Y055509D01*
X026983Y055509D01*
X026983Y055725D01*
X027288Y056029D01*
X027503Y056029D01*
X027503Y055510D01*
X027503Y055510D01*
X027503Y056029D01*
X027719Y056029D01*
X027878Y055870D01*
X027878Y057149D01*
X027719Y056989D01*
X027503Y056989D01*
X027503Y057509D01*
X026983Y057509D01*
X026983Y057294D01*
X027288Y056989D01*
X027503Y056989D01*
X027503Y057509D01*
X027503Y057509D01*
X027503Y057509D01*
X026983Y057509D01*
X026983Y057725D01*
X027288Y058029D01*
X027503Y058029D01*
X027503Y057510D01*
X027503Y057510D01*
X027503Y058029D01*
X027719Y058029D01*
X027878Y057870D01*
X027878Y058509D01*
X017042Y058509D01*
X017075Y058453D01*
X017153Y058161D01*
X017153Y057858D01*
X017075Y057565D01*
X016923Y057303D01*
X016709Y057089D01*
X016447Y056938D01*
X016155Y056859D01*
X015852Y056859D01*
X015559Y056938D01*
X015503Y056970D01*
X015503Y043361D01*
X015608Y043466D01*
X015865Y043573D01*
X016142Y043573D01*
X016398Y043466D01*
X016594Y043270D01*
X016700Y043014D01*
X016700Y042737D01*
X016594Y042481D01*
X016398Y042284D01*
X016142Y042178D01*
X015865Y042178D01*
X015608Y042284D01*
X015503Y042390D01*
X015503Y041629D01*
X015608Y041734D01*
X015865Y041840D01*
X016142Y041840D01*
X016398Y041734D01*
X016594Y041538D01*
X016700Y041282D01*
X016700Y041004D01*
X016594Y040748D01*
X016398Y040552D01*
X016142Y040446D01*
X015865Y040446D01*
X015608Y040552D01*
X015503Y040657D01*
X015503Y028548D01*
X015559Y028581D01*
X015852Y028659D01*
X016155Y028659D01*
X016447Y028581D01*
X016709Y028429D01*
X016923Y028215D01*
X017075Y027953D01*
X017153Y027661D01*
X017153Y027358D01*
X017075Y027065D01*
X016923Y026803D01*
X016709Y026589D01*
X016822Y026702D02*
X027878Y026702D01*
X027878Y026941D02*
X017003Y026941D01*
X017105Y027179D02*
X018711Y027179D01*
X018731Y027165D02*
X018804Y027127D01*
X018881Y027102D01*
X018962Y027089D01*
X019003Y027089D01*
X019003Y027609D01*
X018483Y027609D01*
X018483Y027568D01*
X018496Y027487D01*
X018521Y027410D01*
X018559Y027337D01*
X018607Y027271D01*
X018665Y027213D01*
X018731Y027165D01*
X019003Y027179D02*
X019003Y027179D01*
X019003Y027089D02*
X019044Y027089D01*
X019125Y027102D01*
X019203Y027127D01*
X019276Y027165D01*
X019342Y027213D01*
X019400Y027271D01*
X019448Y027337D01*
X019471Y027383D01*
X019546Y027203D01*
X019697Y027051D01*
X019896Y026969D01*
X020111Y026969D01*
X020309Y027051D01*
X020461Y027203D01*
X020524Y027355D01*
X020546Y027303D01*
X020697Y027151D01*
X020896Y027069D01*
X021111Y027069D01*
X021309Y027151D01*
X021461Y027303D01*
X021483Y027355D01*
X021546Y027203D01*
X021697Y027051D01*
X021896Y026969D01*
X022111Y026969D01*
X022309Y027051D01*
X022461Y027203D01*
X022524Y027355D01*
X022546Y027303D01*
X022697Y027151D01*
X022896Y027069D01*
X023111Y027069D01*
X023309Y027151D01*
X023461Y027303D01*
X023483Y027355D01*
X023546Y027203D01*
X023697Y027051D01*
X023896Y026969D01*
X024111Y026969D01*
X024309Y027051D01*
X024461Y027203D01*
X024543Y027402D01*
X024543Y027617D01*
X024461Y027815D01*
X024309Y027967D01*
X024303Y027969D01*
X024303Y028069D01*
X024258Y028179D01*
X023303Y029134D01*
X023303Y033450D01*
X023303Y033569D01*
X023258Y033679D01*
X020303Y036634D01*
X020303Y038010D01*
X020396Y037972D01*
X020610Y037972D01*
X020808Y038054D01*
X020959Y038205D01*
X021003Y038312D01*
X021048Y038205D01*
X021199Y038054D01*
X021396Y037972D01*
X021610Y037972D01*
X021808Y038054D01*
X021959Y038205D01*
X022003Y038312D01*
X022048Y038205D01*
X022199Y038054D01*
X022396Y037972D01*
X022610Y037972D01*
X022808Y038054D01*
X022959Y038205D01*
X023038Y038396D01*
X023061Y038326D01*
X023095Y038259D01*
X023139Y038198D01*
X023192Y038145D01*
X023253Y038101D01*
X023320Y038067D01*
X023391Y038044D01*
X023466Y038032D01*
X023503Y038032D01*
X023503Y038509D01*
X023503Y038509D01*
X023503Y038032D01*
X023541Y038032D01*
X023615Y038044D01*
X023687Y038067D01*
X023754Y038101D01*
X023814Y038145D01*
X023867Y038198D01*
X023912Y038259D01*
X023946Y038326D01*
X023969Y038397D01*
X023981Y038472D01*
X023981Y038509D01*
X023504Y038509D01*
X023504Y038509D01*
X023981Y038509D01*
X023981Y038547D01*
X023969Y038621D01*
X023946Y038693D01*
X023912Y038760D01*
X023867Y038820D01*
X023814Y038873D01*
X023754Y038918D01*
X023687Y038952D01*
X023615Y038975D01*
X023541Y038987D01*
X023503Y038987D01*
X023466Y038987D01*
X023391Y038975D01*
X023320Y038952D01*
X023253Y038918D01*
X023192Y038873D01*
X023139Y038820D01*
X023095Y038760D01*
X023061Y038693D01*
X023038Y038623D01*
X022959Y038814D01*
X022808Y038965D01*
X022610Y039047D01*
X022396Y039047D01*
X022199Y038965D01*
X022048Y038814D01*
X022003Y038707D01*
X021959Y038814D01*
X021808Y038965D01*
X021610Y039047D01*
X021396Y039047D01*
X021199Y038965D01*
X021048Y038814D01*
X021003Y038707D01*
X020959Y038814D01*
X020808Y038965D01*
X020610Y039047D01*
X020396Y039047D01*
X020215Y038972D01*
X019178Y040009D01*
X019178Y042369D01*
X019785Y042875D01*
X019798Y042880D01*
X019831Y042913D01*
X019866Y042942D01*
X019873Y042954D01*
X019883Y042964D01*
X019900Y043007D01*
X019922Y043048D01*
X019923Y043062D01*
X019928Y043075D01*
X019928Y043121D01*
X019932Y043167D01*
X019928Y043180D01*
X019928Y044726D01*
X019946Y044719D01*
X022508Y044719D01*
X022983Y044244D01*
X022983Y044181D01*
X023043Y044036D01*
X023155Y043924D01*
X023300Y043864D01*
X023457Y043864D01*
X023602Y043924D01*
X023713Y044036D01*
X023773Y044181D01*
X023773Y044338D01*
X023713Y044483D01*
X023602Y044594D01*
X023457Y044654D01*
X023393Y044654D01*
X022873Y045175D01*
X022925Y045227D01*
X023001Y045410D01*
X023001Y045588D01*
X023006Y045582D01*
X023006Y045410D01*
X023082Y045227D01*
X023221Y045088D01*
X023404Y045012D01*
X023602Y045012D01*
X023785Y045088D01*
X023925Y045227D01*
X024001Y045410D01*
X024001Y045608D01*
X023925Y045791D01*
X023785Y045931D01*
X023602Y046007D01*
X023430Y046007D01*
X023303Y046134D01*
X023303Y055885D01*
X023890Y056472D01*
X023896Y056469D01*
X024111Y056469D01*
X024309Y056551D01*
X024461Y056703D01*
X024543Y056902D01*
X024543Y057117D01*
X024461Y057315D01*
X024309Y057467D01*
X024111Y057549D01*
X023896Y057549D01*
X023697Y057467D01*
X023546Y057315D01*
X023524Y057263D01*
X023461Y057415D01*
X023309Y057567D01*
X023111Y057649D01*
X022896Y057649D01*
X022697Y057567D01*
X022546Y057415D01*
X022483Y057263D01*
X022461Y057315D01*
X022309Y057467D01*
X022111Y057549D01*
X021896Y057549D01*
X021697Y057467D01*
X021546Y057315D01*
X021524Y057263D01*
X021461Y057415D01*
X021309Y057567D01*
X021111Y057649D01*
X020896Y057649D01*
X020697Y057567D01*
X020546Y057415D01*
X020483Y057263D01*
X020461Y057315D01*
X020309Y057467D01*
X020111Y057549D01*
X019896Y057549D01*
X019697Y057467D01*
X019546Y057315D01*
X019511Y057231D01*
X019510Y057231D02*
X019485Y057309D01*
X019448Y057382D01*
X019400Y057448D01*
X019342Y057506D01*
X019276Y057554D01*
X019203Y057591D01*
X019125Y057616D01*
X019044Y057629D01*
X019003Y057629D01*
X018962Y057629D01*
X018881Y057616D01*
X018804Y057591D01*
X018731Y057554D01*
X018665Y057506D01*
X018607Y057448D01*
X018559Y057382D01*
X018521Y057309D01*
X018496Y057231D01*
X018483Y057150D01*
X018483Y057109D01*
X018483Y057068D01*
X018496Y056987D01*
X018521Y056910D01*
X018559Y056837D01*
X018607Y056771D01*
X018665Y056713D01*
X018731Y056665D01*
X018804Y056627D01*
X018881Y056602D01*
X018962Y056589D01*
X019003Y056589D01*
X019003Y057109D01*
X018483Y057109D01*
X019003Y057109D01*
X019003Y057109D01*
X019003Y057109D01*
X019003Y056589D01*
X019044Y056589D01*
X019125Y056602D01*
X019203Y056627D01*
X019276Y056665D01*
X019342Y056713D01*
X019400Y056771D01*
X019448Y056837D01*
X019471Y056883D01*
X019546Y056703D01*
X019697Y056551D01*
X019896Y056469D01*
X020111Y056469D01*
X020117Y056472D01*
X020703Y055885D01*
X020703Y047134D01*
X020379Y046809D01*
X019563Y046809D01*
X016444Y046809D01*
X016333Y046764D01*
X016249Y046679D01*
X015749Y046179D01*
X015703Y046069D01*
X015703Y045950D01*
X015703Y044950D01*
X015749Y044839D01*
X015833Y044755D01*
X017078Y043510D01*
X017078Y039759D01*
X016271Y038952D01*
X016221Y038931D01*
X016082Y038791D01*
X016006Y038608D01*
X016006Y038410D01*
X016082Y038227D01*
X016203Y038106D01*
X016203Y037950D01*
X016249Y037839D01*
X016333Y037755D01*
X020703Y033385D01*
X020703Y029134D01*
X019749Y028179D01*
X019703Y028069D01*
X019703Y027969D01*
X019697Y027967D01*
X019546Y027815D01*
X019511Y027731D01*
X019510Y027731D02*
X019485Y027809D01*
X019448Y027882D01*
X019400Y027948D01*
X019342Y028006D01*
X019276Y028054D01*
X019203Y028091D01*
X019125Y028116D01*
X019044Y028129D01*
X019003Y028129D01*
X018962Y028129D01*
X018881Y028116D01*
X018804Y028091D01*
X018731Y028054D01*
X018665Y028006D01*
X018607Y027948D01*
X018559Y027882D01*
X018521Y027809D01*
X018496Y027731D01*
X018483Y027650D01*
X018483Y027609D01*
X019003Y027609D01*
X019003Y027609D01*
X019003Y027609D01*
X019003Y027089D01*
X019296Y027179D02*
X019570Y027179D01*
X019511Y027731D02*
X019510Y027731D01*
X019439Y027895D02*
X019625Y027895D01*
X019730Y028133D02*
X016971Y028133D01*
X017091Y027895D02*
X018568Y027895D01*
X018484Y027656D02*
X017153Y027656D01*
X017153Y027418D02*
X018519Y027418D01*
X019003Y027418D02*
X019003Y027418D01*
X019003Y027610D02*
X019003Y028129D01*
X019003Y027610D01*
X019003Y027610D01*
X019003Y027656D02*
X019003Y027656D01*
X019003Y027895D02*
X019003Y027895D01*
X019942Y028372D02*
X016767Y028372D01*
X016337Y028610D02*
X020180Y028610D01*
X020419Y028849D02*
X015503Y028849D01*
X015503Y029087D02*
X020657Y029087D01*
X020703Y029326D02*
X015503Y029326D01*
X015503Y029565D02*
X020703Y029565D01*
X020703Y029803D02*
X015503Y029803D01*
X015503Y030042D02*
X020703Y030042D01*
X020703Y030280D02*
X015503Y030280D01*
X015503Y030519D02*
X020703Y030519D01*
X020703Y030757D02*
X015503Y030757D01*
X015503Y030996D02*
X020703Y030996D01*
X020703Y031234D02*
X015503Y031234D01*
X015503Y031473D02*
X020703Y031473D01*
X020703Y031711D02*
X015503Y031711D01*
X015503Y031950D02*
X020703Y031950D01*
X020703Y032189D02*
X015503Y032189D01*
X015503Y032427D02*
X020703Y032427D01*
X020703Y032666D02*
X015503Y032666D01*
X015503Y032904D02*
X020703Y032904D01*
X020703Y033143D02*
X015503Y033143D01*
X015503Y033381D02*
X020703Y033381D01*
X020469Y033620D02*
X015503Y033620D01*
X015503Y033858D02*
X020230Y033858D01*
X019991Y034097D02*
X015503Y034097D01*
X015503Y034335D02*
X019753Y034335D01*
X019514Y034574D02*
X015503Y034574D01*
X015503Y034812D02*
X019276Y034812D01*
X019037Y035051D02*
X015503Y035051D01*
X015503Y035290D02*
X018799Y035290D01*
X018560Y035528D02*
X015503Y035528D01*
X015503Y035767D02*
X018322Y035767D01*
X018083Y036005D02*
X015503Y036005D01*
X015503Y036244D02*
X017845Y036244D01*
X017606Y036482D02*
X015503Y036482D01*
X015503Y036721D02*
X017367Y036721D01*
X017129Y036959D02*
X015503Y036959D01*
X015503Y037198D02*
X016890Y037198D01*
X016652Y037436D02*
X015503Y037436D01*
X015503Y037675D02*
X016413Y037675D01*
X016218Y037914D02*
X015503Y037914D01*
X015503Y038152D02*
X016157Y038152D01*
X016014Y038391D02*
X015503Y038391D01*
X015503Y038629D02*
X016015Y038629D01*
X016158Y038868D02*
X015503Y038868D01*
X015503Y039106D02*
X016426Y039106D01*
X016665Y039345D02*
X015503Y039345D01*
X015503Y039583D02*
X016903Y039583D01*
X017078Y039822D02*
X015503Y039822D01*
X015503Y040060D02*
X017078Y040060D01*
X017078Y040299D02*
X015503Y040299D01*
X015503Y040538D02*
X015644Y040538D01*
X016363Y040538D02*
X017078Y040538D01*
X017078Y040776D02*
X016606Y040776D01*
X016700Y041015D02*
X017078Y041015D01*
X017078Y041253D02*
X016700Y041253D01*
X016614Y041492D02*
X017078Y041492D01*
X017078Y041730D02*
X016402Y041730D01*
X016212Y042207D02*
X017078Y042207D01*
X017078Y041969D02*
X015503Y041969D01*
X015503Y042207D02*
X015794Y042207D01*
X015605Y041730D02*
X015503Y041730D01*
X016560Y042446D02*
X017078Y042446D01*
X017078Y042684D02*
X016679Y042684D01*
X016700Y042923D02*
X017078Y042923D01*
X017078Y043161D02*
X016639Y043161D01*
X016465Y043400D02*
X017078Y043400D01*
X016950Y043639D02*
X015503Y043639D01*
X015503Y043877D02*
X016711Y043877D01*
X016473Y044116D02*
X015503Y044116D01*
X015503Y044354D02*
X016234Y044354D01*
X015996Y044593D02*
X015503Y044593D01*
X015503Y044831D02*
X015757Y044831D01*
X015703Y045070D02*
X015503Y045070D01*
X015503Y045308D02*
X015703Y045308D01*
X015703Y045547D02*
X015503Y045547D01*
X015503Y045785D02*
X015703Y045785D01*
X015703Y046024D02*
X015503Y046024D01*
X015503Y046263D02*
X015832Y046263D01*
X016071Y046501D02*
X015503Y046501D01*
X015503Y046740D02*
X016309Y046740D01*
X015503Y046978D02*
X020548Y046978D01*
X020703Y047217D02*
X015503Y047217D01*
X015503Y047455D02*
X020703Y047455D01*
X020703Y047694D02*
X015503Y047694D01*
X015503Y047932D02*
X020703Y047932D01*
X020703Y048171D02*
X015503Y048171D01*
X015503Y048409D02*
X020703Y048409D01*
X020703Y048648D02*
X015503Y048648D01*
X015503Y048887D02*
X020703Y048887D01*
X020703Y049125D02*
X015503Y049125D01*
X015503Y049364D02*
X020703Y049364D01*
X020703Y049602D02*
X015503Y049602D01*
X015503Y049841D02*
X020703Y049841D01*
X020703Y050079D02*
X015503Y050079D01*
X015503Y050318D02*
X020703Y050318D01*
X020703Y050556D02*
X015503Y050556D01*
X015503Y050795D02*
X020703Y050795D01*
X020703Y051033D02*
X015503Y051033D01*
X015503Y051272D02*
X020703Y051272D01*
X020703Y051511D02*
X015503Y051511D01*
X015503Y051749D02*
X020703Y051749D01*
X020703Y051988D02*
X015503Y051988D01*
X015503Y052226D02*
X020703Y052226D01*
X020703Y052465D02*
X015503Y052465D01*
X015503Y052703D02*
X020703Y052703D01*
X020703Y052942D02*
X015503Y052942D01*
X015503Y053180D02*
X020703Y053180D01*
X020703Y053419D02*
X015503Y053419D01*
X015503Y053657D02*
X020703Y053657D01*
X020703Y053896D02*
X015503Y053896D01*
X015503Y054134D02*
X020703Y054134D01*
X020703Y054373D02*
X015503Y054373D01*
X015503Y054612D02*
X020703Y054612D01*
X020703Y054850D02*
X015503Y054850D01*
X015503Y055089D02*
X020703Y055089D01*
X020703Y055327D02*
X015503Y055327D01*
X015503Y055566D02*
X020703Y055566D01*
X020703Y055804D02*
X015503Y055804D01*
X015503Y056043D02*
X020545Y056043D01*
X020307Y056281D02*
X015503Y056281D01*
X015503Y056520D02*
X019774Y056520D01*
X019523Y056758D02*
X019388Y056758D01*
X019003Y056758D02*
X019003Y056758D01*
X019003Y056997D02*
X019003Y056997D01*
X019003Y057110D02*
X019003Y057629D01*
X019003Y057110D01*
X019003Y057110D01*
X019003Y057236D02*
X019003Y057236D01*
X019003Y057474D02*
X019003Y057474D01*
X018633Y057474D02*
X017022Y057474D01*
X017114Y057713D02*
X026983Y057713D01*
X026983Y057474D02*
X024292Y057474D01*
X024494Y057236D02*
X027042Y057236D01*
X027280Y056997D02*
X024543Y056997D01*
X024484Y056758D02*
X027878Y056758D01*
X027878Y056520D02*
X024233Y056520D01*
X023700Y056281D02*
X027878Y056281D01*
X027878Y056043D02*
X023461Y056043D01*
X023303Y055804D02*
X027063Y055804D01*
X026983Y055566D02*
X023303Y055566D01*
X023303Y055327D02*
X026983Y055327D01*
X027189Y055089D02*
X023303Y055089D01*
X023303Y054850D02*
X027878Y054850D01*
X027878Y054612D02*
X023303Y054612D01*
X023303Y054373D02*
X027878Y054373D01*
X027878Y054134D02*
X023303Y054134D01*
X023303Y053896D02*
X027878Y053896D01*
X027878Y053657D02*
X023303Y053657D01*
X023303Y053419D02*
X027878Y053419D01*
X027878Y053180D02*
X023303Y053180D01*
X023303Y052942D02*
X027878Y052942D01*
X027878Y052703D02*
X023303Y052703D01*
X023303Y052465D02*
X027878Y052465D01*
X027878Y052226D02*
X023303Y052226D01*
X023303Y051988D02*
X027878Y051988D01*
X027878Y051749D02*
X023303Y051749D01*
X023303Y051511D02*
X027878Y051511D01*
X027878Y051272D02*
X023303Y051272D01*
X023303Y051033D02*
X027878Y051033D01*
X027878Y050795D02*
X023303Y050795D01*
X023303Y050556D02*
X027878Y050556D01*
X027878Y050318D02*
X023303Y050318D01*
X023303Y050079D02*
X027878Y050079D01*
X027503Y049841D02*
X027503Y049841D01*
X027503Y049602D02*
X027503Y049602D01*
X027503Y049364D02*
X027503Y049364D01*
X027503Y049125D02*
X027503Y049125D01*
X027152Y049125D02*
X023303Y049125D01*
X023303Y048887D02*
X027878Y048887D01*
X027878Y049125D02*
X027854Y049125D01*
X027878Y048648D02*
X023303Y048648D01*
X023303Y048409D02*
X027878Y048409D01*
X027878Y048171D02*
X023303Y048171D01*
X023303Y047932D02*
X027191Y047932D01*
X027503Y047932D02*
X027503Y047932D01*
X027503Y047694D02*
X027503Y047694D01*
X027503Y047455D02*
X027503Y047455D01*
X027503Y047217D02*
X027503Y047217D01*
X027060Y047217D02*
X023303Y047217D01*
X023303Y047455D02*
X026983Y047455D01*
X026983Y047694D02*
X023303Y047694D01*
X023303Y046978D02*
X027878Y046978D01*
X027878Y046740D02*
X023303Y046740D01*
X023303Y046501D02*
X027878Y046501D01*
X027878Y046263D02*
X023303Y046263D01*
X023413Y046024D02*
X027878Y046024D01*
X027878Y045785D02*
X023927Y045785D01*
X024001Y045547D02*
X027878Y045547D01*
X027878Y045308D02*
X023959Y045308D01*
X023742Y045070D02*
X027878Y045070D01*
X027878Y044831D02*
X023216Y044831D01*
X023264Y045070D02*
X022978Y045070D01*
X022959Y045308D02*
X023048Y045308D01*
X023006Y045547D02*
X023001Y045547D01*
X022635Y044593D02*
X019928Y044593D01*
X019928Y044354D02*
X022873Y044354D01*
X023010Y044116D02*
X019928Y044116D01*
X019928Y043877D02*
X023269Y043877D01*
X023488Y043877D02*
X027878Y043877D01*
X027878Y043639D02*
X019928Y043639D01*
X019928Y043400D02*
X027878Y043400D01*
X027878Y043161D02*
X019932Y043161D01*
X019843Y042923D02*
X027878Y042923D01*
X027878Y042684D02*
X019557Y042684D01*
X019271Y042446D02*
X027878Y042446D01*
X027878Y042207D02*
X019178Y042207D01*
X019178Y041969D02*
X027227Y041969D01*
X027503Y041969D02*
X027503Y041969D01*
X027503Y041730D02*
X027503Y041730D01*
X027503Y041492D02*
X027503Y041492D01*
X027503Y041253D02*
X027503Y041253D01*
X027503Y041015D02*
X027503Y041015D01*
X027263Y041015D02*
X019178Y041015D01*
X019178Y041253D02*
X027024Y041253D01*
X026983Y041492D02*
X019178Y041492D01*
X019178Y041730D02*
X026989Y041730D01*
X027779Y041969D02*
X027878Y041969D01*
X027878Y041015D02*
X027744Y041015D01*
X027878Y040776D02*
X019178Y040776D01*
X019178Y040538D02*
X027878Y040538D01*
X027878Y040299D02*
X019178Y040299D01*
X019178Y040060D02*
X027878Y040060D01*
X027503Y039822D02*
X027503Y039822D01*
X027503Y039583D02*
X027503Y039583D01*
X027503Y039345D02*
X027503Y039345D01*
X027503Y039106D02*
X027503Y039106D01*
X027171Y039106D02*
X020081Y039106D01*
X019842Y039345D02*
X026983Y039345D01*
X026983Y039583D02*
X019603Y039583D01*
X019365Y039822D02*
X027081Y039822D01*
X027836Y039106D02*
X027878Y039106D01*
X027878Y038868D02*
X023820Y038868D01*
X023966Y038629D02*
X027878Y038629D01*
X027878Y038391D02*
X023967Y038391D01*
X023821Y038152D02*
X027878Y038152D01*
X027878Y037914D02*
X020303Y037914D01*
X020303Y037675D02*
X027878Y037675D01*
X027878Y037436D02*
X020303Y037436D01*
X020303Y037198D02*
X027878Y037198D01*
X027878Y036959D02*
X020303Y036959D01*
X020303Y036721D02*
X027878Y036721D01*
X027878Y036482D02*
X020455Y036482D01*
X020693Y036244D02*
X027878Y036244D01*
X027878Y036005D02*
X020932Y036005D01*
X021170Y035767D02*
X027878Y035767D01*
X027878Y035528D02*
X021409Y035528D01*
X021647Y035290D02*
X027878Y035290D01*
X027878Y035051D02*
X021886Y035051D01*
X022124Y034812D02*
X027878Y034812D01*
X027878Y034574D02*
X022363Y034574D01*
X022601Y034335D02*
X027878Y034335D01*
X027878Y034097D02*
X022840Y034097D01*
X023079Y033858D02*
X027117Y033858D01*
X026983Y033620D02*
X023282Y033620D01*
X023303Y033381D02*
X026983Y033381D01*
X027135Y033143D02*
X023303Y033143D01*
X023303Y032904D02*
X027878Y032904D01*
X027878Y032666D02*
X023303Y032666D01*
X023303Y032427D02*
X027878Y032427D01*
X027878Y032189D02*
X023303Y032189D01*
X023303Y031950D02*
X027209Y031950D01*
X027503Y031950D02*
X027503Y031950D01*
X027503Y031711D02*
X027503Y031711D01*
X027503Y031473D02*
X027503Y031473D01*
X027503Y031234D02*
X027503Y031234D01*
X027503Y030996D02*
X027503Y030996D01*
X027281Y030996D02*
X023303Y030996D01*
X023303Y031234D02*
X027043Y031234D01*
X026983Y031473D02*
X023303Y031473D01*
X023303Y031711D02*
X026983Y031711D01*
X027798Y031950D02*
X027878Y031950D01*
X027878Y030996D02*
X027725Y030996D01*
X027878Y030757D02*
X023303Y030757D01*
X023303Y030519D02*
X027878Y030519D01*
X027878Y030280D02*
X023303Y030280D01*
X023303Y030042D02*
X027878Y030042D01*
X027878Y029803D02*
X023303Y029803D01*
X023303Y029565D02*
X027878Y029565D01*
X027878Y029326D02*
X023303Y029326D01*
X023349Y029087D02*
X027878Y029087D01*
X027878Y028849D02*
X023588Y028849D01*
X023826Y028610D02*
X027878Y028610D01*
X027878Y028372D02*
X024065Y028372D01*
X024277Y028133D02*
X027878Y028133D01*
X027878Y027895D02*
X024381Y027895D01*
X024527Y027656D02*
X027878Y027656D01*
X027878Y027418D02*
X024543Y027418D01*
X024437Y027179D02*
X027878Y027179D01*
X023570Y027179D02*
X023337Y027179D01*
X022670Y027179D02*
X022437Y027179D01*
X021570Y027179D02*
X021337Y027179D01*
X020670Y027179D02*
X020437Y027179D01*
X015670Y028610D02*
X015503Y028610D01*
X020906Y038152D02*
X021100Y038152D01*
X021102Y038868D02*
X020905Y038868D01*
X021905Y038868D02*
X022102Y038868D01*
X022100Y038152D02*
X021906Y038152D01*
X022906Y038152D02*
X023185Y038152D01*
X023040Y038391D02*
X023036Y038391D01*
X023035Y038629D02*
X023040Y038629D01*
X022905Y038868D02*
X023186Y038868D01*
X023503Y038868D02*
X023503Y038868D01*
X023503Y038987D02*
X023503Y038510D01*
X023503Y038510D01*
X023503Y038987D01*
X023503Y038629D02*
X023503Y038629D01*
X023503Y038391D02*
X023503Y038391D01*
X023503Y038152D02*
X023503Y038152D01*
X027503Y033858D02*
X027503Y033858D01*
X027503Y033620D02*
X027503Y033620D01*
X027503Y033381D02*
X027503Y033381D01*
X027503Y033143D02*
X027503Y033143D01*
X027872Y033143D02*
X027878Y033143D01*
X015542Y043400D02*
X015503Y043400D01*
X023603Y044593D02*
X027878Y044593D01*
X027878Y044354D02*
X023766Y044354D01*
X023746Y044116D02*
X027878Y044116D01*
X027816Y047932D02*
X027878Y047932D01*
X026983Y049364D02*
X023303Y049364D01*
X023303Y049602D02*
X026983Y049602D01*
X027099Y049841D02*
X023303Y049841D01*
X027503Y055089D02*
X027503Y055089D01*
X027503Y055327D02*
X027503Y055327D01*
X027503Y055566D02*
X027503Y055566D01*
X027503Y055804D02*
X027503Y055804D01*
X027818Y055089D02*
X027878Y055089D01*
X027878Y056997D02*
X027726Y056997D01*
X027503Y056997D02*
X027503Y056997D01*
X027503Y057236D02*
X027503Y057236D01*
X027503Y057474D02*
X027503Y057474D01*
X027503Y057713D02*
X027503Y057713D01*
X027503Y057951D02*
X027503Y057951D01*
X027210Y057951D02*
X017153Y057951D01*
X017145Y058190D02*
X027878Y058190D01*
X027878Y058428D02*
X017082Y058428D01*
X016856Y057236D02*
X018498Y057236D01*
X018495Y056997D02*
X016550Y056997D01*
X015503Y056758D02*
X018619Y056758D01*
X019510Y057231D02*
X019511Y057231D01*
X019509Y057236D02*
X019513Y057236D01*
X019374Y057474D02*
X019714Y057474D01*
X020292Y057474D02*
X020604Y057474D01*
X021402Y057474D02*
X021714Y057474D01*
X022292Y057474D02*
X022604Y057474D01*
X023402Y057474D02*
X023714Y057474D01*
X027797Y057951D02*
X027878Y057951D01*
D26*
X019503Y045509D02*
X020003Y045009D01*
X022628Y045009D01*
X023378Y044259D01*
D27*
X023378Y044259D03*
M02*
