%
M48
M72
T01C0.0150
T02C0.0236
T03C0.0315
T04C0.0320
T05C0.0354
T06C0.0360
T07C0.0400
T08C0.0440
T09C0.0820
T10C0.1260
T11C0.1300
%
T01
X23378Y44259
T02
X34503Y26509
X36503Y26509
X38503Y26509
X43503Y27509
X44503Y28509
X43503Y29509
X44503Y30509
X45503Y29509
X45503Y27509
X45503Y31509
X43503Y31509
X44503Y34509
X43503Y35509
X44503Y36509
X43503Y37509
X44503Y38509
X43503Y39509
X45503Y39509
X45503Y37509
X45503Y35509
X38503Y34509
X36503Y34509
X34503Y34509
X34503Y42509
X36503Y42509
X38503Y42509
X43503Y43509
X44503Y42509
X45503Y43509
X44503Y44509
X43503Y45509
X44503Y46509
X43503Y47509
X45503Y47509
X45503Y45509
X44503Y50509
X43503Y51509
X44503Y52509
X43503Y53509
X44503Y54509
X43503Y55509
X45503Y55509
X45503Y53509
X45503Y51509
X38503Y50509
X36503Y50509
X34503Y50509
X34503Y58509
X36503Y58509
X38503Y58509
X22128Y44009
X19253Y43509
X19503Y40509
T03
X19503Y38509
X18503Y38509
X17503Y38509
X16503Y38509
X20503Y38509
X21503Y38509
X22503Y38509
X23503Y38509
X23503Y45509
X22503Y45509
X21503Y45509
X20503Y45509
X19503Y45509
X18503Y45509
X17503Y45509
X16503Y45509
T04
X29503Y45509
X29503Y44509
X29503Y43509
X32503Y43509
X32503Y44509
X32503Y45509
X31003Y47509
X31003Y48509
X29503Y51509
X29503Y52509
X29503Y53509
X31003Y55509
X31003Y56509
X32503Y53509
X32503Y52509
X32503Y51509
X31003Y40509
X31003Y39509
X29503Y37509
X29503Y36509
X29503Y35509
X32503Y35509
X32503Y36509
X32503Y37509
X31003Y32509
X31003Y31509
X29503Y29509
X29503Y28509
X29503Y27509
X32503Y27509
X32503Y28509
X32503Y29509
T05
X16003Y41143
X16003Y42875
T06
X35003Y41009
X35003Y38009
X35003Y33009
X35003Y30009
X35003Y46009
X35003Y49009
X35003Y54009
X35003Y57009
T07
X37503Y56509
X37503Y54509
X37503Y51509
X35503Y51509
X37503Y48509
X37503Y46509
X37503Y43509
X35503Y43509
X37503Y40509
X37503Y38509
X37503Y35509
X35503Y35509
X37503Y32509
X37503Y30509
X37503Y27509
X35503Y27509
X39503Y27509
X41503Y27509
X50503Y29009
X50503Y32009
X50503Y37009
X50503Y40009
X50503Y45009
X50503Y48009
X50503Y53009
X50503Y56009
X41503Y51509
X39503Y51509
X39503Y43509
X41503Y43509
X41503Y35509
X39503Y35509
X29503Y33509
X27503Y33509
X27503Y31509
X29503Y31509
X24003Y27509
X23003Y27609
X22003Y27509
X21003Y27609
X20003Y27509
X19003Y27609
X27503Y39509
X29503Y39509
X29503Y41509
X27503Y41509
X27503Y47509
X29503Y47509
X29503Y49509
X27503Y49509
X27503Y55509
X29503Y55509
X29503Y57509
X27503Y57509
X24003Y57009
X23003Y57109
X22003Y57009
X21003Y57109
X20003Y57009
X19003Y57109
T08
X40503Y56009
X40503Y55009
X40503Y54009
X40503Y48009
X40503Y47009
X40503Y46009
X40503Y40009
X40503Y39009
X40503Y38009
X40503Y32009
X40503Y31009
X40503Y30009
T09
X54503Y30584
X54503Y33584
X54503Y37797
X54503Y40797
X54503Y44222
X54503Y47222
X54503Y51434
X54503Y54434
T10
X55003Y58009
X55003Y27509
X16003Y27509
X16003Y58009
T11
X47403Y55009
X47403Y47009
X47403Y39009
X47403Y31009
M30
