G75*
G70*
%OFA0B0*%
%FSLAX24Y24*%
%IPPOS*%
%LPD*%
%AMOC8*
5,1,8,0,0,1.08239X$1,22.5*
%
%ADD10C,0.0000*%
%ADD11C,0.0060*%
%ADD12C,0.0040*%
%ADD13C,0.0080*%
%ADD14C,0.0500*%
%ADD15C,0.0200*%
%ADD16C,0.0070*%
%ADD17C,0.0118*%
%ADD18C,0.0039*%
%ADD19C,0.0050*%
D10*
X013818Y025509D02*
X013818Y059757D01*
X056688Y059757D01*
X056688Y025509D01*
X013818Y025509D01*
X015373Y027509D02*
X015375Y027559D01*
X015381Y027609D01*
X015391Y027658D01*
X015405Y027706D01*
X015422Y027753D01*
X015443Y027798D01*
X015468Y027842D01*
X015496Y027883D01*
X015528Y027922D01*
X015562Y027959D01*
X015599Y027993D01*
X015639Y028023D01*
X015681Y028050D01*
X015725Y028074D01*
X015771Y028095D01*
X015818Y028111D01*
X015866Y028124D01*
X015916Y028133D01*
X015965Y028138D01*
X016016Y028139D01*
X016066Y028136D01*
X016115Y028129D01*
X016164Y028118D01*
X016212Y028103D01*
X016258Y028085D01*
X016303Y028063D01*
X016346Y028037D01*
X016387Y028008D01*
X016426Y027976D01*
X016462Y027941D01*
X016494Y027903D01*
X016524Y027863D01*
X016551Y027820D01*
X016574Y027776D01*
X016593Y027730D01*
X016609Y027682D01*
X016621Y027633D01*
X016629Y027584D01*
X016633Y027534D01*
X016633Y027484D01*
X016629Y027434D01*
X016621Y027385D01*
X016609Y027336D01*
X016593Y027288D01*
X016574Y027242D01*
X016551Y027198D01*
X016524Y027155D01*
X016494Y027115D01*
X016462Y027077D01*
X016426Y027042D01*
X016387Y027010D01*
X016346Y026981D01*
X016303Y026955D01*
X016258Y026933D01*
X016212Y026915D01*
X016164Y026900D01*
X016115Y026889D01*
X016066Y026882D01*
X016016Y026879D01*
X015965Y026880D01*
X015916Y026885D01*
X015866Y026894D01*
X015818Y026907D01*
X015771Y026923D01*
X015725Y026944D01*
X015681Y026968D01*
X015639Y026995D01*
X015599Y027025D01*
X015562Y027059D01*
X015528Y027096D01*
X015496Y027135D01*
X015468Y027176D01*
X015443Y027220D01*
X015422Y027265D01*
X015405Y027312D01*
X015391Y027360D01*
X015381Y027409D01*
X015375Y027459D01*
X015373Y027509D01*
X015826Y041143D02*
X015828Y041169D01*
X015834Y041195D01*
X015844Y041220D01*
X015857Y041243D01*
X015873Y041263D01*
X015893Y041281D01*
X015915Y041296D01*
X015938Y041308D01*
X015964Y041316D01*
X015990Y041320D01*
X016016Y041320D01*
X016042Y041316D01*
X016068Y041308D01*
X016092Y041296D01*
X016113Y041281D01*
X016133Y041263D01*
X016149Y041243D01*
X016162Y041220D01*
X016172Y041195D01*
X016178Y041169D01*
X016180Y041143D01*
X016178Y041117D01*
X016172Y041091D01*
X016162Y041066D01*
X016149Y041043D01*
X016133Y041023D01*
X016113Y041005D01*
X016091Y040990D01*
X016068Y040978D01*
X016042Y040970D01*
X016016Y040966D01*
X015990Y040966D01*
X015964Y040970D01*
X015938Y040978D01*
X015914Y040990D01*
X015893Y041005D01*
X015873Y041023D01*
X015857Y041043D01*
X015844Y041066D01*
X015834Y041091D01*
X015828Y041117D01*
X015826Y041143D01*
X015826Y042875D02*
X015828Y042901D01*
X015834Y042927D01*
X015844Y042952D01*
X015857Y042975D01*
X015873Y042995D01*
X015893Y043013D01*
X015915Y043028D01*
X015938Y043040D01*
X015964Y043048D01*
X015990Y043052D01*
X016016Y043052D01*
X016042Y043048D01*
X016068Y043040D01*
X016092Y043028D01*
X016113Y043013D01*
X016133Y042995D01*
X016149Y042975D01*
X016162Y042952D01*
X016172Y042927D01*
X016178Y042901D01*
X016180Y042875D01*
X016178Y042849D01*
X016172Y042823D01*
X016162Y042798D01*
X016149Y042775D01*
X016133Y042755D01*
X016113Y042737D01*
X016091Y042722D01*
X016068Y042710D01*
X016042Y042702D01*
X016016Y042698D01*
X015990Y042698D01*
X015964Y042702D01*
X015938Y042710D01*
X015914Y042722D01*
X015893Y042737D01*
X015873Y042755D01*
X015857Y042775D01*
X015844Y042798D01*
X015834Y042823D01*
X015828Y042849D01*
X015826Y042875D01*
X015373Y058009D02*
X015375Y058059D01*
X015381Y058109D01*
X015391Y058158D01*
X015405Y058206D01*
X015422Y058253D01*
X015443Y058298D01*
X015468Y058342D01*
X015496Y058383D01*
X015528Y058422D01*
X015562Y058459D01*
X015599Y058493D01*
X015639Y058523D01*
X015681Y058550D01*
X015725Y058574D01*
X015771Y058595D01*
X015818Y058611D01*
X015866Y058624D01*
X015916Y058633D01*
X015965Y058638D01*
X016016Y058639D01*
X016066Y058636D01*
X016115Y058629D01*
X016164Y058618D01*
X016212Y058603D01*
X016258Y058585D01*
X016303Y058563D01*
X016346Y058537D01*
X016387Y058508D01*
X016426Y058476D01*
X016462Y058441D01*
X016494Y058403D01*
X016524Y058363D01*
X016551Y058320D01*
X016574Y058276D01*
X016593Y058230D01*
X016609Y058182D01*
X016621Y058133D01*
X016629Y058084D01*
X016633Y058034D01*
X016633Y057984D01*
X016629Y057934D01*
X016621Y057885D01*
X016609Y057836D01*
X016593Y057788D01*
X016574Y057742D01*
X016551Y057698D01*
X016524Y057655D01*
X016494Y057615D01*
X016462Y057577D01*
X016426Y057542D01*
X016387Y057510D01*
X016346Y057481D01*
X016303Y057455D01*
X016258Y057433D01*
X016212Y057415D01*
X016164Y057400D01*
X016115Y057389D01*
X016066Y057382D01*
X016016Y057379D01*
X015965Y057380D01*
X015916Y057385D01*
X015866Y057394D01*
X015818Y057407D01*
X015771Y057423D01*
X015725Y057444D01*
X015681Y057468D01*
X015639Y057495D01*
X015599Y057525D01*
X015562Y057559D01*
X015528Y057596D01*
X015496Y057635D01*
X015468Y057676D01*
X015443Y057720D01*
X015422Y057765D01*
X015405Y057812D01*
X015391Y057860D01*
X015381Y057909D01*
X015375Y057959D01*
X015373Y058009D01*
X054373Y058009D02*
X054375Y058059D01*
X054381Y058109D01*
X054391Y058158D01*
X054405Y058206D01*
X054422Y058253D01*
X054443Y058298D01*
X054468Y058342D01*
X054496Y058383D01*
X054528Y058422D01*
X054562Y058459D01*
X054599Y058493D01*
X054639Y058523D01*
X054681Y058550D01*
X054725Y058574D01*
X054771Y058595D01*
X054818Y058611D01*
X054866Y058624D01*
X054916Y058633D01*
X054965Y058638D01*
X055016Y058639D01*
X055066Y058636D01*
X055115Y058629D01*
X055164Y058618D01*
X055212Y058603D01*
X055258Y058585D01*
X055303Y058563D01*
X055346Y058537D01*
X055387Y058508D01*
X055426Y058476D01*
X055462Y058441D01*
X055494Y058403D01*
X055524Y058363D01*
X055551Y058320D01*
X055574Y058276D01*
X055593Y058230D01*
X055609Y058182D01*
X055621Y058133D01*
X055629Y058084D01*
X055633Y058034D01*
X055633Y057984D01*
X055629Y057934D01*
X055621Y057885D01*
X055609Y057836D01*
X055593Y057788D01*
X055574Y057742D01*
X055551Y057698D01*
X055524Y057655D01*
X055494Y057615D01*
X055462Y057577D01*
X055426Y057542D01*
X055387Y057510D01*
X055346Y057481D01*
X055303Y057455D01*
X055258Y057433D01*
X055212Y057415D01*
X055164Y057400D01*
X055115Y057389D01*
X055066Y057382D01*
X055016Y057379D01*
X054965Y057380D01*
X054916Y057385D01*
X054866Y057394D01*
X054818Y057407D01*
X054771Y057423D01*
X054725Y057444D01*
X054681Y057468D01*
X054639Y057495D01*
X054599Y057525D01*
X054562Y057559D01*
X054528Y057596D01*
X054496Y057635D01*
X054468Y057676D01*
X054443Y057720D01*
X054422Y057765D01*
X054405Y057812D01*
X054391Y057860D01*
X054381Y057909D01*
X054375Y057959D01*
X054373Y058009D01*
X054373Y027509D02*
X054375Y027559D01*
X054381Y027609D01*
X054391Y027658D01*
X054405Y027706D01*
X054422Y027753D01*
X054443Y027798D01*
X054468Y027842D01*
X054496Y027883D01*
X054528Y027922D01*
X054562Y027959D01*
X054599Y027993D01*
X054639Y028023D01*
X054681Y028050D01*
X054725Y028074D01*
X054771Y028095D01*
X054818Y028111D01*
X054866Y028124D01*
X054916Y028133D01*
X054965Y028138D01*
X055016Y028139D01*
X055066Y028136D01*
X055115Y028129D01*
X055164Y028118D01*
X055212Y028103D01*
X055258Y028085D01*
X055303Y028063D01*
X055346Y028037D01*
X055387Y028008D01*
X055426Y027976D01*
X055462Y027941D01*
X055494Y027903D01*
X055524Y027863D01*
X055551Y027820D01*
X055574Y027776D01*
X055593Y027730D01*
X055609Y027682D01*
X055621Y027633D01*
X055629Y027584D01*
X055633Y027534D01*
X055633Y027484D01*
X055629Y027434D01*
X055621Y027385D01*
X055609Y027336D01*
X055593Y027288D01*
X055574Y027242D01*
X055551Y027198D01*
X055524Y027155D01*
X055494Y027115D01*
X055462Y027077D01*
X055426Y027042D01*
X055387Y027010D01*
X055346Y026981D01*
X055303Y026955D01*
X055258Y026933D01*
X055212Y026915D01*
X055164Y026900D01*
X055115Y026889D01*
X055066Y026882D01*
X055016Y026879D01*
X054965Y026880D01*
X054916Y026885D01*
X054866Y026894D01*
X054818Y026907D01*
X054771Y026923D01*
X054725Y026944D01*
X054681Y026968D01*
X054639Y026995D01*
X054599Y027025D01*
X054562Y027059D01*
X054528Y027096D01*
X054496Y027135D01*
X054468Y027176D01*
X054443Y027220D01*
X054422Y027265D01*
X054405Y027312D01*
X054391Y027360D01*
X054381Y027409D01*
X054375Y027459D01*
X054373Y027509D01*
D11*
X061723Y027646D02*
X062150Y028073D01*
X062150Y027646D01*
X062044Y027539D01*
X061830Y027539D01*
X061723Y027646D01*
X061723Y028073D01*
X061830Y028180D01*
X062044Y028180D01*
X062150Y028073D01*
X062368Y027646D02*
X062475Y027646D01*
X062475Y027539D01*
X062368Y027539D01*
X062368Y027646D01*
X062690Y027539D02*
X063117Y027966D01*
X063117Y028073D01*
X063010Y028180D01*
X062797Y028180D01*
X062690Y028073D01*
X062690Y027539D02*
X063117Y027539D01*
X063335Y027646D02*
X063762Y028073D01*
X063762Y027646D01*
X063655Y027539D01*
X063441Y027539D01*
X063335Y027646D01*
X063335Y028073D01*
X063441Y028180D01*
X063655Y028180D01*
X063762Y028073D01*
X063979Y028073D02*
X064086Y028180D01*
X064299Y028180D01*
X064406Y028073D01*
X063979Y027646D01*
X064086Y027539D01*
X064299Y027539D01*
X064406Y027646D01*
X064406Y028073D01*
X063979Y028073D02*
X063979Y027646D01*
X064086Y026180D02*
X064299Y026180D01*
X064406Y026073D01*
X063979Y025646D01*
X064086Y025539D01*
X064299Y025539D01*
X064406Y025646D01*
X064406Y026073D01*
X064086Y026180D02*
X063979Y026073D01*
X063979Y025646D01*
X063762Y025646D02*
X063655Y025539D01*
X063441Y025539D01*
X063335Y025646D01*
X063762Y026073D01*
X063762Y025646D01*
X063762Y026073D02*
X063655Y026180D01*
X063441Y026180D01*
X063335Y026073D01*
X063335Y025646D01*
X063117Y025646D02*
X063010Y025539D01*
X062797Y025539D01*
X062690Y025646D01*
X063117Y026073D01*
X063117Y025646D01*
X062690Y025646D02*
X062690Y026073D01*
X062797Y026180D01*
X063010Y026180D01*
X063117Y026073D01*
X062475Y025646D02*
X062368Y025646D01*
X062368Y025539D01*
X062475Y025539D01*
X062475Y025646D01*
X062150Y025646D02*
X062150Y026073D01*
X061723Y025646D01*
X061830Y025539D01*
X062044Y025539D01*
X062150Y025646D01*
X061723Y025646D02*
X061723Y026073D01*
X061830Y026180D01*
X062044Y026180D01*
X062150Y026073D01*
X056557Y020222D02*
X056130Y020222D01*
X056023Y020115D01*
X056023Y019902D01*
X056130Y019795D01*
X056236Y019795D01*
X056343Y019902D01*
X056343Y020222D01*
X056557Y020222D02*
X056663Y020115D01*
X056663Y019902D01*
X056557Y019795D01*
X056663Y019578D02*
X056663Y019151D01*
X056663Y019364D02*
X056023Y019364D01*
X056236Y019151D01*
X056236Y018933D02*
X056130Y018933D01*
X056023Y018826D01*
X056023Y018613D01*
X056130Y018506D01*
X056236Y018933D02*
X056663Y018506D01*
X056663Y018933D01*
X056663Y018291D02*
X056663Y018184D01*
X056557Y018184D01*
X056557Y018291D01*
X056663Y018291D01*
X056663Y017860D02*
X056023Y017860D01*
X056343Y017539D01*
X056343Y017966D01*
X067533Y008180D02*
X067854Y008180D01*
X067960Y008073D01*
X067960Y007860D01*
X067854Y007753D01*
X067533Y007753D01*
X067533Y007539D02*
X067533Y008180D01*
X068285Y007966D02*
X068498Y007966D01*
X068605Y007860D01*
X068605Y007539D01*
X068285Y007539D01*
X068178Y007646D01*
X068285Y007753D01*
X068605Y007753D01*
X068822Y007646D02*
X068929Y007539D01*
X069249Y007539D01*
X069249Y007966D01*
X069467Y008180D02*
X069574Y008180D01*
X069574Y007539D01*
X069680Y007539D02*
X069467Y007539D01*
X068822Y007646D02*
X068822Y007966D01*
X070541Y007966D02*
X070755Y008180D01*
X070968Y007966D01*
X070968Y007539D01*
X071186Y007539D02*
X071506Y007539D01*
X071613Y007646D01*
X071613Y007860D01*
X071506Y007966D01*
X071186Y007966D01*
X071186Y008180D02*
X071186Y007539D01*
X070968Y007860D02*
X070541Y007860D01*
X070541Y007966D02*
X070541Y007539D01*
X071830Y007539D02*
X071830Y008180D01*
X071830Y007966D02*
X072150Y007966D01*
X072257Y007860D01*
X072257Y007646D01*
X072150Y007539D01*
X071830Y007539D01*
X072475Y007646D02*
X072581Y007539D01*
X072795Y007539D01*
X072902Y007646D01*
X072902Y007860D01*
X072795Y007966D01*
X072581Y007966D01*
X072475Y007860D01*
X072475Y007646D01*
X073119Y007966D02*
X073333Y007966D01*
X073226Y008073D02*
X073226Y007646D01*
X073333Y007539D01*
X073656Y007646D02*
X073762Y007539D01*
X073656Y007646D02*
X073656Y008073D01*
X073762Y007966D02*
X073549Y007966D01*
X085533Y008860D02*
X085960Y008860D01*
X085854Y009180D02*
X085854Y008539D01*
X085533Y008860D02*
X085854Y009180D01*
X086822Y009073D02*
X086822Y008646D01*
X086929Y008539D01*
X087143Y008539D01*
X087249Y008646D01*
X087467Y008539D02*
X087467Y009180D01*
X087574Y008966D02*
X087787Y008966D01*
X087894Y008860D01*
X087894Y008539D01*
X088111Y008646D02*
X088218Y008753D01*
X088538Y008753D01*
X088538Y008860D02*
X088538Y008539D01*
X088218Y008539D01*
X088111Y008646D01*
X088218Y008966D02*
X088432Y008966D01*
X088538Y008860D01*
X088756Y008966D02*
X088756Y008539D01*
X089183Y008539D02*
X089183Y008860D01*
X089076Y008966D01*
X088756Y008966D01*
X089400Y008966D02*
X089400Y008539D01*
X089400Y008966D02*
X089721Y008966D01*
X089827Y008860D01*
X089827Y008539D01*
X090045Y008646D02*
X090045Y008860D01*
X090152Y008966D01*
X090365Y008966D01*
X090472Y008860D01*
X090472Y008753D01*
X090045Y008753D01*
X090045Y008646D02*
X090152Y008539D01*
X090365Y008539D01*
X090690Y008539D02*
X090903Y008539D01*
X090796Y008539D02*
X090796Y009180D01*
X090690Y009180D01*
X091764Y009180D02*
X091764Y008646D01*
X091870Y008539D01*
X092084Y008539D01*
X092191Y008646D01*
X092191Y009180D01*
X092408Y009073D02*
X092408Y008966D01*
X092515Y008860D01*
X092729Y008860D01*
X092835Y008753D01*
X092835Y008646D01*
X092729Y008539D01*
X092515Y008539D01*
X092408Y008646D01*
X092408Y009073D02*
X092515Y009180D01*
X092729Y009180D01*
X092835Y009073D01*
X093053Y009180D02*
X093053Y008539D01*
X093373Y008539D01*
X093480Y008646D01*
X093480Y008753D01*
X093373Y008860D01*
X093053Y008860D01*
X093053Y009180D02*
X093373Y009180D01*
X093480Y009073D01*
X093480Y008966D01*
X093373Y008860D01*
X094342Y009180D02*
X094342Y008539D01*
X094769Y008539D01*
X094986Y008539D02*
X095200Y008539D01*
X095093Y008539D02*
X095093Y008966D01*
X094986Y008966D01*
X095093Y009180D02*
X095093Y009287D01*
X095416Y008860D02*
X095416Y008646D01*
X095523Y008539D01*
X095843Y008539D01*
X095843Y008433D02*
X095843Y008966D01*
X095523Y008966D01*
X095416Y008860D01*
X095630Y008326D02*
X095736Y008326D01*
X095843Y008433D01*
X096061Y008539D02*
X096061Y009180D01*
X096167Y008966D02*
X096381Y008966D01*
X096488Y008860D01*
X096488Y008539D01*
X096812Y008646D02*
X096919Y008539D01*
X096812Y008646D02*
X096812Y009073D01*
X096705Y008966D02*
X096919Y008966D01*
X097135Y008966D02*
X097242Y008966D01*
X097242Y008539D01*
X097348Y008539D02*
X097135Y008539D01*
X097564Y008539D02*
X097564Y008966D01*
X097885Y008966D01*
X097991Y008860D01*
X097991Y008539D01*
X098209Y008646D02*
X098316Y008539D01*
X098636Y008539D01*
X098636Y008433D02*
X098636Y008966D01*
X098316Y008966D01*
X098209Y008860D01*
X098209Y008646D01*
X098423Y008326D02*
X098529Y008326D01*
X098636Y008433D01*
X099498Y008646D02*
X099498Y009073D01*
X099605Y009180D01*
X099818Y009180D01*
X099925Y009073D01*
X100143Y008860D02*
X100249Y008966D01*
X100463Y008966D01*
X100570Y008860D01*
X100570Y008646D01*
X100463Y008539D01*
X100249Y008539D01*
X100143Y008646D01*
X100143Y008860D01*
X099925Y008646D02*
X099818Y008539D01*
X099605Y008539D01*
X099498Y008646D01*
X100787Y008539D02*
X100787Y008966D01*
X101107Y008966D01*
X101214Y008860D01*
X101214Y008539D01*
X101538Y008646D02*
X101538Y009073D01*
X101432Y008966D02*
X101645Y008966D01*
X101861Y008966D02*
X101861Y008539D01*
X101861Y008753D02*
X102075Y008966D01*
X102182Y008966D01*
X102398Y008860D02*
X102505Y008966D01*
X102719Y008966D01*
X102825Y008860D01*
X102825Y008646D01*
X102719Y008539D01*
X102505Y008539D01*
X102398Y008646D01*
X102398Y008860D01*
X103043Y009180D02*
X103150Y009180D01*
X103150Y008539D01*
X103256Y008539D02*
X103043Y008539D01*
X103473Y008539D02*
X103686Y008539D01*
X103579Y008539D02*
X103579Y009180D01*
X103473Y009180D01*
X103902Y008860D02*
X104009Y008966D01*
X104223Y008966D01*
X104329Y008860D01*
X104329Y008753D01*
X103902Y008753D01*
X103902Y008646D02*
X103902Y008860D01*
X103902Y008646D02*
X104009Y008539D01*
X104223Y008539D01*
X104547Y008539D02*
X104547Y008966D01*
X104547Y008753D02*
X104760Y008966D01*
X104867Y008966D01*
X101645Y008539D02*
X101538Y008646D01*
X097242Y009180D02*
X097242Y009287D01*
X096167Y008966D02*
X096061Y008860D01*
X102533Y003073D02*
X102640Y003180D01*
X102854Y003180D01*
X102960Y003073D01*
X102960Y002966D01*
X102533Y002539D01*
X102960Y002539D01*
X087574Y008966D02*
X087467Y008860D01*
X087249Y009073D02*
X087143Y009180D01*
X086929Y009180D01*
X086822Y009073D01*
X086711Y031039D02*
X086497Y031039D01*
X086391Y031146D01*
X086391Y031573D01*
X086497Y031680D01*
X086711Y031680D01*
X086818Y031573D01*
X086818Y031146D01*
X086711Y031039D01*
X087035Y031039D02*
X087035Y031680D01*
X087249Y031466D01*
X087462Y031680D01*
X087462Y031039D01*
X087680Y031039D02*
X087786Y031039D01*
X087786Y031146D01*
X087680Y031146D01*
X087680Y031039D01*
X086173Y031680D02*
X085746Y031680D01*
X085960Y031680D02*
X085960Y031039D01*
X085315Y031039D02*
X085315Y031680D01*
X085102Y031680D02*
X085529Y031680D01*
X084884Y031573D02*
X084777Y031680D01*
X084564Y031680D01*
X084457Y031573D01*
X084457Y031146D01*
X084564Y031039D01*
X084777Y031039D01*
X084884Y031146D01*
X084884Y031573D01*
X084240Y031573D02*
X084240Y031466D01*
X084133Y031360D01*
X083813Y031360D01*
X084133Y031360D02*
X084240Y031253D01*
X084240Y031146D01*
X084133Y031039D01*
X083813Y031039D01*
X083813Y031680D01*
X084133Y031680D01*
X084240Y031573D01*
X084241Y032539D02*
X084027Y032539D01*
X084134Y032539D02*
X084134Y033180D01*
X084027Y033180D02*
X084241Y033180D01*
X084457Y033180D02*
X084884Y033180D01*
X084671Y033180D02*
X084671Y032539D01*
X085102Y032539D02*
X085529Y032539D01*
X085746Y032539D02*
X085853Y032539D01*
X085853Y032646D01*
X085746Y032646D01*
X085746Y032539D01*
X085315Y032860D02*
X085102Y032860D01*
X085102Y033180D02*
X085102Y032539D01*
X085102Y033180D02*
X085529Y033180D01*
X085638Y034039D02*
X085531Y034146D01*
X085638Y034039D02*
X085851Y034039D01*
X085958Y034146D01*
X085958Y034253D01*
X085851Y034360D01*
X085638Y034360D01*
X085531Y034466D01*
X085531Y034573D01*
X085638Y034680D01*
X085851Y034680D01*
X085958Y034573D01*
X086283Y034146D02*
X086283Y034039D01*
X086389Y034039D01*
X086389Y034146D01*
X086283Y034146D01*
X086389Y034039D02*
X086176Y033826D01*
X085314Y034039D02*
X084887Y034039D01*
X084887Y034680D01*
X085314Y034680D01*
X085100Y034360D02*
X084887Y034360D01*
X084669Y034573D02*
X084562Y034680D01*
X084242Y034680D01*
X084242Y034039D01*
X084562Y034039D01*
X084669Y034146D01*
X084669Y034573D01*
X084026Y034680D02*
X083813Y034680D01*
X083919Y034680D02*
X083919Y034039D01*
X083813Y034039D02*
X084026Y034039D01*
X083595Y034146D02*
X083488Y034039D01*
X083275Y034039D01*
X083168Y034146D01*
X083275Y034360D02*
X083488Y034360D01*
X083595Y034253D01*
X083595Y034146D01*
X083275Y034360D02*
X083168Y034466D01*
X083168Y034573D01*
X083275Y034680D01*
X083488Y034680D01*
X083595Y034573D01*
X083383Y033180D02*
X083383Y032539D01*
X083165Y032539D02*
X083165Y033180D01*
X083383Y032860D02*
X083810Y032860D01*
X083810Y033180D02*
X083810Y032539D01*
X083165Y032539D02*
X082952Y032753D01*
X082738Y032539D01*
X082738Y033180D01*
X082306Y034039D02*
X082306Y034680D01*
X082306Y034360D02*
X081879Y034360D01*
X081879Y034680D02*
X081879Y034039D01*
X081448Y034039D02*
X081448Y034680D01*
X081661Y034680D02*
X081234Y034680D01*
X081017Y034573D02*
X080910Y034680D01*
X080697Y034680D01*
X080590Y034573D01*
X080590Y034146D01*
X080697Y034039D01*
X080910Y034039D01*
X081017Y034146D01*
X081017Y034573D01*
X080372Y034573D02*
X080372Y034466D01*
X080266Y034360D01*
X079945Y034360D01*
X079945Y034680D02*
X080266Y034680D01*
X080372Y034573D01*
X080266Y034360D02*
X080372Y034253D01*
X080372Y034146D01*
X080266Y034039D01*
X079945Y034039D01*
X079945Y034680D01*
X080160Y035326D02*
X080374Y035539D01*
X080267Y035539D01*
X080267Y035646D01*
X080374Y035646D01*
X080374Y035539D01*
X079943Y036073D02*
X079837Y035966D01*
X079943Y036073D02*
X079943Y036287D01*
X079730Y036287D02*
X079730Y036073D01*
X079623Y035966D01*
X079406Y035966D02*
X079406Y036073D01*
X079299Y036180D01*
X079085Y036180D01*
X078979Y036073D01*
X078761Y036180D02*
X078548Y036073D01*
X078334Y035860D01*
X078654Y035860D01*
X078761Y035753D01*
X078761Y035646D01*
X078654Y035539D01*
X078441Y035539D01*
X078334Y035646D01*
X078334Y035860D01*
X078116Y036073D02*
X077689Y035646D01*
X077796Y035539D01*
X078010Y035539D01*
X078116Y035646D01*
X078116Y036073D01*
X078010Y036180D01*
X077796Y036180D01*
X077689Y036073D01*
X077689Y035646D01*
X077474Y035646D02*
X077474Y035539D01*
X077367Y035539D01*
X077367Y035646D01*
X077474Y035646D01*
X077150Y035646D02*
X077043Y035539D01*
X076829Y035539D01*
X076723Y035646D01*
X077150Y036073D01*
X077150Y035646D01*
X077150Y036073D02*
X077043Y036180D01*
X076829Y036180D01*
X076723Y036073D01*
X076723Y035646D01*
X075863Y035646D02*
X075863Y035539D01*
X075756Y035539D01*
X075756Y035646D01*
X075863Y035646D01*
X075863Y035860D02*
X075756Y035860D01*
X075756Y035966D01*
X075863Y035966D01*
X075863Y035860D01*
X075538Y036073D02*
X075432Y036180D01*
X075111Y036180D01*
X075111Y035539D01*
X075432Y035539D01*
X075538Y035646D01*
X075538Y036073D01*
X074894Y036073D02*
X074894Y035860D01*
X074787Y035753D01*
X074467Y035753D01*
X074680Y035753D02*
X074894Y035539D01*
X074467Y035539D02*
X074467Y036180D01*
X074787Y036180D01*
X074894Y036073D01*
X074249Y035966D02*
X074249Y035539D01*
X074249Y035860D02*
X073822Y035860D01*
X073822Y035966D02*
X074036Y036180D01*
X074249Y035966D01*
X073822Y035966D02*
X073822Y035539D01*
X073605Y035646D02*
X073605Y036073D01*
X073498Y036180D01*
X073285Y036180D01*
X073178Y036073D01*
X073178Y035646D01*
X073285Y035539D01*
X073498Y035539D01*
X073605Y035646D01*
X072960Y035646D02*
X072854Y035539D01*
X072533Y035539D01*
X072533Y036180D01*
X072854Y036180D01*
X072960Y036073D01*
X072960Y035966D01*
X072854Y035860D01*
X072533Y035860D01*
X072854Y035860D02*
X072960Y035753D01*
X072960Y035646D01*
X072960Y037039D02*
X072960Y037680D01*
X072747Y037466D01*
X072533Y037680D01*
X072533Y037039D01*
X073178Y037039D02*
X073178Y037466D01*
X073391Y037680D01*
X073605Y037466D01*
X073605Y037039D01*
X073605Y037360D02*
X073178Y037360D01*
X073822Y037680D02*
X074249Y037680D01*
X074036Y037680D02*
X074036Y037039D01*
X074467Y037039D02*
X074894Y037039D01*
X075111Y037039D02*
X075111Y037680D01*
X075432Y037680D01*
X075538Y037573D01*
X075538Y037360D01*
X075432Y037253D01*
X075111Y037253D01*
X075325Y037253D02*
X075538Y037039D01*
X075756Y037039D02*
X075969Y037039D01*
X075863Y037039D02*
X075863Y037680D01*
X075969Y037680D02*
X075756Y037680D01*
X076186Y037466D02*
X076186Y037039D01*
X076186Y037360D02*
X076613Y037360D01*
X076613Y037466D02*
X076613Y037039D01*
X076830Y037039D02*
X077257Y037039D01*
X077475Y037039D02*
X077475Y037146D01*
X077581Y037146D01*
X077581Y037039D01*
X077475Y037039D01*
X077475Y037360D02*
X077475Y037466D01*
X077581Y037466D01*
X077581Y037360D01*
X077475Y037360D01*
X076830Y037680D02*
X076830Y037039D01*
X076613Y037466D02*
X076399Y037680D01*
X076186Y037466D01*
X074894Y037680D02*
X074467Y037680D01*
X074467Y037039D01*
X074467Y037360D02*
X074680Y037360D01*
X074787Y034680D02*
X074467Y034680D01*
X074467Y034039D01*
X074787Y034039D01*
X074894Y034146D01*
X074894Y034573D01*
X074787Y034680D01*
X075111Y034680D02*
X075111Y034039D01*
X075538Y034039D01*
X075756Y034039D02*
X075756Y034680D01*
X076076Y034680D01*
X076183Y034573D01*
X076183Y034360D01*
X076076Y034253D01*
X075756Y034253D01*
X075969Y034253D02*
X076183Y034039D01*
X076400Y034039D02*
X076400Y034680D01*
X076614Y034466D01*
X076827Y034680D01*
X076827Y034039D01*
X077045Y034039D02*
X077045Y034466D01*
X077259Y034680D01*
X077472Y034466D01*
X077472Y034039D01*
X077690Y034146D02*
X077796Y034039D01*
X078010Y034039D01*
X078117Y034146D01*
X078117Y034253D01*
X078010Y034360D01*
X077796Y034360D01*
X077690Y034466D01*
X077690Y034573D01*
X077796Y034680D01*
X078010Y034680D01*
X078117Y034573D01*
X078334Y034680D02*
X078334Y034039D01*
X078334Y034253D02*
X078761Y034680D01*
X078979Y034466D02*
X078979Y034360D01*
X079085Y034360D01*
X079085Y034466D01*
X078979Y034466D01*
X078979Y034146D02*
X078979Y034039D01*
X079085Y034039D01*
X079085Y034146D01*
X078979Y034146D01*
X078761Y034039D02*
X078441Y034360D01*
X077472Y034360D02*
X077045Y034360D01*
X077257Y033180D02*
X076830Y033180D01*
X076830Y032539D01*
X077257Y032539D01*
X077475Y032539D02*
X077902Y032539D01*
X078119Y032539D02*
X078119Y033180D01*
X078546Y032539D01*
X078546Y033180D01*
X078764Y032966D02*
X078764Y032860D01*
X078870Y032860D01*
X078870Y032966D01*
X078764Y032966D01*
X078764Y032646D02*
X078764Y032539D01*
X078870Y032539D01*
X078870Y032646D01*
X078764Y032646D01*
X077902Y033180D02*
X077475Y033180D01*
X077475Y032539D01*
X077475Y032860D02*
X077688Y032860D01*
X077044Y032860D02*
X076830Y032860D01*
X076613Y032860D02*
X076506Y032753D01*
X076186Y032753D01*
X076399Y032753D02*
X076613Y032539D01*
X076613Y032860D02*
X076613Y033073D01*
X076506Y033180D01*
X076186Y033180D01*
X076186Y032539D01*
X075968Y032646D02*
X075861Y032539D01*
X075648Y032539D01*
X075541Y032646D01*
X075541Y033073D01*
X075648Y033180D01*
X075861Y033180D01*
X075968Y033073D01*
X075324Y033073D02*
X075217Y033180D01*
X075003Y033180D01*
X074897Y033073D01*
X074897Y032966D01*
X075003Y032860D01*
X075217Y032860D01*
X075324Y032753D01*
X075324Y032646D01*
X075217Y032539D01*
X075003Y032539D01*
X074897Y032646D01*
X074679Y032539D02*
X074359Y032860D01*
X074252Y032753D02*
X074679Y033180D01*
X074252Y033180D02*
X074252Y032539D01*
X074035Y032539D02*
X073608Y032539D01*
X073608Y033180D01*
X073391Y033180D02*
X073178Y033180D01*
X073285Y033180D02*
X073285Y032539D01*
X073391Y032539D02*
X073178Y032539D01*
X072960Y032646D02*
X072854Y032539D01*
X072640Y032539D01*
X072533Y032646D01*
X072640Y032860D02*
X072854Y032860D01*
X072960Y032753D01*
X072960Y032646D01*
X072640Y032860D02*
X072533Y032966D01*
X072533Y033073D01*
X072640Y033180D01*
X072854Y033180D01*
X072960Y033073D01*
X072533Y031680D02*
X072533Y031039D01*
X072960Y031039D01*
X073178Y031039D02*
X073178Y031466D01*
X073391Y031680D01*
X073605Y031466D01*
X073605Y031039D01*
X073605Y031360D02*
X073178Y031360D01*
X073822Y031573D02*
X074036Y031360D01*
X074036Y031039D01*
X074036Y031360D02*
X074249Y031573D01*
X074249Y031680D01*
X074467Y031680D02*
X074467Y031039D01*
X074894Y031039D01*
X075111Y031039D02*
X075111Y031680D01*
X075432Y031680D01*
X075538Y031573D01*
X075538Y031360D01*
X075432Y031253D01*
X075111Y031253D01*
X075325Y031253D02*
X075538Y031039D01*
X075756Y031146D02*
X075863Y031039D01*
X076076Y031039D01*
X076183Y031146D01*
X076183Y031253D01*
X076076Y031360D01*
X075863Y031360D01*
X075756Y031466D01*
X075756Y031573D01*
X075863Y031680D01*
X076076Y031680D01*
X076183Y031573D01*
X076400Y031466D02*
X076400Y031360D01*
X076507Y031360D01*
X076507Y031466D01*
X076400Y031466D01*
X076400Y031146D02*
X076400Y031039D01*
X076507Y031039D01*
X076507Y031146D01*
X076400Y031146D01*
X077367Y031039D02*
X077794Y031466D01*
X077794Y031573D01*
X077687Y031680D01*
X077474Y031680D01*
X077367Y031573D01*
X077367Y031039D02*
X077794Y031039D01*
X078656Y031360D02*
X079083Y031360D01*
X079945Y031680D02*
X080372Y031680D01*
X080159Y031680D02*
X080159Y031039D01*
X080590Y031146D02*
X080590Y031573D01*
X080697Y031680D01*
X080910Y031680D01*
X081017Y031573D01*
X081017Y031146D01*
X080910Y031039D01*
X080697Y031039D01*
X080590Y031146D01*
X081234Y031039D02*
X081234Y031680D01*
X081555Y031680D01*
X081661Y031573D01*
X081661Y031360D01*
X081555Y031253D01*
X081234Y031253D01*
X081664Y032326D02*
X081878Y032539D01*
X081771Y032539D01*
X081771Y032646D01*
X081878Y032646D01*
X081878Y032539D01*
X081447Y032860D02*
X081340Y032753D01*
X081020Y032753D01*
X081020Y032539D02*
X081020Y033180D01*
X081340Y033180D01*
X081447Y033073D01*
X081447Y032860D01*
X080802Y033073D02*
X080695Y033180D01*
X080482Y033180D01*
X080375Y033073D01*
X080375Y032646D01*
X080482Y032539D01*
X080695Y032539D01*
X080802Y032646D01*
X080802Y033073D01*
X080158Y033180D02*
X079731Y033180D01*
X079944Y033180D02*
X079944Y032539D01*
X082523Y031573D02*
X082523Y031466D01*
X082950Y031039D01*
X082737Y031039D02*
X082630Y031039D01*
X082523Y031146D01*
X082523Y031253D01*
X082737Y031466D01*
X082737Y031573D01*
X082630Y031680D01*
X082523Y031573D01*
X082950Y031253D02*
X082737Y031039D01*
X087250Y034146D02*
X087357Y034039D01*
X087570Y034039D01*
X087677Y034146D01*
X087677Y034360D01*
X087464Y034360D01*
X087677Y034573D02*
X087570Y034680D01*
X087357Y034680D01*
X087250Y034573D01*
X087250Y034146D01*
X087895Y034039D02*
X087895Y034680D01*
X088215Y034680D01*
X088322Y034573D01*
X088322Y034360D01*
X088215Y034253D01*
X087895Y034253D01*
X088108Y034253D02*
X088322Y034039D01*
X088539Y034039D02*
X088966Y034039D01*
X089184Y034039D02*
X089611Y034039D01*
X089828Y034039D02*
X089828Y034680D01*
X090255Y034039D01*
X090255Y034680D01*
X090473Y034146D02*
X090579Y034146D01*
X090579Y034039D01*
X090473Y034039D01*
X090473Y034146D01*
X089611Y034680D02*
X089184Y034680D01*
X089184Y034039D01*
X089184Y034360D02*
X089397Y034360D01*
X088966Y034680D02*
X088539Y034680D01*
X088539Y034039D01*
X088539Y034360D02*
X088753Y034360D01*
X088431Y035539D02*
X088324Y035539D01*
X088324Y035646D01*
X088431Y035646D01*
X088431Y035539D01*
X088107Y035539D02*
X087893Y035753D01*
X088000Y035753D02*
X087680Y035753D01*
X087680Y035539D02*
X087680Y036180D01*
X088000Y036180D01*
X088107Y036073D01*
X088107Y035860D01*
X088000Y035753D01*
X087462Y035539D02*
X087035Y035539D01*
X087035Y036180D01*
X087462Y036180D01*
X087249Y035860D02*
X087035Y035860D01*
X086818Y035860D02*
X086711Y035753D01*
X086391Y035753D01*
X086391Y035539D02*
X086391Y036180D01*
X086711Y036180D01*
X086818Y036073D01*
X086818Y035860D01*
X086173Y035860D02*
X086066Y035753D01*
X085746Y035753D01*
X085746Y035539D02*
X085746Y036180D01*
X086066Y036180D01*
X086173Y036073D01*
X086173Y035860D01*
X085529Y036073D02*
X085422Y036180D01*
X085208Y036180D01*
X085102Y036073D01*
X085102Y035646D01*
X085208Y035539D01*
X085422Y035539D01*
X085529Y035646D01*
X085529Y036073D01*
X084884Y036073D02*
X084777Y036180D01*
X084564Y036180D01*
X084457Y036073D01*
X084457Y035646D01*
X084564Y035539D01*
X084777Y035539D01*
X084884Y035646D01*
X083595Y035539D02*
X083168Y035539D01*
X083168Y035646D01*
X083595Y036073D01*
X083595Y036180D01*
X083168Y036180D01*
X082950Y036073D02*
X082844Y036180D01*
X082630Y036180D01*
X082523Y036073D01*
X082523Y035646D01*
X082630Y035539D01*
X082844Y035539D01*
X082950Y035646D01*
X082950Y036073D01*
X082736Y037039D02*
X082522Y037253D01*
X082629Y037253D02*
X082309Y037253D01*
X082309Y037039D02*
X082309Y037680D01*
X082629Y037680D01*
X082736Y037573D01*
X082736Y037360D01*
X082629Y037253D01*
X082953Y037360D02*
X083380Y037360D01*
X083273Y037680D02*
X082953Y037360D01*
X083273Y037680D02*
X083273Y037039D01*
X084242Y037146D02*
X084349Y037039D01*
X084562Y037039D01*
X084669Y037146D01*
X084669Y037360D01*
X084456Y037360D01*
X084669Y037573D02*
X084562Y037680D01*
X084349Y037680D01*
X084242Y037573D01*
X084242Y037146D01*
X084887Y037039D02*
X085314Y037039D01*
X085531Y037039D02*
X085531Y037466D01*
X085745Y037680D01*
X085958Y037466D01*
X085958Y037039D01*
X086176Y037146D02*
X086283Y037039D01*
X086496Y037039D01*
X086603Y037146D01*
X086603Y037253D01*
X086496Y037360D01*
X086283Y037360D01*
X086176Y037466D01*
X086176Y037573D01*
X086283Y037680D01*
X086496Y037680D01*
X086603Y037573D01*
X086820Y037573D02*
X086820Y037466D01*
X086927Y037360D01*
X087141Y037360D01*
X087247Y037253D01*
X087247Y037146D01*
X087141Y037039D01*
X086927Y037039D01*
X086820Y037146D01*
X086820Y037573D02*
X086927Y037680D01*
X087141Y037680D01*
X087247Y037573D01*
X088109Y037680D02*
X088323Y037680D01*
X088216Y037680D02*
X088216Y037039D01*
X088109Y037039D02*
X088323Y037039D01*
X088539Y037039D02*
X088753Y037039D01*
X088646Y037039D02*
X088646Y037680D01*
X088539Y037680D02*
X088753Y037680D01*
X088969Y037146D02*
X088969Y037039D01*
X089075Y037039D01*
X089075Y037146D01*
X088969Y037146D01*
X085958Y037360D02*
X085531Y037360D01*
X084887Y037680D02*
X084887Y037039D01*
X082091Y037680D02*
X081664Y037680D01*
X081664Y037039D01*
X081664Y037360D02*
X081878Y037360D01*
X080802Y037360D02*
X080375Y037360D01*
X080375Y037466D02*
X080589Y037680D01*
X080802Y037466D01*
X080802Y037039D01*
X080375Y037039D02*
X080375Y037466D01*
X080158Y037680D02*
X080158Y037039D01*
X079731Y037039D02*
X079731Y037680D01*
X079944Y037466D01*
X080158Y037680D01*
X079513Y037680D02*
X079086Y037680D01*
X079086Y037039D01*
X079513Y037039D01*
X079299Y037360D02*
X079086Y037360D01*
X078868Y037680D02*
X078868Y037039D01*
X078441Y037680D01*
X078441Y037039D01*
X079406Y035966D02*
X078979Y035539D01*
X079406Y035539D01*
X081234Y035539D02*
X081661Y035966D01*
X081661Y036073D01*
X081555Y036180D01*
X081341Y036180D01*
X081234Y036073D01*
X081234Y035539D02*
X081661Y035539D01*
X075538Y034680D02*
X075111Y034680D01*
X075111Y034360D02*
X075325Y034360D01*
X074249Y034039D02*
X073822Y034039D01*
X073822Y034680D01*
X073605Y034573D02*
X073498Y034680D01*
X073285Y034680D01*
X073178Y034573D01*
X073178Y034146D01*
X073285Y034039D01*
X073498Y034039D01*
X073605Y034146D01*
X073605Y034573D01*
X072960Y034573D02*
X072854Y034680D01*
X072640Y034680D01*
X072533Y034573D01*
X072533Y034466D01*
X072640Y034360D01*
X072854Y034360D01*
X072960Y034253D01*
X072960Y034146D01*
X072854Y034039D01*
X072640Y034039D01*
X072533Y034146D01*
X073822Y031680D02*
X073822Y031573D01*
X074467Y031680D02*
X074894Y031680D01*
X074680Y031360D02*
X074467Y031360D01*
X064299Y058039D02*
X064086Y058039D01*
X063979Y058146D01*
X064406Y058573D01*
X064406Y058146D01*
X064299Y058039D01*
X063979Y058146D02*
X063979Y058573D01*
X064086Y058680D01*
X064299Y058680D01*
X064406Y058573D01*
X063762Y058680D02*
X063335Y058680D01*
X063335Y058360D01*
X063548Y058466D01*
X063655Y058466D01*
X063762Y058360D01*
X063762Y058146D01*
X063655Y058039D01*
X063441Y058039D01*
X063335Y058146D01*
X063117Y058039D02*
X062690Y058039D01*
X063117Y058466D01*
X063117Y058573D01*
X063010Y058680D01*
X062797Y058680D01*
X062690Y058573D01*
X062475Y058146D02*
X062475Y058039D01*
X062368Y058039D01*
X062368Y058146D01*
X062475Y058146D01*
X062150Y058146D02*
X062044Y058039D01*
X061830Y058039D01*
X061723Y058146D01*
X061937Y058360D02*
X062044Y058360D01*
X062150Y058253D01*
X062150Y058146D01*
X062044Y058360D02*
X062150Y058466D01*
X062150Y058573D01*
X062044Y058680D01*
X061830Y058680D01*
X061723Y058573D01*
X061830Y059789D02*
X061723Y059896D01*
X061830Y059789D02*
X062044Y059789D01*
X062150Y059896D01*
X062150Y060003D01*
X062044Y060110D01*
X061937Y060110D01*
X062044Y060110D02*
X062150Y060216D01*
X062150Y060323D01*
X062044Y060430D01*
X061830Y060430D01*
X061723Y060323D01*
X062368Y059896D02*
X062475Y059896D01*
X062475Y059789D01*
X062368Y059789D01*
X062368Y059896D01*
X062690Y060110D02*
X063117Y060110D01*
X063335Y060323D02*
X063441Y060430D01*
X063655Y060430D01*
X063762Y060323D01*
X063762Y060216D01*
X063335Y059789D01*
X063762Y059789D01*
X063979Y059896D02*
X064086Y059789D01*
X064299Y059789D01*
X064406Y059896D01*
X064406Y060110D01*
X064299Y060216D01*
X064193Y060216D01*
X063979Y060110D01*
X063979Y060430D01*
X064406Y060430D01*
X063010Y060430D02*
X062690Y060110D01*
X063010Y060430D02*
X063010Y059789D01*
X054973Y065110D02*
X054333Y065110D01*
X054653Y064789D01*
X054653Y065216D01*
X054867Y065434D02*
X054867Y065541D01*
X054973Y065541D01*
X054973Y065434D01*
X054867Y065434D01*
X054867Y065756D02*
X054440Y066183D01*
X054867Y066183D01*
X054973Y066076D01*
X054973Y065863D01*
X054867Y065756D01*
X054440Y065756D01*
X054333Y065863D01*
X054333Y066076D01*
X054440Y066183D01*
X054333Y066401D02*
X054653Y066401D01*
X054546Y066614D01*
X054546Y066721D01*
X054653Y066828D01*
X054867Y066828D01*
X054973Y066721D01*
X054973Y066507D01*
X054867Y066401D01*
X054333Y066401D02*
X054333Y066828D01*
X054440Y067045D02*
X054333Y067152D01*
X054333Y067365D01*
X054440Y067472D01*
X054867Y067045D01*
X054973Y067152D01*
X054973Y067365D01*
X054867Y067472D01*
X054440Y067472D01*
X054440Y067045D02*
X054867Y067045D01*
X014473Y067152D02*
X014367Y067045D01*
X013940Y067472D01*
X014367Y067472D01*
X014473Y067365D01*
X014473Y067152D01*
X014367Y067045D02*
X013940Y067045D01*
X013833Y067152D01*
X013833Y067365D01*
X013940Y067472D01*
X013940Y066828D02*
X014367Y066401D01*
X014473Y066507D01*
X014473Y066721D01*
X014367Y066828D01*
X013940Y066828D01*
X013833Y066721D01*
X013833Y066507D01*
X013940Y066401D01*
X014367Y066401D01*
X014367Y066183D02*
X014473Y066076D01*
X014473Y065863D01*
X014367Y065756D01*
X013940Y066183D01*
X014367Y066183D01*
X014367Y065756D02*
X013940Y065756D01*
X013833Y065863D01*
X013833Y066076D01*
X013940Y066183D01*
X014367Y065541D02*
X014473Y065541D01*
X014473Y065434D01*
X014367Y065434D01*
X014367Y065541D01*
X014367Y065216D02*
X014473Y065110D01*
X014473Y064896D01*
X014367Y064789D01*
X013940Y065216D01*
X014367Y065216D01*
X014367Y064789D02*
X013940Y064789D01*
X013833Y064896D01*
X013833Y065110D01*
X013940Y065216D01*
X008419Y042680D02*
X008526Y042573D01*
X008099Y042146D01*
X008206Y042039D01*
X008419Y042039D01*
X008526Y042146D01*
X008526Y042573D01*
X008419Y042680D02*
X008206Y042680D01*
X008099Y042573D01*
X008099Y042146D01*
X007882Y042146D02*
X007775Y042039D01*
X007561Y042039D01*
X007455Y042146D01*
X007455Y042360D02*
X007668Y042466D01*
X007775Y042466D01*
X007882Y042360D01*
X007882Y042146D01*
X007455Y042360D02*
X007455Y042680D01*
X007882Y042680D01*
X007237Y042680D02*
X007024Y042573D01*
X006810Y042360D01*
X007130Y042360D01*
X007237Y042253D01*
X007237Y042146D01*
X007130Y042039D01*
X006917Y042039D01*
X006810Y042146D01*
X006810Y042360D01*
X006595Y042146D02*
X006595Y042039D01*
X006488Y042039D01*
X006488Y042146D01*
X006595Y042146D01*
X006270Y042039D02*
X005843Y042039D01*
X006057Y042039D02*
X006057Y042680D01*
X005843Y042466D01*
X005950Y026180D02*
X006164Y026180D01*
X006270Y026073D01*
X005843Y025646D01*
X005950Y025539D01*
X006164Y025539D01*
X006270Y025646D01*
X006270Y026073D01*
X005843Y025646D01*
X005843Y026073D01*
X005950Y026180D01*
X006164Y026180D01*
X006270Y026073D01*
X006270Y025646D01*
X006164Y025539D01*
X005950Y025539D01*
X005843Y025646D01*
X005843Y026073D01*
X005950Y026180D01*
X006488Y025646D02*
X006595Y025646D01*
X006595Y025539D01*
X006488Y025539D01*
X006488Y025646D01*
X006595Y025646D01*
X006595Y025539D01*
X006488Y025539D01*
X006488Y025646D01*
X006810Y025646D02*
X007237Y026073D01*
X007237Y025646D01*
X007130Y025539D01*
X006917Y025539D01*
X006810Y025646D01*
X006810Y026073D01*
X006917Y026180D01*
X007130Y026180D01*
X007237Y026073D01*
X006810Y025646D01*
X006917Y025539D01*
X007130Y025539D01*
X007237Y025646D01*
X007237Y026073D01*
X007130Y026180D01*
X006917Y026180D01*
X006810Y026073D01*
X006810Y025646D01*
X007455Y025646D02*
X007882Y026073D01*
X007882Y025646D01*
X007775Y025539D01*
X007561Y025539D01*
X007455Y025646D01*
X007455Y026073D01*
X007561Y026180D01*
X007775Y026180D01*
X007882Y026073D01*
X007455Y025646D01*
X007561Y025539D01*
X007775Y025539D01*
X007882Y025646D01*
X007882Y026073D01*
X007775Y026180D01*
X007561Y026180D01*
X007455Y026073D01*
X007455Y025646D01*
X008099Y025646D02*
X008526Y026073D01*
X008526Y025646D01*
X008419Y025539D01*
X008206Y025539D01*
X008099Y025646D01*
X008099Y026073D01*
X008206Y026180D01*
X008419Y026180D01*
X008526Y026073D01*
X008099Y025646D01*
X008206Y025539D01*
X008419Y025539D01*
X008526Y025646D01*
X008526Y026073D01*
X008419Y026180D01*
X008206Y026180D01*
X008099Y026073D01*
X008099Y025646D01*
X013250Y020222D02*
X013143Y020115D01*
X013143Y019902D01*
X013250Y019795D01*
X013356Y019795D01*
X013463Y019902D01*
X013463Y020222D01*
X013250Y020222D02*
X013677Y020222D01*
X013783Y020115D01*
X013783Y019902D01*
X013677Y019795D01*
X013833Y019902D02*
X013833Y020115D01*
X013940Y020222D01*
X014367Y019795D01*
X014473Y019902D01*
X014473Y020115D01*
X014367Y020222D01*
X013940Y020222D01*
X014367Y019795D01*
X013940Y019795D01*
X013833Y019902D01*
X013833Y020115D01*
X013940Y020222D01*
X014367Y020222D01*
X014473Y020115D01*
X014473Y019902D01*
X014367Y019795D01*
X013940Y019795D01*
X013833Y019902D01*
X013940Y019578D02*
X014367Y019151D01*
X014473Y019257D01*
X014473Y019471D01*
X014367Y019578D01*
X013940Y019578D01*
X013833Y019471D01*
X013833Y019257D01*
X013940Y019151D01*
X014367Y019151D01*
X013940Y019578D01*
X014367Y019578D01*
X014473Y019471D01*
X014473Y019257D01*
X014367Y019151D01*
X013940Y019151D01*
X013833Y019257D01*
X013833Y019471D01*
X013940Y019578D01*
X013783Y019471D02*
X013677Y019578D01*
X013570Y019578D01*
X013463Y019471D01*
X013463Y019151D01*
X013677Y019151D01*
X013783Y019257D01*
X013783Y019471D01*
X013463Y019151D02*
X013250Y019364D01*
X013143Y019578D01*
X013250Y018933D02*
X013677Y018506D01*
X013783Y018613D01*
X013783Y018826D01*
X013677Y018933D01*
X013250Y018933D01*
X013143Y018826D01*
X013143Y018613D01*
X013250Y018506D01*
X013677Y018506D01*
X013833Y018613D02*
X013833Y018826D01*
X013940Y018933D01*
X014367Y018506D01*
X014473Y018613D01*
X014473Y018826D01*
X014367Y018933D01*
X013940Y018933D01*
X014367Y018506D01*
X013940Y018506D01*
X013833Y018613D01*
X013833Y018826D01*
X013940Y018933D01*
X014367Y018933D01*
X014473Y018826D01*
X014473Y018613D01*
X014367Y018506D01*
X013940Y018506D01*
X013833Y018613D01*
X013783Y018291D02*
X013677Y018291D01*
X013677Y018184D01*
X013783Y018184D01*
X013783Y018291D01*
X013677Y017966D02*
X013783Y017860D01*
X013783Y017646D01*
X013677Y017539D01*
X013250Y017966D01*
X013677Y017966D01*
X013833Y017860D02*
X013833Y017646D01*
X013940Y017539D01*
X014367Y017539D01*
X013940Y017966D01*
X014367Y017966D01*
X014473Y017860D01*
X014473Y017646D01*
X014367Y017539D01*
X013940Y017966D01*
X013833Y017860D01*
X013940Y017966D01*
X014367Y017966D01*
X014473Y017860D01*
X014473Y017646D01*
X014367Y017539D01*
X013940Y017539D01*
X013833Y017646D01*
X013833Y017860D01*
X013677Y017539D02*
X013250Y017539D01*
X013143Y017646D01*
X013143Y017860D01*
X013250Y017966D01*
X014367Y018184D02*
X014367Y018291D01*
X014473Y018291D01*
X014473Y018184D01*
X014367Y018184D01*
X014367Y018291D01*
X014473Y018291D01*
X014473Y018184D01*
X014367Y018184D01*
X015333Y017860D02*
X015333Y017646D01*
X015440Y017539D01*
X015867Y017539D01*
X015440Y017966D01*
X015867Y017966D01*
X015973Y017860D01*
X015973Y017646D01*
X015867Y017539D01*
X015440Y017966D02*
X015333Y017860D01*
X015867Y018184D02*
X015867Y018291D01*
X015973Y018291D01*
X015973Y018184D01*
X015867Y018184D01*
X015973Y018506D02*
X015973Y018933D01*
X015973Y018720D02*
X015333Y018720D01*
X015546Y018506D01*
X015653Y019151D02*
X015546Y019364D01*
X015546Y019471D01*
X015653Y019578D01*
X015867Y019578D01*
X015973Y019471D01*
X015973Y019257D01*
X015867Y019151D01*
X015653Y019151D02*
X015333Y019151D01*
X015333Y019578D01*
X015440Y019795D02*
X015333Y019902D01*
X015333Y020115D01*
X015440Y020222D01*
X015867Y019795D01*
X015973Y019902D01*
X015973Y020115D01*
X015867Y020222D01*
X015440Y020222D01*
X015440Y019795D02*
X015867Y019795D01*
X019333Y019902D02*
X019333Y020115D01*
X019440Y020222D01*
X019867Y019795D01*
X019973Y019902D01*
X019973Y020115D01*
X019867Y020222D01*
X019440Y020222D01*
X019333Y019902D02*
X019440Y019795D01*
X019867Y019795D01*
X019867Y019578D02*
X019973Y019471D01*
X019973Y019257D01*
X019867Y019151D01*
X019653Y019151D02*
X019546Y019364D01*
X019546Y019471D01*
X019653Y019578D01*
X019867Y019578D01*
X019653Y019151D02*
X019333Y019151D01*
X019333Y019578D01*
X019333Y018933D02*
X019333Y018506D01*
X019653Y018506D01*
X019546Y018720D01*
X019546Y018826D01*
X019653Y018933D01*
X019867Y018933D01*
X019973Y018826D01*
X019973Y018613D01*
X019867Y018506D01*
X019867Y018291D02*
X019973Y018291D01*
X019973Y018184D01*
X019867Y018184D01*
X019867Y018291D01*
X019867Y017966D02*
X019973Y017860D01*
X019973Y017646D01*
X019867Y017539D01*
X019440Y017966D01*
X019867Y017966D01*
X019867Y017539D02*
X019440Y017539D01*
X019333Y017646D01*
X019333Y017860D01*
X019440Y017966D01*
X021333Y017860D02*
X021333Y017646D01*
X021440Y017539D01*
X021867Y017539D01*
X021440Y017966D01*
X021867Y017966D01*
X021973Y017860D01*
X021973Y017646D01*
X021867Y017539D01*
X021440Y017966D02*
X021333Y017860D01*
X021867Y018184D02*
X021867Y018291D01*
X021973Y018291D01*
X021973Y018184D01*
X021867Y018184D01*
X021867Y018506D02*
X021973Y018506D01*
X021867Y018506D02*
X021440Y018933D01*
X021333Y018933D01*
X021333Y018506D01*
X021333Y019151D02*
X021653Y019151D01*
X021546Y019364D01*
X021546Y019471D01*
X021653Y019578D01*
X021867Y019578D01*
X021973Y019471D01*
X021973Y019257D01*
X021867Y019151D01*
X021333Y019151D02*
X021333Y019578D01*
X021440Y019795D02*
X021333Y019902D01*
X021333Y020115D01*
X021440Y020222D01*
X021867Y019795D01*
X021973Y019902D01*
X021973Y020115D01*
X021867Y020222D01*
X021440Y020222D01*
X021440Y019795D02*
X021867Y019795D01*
D12*
X021993Y027159D02*
X021653Y027499D01*
X022333Y027499D01*
X021993Y027839D01*
X021993Y027159D01*
X021333Y027599D02*
X020993Y027939D01*
X020993Y027259D01*
X020653Y027599D01*
X021333Y027599D01*
X020333Y027499D02*
X019993Y027839D01*
X019993Y027159D01*
X019653Y027499D01*
X020333Y027499D01*
X019333Y027599D02*
X018993Y027939D01*
X018993Y027259D01*
X018653Y027599D01*
X019333Y027599D01*
X016333Y027499D02*
X015653Y027499D01*
X015653Y027159D02*
X016333Y027839D01*
X015653Y027839D02*
X016333Y027159D01*
X022653Y027599D02*
X022993Y027259D01*
X022993Y027939D01*
X023333Y027599D01*
X022653Y027599D01*
X023653Y027499D02*
X023993Y027159D01*
X023993Y027839D01*
X024333Y027499D01*
X023653Y027499D01*
X027493Y031159D02*
X027153Y031499D01*
X027833Y031499D01*
X027493Y031839D01*
X027493Y031159D01*
X029153Y031499D02*
X029493Y031159D01*
X029493Y031839D01*
X029833Y031499D01*
X029153Y031499D01*
X030653Y031499D02*
X030993Y031839D01*
X031333Y031499D01*
X030993Y031159D01*
X030653Y031499D01*
X030993Y031499D02*
X030993Y031839D01*
X030993Y032159D02*
X030653Y032499D01*
X030993Y032839D01*
X031333Y032499D01*
X030993Y032159D01*
X030993Y032499D02*
X030993Y032839D01*
X029833Y033499D02*
X029493Y033839D01*
X029493Y033159D01*
X029153Y033499D01*
X029833Y033499D01*
X029493Y035159D02*
X029153Y035499D01*
X029493Y035839D01*
X029833Y035499D01*
X029493Y035159D01*
X029493Y035499D02*
X029493Y035839D01*
X029493Y036159D02*
X029153Y036499D01*
X029493Y036839D01*
X029833Y036499D01*
X029493Y036159D01*
X029493Y036499D02*
X029493Y036839D01*
X029493Y037159D02*
X029153Y037499D01*
X029493Y037839D01*
X029833Y037499D01*
X029493Y037159D01*
X029493Y037499D02*
X029493Y037839D01*
X029493Y039159D02*
X029153Y039499D01*
X029833Y039499D01*
X029493Y039839D01*
X029493Y039159D01*
X030653Y039499D02*
X030993Y039839D01*
X031333Y039499D01*
X030993Y039159D01*
X030653Y039499D01*
X030993Y039499D02*
X030993Y039839D01*
X030993Y040159D02*
X030653Y040499D01*
X030993Y040839D01*
X031333Y040499D01*
X030993Y040159D01*
X030993Y040499D02*
X030993Y040839D01*
X029833Y041499D02*
X029493Y041839D01*
X029493Y041159D01*
X029153Y041499D01*
X029833Y041499D01*
X029493Y043159D02*
X029153Y043499D01*
X029493Y043839D01*
X029833Y043499D01*
X029493Y043159D01*
X029493Y043499D02*
X029493Y043839D01*
X029493Y044159D02*
X029153Y044499D01*
X029493Y044839D01*
X029833Y044499D01*
X029493Y044159D01*
X029493Y044499D02*
X029493Y044839D01*
X029493Y045159D02*
X029153Y045499D01*
X029493Y045839D01*
X029833Y045499D01*
X029493Y045159D01*
X029493Y045499D02*
X029493Y045839D01*
X029493Y047159D02*
X029153Y047499D01*
X029833Y047499D01*
X029493Y047839D01*
X029493Y047159D01*
X030653Y047499D02*
X030993Y047839D01*
X031333Y047499D01*
X030993Y047159D01*
X030653Y047499D01*
X030993Y047499D02*
X030993Y047839D01*
X030993Y048159D02*
X030653Y048499D01*
X030993Y048839D01*
X031333Y048499D01*
X030993Y048159D01*
X030993Y048499D02*
X030993Y048839D01*
X029833Y049499D02*
X029493Y049839D01*
X029493Y049159D01*
X029153Y049499D01*
X029833Y049499D01*
X029493Y051159D02*
X029153Y051499D01*
X029493Y051839D01*
X029833Y051499D01*
X029493Y051159D01*
X029493Y051499D02*
X029493Y051839D01*
X029493Y052159D02*
X029153Y052499D01*
X029493Y052839D01*
X029833Y052499D01*
X029493Y052159D01*
X029493Y052499D02*
X029493Y052839D01*
X029493Y053159D02*
X029153Y053499D01*
X029493Y053839D01*
X029833Y053499D01*
X029493Y053159D01*
X029493Y053499D02*
X029493Y053839D01*
X029493Y055159D02*
X029153Y055499D01*
X029833Y055499D01*
X029493Y055839D01*
X029493Y055159D01*
X030653Y055499D02*
X030993Y055839D01*
X031333Y055499D01*
X030993Y055159D01*
X030653Y055499D01*
X030993Y055499D02*
X030993Y055839D01*
X030993Y056159D02*
X030653Y056499D01*
X030993Y056839D01*
X031333Y056499D01*
X030993Y056159D01*
X030993Y056499D02*
X030993Y056839D01*
X029833Y057499D02*
X029493Y057839D01*
X029493Y057159D01*
X029153Y057499D01*
X029833Y057499D01*
X027833Y057499D02*
X027493Y057839D01*
X027493Y057159D01*
X027153Y057499D01*
X027833Y057499D01*
X027493Y055839D02*
X027493Y055159D01*
X027153Y055499D01*
X027833Y055499D01*
X027493Y055839D01*
X024333Y056999D02*
X023993Y057339D01*
X023993Y056659D01*
X023653Y056999D01*
X024333Y056999D01*
X023333Y057099D02*
X022993Y057439D01*
X022993Y056759D01*
X022653Y057099D01*
X023333Y057099D01*
X022333Y056999D02*
X021993Y057339D01*
X021993Y056659D01*
X021653Y056999D01*
X022333Y056999D01*
X021333Y057099D02*
X020993Y057439D01*
X020993Y056759D01*
X020653Y057099D01*
X021333Y057099D01*
X020333Y056999D02*
X019993Y057339D01*
X019993Y056659D01*
X019653Y056999D01*
X020333Y056999D01*
X019333Y057099D02*
X018993Y057439D01*
X018993Y056759D01*
X018653Y057099D01*
X019333Y057099D01*
X016333Y057659D02*
X015653Y058339D01*
X015653Y057999D02*
X016333Y057999D01*
X016333Y058339D02*
X015653Y057659D01*
X027153Y049499D02*
X027493Y049159D01*
X027493Y049839D01*
X027833Y049499D01*
X027153Y049499D01*
X027493Y047839D02*
X027493Y047159D01*
X027153Y047499D01*
X027833Y047499D01*
X027493Y047839D01*
X023833Y045839D02*
X023833Y045159D01*
X023153Y045159D01*
X023153Y045839D01*
X023493Y045839D01*
X023833Y045839D01*
X023493Y045839D02*
X023493Y045499D01*
X022833Y045159D02*
X022153Y045159D01*
X022153Y045839D01*
X022493Y045839D01*
X022833Y045839D01*
X022833Y045159D01*
X022493Y045499D02*
X022493Y045839D01*
X021833Y045839D02*
X021833Y045159D01*
X021153Y045159D01*
X021153Y045839D01*
X021493Y045839D01*
X021833Y045839D01*
X021493Y045839D02*
X021493Y045499D01*
X020833Y045159D02*
X020153Y045159D01*
X020153Y045839D01*
X020493Y045839D01*
X020833Y045839D01*
X020833Y045159D01*
X020493Y045499D02*
X020493Y045839D01*
X019833Y045839D02*
X019833Y045159D01*
X019153Y045159D01*
X019153Y045839D01*
X019493Y045839D01*
X019833Y045839D01*
X019493Y045839D02*
X019493Y045499D01*
X018833Y045159D02*
X018153Y045159D01*
X018153Y045839D01*
X018493Y045839D01*
X018833Y045839D01*
X018833Y045159D01*
X018493Y045499D02*
X018493Y045839D01*
X017833Y045839D02*
X017833Y045159D01*
X017153Y045159D01*
X017153Y045839D01*
X017493Y045839D01*
X017833Y045839D01*
X017493Y045839D02*
X017493Y045499D01*
X016833Y045159D02*
X016153Y045159D01*
X016153Y045839D01*
X016493Y045839D01*
X016833Y045839D01*
X016833Y045159D01*
X016493Y045499D02*
X016493Y045839D01*
X018903Y043839D02*
X019583Y043159D01*
X019583Y043839D02*
X018903Y043159D01*
X016333Y043205D02*
X015653Y042525D01*
X016333Y042525D01*
X015653Y043205D01*
X016333Y043205D01*
X016333Y041473D02*
X015653Y041473D01*
X016333Y040793D01*
X015653Y040793D01*
X016333Y041473D01*
X016493Y038839D02*
X016153Y038839D01*
X016153Y038159D01*
X016833Y038159D01*
X016833Y038839D01*
X016493Y038839D01*
X016493Y038499D01*
X017153Y038159D02*
X017153Y038839D01*
X017493Y038839D01*
X017833Y038839D01*
X017833Y038159D01*
X017153Y038159D01*
X017493Y038499D02*
X017493Y038839D01*
X018153Y038839D02*
X018153Y038159D01*
X018833Y038159D01*
X018833Y038839D01*
X018493Y038839D01*
X018153Y038839D01*
X018493Y038839D02*
X018493Y038499D01*
X019153Y038159D02*
X019153Y038839D01*
X019493Y038839D01*
X019833Y038839D01*
X019833Y038159D01*
X019153Y038159D01*
X019493Y038499D02*
X019493Y038839D01*
X020153Y038839D02*
X020153Y038159D01*
X020833Y038159D01*
X020833Y038839D01*
X020493Y038839D01*
X020153Y038839D01*
X020493Y038839D02*
X020493Y038499D01*
X021153Y038159D02*
X021153Y038839D01*
X021493Y038839D01*
X021833Y038839D01*
X021833Y038159D01*
X021153Y038159D01*
X021493Y038499D02*
X021493Y038839D01*
X022153Y038839D02*
X022493Y038839D01*
X022833Y038839D01*
X022833Y038159D01*
X022153Y038159D01*
X022153Y038839D01*
X022493Y038839D02*
X022493Y038499D01*
X023153Y038159D02*
X023153Y038839D01*
X023493Y038839D01*
X023833Y038839D01*
X023833Y038159D01*
X023153Y038159D01*
X023493Y038499D02*
X023493Y038839D01*
X027153Y039499D02*
X027493Y039159D01*
X027493Y039839D01*
X027833Y039499D01*
X027153Y039499D01*
X027493Y041159D02*
X027153Y041499D01*
X027833Y041499D01*
X027493Y041839D01*
X027493Y041159D01*
X023708Y044249D02*
X023028Y044249D01*
X023368Y044589D02*
X023368Y043909D01*
X022458Y043659D02*
X021778Y044339D01*
X022458Y044339D02*
X021778Y043659D01*
X019833Y040839D02*
X019153Y040159D01*
X019153Y040839D02*
X019833Y040159D01*
X027153Y033499D02*
X027493Y033159D01*
X027493Y033839D01*
X027833Y033499D01*
X027153Y033499D01*
X029493Y029839D02*
X029153Y029499D01*
X029493Y029159D01*
X029833Y029499D01*
X029493Y029839D01*
X029493Y029499D01*
X029493Y028839D02*
X029153Y028499D01*
X029493Y028159D01*
X029833Y028499D01*
X029493Y028839D01*
X029493Y028499D01*
X029493Y027839D02*
X029153Y027499D01*
X029493Y027159D01*
X029833Y027499D01*
X029493Y027839D01*
X029493Y027499D01*
X032153Y027499D02*
X032493Y027159D01*
X032833Y027499D01*
X032493Y027839D01*
X032153Y027499D01*
X032493Y027499D02*
X032493Y027839D01*
X032493Y028159D02*
X032153Y028499D01*
X032493Y028839D01*
X032833Y028499D01*
X032493Y028159D01*
X032493Y028499D02*
X032493Y028839D01*
X032493Y029159D02*
X032153Y029499D01*
X032493Y029839D01*
X032833Y029499D01*
X032493Y029159D01*
X032493Y029499D02*
X032493Y029839D01*
X034653Y029659D02*
X034653Y030339D01*
X035333Y029659D01*
X035333Y030339D01*
X034653Y029659D01*
X035493Y027839D02*
X035493Y027159D01*
X035153Y027499D01*
X035833Y027499D01*
X035493Y027839D01*
X034833Y026839D02*
X034153Y026159D01*
X034153Y026839D02*
X034833Y026159D01*
X036153Y026159D02*
X036833Y026839D01*
X036153Y026839D02*
X036833Y026159D01*
X037493Y027159D02*
X037153Y027499D01*
X037833Y027499D01*
X037493Y027839D01*
X037493Y027159D01*
X038153Y026839D02*
X038833Y026159D01*
X038833Y026839D02*
X038153Y026159D01*
X039493Y027159D02*
X039153Y027499D01*
X039833Y027499D01*
X039493Y027839D01*
X039493Y027159D01*
X041153Y027499D02*
X041493Y027159D01*
X041493Y027839D01*
X041833Y027499D01*
X041153Y027499D01*
X043153Y027159D02*
X043833Y027839D01*
X044153Y028159D02*
X044833Y028839D01*
X045153Y029159D02*
X045833Y029839D01*
X045153Y029839D02*
X045833Y029159D01*
X044833Y030159D02*
X044153Y030839D01*
X043833Y031159D02*
X043153Y031839D01*
X043833Y031839D02*
X043153Y031159D01*
X044153Y030159D02*
X044833Y030839D01*
X045153Y031159D02*
X045833Y031839D01*
X045153Y031839D02*
X045833Y031159D01*
X047053Y031339D02*
X047393Y030999D01*
X047393Y030659D01*
X047393Y030999D02*
X047733Y031339D01*
X047053Y031339D01*
X050153Y031999D02*
X050493Y031659D01*
X050493Y032339D01*
X050833Y031999D01*
X050153Y031999D01*
X050493Y029339D02*
X050493Y028659D01*
X050153Y028999D01*
X050833Y028999D01*
X050493Y029339D01*
X054153Y030234D02*
X054833Y030914D01*
X054493Y030914D02*
X054493Y030234D01*
X054833Y030234D02*
X054153Y030914D01*
X054153Y033234D02*
X054833Y033914D01*
X054493Y033914D02*
X054493Y033234D01*
X054833Y033234D02*
X054153Y033914D01*
X050833Y036999D02*
X050493Y037339D01*
X050493Y036659D01*
X050153Y036999D01*
X050833Y036999D01*
X054153Y037447D02*
X054833Y038127D01*
X054493Y038127D02*
X054493Y037447D01*
X054833Y037447D02*
X054153Y038127D01*
X054153Y040447D02*
X054833Y041127D01*
X054493Y041127D02*
X054493Y040447D01*
X054833Y040447D02*
X054153Y041127D01*
X050833Y039999D02*
X050493Y040339D01*
X050493Y039659D01*
X050153Y039999D01*
X050833Y039999D01*
X047733Y039339D02*
X047393Y038999D01*
X047393Y038659D01*
X047393Y038999D02*
X047053Y039339D01*
X047733Y039339D01*
X045833Y039159D02*
X045153Y039839D01*
X045833Y039839D02*
X045153Y039159D01*
X044833Y038839D02*
X044153Y038159D01*
X043833Y037839D02*
X043153Y037159D01*
X043153Y037839D02*
X043833Y037159D01*
X044153Y036839D02*
X044833Y036159D01*
X045153Y035839D02*
X045833Y035159D01*
X045833Y035839D02*
X045153Y035159D01*
X044833Y034839D02*
X044153Y034159D01*
X044153Y034839D02*
X044833Y034159D01*
X043833Y035159D02*
X043153Y035839D01*
X043833Y035839D02*
X043153Y035159D01*
X041833Y035499D02*
X041493Y035839D01*
X041493Y035159D01*
X041153Y035499D01*
X041833Y035499D01*
X039833Y035499D02*
X039493Y035839D01*
X039493Y035159D01*
X039153Y035499D01*
X039833Y035499D01*
X038833Y034839D02*
X038153Y034159D01*
X038153Y034839D02*
X038833Y034159D01*
X037493Y035159D02*
X037153Y035499D01*
X037833Y035499D01*
X037493Y035839D01*
X037493Y035159D01*
X036833Y034839D02*
X036153Y034159D01*
X036153Y034839D02*
X036833Y034159D01*
X035493Y035159D02*
X035153Y035499D01*
X035833Y035499D01*
X035493Y035839D01*
X035493Y035159D01*
X034833Y034839D02*
X034153Y034159D01*
X034153Y034839D02*
X034833Y034159D01*
X034653Y033339D02*
X034653Y032659D01*
X035333Y033339D01*
X035333Y032659D01*
X034653Y033339D01*
X032493Y035159D02*
X032153Y035499D01*
X032493Y035839D01*
X032833Y035499D01*
X032493Y035159D01*
X032493Y035499D02*
X032493Y035839D01*
X032493Y036159D02*
X032153Y036499D01*
X032493Y036839D01*
X032833Y036499D01*
X032493Y036159D01*
X032493Y036499D02*
X032493Y036839D01*
X032493Y037159D02*
X032153Y037499D01*
X032493Y037839D01*
X032833Y037499D01*
X032493Y037159D01*
X032493Y037499D02*
X032493Y037839D01*
X034653Y037659D02*
X034653Y038339D01*
X035333Y037659D01*
X035333Y038339D01*
X034653Y037659D01*
X037153Y038499D02*
X037493Y038159D01*
X037493Y038839D01*
X037833Y038499D01*
X037153Y038499D01*
X037493Y040159D02*
X037153Y040499D01*
X037833Y040499D01*
X037493Y040839D01*
X037493Y040159D01*
X035333Y040659D02*
X035333Y041339D01*
X034653Y040659D01*
X034653Y041339D01*
X035333Y040659D01*
X034833Y042159D02*
X034153Y042839D01*
X034833Y042839D02*
X034153Y042159D01*
X035493Y043159D02*
X035153Y043499D01*
X035833Y043499D01*
X035493Y043839D01*
X035493Y043159D01*
X036153Y042839D02*
X036833Y042159D01*
X036833Y042839D02*
X036153Y042159D01*
X037493Y043159D02*
X037153Y043499D01*
X037833Y043499D01*
X037493Y043839D01*
X037493Y043159D01*
X038153Y042839D02*
X038833Y042159D01*
X038833Y042839D02*
X038153Y042159D01*
X039493Y043159D02*
X039153Y043499D01*
X039833Y043499D01*
X039493Y043839D01*
X039493Y043159D01*
X041153Y043499D02*
X041493Y043159D01*
X041493Y043839D01*
X041833Y043499D01*
X041153Y043499D01*
X043153Y043159D02*
X043833Y043839D01*
X044153Y044159D02*
X044833Y044839D01*
X045153Y045159D02*
X045833Y045839D01*
X045153Y045839D02*
X045833Y045159D01*
X045833Y043839D02*
X045153Y043159D01*
X044833Y042839D02*
X044153Y042159D01*
X044153Y042839D02*
X044833Y042159D01*
X043833Y043159D02*
X043153Y043839D01*
X043153Y045159D02*
X043833Y045839D01*
X044153Y046159D02*
X044833Y046839D01*
X045153Y047159D02*
X045833Y047839D01*
X045153Y047839D02*
X045833Y047159D01*
X047053Y047339D02*
X047393Y046999D01*
X047393Y046659D01*
X047393Y046999D02*
X047733Y047339D01*
X047053Y047339D01*
X044833Y046159D02*
X044153Y046839D01*
X043833Y047159D02*
X043153Y047839D01*
X043833Y047839D02*
X043153Y047159D01*
X043153Y045839D02*
X043833Y045159D01*
X044153Y044839D02*
X044833Y044159D01*
X045153Y043839D02*
X045833Y043159D01*
X043833Y039839D02*
X043153Y039159D01*
X043153Y039839D02*
X043833Y039159D01*
X044153Y038839D02*
X044833Y038159D01*
X045153Y037839D02*
X045833Y037159D01*
X045833Y037839D02*
X045153Y037159D01*
X044833Y036839D02*
X044153Y036159D01*
X040833Y037999D02*
X040153Y037999D01*
X040493Y038339D01*
X040493Y037659D01*
X040833Y037999D01*
X040493Y038659D02*
X040833Y038999D01*
X040153Y038999D01*
X040493Y039339D01*
X040493Y038659D01*
X040493Y039659D02*
X040833Y039999D01*
X040153Y039999D01*
X040493Y040339D01*
X040493Y039659D01*
X040493Y045659D02*
X040833Y045999D01*
X040153Y045999D01*
X040493Y046339D01*
X040493Y045659D01*
X040493Y046659D02*
X040833Y046999D01*
X040153Y046999D01*
X040493Y047339D01*
X040493Y046659D01*
X040493Y047659D02*
X040833Y047999D01*
X040153Y047999D01*
X040493Y048339D01*
X040493Y047659D01*
X037833Y048499D02*
X037493Y048839D01*
X037493Y048159D01*
X037153Y048499D01*
X037833Y048499D01*
X038153Y050159D02*
X038833Y050839D01*
X038153Y050839D02*
X038833Y050159D01*
X039493Y051159D02*
X039153Y051499D01*
X039833Y051499D01*
X039493Y051839D01*
X039493Y051159D01*
X041153Y051499D02*
X041493Y051159D01*
X041493Y051839D01*
X041833Y051499D01*
X041153Y051499D01*
X043153Y051159D02*
X043833Y051839D01*
X044153Y052159D02*
X044833Y052839D01*
X045153Y053159D02*
X045833Y053839D01*
X045153Y053839D02*
X045833Y053159D01*
X045833Y051839D02*
X045153Y051159D01*
X044833Y050839D02*
X044153Y050159D01*
X044153Y050839D02*
X044833Y050159D01*
X043833Y051159D02*
X043153Y051839D01*
X043153Y053159D02*
X043833Y053839D01*
X044153Y054159D02*
X044833Y054839D01*
X045153Y055159D02*
X045833Y055839D01*
X045153Y055839D02*
X045833Y055159D01*
X047053Y055339D02*
X047393Y054999D01*
X047393Y054659D01*
X047393Y054999D02*
X047733Y055339D01*
X047053Y055339D01*
X044833Y054159D02*
X044153Y054839D01*
X043833Y055159D02*
X043153Y055839D01*
X043833Y055839D02*
X043153Y055159D01*
X043153Y053839D02*
X043833Y053159D01*
X044153Y052839D02*
X044833Y052159D01*
X045153Y051839D02*
X045833Y051159D01*
X050153Y052999D02*
X050493Y052659D01*
X050493Y053339D01*
X050833Y052999D01*
X050153Y052999D01*
X050493Y055659D02*
X050153Y055999D01*
X050833Y055999D01*
X050493Y056339D01*
X050493Y055659D01*
X054153Y054764D02*
X054833Y054084D01*
X054493Y054084D02*
X054493Y054764D01*
X054833Y054764D02*
X054153Y054084D01*
X054153Y051764D02*
X054833Y051084D01*
X054493Y051084D02*
X054493Y051764D01*
X054833Y051764D02*
X054153Y051084D01*
X050833Y047999D02*
X050493Y048339D01*
X050493Y047659D01*
X050153Y047999D01*
X050833Y047999D01*
X050493Y045339D02*
X050493Y044659D01*
X050153Y044999D01*
X050833Y044999D01*
X050493Y045339D01*
X054153Y044552D02*
X054833Y043872D01*
X054493Y043872D02*
X054493Y044552D01*
X054833Y044552D02*
X054153Y043872D01*
X054153Y046872D02*
X054833Y047552D01*
X054493Y047552D02*
X054493Y046872D01*
X054833Y046872D02*
X054153Y047552D01*
X054653Y057659D02*
X055333Y058339D01*
X055333Y057999D02*
X054653Y057999D01*
X054653Y058339D02*
X055333Y057659D01*
X040833Y055999D02*
X040493Y055659D01*
X040493Y056339D01*
X040153Y055999D01*
X040833Y055999D01*
X040493Y055339D02*
X040153Y054999D01*
X040833Y054999D01*
X040493Y054659D01*
X040493Y055339D01*
X040493Y054339D02*
X040153Y053999D01*
X040833Y053999D01*
X040493Y053659D01*
X040493Y054339D01*
X037833Y054499D02*
X037493Y054839D01*
X037493Y054159D01*
X037153Y054499D01*
X037833Y054499D01*
X037493Y056159D02*
X037153Y056499D01*
X037833Y056499D01*
X037493Y056839D01*
X037493Y056159D01*
X035333Y056659D02*
X035333Y057339D01*
X034653Y056659D01*
X034653Y057339D01*
X035333Y056659D01*
X034833Y058159D02*
X034153Y058839D01*
X034833Y058839D02*
X034153Y058159D01*
X036153Y058159D02*
X036833Y058839D01*
X036153Y058839D02*
X036833Y058159D01*
X038153Y058159D02*
X038833Y058839D01*
X038153Y058839D02*
X038833Y058159D01*
X035333Y054339D02*
X034653Y053659D01*
X034653Y054339D01*
X035333Y053659D01*
X035333Y054339D01*
X032833Y053499D02*
X032493Y053159D01*
X032153Y053499D01*
X032493Y053839D01*
X032833Y053499D01*
X032493Y053499D02*
X032493Y053839D01*
X032493Y052839D02*
X032153Y052499D01*
X032493Y052159D01*
X032833Y052499D01*
X032493Y052839D01*
X032493Y052499D01*
X032493Y051839D02*
X032153Y051499D01*
X032493Y051159D01*
X032833Y051499D01*
X032493Y051839D01*
X032493Y051499D01*
X034153Y050839D02*
X034833Y050159D01*
X034833Y050839D02*
X034153Y050159D01*
X034653Y049339D02*
X034653Y048659D01*
X035333Y049339D01*
X035333Y048659D01*
X034653Y049339D01*
X036153Y050159D02*
X036833Y050839D01*
X036153Y050839D02*
X036833Y050159D01*
X037493Y051159D02*
X037153Y051499D01*
X037833Y051499D01*
X037493Y051839D01*
X037493Y051159D01*
X035833Y051499D02*
X035493Y051839D01*
X035493Y051159D01*
X035153Y051499D01*
X035833Y051499D01*
X037493Y046839D02*
X037493Y046159D01*
X037153Y046499D01*
X037833Y046499D01*
X037493Y046839D01*
X035333Y046339D02*
X035333Y045659D01*
X034653Y046339D01*
X034653Y045659D01*
X035333Y046339D01*
X032833Y045499D02*
X032493Y045159D01*
X032153Y045499D01*
X032493Y045839D01*
X032833Y045499D01*
X032493Y045499D02*
X032493Y045839D01*
X032493Y044839D02*
X032153Y044499D01*
X032493Y044159D01*
X032833Y044499D01*
X032493Y044839D01*
X032493Y044499D01*
X032493Y043839D02*
X032153Y043499D01*
X032493Y043159D01*
X032833Y043499D01*
X032493Y043839D01*
X032493Y043499D01*
X037493Y032839D02*
X037493Y032159D01*
X037153Y032499D01*
X037833Y032499D01*
X037493Y032839D01*
X037493Y030839D02*
X037493Y030159D01*
X037153Y030499D01*
X037833Y030499D01*
X037493Y030839D01*
X040153Y030999D02*
X040493Y031339D01*
X040493Y030659D01*
X040833Y030999D01*
X040153Y030999D01*
X040493Y030339D02*
X040153Y029999D01*
X040833Y029999D01*
X040493Y029659D01*
X040493Y030339D01*
X040493Y031659D02*
X040833Y031999D01*
X040153Y031999D01*
X040493Y032339D01*
X040493Y031659D01*
X043153Y029839D02*
X043833Y029159D01*
X044153Y028839D02*
X044833Y028159D01*
X045153Y027839D02*
X045833Y027159D01*
X045833Y027839D02*
X045153Y027159D01*
X043833Y027159D02*
X043153Y027839D01*
X043153Y029159D02*
X043833Y029839D01*
X054653Y027839D02*
X055333Y027159D01*
X055333Y027499D02*
X054653Y027499D01*
X054653Y027159D02*
X055333Y027839D01*
X071601Y042451D02*
X073901Y042451D01*
X075401Y042451D01*
X078501Y042451D01*
X078501Y043601D01*
X078501Y044751D01*
X078501Y045901D01*
X078501Y047051D01*
X078501Y048201D01*
X078501Y049351D01*
X078501Y050501D01*
X078501Y051651D01*
X078501Y052801D01*
X078501Y053951D01*
X078501Y055101D01*
X081601Y055101D01*
X081601Y053951D01*
X081601Y052801D01*
X081601Y051651D01*
X081601Y050501D01*
X081601Y049351D01*
X081601Y048201D01*
X081601Y047051D01*
X081601Y045901D01*
X081601Y044751D01*
X081601Y043601D01*
X081601Y042451D01*
X083901Y042451D01*
X088501Y042451D01*
X088501Y045901D01*
X088501Y044751D01*
X088501Y043601D01*
X083901Y043601D01*
X083901Y042451D01*
X082801Y042691D02*
X082801Y043351D01*
X082471Y043021D01*
X082911Y043021D01*
X082801Y043841D02*
X082801Y044501D01*
X082471Y044171D01*
X082911Y044171D01*
X082801Y044991D02*
X082581Y044991D01*
X082471Y045101D01*
X082471Y045211D01*
X082581Y045321D01*
X082801Y045321D01*
X082911Y045211D01*
X082911Y045101D01*
X082801Y044991D01*
X082801Y045321D02*
X082911Y045431D01*
X082911Y045541D01*
X082801Y045651D01*
X082581Y045651D01*
X082471Y045541D01*
X082471Y045431D01*
X082581Y045321D01*
X082621Y046141D02*
X082181Y046141D01*
X082401Y046141D02*
X082401Y046801D01*
X082181Y046581D01*
X082825Y046691D02*
X082935Y046801D01*
X083156Y046801D01*
X083266Y046691D01*
X083266Y046581D01*
X082825Y046141D01*
X083266Y046141D01*
X083901Y045901D02*
X081601Y045901D01*
X078501Y045901D01*
X075401Y045901D01*
X075401Y044751D01*
X075401Y043601D01*
X075401Y042451D01*
X075166Y042691D02*
X074725Y042691D01*
X074521Y042691D02*
X074081Y042691D01*
X074301Y042691D02*
X074301Y043351D01*
X074081Y043131D01*
X073901Y043601D02*
X073901Y042451D01*
X074725Y043131D02*
X074945Y043351D01*
X074945Y042691D01*
X076081Y042691D02*
X076521Y042691D01*
X076301Y042691D02*
X076301Y043351D01*
X076081Y043131D01*
X076725Y043241D02*
X076835Y043351D01*
X077056Y043351D01*
X077166Y043241D01*
X077166Y043131D01*
X077056Y043021D01*
X077166Y042911D01*
X077166Y042801D01*
X077056Y042691D01*
X076835Y042691D01*
X076725Y042801D01*
X076945Y043021D02*
X077056Y043021D01*
X077370Y042801D02*
X077480Y042691D01*
X077700Y042691D01*
X077810Y042801D01*
X077810Y043241D01*
X077370Y042801D01*
X077370Y043241D01*
X077480Y043351D01*
X077700Y043351D01*
X077810Y043241D01*
X077700Y043841D02*
X077810Y043951D01*
X077810Y044061D01*
X077700Y044171D01*
X077370Y044171D01*
X077370Y043951D01*
X077480Y043841D01*
X077700Y043841D01*
X077370Y044171D02*
X077590Y044391D01*
X077810Y044501D01*
X077466Y044991D02*
X077025Y044991D01*
X077466Y045431D01*
X077466Y045541D01*
X077356Y045651D01*
X077135Y045651D01*
X077025Y045541D01*
X076821Y045541D02*
X076821Y045431D01*
X076711Y045321D01*
X076491Y045321D01*
X076381Y045431D01*
X076381Y045541D01*
X076491Y045651D01*
X076711Y045651D01*
X076821Y045541D01*
X076711Y045321D02*
X076821Y045211D01*
X076821Y045101D01*
X076711Y044991D01*
X076491Y044991D01*
X076381Y045101D01*
X076381Y045211D01*
X076491Y045321D01*
X076301Y044501D02*
X076301Y043841D01*
X076081Y043841D02*
X076521Y043841D01*
X076725Y043841D02*
X077166Y044281D01*
X077166Y044391D01*
X077056Y044501D01*
X076835Y044501D01*
X076725Y044391D01*
X076301Y044501D02*
X076081Y044281D01*
X076725Y043841D02*
X077166Y043841D01*
X078501Y043601D02*
X075401Y043601D01*
X073901Y043601D01*
X073901Y044751D01*
X075401Y044751D01*
X078501Y044751D01*
X081601Y044751D01*
X083901Y044751D01*
X083901Y043601D01*
X081601Y043601D01*
X078501Y043601D01*
X078881Y043951D02*
X078991Y043841D01*
X079211Y043841D01*
X079321Y043951D01*
X079321Y044061D01*
X079211Y044171D01*
X079101Y044171D01*
X079211Y044171D02*
X079321Y044281D01*
X079321Y044391D01*
X079211Y044501D01*
X078991Y044501D01*
X078881Y044391D01*
X078881Y044991D02*
X079321Y045431D01*
X079321Y045541D01*
X079211Y045651D01*
X078991Y045651D01*
X078881Y045541D01*
X078881Y044991D02*
X079321Y044991D01*
X079525Y044991D02*
X079635Y044991D01*
X079635Y045101D01*
X079525Y045101D01*
X079525Y044991D01*
X079848Y045101D02*
X080288Y045541D01*
X080288Y045101D01*
X080178Y044991D01*
X079958Y044991D01*
X079848Y045101D01*
X079848Y045541D01*
X079958Y045651D01*
X080178Y045651D01*
X080288Y045541D01*
X080492Y045541D02*
X080492Y045431D01*
X080602Y045321D01*
X080822Y045321D01*
X080932Y045211D01*
X080932Y045101D01*
X080822Y044991D01*
X080602Y044991D01*
X080492Y045101D01*
X080492Y045211D01*
X080602Y045321D01*
X080822Y045321D02*
X080932Y045431D01*
X080932Y045541D01*
X080822Y045651D01*
X080602Y045651D01*
X080492Y045541D01*
X080492Y046141D02*
X080932Y046581D01*
X080932Y046691D01*
X080822Y046801D01*
X080602Y046801D01*
X080492Y046691D01*
X080068Y046801D02*
X080068Y046141D01*
X079848Y046141D02*
X080288Y046141D01*
X080492Y046141D02*
X080932Y046141D01*
X080068Y046801D02*
X079848Y046581D01*
X079635Y046251D02*
X079635Y046141D01*
X079525Y046141D01*
X079525Y046251D01*
X079635Y046251D01*
X079321Y046141D02*
X078881Y046141D01*
X079101Y046141D02*
X079101Y046801D01*
X078881Y046581D01*
X078501Y047051D02*
X081601Y047051D01*
X083901Y047051D01*
X083901Y045901D01*
X083901Y044751D01*
X088501Y044751D01*
X088501Y045901D02*
X088501Y047051D01*
X088501Y048201D01*
X088501Y049351D01*
X088501Y050501D01*
X088501Y051651D01*
X088501Y052801D01*
X088501Y053951D01*
X088501Y055101D01*
X088501Y056251D01*
X087674Y056001D02*
X087674Y055341D01*
X087344Y055341D01*
X087234Y055451D01*
X087234Y055671D01*
X087344Y055781D01*
X087674Y055781D01*
X087030Y055671D02*
X086919Y055781D01*
X086699Y055781D01*
X086589Y055671D01*
X086589Y055451D01*
X086699Y055341D01*
X086919Y055341D01*
X087030Y055561D02*
X086589Y055561D01*
X086380Y055781D02*
X086160Y055781D01*
X086270Y055891D02*
X086270Y055451D01*
X086380Y055341D01*
X085955Y055341D02*
X085625Y055341D01*
X085515Y055451D01*
X085625Y055561D01*
X085955Y055561D01*
X085955Y055671D02*
X085955Y055341D01*
X085955Y055671D02*
X085845Y055781D01*
X085625Y055781D01*
X085195Y056001D02*
X085195Y055341D01*
X085085Y055341D02*
X085305Y055341D01*
X085331Y054851D02*
X085331Y054741D01*
X085551Y054521D01*
X085551Y054191D01*
X085551Y054521D02*
X085771Y054741D01*
X085771Y054851D01*
X085975Y054851D02*
X085975Y054191D01*
X086416Y054191D01*
X086620Y054301D02*
X086730Y054191D01*
X086950Y054191D01*
X087060Y054301D01*
X087060Y054411D01*
X086950Y054521D01*
X086730Y054521D01*
X086620Y054631D01*
X086620Y054741D01*
X086730Y054851D01*
X086950Y054851D01*
X087060Y054741D01*
X086416Y054851D02*
X085975Y054851D01*
X085975Y054521D02*
X086195Y054521D01*
X085975Y053701D02*
X085975Y053041D01*
X086416Y053041D01*
X086620Y053151D02*
X086730Y053041D01*
X086950Y053041D01*
X087060Y053151D01*
X087060Y053261D01*
X086950Y053371D01*
X086730Y053371D01*
X086620Y053481D01*
X086620Y053591D01*
X086730Y053701D01*
X086950Y053701D01*
X087060Y053591D01*
X086416Y053701D02*
X085975Y053701D01*
X085771Y053701D02*
X085771Y053591D01*
X085551Y053371D01*
X085551Y053041D01*
X085551Y053371D02*
X085331Y053591D01*
X085331Y053701D01*
X085975Y053371D02*
X086195Y053371D01*
X085975Y052551D02*
X085975Y051891D01*
X086416Y051891D01*
X086620Y052001D02*
X086730Y051891D01*
X086950Y051891D01*
X087060Y052001D01*
X087060Y052111D01*
X086950Y052221D01*
X086730Y052221D01*
X086620Y052331D01*
X086620Y052441D01*
X086730Y052551D01*
X086950Y052551D01*
X087060Y052441D01*
X086416Y052551D02*
X085975Y052551D01*
X085771Y052551D02*
X085771Y052441D01*
X085551Y052221D01*
X085551Y051891D01*
X085551Y052221D02*
X085331Y052441D01*
X085331Y052551D01*
X085975Y052221D02*
X086195Y052221D01*
X085975Y051401D02*
X085975Y050741D01*
X086416Y050741D01*
X086620Y050851D02*
X086730Y050741D01*
X086950Y050741D01*
X087060Y050851D01*
X087060Y050961D01*
X086950Y051071D01*
X086730Y051071D01*
X086620Y051181D01*
X086620Y051291D01*
X086730Y051401D01*
X086950Y051401D01*
X087060Y051291D01*
X086416Y051401D02*
X085975Y051401D01*
X085771Y051401D02*
X085771Y051291D01*
X085551Y051071D01*
X085551Y050741D01*
X085551Y051071D02*
X085331Y051291D01*
X085331Y051401D01*
X085975Y051071D02*
X086195Y051071D01*
X086085Y050251D02*
X085975Y050141D01*
X085975Y049701D01*
X086085Y049591D01*
X086306Y049591D01*
X086416Y049701D01*
X086416Y050141D01*
X086306Y050251D01*
X086085Y050251D01*
X085771Y050251D02*
X085771Y049591D01*
X085331Y050251D01*
X085331Y049591D01*
X085331Y049101D02*
X085331Y048991D01*
X085551Y048771D01*
X085551Y048441D01*
X085551Y048771D02*
X085771Y048991D01*
X085771Y049101D01*
X085975Y049101D02*
X085975Y048441D01*
X086416Y048441D01*
X086620Y048551D02*
X086730Y048441D01*
X086950Y048441D01*
X087060Y048551D01*
X087060Y048661D01*
X086950Y048771D01*
X086730Y048771D01*
X086620Y048881D01*
X086620Y048991D01*
X086730Y049101D01*
X086950Y049101D01*
X087060Y048991D01*
X086840Y049591D02*
X086840Y050251D01*
X086620Y050251D02*
X087060Y050251D01*
X088501Y050501D02*
X083901Y050501D01*
X083901Y049351D01*
X083901Y048201D01*
X083901Y047051D01*
X088501Y047051D01*
X088501Y048201D02*
X083901Y048201D01*
X081601Y048201D01*
X078501Y048201D01*
X075401Y048201D01*
X075401Y047051D01*
X075401Y045901D01*
X073901Y045901D01*
X073901Y044751D01*
X071601Y044751D01*
X072401Y044971D02*
X073081Y045651D01*
X072741Y045651D02*
X072741Y044971D01*
X073081Y044971D02*
X072401Y045651D01*
X072741Y046121D02*
X073081Y046461D01*
X072401Y046461D01*
X072741Y046801D01*
X072741Y046121D01*
X072741Y047271D02*
X072401Y047611D01*
X073081Y047611D01*
X072741Y047951D01*
X072741Y047271D01*
X071601Y047051D02*
X073901Y047051D01*
X073901Y045901D01*
X071601Y045901D01*
X072401Y044501D02*
X073081Y043821D01*
X073081Y044161D02*
X072401Y044161D01*
X072401Y043821D02*
X073081Y044501D01*
X074081Y044281D02*
X074301Y044501D01*
X074301Y043841D01*
X074081Y043841D02*
X074521Y043841D01*
X074725Y043951D02*
X075166Y044391D01*
X075166Y043951D01*
X075056Y043841D01*
X074835Y043841D01*
X074725Y043951D01*
X074725Y044391D01*
X074835Y044501D01*
X075056Y044501D01*
X075166Y044391D01*
X074701Y044991D02*
X074811Y045101D01*
X074811Y045541D01*
X074701Y045651D01*
X074481Y045651D01*
X074371Y045541D01*
X074371Y045431D01*
X074481Y045321D01*
X074811Y045321D01*
X074701Y044991D02*
X074481Y044991D01*
X074371Y045101D01*
X073901Y043601D02*
X071601Y043601D01*
X072401Y043351D02*
X072741Y043011D01*
X072741Y042671D01*
X072741Y043011D02*
X073081Y043351D01*
X072401Y043351D01*
X074481Y046141D02*
X074371Y046251D01*
X074371Y046361D01*
X074481Y046471D01*
X074701Y046471D01*
X074811Y046361D01*
X074811Y046251D01*
X074701Y046141D01*
X074481Y046141D01*
X074481Y046471D02*
X074371Y046581D01*
X074371Y046691D01*
X074481Y046801D01*
X074701Y046801D01*
X074811Y046691D01*
X074811Y046581D01*
X074701Y046471D01*
X074371Y047291D02*
X074371Y047401D01*
X074811Y047841D01*
X074811Y047951D01*
X074371Y047951D01*
X074481Y048441D02*
X074701Y048441D01*
X074811Y048551D01*
X074811Y048661D01*
X074701Y048771D01*
X074371Y048771D01*
X074371Y048551D01*
X074481Y048441D01*
X074371Y048771D02*
X074591Y048991D01*
X074811Y049101D01*
X074701Y049591D02*
X074481Y049591D01*
X074371Y049701D01*
X074371Y049921D02*
X074591Y050031D01*
X074701Y050031D01*
X074811Y049921D01*
X074811Y049701D01*
X074701Y049591D01*
X074371Y049921D02*
X074371Y050251D01*
X074811Y050251D01*
X074701Y050741D02*
X074701Y051401D01*
X074371Y051071D01*
X074811Y051071D01*
X075401Y050501D02*
X073901Y050501D01*
X073901Y049351D01*
X073901Y048201D01*
X073901Y047051D01*
X075401Y047051D01*
X078501Y047051D01*
X078881Y047291D02*
X079321Y047291D01*
X079525Y047291D02*
X079635Y047291D01*
X079635Y047401D01*
X079525Y047401D01*
X079525Y047291D01*
X079848Y047401D02*
X080288Y047841D01*
X080288Y047401D01*
X080178Y047291D01*
X079958Y047291D01*
X079848Y047401D01*
X079848Y047841D01*
X079958Y047951D01*
X080178Y047951D01*
X080288Y047841D01*
X080492Y047841D02*
X080602Y047951D01*
X080822Y047951D01*
X080932Y047841D01*
X080932Y047731D01*
X080492Y047291D01*
X080932Y047291D01*
X080932Y048441D02*
X080492Y048441D01*
X080712Y048441D02*
X080712Y049101D01*
X080492Y048881D01*
X080288Y048771D02*
X079958Y048771D01*
X079848Y048881D01*
X079848Y048991D01*
X079958Y049101D01*
X080178Y049101D01*
X080288Y048991D01*
X080288Y048551D01*
X080178Y048441D01*
X079958Y048441D01*
X079848Y048551D01*
X079635Y048551D02*
X079635Y048441D01*
X079525Y048441D01*
X079525Y048551D01*
X079635Y048551D01*
X079321Y048551D02*
X079211Y048441D01*
X078991Y048441D01*
X078881Y048551D01*
X079321Y048991D01*
X079321Y048551D01*
X078881Y048551D02*
X078881Y048991D01*
X078991Y049101D01*
X079211Y049101D01*
X079321Y048991D01*
X079211Y049591D02*
X078991Y049591D01*
X078881Y049701D01*
X079321Y050141D01*
X079321Y049701D01*
X079211Y049591D01*
X079525Y049591D02*
X079635Y049591D01*
X079635Y049701D01*
X079525Y049701D01*
X079525Y049591D01*
X079848Y049701D02*
X079958Y049591D01*
X080178Y049591D01*
X080288Y049701D01*
X080288Y050141D01*
X080178Y050251D01*
X079958Y050251D01*
X079848Y050141D01*
X079848Y050031D01*
X079958Y049921D01*
X080288Y049921D01*
X080492Y049701D02*
X080932Y050141D01*
X080932Y049701D01*
X080822Y049591D01*
X080602Y049591D01*
X080492Y049701D01*
X080492Y050141D01*
X080602Y050251D01*
X080822Y050251D01*
X080932Y050141D01*
X080932Y050741D02*
X080492Y050741D01*
X080712Y050741D02*
X080712Y051401D01*
X080492Y051181D01*
X080288Y051181D02*
X080178Y051071D01*
X079958Y051071D01*
X079848Y051181D01*
X079848Y051291D01*
X079958Y051401D01*
X080178Y051401D01*
X080288Y051291D01*
X080288Y051181D01*
X080178Y051071D02*
X080288Y050961D01*
X080288Y050851D01*
X080178Y050741D01*
X079958Y050741D01*
X079848Y050851D01*
X079848Y050961D01*
X079958Y051071D01*
X079635Y050851D02*
X079635Y050741D01*
X079525Y050741D01*
X079525Y050851D01*
X079635Y050851D01*
X079321Y050851D02*
X079211Y050741D01*
X078991Y050741D01*
X078881Y050851D01*
X079321Y051291D01*
X079321Y050851D01*
X078881Y050851D02*
X078881Y051291D01*
X078991Y051401D01*
X079211Y051401D01*
X079321Y051291D01*
X079211Y051891D02*
X078991Y051891D01*
X078881Y052001D01*
X079321Y052441D01*
X079321Y052001D01*
X079211Y051891D01*
X079525Y051891D02*
X079635Y051891D01*
X079635Y052001D01*
X079525Y052001D01*
X079525Y051891D01*
X079848Y052001D02*
X079848Y052111D01*
X079958Y052221D01*
X080178Y052221D01*
X080288Y052111D01*
X080288Y052001D01*
X080178Y051891D01*
X079958Y051891D01*
X079848Y052001D01*
X079958Y052221D02*
X079848Y052331D01*
X079848Y052441D01*
X079958Y052551D01*
X080178Y052551D01*
X080288Y052441D01*
X080288Y052331D01*
X080178Y052221D01*
X080492Y052001D02*
X080932Y052441D01*
X080932Y052001D01*
X080822Y051891D01*
X080602Y051891D01*
X080492Y052001D01*
X080492Y052441D01*
X080602Y052551D01*
X080822Y052551D01*
X080932Y052441D01*
X080822Y053041D02*
X080602Y053041D01*
X080492Y053151D01*
X080932Y053591D01*
X080932Y053151D01*
X080822Y053041D01*
X080492Y053151D02*
X080492Y053591D01*
X080602Y053701D01*
X080822Y053701D01*
X080932Y053591D01*
X080822Y054191D02*
X080602Y054191D01*
X080492Y054301D01*
X080492Y054411D01*
X080602Y054521D01*
X080822Y054521D01*
X080932Y054411D01*
X080932Y054301D01*
X080822Y054191D01*
X080822Y054521D02*
X080932Y054631D01*
X080932Y054741D01*
X080822Y054851D01*
X080602Y054851D01*
X080492Y054741D01*
X080492Y054631D01*
X080602Y054521D01*
X080288Y054411D02*
X080288Y054301D01*
X080178Y054191D01*
X079958Y054191D01*
X079848Y054301D01*
X079635Y054301D02*
X079635Y054191D01*
X079525Y054191D01*
X079525Y054301D01*
X079635Y054301D01*
X079321Y054301D02*
X079211Y054191D01*
X078991Y054191D01*
X078881Y054301D01*
X079321Y054741D01*
X079321Y054301D01*
X078881Y054301D02*
X078881Y054741D01*
X078991Y054851D01*
X079211Y054851D01*
X079321Y054741D01*
X079848Y054741D02*
X079958Y054851D01*
X080178Y054851D01*
X080288Y054741D01*
X080288Y054631D01*
X080178Y054521D01*
X080288Y054411D01*
X080178Y054521D02*
X080068Y054521D01*
X080125Y055341D02*
X080125Y056001D01*
X080345Y055781D01*
X080566Y056001D01*
X080566Y055341D01*
X079921Y055341D02*
X079921Y056001D01*
X079701Y055781D01*
X079481Y056001D01*
X079481Y055341D01*
X078501Y055101D02*
X078501Y056251D01*
X077725Y055781D02*
X077395Y055781D01*
X077285Y055671D01*
X077395Y055561D01*
X077615Y055561D01*
X077725Y055451D01*
X077615Y055341D01*
X077285Y055341D01*
X077075Y055341D02*
X076855Y055341D01*
X076965Y055341D02*
X076965Y056001D01*
X076855Y056001D01*
X076535Y056001D02*
X076535Y056111D01*
X076535Y055781D02*
X076535Y055341D01*
X076425Y055341D02*
X076645Y055341D01*
X076221Y055341D02*
X076221Y056001D01*
X076001Y055781D01*
X075781Y056001D01*
X075781Y055341D01*
X075401Y055101D02*
X075401Y053951D01*
X075401Y052801D01*
X075401Y051651D01*
X075401Y050501D01*
X075401Y049351D01*
X075401Y048201D01*
X073901Y048201D01*
X071601Y048201D01*
X072401Y048421D02*
X072401Y049101D01*
X073081Y048421D01*
X073081Y049101D01*
X072401Y048421D01*
X072401Y049571D02*
X073081Y049571D01*
X072401Y050251D01*
X073081Y050251D01*
X072401Y049571D01*
X071601Y049351D02*
X073901Y049351D01*
X075401Y049351D01*
X078501Y049351D01*
X081601Y049351D01*
X083901Y049351D01*
X088501Y049351D01*
X087060Y047841D02*
X086950Y047951D01*
X086730Y047951D01*
X086620Y047841D01*
X086620Y047731D01*
X086730Y047621D01*
X086950Y047621D01*
X087060Y047511D01*
X087060Y047401D01*
X086950Y047291D01*
X086730Y047291D01*
X086620Y047401D01*
X086416Y047291D02*
X085975Y047291D01*
X085975Y047951D01*
X086416Y047951D01*
X086195Y047621D02*
X085975Y047621D01*
X085771Y047841D02*
X085771Y047951D01*
X085771Y047841D02*
X085551Y047621D01*
X085551Y047291D01*
X085551Y047621D02*
X085331Y047841D01*
X085331Y047951D01*
X085975Y048771D02*
X086195Y048771D01*
X085975Y049101D02*
X086416Y049101D01*
X083901Y050501D02*
X083901Y051651D01*
X088501Y051651D01*
X088501Y052801D02*
X083901Y052801D01*
X083901Y051651D01*
X081601Y051651D01*
X078501Y051651D01*
X075401Y051651D01*
X073901Y051651D01*
X073901Y050501D01*
X071601Y050501D01*
X072401Y051061D02*
X072741Y051401D01*
X073081Y051061D01*
X072741Y050721D01*
X072401Y051061D01*
X072741Y051061D02*
X072741Y051401D01*
X073081Y051871D02*
X072401Y051871D01*
X072401Y052551D01*
X072741Y052551D01*
X073081Y052551D01*
X073081Y051871D01*
X072741Y052211D02*
X072741Y052551D01*
X073081Y053021D02*
X072401Y053701D01*
X072741Y054171D02*
X072741Y054851D01*
X072745Y055121D02*
X072856Y055121D01*
X072966Y055231D01*
X072966Y055781D01*
X073170Y055781D02*
X073280Y055781D01*
X073390Y055671D01*
X073500Y055781D01*
X073610Y055671D01*
X073610Y055341D01*
X073390Y055341D02*
X073390Y055671D01*
X073170Y055781D02*
X073170Y055341D01*
X072966Y055341D02*
X072635Y055341D01*
X072525Y055451D01*
X072525Y055781D01*
X072321Y055891D02*
X072211Y056001D01*
X071991Y056001D01*
X071881Y055891D01*
X071881Y055781D01*
X071991Y055671D01*
X072211Y055671D01*
X072321Y055561D01*
X072321Y055451D01*
X072211Y055341D01*
X071991Y055341D01*
X071881Y055451D01*
X071601Y055101D02*
X071601Y056251D01*
X071601Y055101D02*
X073901Y055101D01*
X073901Y053951D01*
X073901Y052801D01*
X073901Y051651D01*
X071601Y051651D01*
X071601Y052801D02*
X073901Y052801D01*
X075401Y052801D01*
X078501Y052801D01*
X081601Y052801D01*
X083901Y052801D01*
X083901Y053951D01*
X088501Y053951D01*
X088501Y055101D02*
X083901Y055101D01*
X083901Y053951D01*
X081601Y053951D01*
X078501Y053951D01*
X075401Y053951D01*
X073901Y053951D01*
X071601Y053951D01*
X072401Y054511D02*
X073081Y054511D01*
X073081Y053701D02*
X072401Y053021D01*
X074371Y053041D02*
X074811Y053481D01*
X074811Y053591D01*
X074701Y053701D01*
X074481Y053701D01*
X074371Y053591D01*
X074371Y053041D02*
X074811Y053041D01*
X074701Y052551D02*
X074811Y052441D01*
X074811Y052331D01*
X074701Y052221D01*
X074811Y052111D01*
X074811Y052001D01*
X074701Y051891D01*
X074481Y051891D01*
X074371Y052001D01*
X074591Y052221D02*
X074701Y052221D01*
X074701Y052551D02*
X074481Y052551D01*
X074371Y052441D01*
X076381Y052441D02*
X076491Y052551D01*
X076711Y052551D01*
X076821Y052441D01*
X076821Y052331D01*
X076711Y052221D01*
X076821Y052111D01*
X076821Y052001D01*
X076711Y051891D01*
X076491Y051891D01*
X076381Y052001D01*
X076601Y052221D02*
X076711Y052221D01*
X077025Y052331D02*
X077245Y052551D01*
X077245Y051891D01*
X077025Y051891D02*
X077466Y051891D01*
X077356Y051401D02*
X077135Y051401D01*
X077025Y051291D01*
X076821Y051291D02*
X076821Y051181D01*
X076711Y051071D01*
X076821Y050961D01*
X076821Y050851D01*
X076711Y050741D01*
X076491Y050741D01*
X076381Y050851D01*
X076601Y051071D02*
X076711Y051071D01*
X076821Y051291D02*
X076711Y051401D01*
X076491Y051401D01*
X076381Y051291D01*
X077025Y050741D02*
X077466Y051181D01*
X077466Y051291D01*
X077356Y051401D01*
X077466Y050741D02*
X077025Y050741D01*
X077025Y050251D02*
X077025Y049921D01*
X077245Y050031D01*
X077356Y050031D01*
X077466Y049921D01*
X077466Y049701D01*
X077356Y049591D01*
X077135Y049591D01*
X077025Y049701D01*
X076821Y049701D02*
X076711Y049591D01*
X076491Y049591D01*
X076381Y049701D01*
X076601Y049921D02*
X076711Y049921D01*
X076821Y049811D01*
X076821Y049701D01*
X076711Y049921D02*
X076821Y050031D01*
X076821Y050141D01*
X076711Y050251D01*
X076491Y050251D01*
X076381Y050141D01*
X077025Y050251D02*
X077466Y050251D01*
X078501Y050501D02*
X081601Y050501D01*
X083901Y050501D01*
X083266Y050741D02*
X082825Y050741D01*
X083266Y051181D01*
X083266Y051291D01*
X083156Y051401D01*
X082935Y051401D01*
X082825Y051291D01*
X082621Y051291D02*
X082621Y051181D01*
X082511Y051071D01*
X082621Y050961D01*
X082621Y050851D01*
X082511Y050741D01*
X082291Y050741D01*
X082181Y050851D01*
X082401Y051071D02*
X082511Y051071D01*
X082621Y051291D02*
X082511Y051401D01*
X082291Y051401D01*
X082181Y051291D01*
X082181Y051891D02*
X082621Y051891D01*
X082401Y051891D02*
X082401Y052551D01*
X082181Y052331D01*
X082825Y052221D02*
X083156Y052221D01*
X083266Y052111D01*
X083266Y052001D01*
X083156Y051891D01*
X082935Y051891D01*
X082825Y052001D01*
X082825Y052221D01*
X083045Y052441D01*
X083266Y052551D01*
X083156Y053041D02*
X082935Y053041D01*
X082825Y053151D01*
X082621Y053151D02*
X082511Y053041D01*
X082291Y053041D01*
X082181Y053151D01*
X082181Y053371D02*
X082401Y053481D01*
X082511Y053481D01*
X082621Y053371D01*
X082621Y053151D01*
X083045Y053371D02*
X083156Y053371D01*
X083266Y053261D01*
X083266Y053151D01*
X083156Y053041D01*
X083156Y053371D02*
X083266Y053481D01*
X083266Y053591D01*
X083156Y053701D01*
X082935Y053701D01*
X082825Y053591D01*
X082621Y053701D02*
X082181Y053701D01*
X082181Y053371D01*
X082471Y054191D02*
X082911Y054191D01*
X082691Y054191D02*
X082691Y054851D01*
X082471Y054631D01*
X082321Y055341D02*
X082101Y055561D01*
X082211Y055341D02*
X081991Y055341D01*
X081881Y055451D01*
X081881Y055891D01*
X081991Y056001D01*
X082211Y056001D01*
X082321Y055891D01*
X082321Y055451D01*
X082211Y055341D01*
X082635Y055451D02*
X082635Y055891D01*
X082525Y055781D02*
X082745Y055781D01*
X082955Y055781D02*
X082955Y055451D01*
X083065Y055341D01*
X083395Y055341D01*
X083395Y055231D02*
X083285Y055121D01*
X083175Y055121D01*
X083395Y055231D02*
X083395Y055781D01*
X083901Y056251D02*
X083901Y055101D01*
X081601Y055101D01*
X081601Y056251D01*
X082635Y055451D02*
X082745Y055341D01*
X084441Y055341D02*
X084441Y056001D01*
X084771Y056001D01*
X084881Y055891D01*
X084881Y055671D01*
X084771Y055561D01*
X084441Y055561D01*
X085085Y056001D02*
X085195Y056001D01*
X087030Y055671D02*
X087030Y055561D01*
X082801Y050251D02*
X082581Y050251D01*
X082471Y050141D01*
X082801Y050251D02*
X082911Y050141D01*
X082911Y050031D01*
X082471Y049591D01*
X082911Y049591D01*
X082801Y049101D02*
X082911Y048991D01*
X082911Y048881D01*
X082801Y048771D01*
X082581Y048771D01*
X082471Y048881D01*
X082471Y048991D01*
X082581Y049101D01*
X082801Y049101D01*
X082801Y048771D02*
X082911Y048661D01*
X082911Y048551D01*
X082801Y048441D01*
X082581Y048441D01*
X082471Y048551D01*
X082471Y048661D01*
X082581Y048771D01*
X082621Y047951D02*
X082401Y047841D01*
X082181Y047621D01*
X082511Y047621D01*
X082621Y047511D01*
X082621Y047401D01*
X082511Y047291D01*
X082291Y047291D01*
X082181Y047401D01*
X082181Y047621D01*
X082825Y047401D02*
X083266Y047841D01*
X083266Y047401D01*
X083156Y047291D01*
X082935Y047291D01*
X082825Y047401D01*
X082825Y047841D01*
X082935Y047951D01*
X083156Y047951D01*
X083266Y047841D01*
X085331Y046801D02*
X085331Y046691D01*
X085551Y046471D01*
X085551Y046141D01*
X085551Y046471D02*
X085771Y046691D01*
X085771Y046801D01*
X085975Y046801D02*
X085975Y046141D01*
X086416Y046141D01*
X086620Y046251D02*
X086730Y046141D01*
X086950Y046141D01*
X087060Y046251D01*
X087060Y046361D01*
X086950Y046471D01*
X086730Y046471D01*
X086620Y046581D01*
X086620Y046691D01*
X086730Y046801D01*
X086950Y046801D01*
X087060Y046691D01*
X086416Y046801D02*
X085975Y046801D01*
X085975Y046471D02*
X086195Y046471D01*
X085975Y045651D02*
X085975Y044991D01*
X086416Y044991D01*
X086620Y045101D02*
X086730Y044991D01*
X086950Y044991D01*
X087060Y045101D01*
X087060Y045211D01*
X086950Y045321D01*
X086730Y045321D01*
X086620Y045431D01*
X086620Y045541D01*
X086730Y045651D01*
X086950Y045651D01*
X087060Y045541D01*
X086416Y045651D02*
X085975Y045651D01*
X085771Y045651D02*
X085771Y045541D01*
X085551Y045321D01*
X085551Y044991D01*
X085551Y045321D02*
X085331Y045541D01*
X085331Y045651D01*
X085975Y045321D02*
X086195Y045321D01*
X086085Y044501D02*
X085975Y044391D01*
X085975Y043951D01*
X086085Y043841D01*
X086306Y043841D01*
X086416Y043951D01*
X086416Y044391D01*
X086306Y044501D01*
X086085Y044501D01*
X085771Y044501D02*
X085771Y043841D01*
X085331Y044501D01*
X085331Y043841D01*
X085331Y043351D02*
X085331Y043241D01*
X085551Y043021D01*
X085551Y042691D01*
X085551Y043021D02*
X085771Y043241D01*
X085771Y043351D01*
X085975Y043351D02*
X085975Y042691D01*
X086416Y042691D01*
X086620Y042801D02*
X086730Y042691D01*
X086950Y042691D01*
X087060Y042801D01*
X087060Y042911D01*
X086950Y043021D01*
X086730Y043021D01*
X086620Y043131D01*
X086620Y043241D01*
X086730Y043351D01*
X086950Y043351D01*
X087060Y043241D01*
X086840Y043841D02*
X086840Y044501D01*
X086620Y044501D02*
X087060Y044501D01*
X088501Y045901D02*
X083901Y045901D01*
X085975Y043351D02*
X086416Y043351D01*
X086195Y043021D02*
X085975Y043021D01*
X081601Y042451D02*
X078501Y042451D01*
X078881Y042801D02*
X078991Y042691D01*
X079211Y042691D01*
X079321Y042801D01*
X079321Y042911D01*
X079211Y043021D01*
X079101Y043021D01*
X079211Y043021D02*
X079321Y043131D01*
X079321Y043241D01*
X079211Y043351D01*
X078991Y043351D01*
X078881Y043241D01*
X079525Y042801D02*
X079525Y042691D01*
X079635Y042691D01*
X079635Y042801D01*
X079525Y042801D01*
X079848Y042801D02*
X079958Y042691D01*
X080178Y042691D01*
X080288Y042801D01*
X080288Y042911D01*
X080178Y043021D01*
X080068Y043021D01*
X080178Y043021D02*
X080288Y043131D01*
X080288Y043241D01*
X080178Y043351D01*
X079958Y043351D01*
X079848Y043241D01*
X079848Y043841D02*
X080288Y044281D01*
X080288Y044391D01*
X080178Y044501D01*
X079958Y044501D01*
X079848Y044391D01*
X079635Y043951D02*
X079635Y043841D01*
X079525Y043841D01*
X079525Y043951D01*
X079635Y043951D01*
X079848Y043841D02*
X080288Y043841D01*
X080492Y043951D02*
X080932Y044391D01*
X080932Y043951D01*
X080822Y043841D01*
X080602Y043841D01*
X080492Y043951D01*
X080492Y044391D01*
X080602Y044501D01*
X080822Y044501D01*
X080932Y044391D01*
X080822Y043351D02*
X080932Y043241D01*
X080492Y042801D01*
X080602Y042691D01*
X080822Y042691D01*
X080932Y042801D01*
X080932Y043241D01*
X080822Y043351D02*
X080602Y043351D01*
X080492Y043241D01*
X080492Y042801D01*
X077356Y046141D02*
X077356Y046801D01*
X077025Y046471D01*
X077466Y046471D01*
X076821Y046471D02*
X076381Y046471D01*
X076711Y046801D01*
X076711Y046141D01*
X076711Y047291D02*
X076711Y047951D01*
X076381Y047621D01*
X076821Y047621D01*
X077025Y047401D02*
X077466Y047841D01*
X077466Y047401D01*
X077356Y047291D01*
X077135Y047291D01*
X077025Y047401D01*
X077025Y047841D01*
X077135Y047951D01*
X077356Y047951D01*
X077466Y047841D01*
X077356Y048441D02*
X077466Y048551D01*
X077466Y048661D01*
X077356Y048771D01*
X077025Y048771D01*
X077025Y048551D01*
X077135Y048441D01*
X077356Y048441D01*
X077025Y048771D02*
X077245Y048991D01*
X077466Y049101D01*
X076821Y048991D02*
X076821Y048881D01*
X076711Y048771D01*
X076821Y048661D01*
X076821Y048551D01*
X076711Y048441D01*
X076491Y048441D01*
X076381Y048551D01*
X076601Y048771D02*
X076711Y048771D01*
X076821Y048991D02*
X076711Y049101D01*
X076491Y049101D01*
X076381Y048991D01*
X075401Y050501D02*
X078501Y050501D01*
X078881Y050141D02*
X078991Y050251D01*
X079211Y050251D01*
X079321Y050141D01*
X078881Y050141D02*
X078881Y049701D01*
X079101Y047951D02*
X079101Y047291D01*
X078881Y047731D02*
X079101Y047951D01*
X078881Y052001D02*
X078881Y052441D01*
X078991Y052551D01*
X079211Y052551D01*
X079321Y052441D01*
X079211Y053041D02*
X078991Y053041D01*
X078881Y053151D01*
X079321Y053591D01*
X079321Y053151D01*
X079211Y053041D01*
X079525Y053041D02*
X079635Y053041D01*
X079635Y053151D01*
X079525Y053151D01*
X079525Y053041D01*
X079848Y053151D02*
X079958Y053041D01*
X080178Y053041D01*
X080288Y053151D01*
X080288Y053261D01*
X080178Y053371D01*
X079848Y053371D01*
X079848Y053151D01*
X079848Y053371D02*
X080068Y053591D01*
X080288Y053701D01*
X079321Y053591D02*
X079211Y053701D01*
X078991Y053701D01*
X078881Y053591D01*
X078881Y053151D01*
X077466Y053371D02*
X077025Y053371D01*
X077356Y053701D01*
X077356Y053041D01*
X076821Y053041D02*
X076381Y053041D01*
X076821Y053481D01*
X076821Y053591D01*
X076711Y053701D01*
X076491Y053701D01*
X076381Y053591D01*
X076381Y054191D02*
X076821Y054191D01*
X076601Y054191D02*
X076601Y054851D01*
X076381Y054631D01*
X077025Y054521D02*
X077245Y054631D01*
X077356Y054631D01*
X077466Y054521D01*
X077466Y054301D01*
X077356Y054191D01*
X077135Y054191D01*
X077025Y054301D01*
X077025Y054521D02*
X077025Y054851D01*
X077466Y054851D01*
X078501Y055101D02*
X075401Y055101D01*
X075401Y056251D01*
X075056Y055891D02*
X075056Y055781D01*
X074945Y055671D01*
X074835Y055671D01*
X074725Y055781D01*
X074725Y055891D01*
X074835Y056001D01*
X074945Y056001D01*
X075056Y055891D01*
X074521Y056001D02*
X074521Y055341D01*
X074081Y056001D01*
X074081Y055341D01*
X073901Y055101D02*
X073901Y056251D01*
X073901Y055101D02*
X075401Y055101D01*
X074591Y054851D02*
X074591Y054191D01*
X074371Y054191D02*
X074811Y054191D01*
X074371Y054631D02*
X074591Y054851D01*
X076425Y055781D02*
X076535Y055781D01*
X084753Y010009D02*
X063503Y010009D01*
X063503Y002009D01*
X084753Y002009D01*
X084753Y004009D01*
X084753Y006009D01*
X084753Y008009D01*
X084753Y010009D01*
X104003Y010009D01*
X104003Y008009D01*
X084753Y008009D01*
X084753Y006009D02*
X104003Y006009D01*
X104003Y008009D01*
X104003Y006009D02*
X104003Y004009D01*
X099003Y004009D01*
X084753Y004009D01*
X084753Y002009D02*
X099003Y002009D01*
X099003Y004009D01*
X099773Y003740D02*
X100003Y003740D01*
X100080Y003663D01*
X100080Y003509D01*
X100003Y003433D01*
X099773Y003433D01*
X099773Y003279D02*
X099773Y003740D01*
X099927Y003433D02*
X100080Y003279D01*
X100234Y003279D02*
X100541Y003279D01*
X100694Y003433D02*
X100847Y003279D01*
X101001Y003433D01*
X101001Y003740D01*
X100694Y003740D02*
X100694Y003433D01*
X100387Y003509D02*
X100234Y003509D01*
X100234Y003279D02*
X100234Y003740D01*
X100541Y003740D01*
X101154Y003356D02*
X101231Y003356D01*
X101231Y003279D01*
X101154Y003279D01*
X101154Y003356D01*
X099003Y002009D02*
X104003Y002009D01*
X104003Y004009D01*
X080711Y009029D02*
X080404Y009029D01*
X080404Y009490D01*
X080711Y009490D01*
X080558Y009259D02*
X080404Y009259D01*
X080251Y009490D02*
X079944Y009490D01*
X080097Y009490D02*
X080097Y009029D01*
X079791Y009029D02*
X079791Y009336D01*
X079637Y009490D01*
X079484Y009336D01*
X079484Y009029D01*
X079330Y009106D02*
X079330Y009413D01*
X079253Y009490D01*
X079023Y009490D01*
X079023Y009029D01*
X079253Y009029D01*
X079330Y009106D01*
X079484Y009259D02*
X079791Y009259D01*
X071013Y009183D02*
X071013Y009106D01*
X070936Y009029D01*
X070783Y009029D01*
X070706Y009106D01*
X070553Y009029D02*
X070246Y009029D01*
X070246Y009490D01*
X070092Y009336D02*
X070092Y009029D01*
X070092Y009259D02*
X069785Y009259D01*
X069785Y009336D02*
X069939Y009490D01*
X070092Y009336D01*
X069785Y009336D02*
X069785Y009029D01*
X069632Y009183D02*
X069632Y009490D01*
X069325Y009490D02*
X069325Y009183D01*
X069479Y009029D01*
X069632Y009183D01*
X069172Y009106D02*
X069172Y009413D01*
X069095Y009490D01*
X068941Y009490D01*
X068865Y009413D01*
X068865Y009106D01*
X068941Y009029D01*
X069095Y009029D01*
X069172Y009106D01*
X068711Y009029D02*
X068558Y009183D01*
X068635Y009183D02*
X068404Y009183D01*
X068404Y009029D02*
X068404Y009490D01*
X068635Y009490D01*
X068711Y009413D01*
X068711Y009259D01*
X068635Y009183D01*
X068251Y009259D02*
X068174Y009183D01*
X067944Y009183D01*
X067944Y009029D02*
X067944Y009490D01*
X068174Y009490D01*
X068251Y009413D01*
X068251Y009259D01*
X067791Y009259D02*
X067714Y009183D01*
X067484Y009183D01*
X067484Y009029D02*
X067484Y009490D01*
X067714Y009490D01*
X067791Y009413D01*
X067791Y009259D01*
X067330Y009259D02*
X067023Y009259D01*
X067023Y009336D02*
X067177Y009490D01*
X067330Y009336D01*
X067330Y009029D01*
X067023Y009029D02*
X067023Y009336D01*
X065922Y008240D02*
X065922Y007779D01*
X065615Y008240D01*
X065615Y007779D01*
X065461Y007779D02*
X065461Y008240D01*
X065154Y008240D02*
X065154Y007779D01*
X065308Y007933D01*
X065461Y007779D01*
X065001Y007779D02*
X065001Y008086D01*
X064847Y008240D01*
X064694Y008086D01*
X064694Y007779D01*
X064541Y007779D02*
X064387Y007933D01*
X064464Y007933D02*
X064234Y007933D01*
X064234Y007779D02*
X064234Y008240D01*
X064464Y008240D01*
X064541Y008163D01*
X064541Y008009D01*
X064464Y007933D01*
X064694Y008009D02*
X065001Y008009D01*
X064080Y007856D02*
X064080Y008163D01*
X064003Y008240D01*
X063773Y008240D01*
X063773Y007779D01*
X064003Y007779D01*
X064080Y007856D01*
X064003Y006740D02*
X063850Y006740D01*
X063773Y006663D01*
X063773Y006356D01*
X063850Y006279D01*
X064003Y006279D01*
X064080Y006356D01*
X064234Y006279D02*
X064234Y006740D01*
X064080Y006663D02*
X064003Y006740D01*
X064234Y006509D02*
X064541Y006509D01*
X064694Y006509D02*
X064847Y006509D01*
X064694Y006279D02*
X064694Y006740D01*
X065001Y006740D01*
X065154Y006663D02*
X065154Y006356D01*
X065231Y006279D01*
X065385Y006279D01*
X065461Y006356D01*
X065615Y006279D02*
X065615Y006740D01*
X065461Y006663D02*
X065385Y006740D01*
X065231Y006740D01*
X065154Y006663D01*
X065001Y006279D02*
X064694Y006279D01*
X064541Y006279D02*
X064541Y006740D01*
X065615Y006433D02*
X065922Y006740D01*
X066075Y006740D02*
X066075Y006279D01*
X066382Y006279D01*
X066535Y006279D02*
X066766Y006279D01*
X066842Y006356D01*
X066842Y006663D01*
X066766Y006740D01*
X066535Y006740D01*
X066535Y006279D01*
X066229Y006509D02*
X066075Y006509D01*
X066075Y006740D02*
X066382Y006740D01*
X065922Y006279D02*
X065691Y006509D01*
X065768Y005240D02*
X065461Y005240D01*
X065461Y004779D01*
X065768Y004779D01*
X065922Y004779D02*
X066152Y004779D01*
X066229Y004856D01*
X066229Y005163D01*
X066152Y005240D01*
X065922Y005240D01*
X065922Y004779D01*
X065615Y005009D02*
X065461Y005009D01*
X065308Y004856D02*
X065308Y005240D01*
X065001Y005240D02*
X065001Y004856D01*
X065078Y004779D01*
X065231Y004779D01*
X065308Y004856D01*
X064847Y004856D02*
X064771Y004779D01*
X064617Y004779D01*
X064541Y004856D01*
X064387Y004856D02*
X064310Y004779D01*
X064157Y004779D01*
X064080Y004856D01*
X063927Y004779D02*
X063773Y004779D01*
X063850Y004779D02*
X063850Y005240D01*
X063773Y005240D02*
X063927Y005240D01*
X064080Y005163D02*
X064080Y005086D01*
X064157Y005009D01*
X064310Y005009D01*
X064387Y004933D01*
X064387Y004856D01*
X064617Y005009D02*
X064771Y005009D01*
X064847Y004933D01*
X064847Y004856D01*
X064617Y005009D02*
X064541Y005086D01*
X064541Y005163D01*
X064617Y005240D01*
X064771Y005240D01*
X064847Y005163D01*
X064387Y005163D02*
X064310Y005240D01*
X064157Y005240D01*
X064080Y005163D01*
X070706Y009336D02*
X070783Y009259D01*
X070936Y009259D01*
X071013Y009183D01*
X071013Y009413D02*
X070936Y009490D01*
X070783Y009490D01*
X070706Y009413D01*
X070706Y009336D01*
D13*
X072287Y001734D02*
X071971Y001576D01*
X071655Y001260D01*
X072129Y001260D01*
X072287Y001102D01*
X072287Y000944D01*
X072129Y000786D01*
X071813Y000786D01*
X071655Y000944D01*
X071655Y001260D01*
X059537Y001260D02*
X059537Y000944D01*
X059379Y000786D01*
X059063Y000786D01*
X058905Y000944D01*
X058905Y001260D02*
X059221Y001418D01*
X059379Y001418D01*
X059537Y001260D01*
X059537Y001734D02*
X058905Y001734D01*
X058905Y001260D01*
X046787Y001260D02*
X046155Y001260D01*
X046629Y001734D01*
X046629Y000786D01*
X034037Y000944D02*
X033879Y000786D01*
X033563Y000786D01*
X033405Y000944D01*
X033721Y001260D02*
X033879Y001260D01*
X034037Y001102D01*
X034037Y000944D01*
X033879Y001260D02*
X034037Y001418D01*
X034037Y001576D01*
X033879Y001734D01*
X033563Y001734D01*
X033405Y001576D01*
X021287Y001576D02*
X021129Y001734D01*
X020813Y001734D01*
X020655Y001576D01*
X021287Y001576D02*
X021287Y001418D01*
X020655Y000786D01*
X021287Y000786D01*
X008537Y000786D02*
X007905Y000786D01*
X008221Y000786D02*
X008221Y001734D01*
X007905Y001418D01*
X001412Y009236D02*
X000780Y009236D01*
X000780Y010184D01*
X001412Y010184D01*
X001096Y009710D02*
X000780Y009710D01*
X013813Y021009D02*
X013813Y021629D01*
X056693Y021629D01*
X056693Y021009D01*
X056693Y021629D02*
X056693Y025009D01*
X057193Y027509D02*
X061193Y027509D01*
X060563Y025509D02*
X060563Y059759D01*
X061193Y059759D01*
X060563Y059759D02*
X057193Y059759D01*
X055003Y060259D02*
X055003Y063629D01*
X014503Y063629D01*
X001412Y070836D02*
X001412Y071468D01*
X001096Y071784D01*
X000780Y071468D01*
X000780Y070836D01*
X000780Y071310D02*
X001412Y071310D01*
X007905Y079286D02*
X008537Y079286D01*
X008221Y079286D02*
X008221Y080234D01*
X007905Y079918D01*
X020655Y080076D02*
X020813Y080234D01*
X021129Y080234D01*
X021287Y080076D01*
X021287Y079918D01*
X020655Y079286D01*
X021287Y079286D01*
X033405Y079444D02*
X033563Y079286D01*
X033879Y079286D01*
X034037Y079444D01*
X034037Y079602D01*
X033879Y079760D01*
X033721Y079760D01*
X033879Y079760D02*
X034037Y079918D01*
X034037Y080076D01*
X033879Y080234D01*
X033563Y080234D01*
X033405Y080076D01*
X046155Y079760D02*
X046787Y079760D01*
X046629Y079286D02*
X046629Y080234D01*
X046155Y079760D01*
X058905Y079760D02*
X058905Y080234D01*
X059537Y080234D01*
X059379Y079918D02*
X059537Y079760D01*
X059537Y079444D01*
X059379Y079286D01*
X059063Y079286D01*
X058905Y079444D01*
X058905Y079760D02*
X059221Y079918D01*
X059379Y079918D01*
X071655Y079760D02*
X072129Y079760D01*
X072287Y079602D01*
X072287Y079444D01*
X072129Y079286D01*
X071813Y079286D01*
X071655Y079444D01*
X071655Y079760D01*
X071971Y080076D01*
X072287Y080234D01*
X084405Y080234D02*
X085037Y080234D01*
X085037Y080076D01*
X084405Y079444D01*
X084405Y079286D01*
X097155Y079444D02*
X097155Y079602D01*
X097313Y079760D01*
X097629Y079760D01*
X097787Y079602D01*
X097787Y079444D01*
X097629Y079286D01*
X097313Y079286D01*
X097155Y079444D01*
X097313Y079760D02*
X097155Y079918D01*
X097155Y080076D01*
X097313Y080234D01*
X097629Y080234D01*
X097787Y080076D01*
X097787Y079918D01*
X097629Y079760D01*
X104596Y071784D02*
X104912Y071468D01*
X104912Y070836D01*
X104912Y071310D02*
X104280Y071310D01*
X104280Y071468D02*
X104596Y071784D01*
X104280Y071468D02*
X104280Y070836D01*
X104280Y056384D02*
X104754Y056384D01*
X104912Y056226D01*
X104912Y056068D01*
X104754Y055910D01*
X104280Y055910D01*
X104754Y055910D02*
X104912Y055752D01*
X104912Y055594D01*
X104754Y055436D01*
X104280Y055436D01*
X104280Y056384D01*
X088501Y056251D02*
X071601Y056251D01*
X071601Y042451D01*
X088501Y042451D01*
X088501Y056251D01*
X104280Y040826D02*
X104280Y040194D01*
X104438Y040036D01*
X104754Y040036D01*
X104912Y040194D01*
X104912Y040826D02*
X104754Y040984D01*
X104438Y040984D01*
X104280Y040826D01*
X104280Y025584D02*
X104754Y025584D01*
X104912Y025426D01*
X104912Y024794D01*
X104754Y024636D01*
X104280Y024636D01*
X104280Y025584D01*
X104280Y010184D02*
X104280Y009236D01*
X104912Y009236D01*
X104596Y009710D02*
X104280Y009710D01*
X104280Y010184D02*
X104912Y010184D01*
X097011Y003470D02*
X096397Y003470D01*
X096090Y003470D02*
X095476Y003470D01*
X095476Y002549D01*
X096090Y002549D01*
X095783Y003010D02*
X095476Y003010D01*
X095169Y003470D02*
X094556Y003470D01*
X094556Y002549D01*
X095169Y002549D01*
X094862Y003010D02*
X094556Y003010D01*
X094249Y003010D02*
X093635Y003010D01*
X093328Y002856D02*
X093328Y002703D01*
X093174Y002549D01*
X092867Y002549D01*
X092714Y002703D01*
X092867Y003010D02*
X093174Y003010D01*
X093328Y002856D01*
X093635Y002549D02*
X093635Y003470D01*
X093328Y003317D02*
X093174Y003470D01*
X092867Y003470D01*
X092714Y003317D01*
X092714Y003163D01*
X092867Y003010D01*
X092407Y003010D02*
X091793Y002549D01*
X092407Y003010D02*
X091793Y003470D01*
X089894Y003113D02*
X089894Y002960D01*
X089740Y002960D01*
X089740Y003113D01*
X089894Y003113D01*
X089894Y002653D02*
X089894Y002499D01*
X089740Y002499D01*
X089740Y002653D01*
X089894Y002653D01*
X089433Y002499D02*
X089280Y002653D01*
X089280Y003267D01*
X089126Y003113D02*
X089433Y003113D01*
X088819Y002960D02*
X088819Y002806D01*
X088206Y002806D01*
X088206Y002653D02*
X088206Y002960D01*
X088359Y003113D01*
X088666Y003113D01*
X088819Y002960D01*
X088666Y002499D02*
X088359Y002499D01*
X088206Y002653D01*
X087899Y002806D02*
X087285Y002806D01*
X087285Y002653D02*
X087285Y002960D01*
X087438Y003113D01*
X087745Y003113D01*
X087899Y002960D01*
X087899Y002806D01*
X087745Y002499D02*
X087438Y002499D01*
X087285Y002653D01*
X086978Y002499D02*
X086978Y002960D01*
X086824Y003113D01*
X086517Y003113D01*
X086364Y002960D01*
X086057Y002806D02*
X086057Y002653D01*
X085904Y002499D01*
X085597Y002499D01*
X085443Y002653D01*
X085597Y002960D02*
X085904Y002960D01*
X086057Y002806D01*
X086364Y002499D02*
X086364Y003420D01*
X086057Y003267D02*
X085904Y003420D01*
X085597Y003420D01*
X085443Y003267D01*
X085443Y003113D01*
X085597Y002960D01*
X085037Y001734D02*
X084405Y001734D01*
X085037Y001734D02*
X085037Y001576D01*
X084405Y000944D01*
X084405Y000786D01*
X094249Y002549D02*
X094249Y003470D01*
X096704Y003470D02*
X096704Y002549D01*
X097313Y001734D02*
X097629Y001734D01*
X097787Y001576D01*
X097787Y001418D01*
X097629Y001260D01*
X097313Y001260D01*
X097155Y001418D01*
X097155Y001576D01*
X097313Y001734D01*
X097313Y001260D02*
X097155Y001102D01*
X097155Y000944D01*
X097313Y000786D01*
X097629Y000786D01*
X097787Y000944D01*
X097787Y001102D01*
X097629Y001260D01*
X061193Y058009D02*
X057193Y058009D01*
X055003Y063629D02*
X055003Y064259D01*
X013313Y042009D02*
X009943Y042009D01*
X009943Y025509D01*
X013813Y025009D02*
X013813Y021629D01*
X016003Y021009D02*
X016003Y025009D01*
X020003Y025009D02*
X020003Y021009D01*
X022003Y021009D02*
X022003Y025009D01*
X001412Y024794D02*
X001412Y025426D01*
X001254Y025584D01*
X000780Y025584D01*
X000780Y024636D01*
X001254Y024636D01*
X001412Y024794D01*
X001254Y040036D02*
X000938Y040036D01*
X000780Y040194D01*
X000780Y040826D01*
X000938Y040984D01*
X001254Y040984D01*
X001412Y040826D01*
X001412Y040194D02*
X001254Y040036D01*
X009313Y042009D02*
X009943Y042009D01*
X001254Y055436D02*
X000780Y055436D01*
X000780Y056384D01*
X001254Y056384D01*
X001412Y056226D01*
X001412Y056068D01*
X001254Y055910D01*
X000780Y055910D01*
X001254Y055910D02*
X001412Y055752D01*
X001412Y055594D01*
X001254Y055436D01*
D14*
X014503Y063629D03*
X009943Y025509D03*
X014503Y021629D03*
X060563Y025509D03*
D15*
X061193Y025509D01*
X060563Y025509D02*
X057193Y025509D01*
X014503Y025009D02*
X014503Y021009D01*
X013313Y025509D02*
X009943Y025509D01*
X009313Y025509D01*
X014503Y060259D02*
X014503Y063629D01*
X014503Y064259D01*
D16*
X085538Y007335D02*
X085670Y007335D01*
X085670Y006544D01*
X085538Y006544D02*
X085802Y006544D01*
X086066Y006544D02*
X086330Y006544D01*
X086198Y006544D02*
X086198Y007071D01*
X086066Y007071D01*
X086198Y007335D02*
X086198Y007467D01*
X086594Y006940D02*
X086594Y006676D01*
X086726Y006544D01*
X087121Y006544D01*
X087121Y006413D02*
X087121Y007071D01*
X086726Y007071D01*
X086594Y006940D01*
X086858Y006281D02*
X086989Y006281D01*
X087121Y006413D01*
X087386Y006544D02*
X087386Y007335D01*
X087518Y007071D02*
X087781Y007071D01*
X087913Y006940D01*
X087913Y006544D01*
X088310Y006676D02*
X088441Y006544D01*
X088310Y006676D02*
X088310Y007203D01*
X088441Y007071D02*
X088178Y007071D01*
X088706Y007071D02*
X088838Y007071D01*
X088838Y006544D01*
X088969Y006544D02*
X088706Y006544D01*
X089234Y006544D02*
X089234Y007071D01*
X089629Y007071D01*
X089761Y006940D01*
X089761Y006544D01*
X090026Y006676D02*
X090157Y006544D01*
X090553Y006544D01*
X090553Y006413D02*
X090553Y007071D01*
X090157Y007071D01*
X090026Y006940D01*
X090026Y006676D01*
X090289Y006281D02*
X090421Y006281D01*
X090553Y006413D01*
X090817Y006413D02*
X091344Y006413D01*
X091609Y006676D02*
X091741Y006544D01*
X092136Y006544D01*
X092533Y006676D02*
X092665Y006544D01*
X092533Y006676D02*
X092533Y007203D01*
X092401Y007071D02*
X092665Y007071D01*
X092929Y007335D02*
X093061Y007335D01*
X093061Y006544D01*
X092929Y006544D02*
X093193Y006544D01*
X093457Y006413D02*
X093984Y006413D01*
X094381Y006544D02*
X094381Y007203D01*
X094512Y007335D01*
X094777Y007071D02*
X095040Y007071D01*
X094908Y007203D02*
X094908Y006676D01*
X095040Y006544D01*
X095305Y006544D02*
X095832Y007071D01*
X095832Y007203D01*
X095700Y007335D01*
X095436Y007335D01*
X095305Y007203D01*
X095305Y006544D02*
X095832Y006544D01*
X096096Y006940D02*
X096624Y006940D01*
X096888Y006940D02*
X097152Y007071D01*
X097284Y007071D01*
X097415Y006940D01*
X097415Y006676D01*
X097284Y006544D01*
X097020Y006544D01*
X096888Y006676D01*
X096888Y006940D02*
X096888Y007335D01*
X097415Y007335D01*
X096492Y007335D02*
X096492Y006544D01*
X096096Y006940D02*
X096492Y007335D01*
X094512Y006940D02*
X094249Y006940D01*
X094240Y005375D02*
X094240Y004960D01*
X094517Y005098D01*
X094655Y005098D01*
X094793Y004960D01*
X094793Y004683D01*
X094655Y004544D01*
X094378Y004544D01*
X094240Y004683D01*
X093965Y004683D02*
X093965Y005237D01*
X093411Y004683D01*
X093549Y004544D01*
X093826Y004544D01*
X093965Y004683D01*
X093965Y005237D02*
X093826Y005375D01*
X093549Y005375D01*
X093411Y005237D01*
X093411Y004683D01*
X093135Y004683D02*
X093135Y004544D01*
X092997Y004544D01*
X092997Y004683D01*
X093135Y004683D01*
X093135Y004960D02*
X092997Y004960D01*
X092997Y005098D01*
X093135Y005098D01*
X093135Y004960D01*
X092722Y004544D02*
X092168Y004544D01*
X091893Y004544D02*
X091339Y004544D01*
X091616Y004544D02*
X091616Y005375D01*
X091339Y005098D01*
X092168Y005098D02*
X092445Y005375D01*
X092445Y004544D01*
X094240Y005375D02*
X094793Y005375D01*
X095897Y005375D02*
X095897Y004544D01*
X095897Y004821D02*
X096312Y004821D01*
X096451Y004960D01*
X096451Y005237D01*
X096312Y005375D01*
X095897Y005375D01*
X096726Y005375D02*
X096726Y004544D01*
X097280Y004544D02*
X097280Y005375D01*
X097003Y005098D01*
X096726Y005375D01*
X092136Y007071D02*
X091741Y007071D01*
X091609Y006940D01*
X091609Y006676D01*
X090236Y005237D02*
X090236Y005098D01*
X090097Y004960D01*
X090236Y004821D01*
X090236Y004683D01*
X090097Y004544D01*
X089820Y004544D01*
X089682Y004683D01*
X089407Y004544D02*
X088853Y004544D01*
X089130Y004544D02*
X089130Y005375D01*
X088853Y005098D01*
X088578Y005375D02*
X088024Y004544D01*
X087749Y004683D02*
X087749Y004821D01*
X087611Y004960D01*
X087196Y004960D01*
X087196Y004683D01*
X087334Y004544D01*
X087611Y004544D01*
X087749Y004683D01*
X087473Y005237D02*
X087196Y004960D01*
X087473Y005237D02*
X087749Y005375D01*
X086921Y005375D02*
X086367Y004544D01*
X086092Y004544D02*
X085538Y004544D01*
X086092Y005098D01*
X086092Y005237D01*
X085954Y005375D01*
X085677Y005375D01*
X085538Y005237D01*
X087386Y006940D02*
X087518Y007071D01*
X088838Y007335D02*
X088838Y007467D01*
X089820Y005375D02*
X090097Y005375D01*
X090236Y005237D01*
X090097Y004960D02*
X089959Y004960D01*
X089682Y005237D02*
X089820Y005375D01*
D17*
X105503Y000509D02*
X000503Y000509D01*
X000503Y080509D01*
X105503Y080509D01*
X105503Y000509D01*
D18*
X104003Y002009D02*
X104003Y079009D01*
X002003Y079009D01*
X002003Y002009D01*
X104003Y002009D01*
X091253Y002009D02*
X091253Y000509D01*
X078503Y000509D02*
X078503Y002009D01*
X065753Y002009D02*
X065753Y000509D01*
X053003Y000509D02*
X053003Y002009D01*
X040253Y002009D02*
X040253Y000509D01*
X027503Y000509D02*
X027503Y002009D01*
X014753Y002009D02*
X014753Y000509D01*
X002003Y017409D02*
X000503Y017409D01*
X000503Y032809D02*
X002003Y032809D01*
X002003Y048209D02*
X000503Y048209D01*
X000503Y063609D02*
X002003Y063609D01*
X014753Y079009D02*
X014753Y080509D01*
X027503Y080509D02*
X027503Y079009D01*
X040253Y079009D02*
X040253Y080509D01*
X053003Y080509D02*
X053003Y079009D01*
X065753Y079009D02*
X065753Y080509D01*
X078503Y080509D02*
X078503Y079009D01*
X091253Y079009D02*
X091253Y080509D01*
X104003Y063609D02*
X105503Y063609D01*
X105503Y048209D02*
X104003Y048209D01*
X104003Y032809D02*
X105503Y032809D01*
X105503Y017409D02*
X104003Y017409D01*
D19*
X084753Y008509D02*
X063503Y008509D01*
X063503Y007009D02*
X084753Y007009D01*
X084753Y005509D02*
X063503Y005509D01*
X063503Y004009D02*
X084753Y004009D01*
X075503Y002009D02*
X075503Y010009D01*
M02*
